<?xml version="1.0" encoding="UTF-8"?>
<!DOCTYPE svg PUBLIC "-//W3C//DTD SVG 1.1//EN" "http://www.w3.org/Graphics/SVG/1.1/DTD/svg11.dtd">
<!-- Creator: CorelDRAW 2018 (64-Bit) -->
<svg xmlns="http://www.w3.org/2000/svg" xml:space="preserve" width="354px" height="117px" version="1.1" style="shape-rendering:geometricPrecision; text-rendering:geometricPrecision; image-rendering:optimizeQuality; fill-rule:evenodd; clip-rule:evenodd"
viewBox="0 0 32.01 10.6"
 xmlns:xlink="http://www.w3.org/1999/xlink">
 <defs>
  <style type="text/css">
   <![CDATA[
    .fil1 {fill:#332C2B}
    .fil2 {fill:#1C8ABC;fill-rule:nonzero}
    .fil3 {fill:#757475;fill-rule:nonzero}
    .fil0 {fill:url(#id4)}
   ]]>
  </style>
     <mask id="id0">
  <linearGradient id="id1" gradientUnits="userSpaceOnUse" x1="3.9" y1="2.91" x2="3.94" y2="4.66">
   <stop offset="0" style="stop-opacity:1; stop-color:white"/>
   <stop offset="1" style="stop-opacity:0; stop-color:white"/>
  </linearGradient>
      <rect style="fill:url(#id1)" x="3.24" y="3.48" width="1.36" height="1.36"/>
     </mask>
     <mask id="id2">
  <linearGradient id="id3" gradientUnits="userSpaceOnUse" x1="3.9" y1="7.69" x2="3.94" y2="5.94">
   <stop offset="0" style="stop-opacity:1; stop-color:white"/>
   <stop offset="1" style="stop-opacity:0; stop-color:white"/>
  </linearGradient>
      <rect style="fill:url(#id3)" x="3.24" y="5.76" width="1.36" height="1.36"/>
     </mask>
  <linearGradient id="id4" gradientUnits="userSpaceOnUse" x1="2.07" y1="9.51" x2="8.36" y2="0.97">
   <stop offset="0" style="stop-opacity:1; stop-color:#1C8ABC"/>
   <stop offset="1" style="stop-opacity:1; stop-color:#1FDBD6"/>
  </linearGradient>
 </defs>
 <g id="Layer_x0020_1">
  <metadata id="CorelCorpID_0Corel-Layer"/>
  <g id="_2474199137184">
   <g>
    <path class="fil0" d="M5.3 0c2.93,0 5.3,2.37 5.3,5.3 0,1.05 -0.3,2.03 -0.83,2.85l-1.47 0 -1.05 0 -1.65 0 -0.43 0 -1.82 0 0 -4.56 -1.82 0c-0.23,0.52 -0.37,1.1 -0.37,1.71 0,2.29 1.86,4.14 4.14,4.14 0.78,0 1.51,-0.22 2.13,-0.59l1.81 0c-0.97,1.08 -2.37,1.75 -3.94,1.75 -2.93,0 -5.3,-2.37 -5.3,-5.3 0,-1.05 0.3,-2.02 0.83,-2.85l1.47 0 1.05 0 1.67 0 0.4 0 1.83 0 0 1.14 -1.83 0 -0.93 0 0 1.14 1.87 0 0 1.14 -1.87 0 0 1.14 0.68 0 2.08 0 1.82 0c0.24,-0.52 0.37,-1.1 0.37,-1.71 0,-2.28 -1.85,-4.14 -4.14,-4.14 -0.78,0 -1.51,0.22 -2.13,0.59l-1.81 0c0.97,-1.07 2.38,-1.75 3.94,-1.75z"/>
    <polygon class="fil1" style="mask:url(#id0)" points="3.35,4.73 4.49,4.73 4.49,3.59 3.35,3.59 "/>
    <polygon class="fil1" style="mask:url(#id2)" points="3.35,5.87 4.49,5.87 4.49,7.01 3.35,7.01 "/>
   </g>
   <path class="fil2" d="M15.3 4.95l-3.05 0 0 -4.44 3.05 0 0 0.89 -2.16 0 0 0.88 1.46 0 0 0.89 -1.46 0 0 0.89 2.16 0 0 0.89zm3.73 0l-3.11 0 0 -4.44 0.89 0 0 3.55 2.22 0 0 0.89zm3.41 -4.44l-1.46 4.44 -0.89 0 -1.45 -4.44 1.01 0 0.89 2.96 0.89 -2.96 1.01 0zm1.32 4.44l-0.89 0 0 -4.44 0.89 0 0 4.44zm0.56 -3.11c0,-0.19 0.04,-0.36 0.11,-0.52 0.07,-0.16 0.16,-0.3 0.28,-0.42 0.12,-0.12 0.26,-0.22 0.42,-0.29 0.17,-0.07 0.34,-0.1 0.52,-0.1l2.04 0 0 0.89 -2.04 0c-0.06,0 -0.12,0.01 -0.17,0.03 -0.06,0.02 -0.1,0.05 -0.14,0.09 -0.04,0.04 -0.07,0.09 -0.1,0.14 -0.02,0.06 -0.03,0.12 -0.03,0.18 0,0.06 0.01,0.12 0.03,0.17 0.03,0.06 0.06,0.11 0.1,0.15 0.04,0.04 0.08,0.07 0.14,0.09 0.05,0.02 0.11,0.03 0.17,0.03l0.89 0c0.19,0 0.36,0.04 0.52,0.11 0.16,0.07 0.3,0.16 0.42,0.28 0.13,0.12 0.22,0.27 0.29,0.43 0.07,0.16 0.1,0.33 0.1,0.52 0,0.18 -0.03,0.35 -0.1,0.51 -0.07,0.17 -0.16,0.31 -0.29,0.43 -0.12,0.12 -0.26,0.21 -0.42,0.28 -0.16,0.07 -0.33,0.11 -0.52,0.11l-1.97 0 0 -0.89 1.97 0c0.06,0 0.12,-0.01 0.17,-0.03 0.06,-0.03 0.11,-0.06 0.15,-0.1 0.04,-0.04 0.07,-0.09 0.09,-0.14 0.02,-0.05 0.03,-0.11 0.03,-0.17 0,-0.07 -0.01,-0.12 -0.03,-0.18 -0.02,-0.05 -0.05,-0.1 -0.09,-0.14 -0.04,-0.04 -0.09,-0.07 -0.15,-0.09 -0.05,-0.03 -0.11,-0.04 -0.17,-0.04l-0.89 0c-0.18,0 -0.35,-0.03 -0.52,-0.1 -0.16,-0.07 -0.3,-0.17 -0.42,-0.29 -0.12,-0.12 -0.21,-0.26 -0.28,-0.42 -0.07,-0.17 -0.11,-0.34 -0.11,-0.52zm5.02 3.11l-0.88 0 0 -4.44 0.88 0 0 1.77 1.78 0 0 -1.77 0.89 0 0 4.44 -0.89 0 0 -1.78 -1.78 0 0 1.78z"/>
   <path class="fil3" d="M19.54 10.13l-3.12 0 0 -4.45 0.89 0 0 3.56 2.23 0 0 0.89zm3.08 -1.78l0 -0.89c0,-0.12 -0.03,-0.23 -0.07,-0.34 -0.05,-0.11 -0.11,-0.21 -0.19,-0.29 -0.08,-0.08 -0.18,-0.14 -0.29,-0.19 -0.11,-0.04 -0.22,-0.07 -0.34,-0.07 -0.13,0 -0.24,0.03 -0.35,0.07 -0.11,0.05 -0.2,0.11 -0.28,0.19 -0.08,0.08 -0.15,0.18 -0.19,0.29 -0.05,0.11 -0.07,0.22 -0.07,0.34l0 0.89 1.78 0zm0.89 1.78l-0.89 0 0 -0.89 -1.78 0 0 0.89 -0.89 0 0 -2.67c0,-0.24 0.05,-0.47 0.14,-0.69 0.09,-0.22 0.22,-0.4 0.38,-0.57 0.16,-0.16 0.35,-0.28 0.56,-0.38 0.22,-0.09 0.45,-0.14 0.7,-0.14 0.24,0 0.47,0.05 0.69,0.14 0.22,0.1 0.4,0.22 0.57,0.38 0.16,0.17 0.28,0.35 0.38,0.57 0.09,0.22 0.14,0.45 0.14,0.69l0 2.67zm4.33 -1.33c0,0.18 -0.04,0.35 -0.11,0.52 -0.07,0.16 -0.16,0.3 -0.29,0.42 -0.12,0.12 -0.26,0.22 -0.42,0.29 -0.16,0.07 -0.33,0.1 -0.52,0.1l-2.22 0 0 -4.45 2.22 0c0.19,0 0.36,0.04 0.52,0.11 0.16,0.07 0.3,0.16 0.42,0.29 0.13,0.12 0.22,0.26 0.29,0.42 0.07,0.16 0.11,0.33 0.11,0.52 0,0.08 -0.01,0.16 -0.04,0.25 -0.02,0.09 -0.05,0.17 -0.09,0.25 -0.04,0.08 -0.09,0.16 -0.15,0.22 -0.06,0.07 -0.12,0.12 -0.19,0.17 0.07,0.04 0.13,0.09 0.19,0.16 0.06,0.06 0.11,0.14 0.15,0.22 0.04,0.08 0.07,0.16 0.09,0.25 0.03,0.09 0.04,0.17 0.04,0.26zm-2.67 0.44l1.33 0c0.07,0 0.12,-0.01 0.18,-0.03 0.05,-0.03 0.1,-0.06 0.14,-0.1 0.04,-0.04 0.07,-0.08 0.09,-0.14 0.03,-0.05 0.04,-0.11 0.04,-0.17 0,-0.06 -0.01,-0.12 -0.04,-0.18 -0.02,-0.05 -0.05,-0.1 -0.09,-0.14 -0.04,-0.04 -0.09,-0.07 -0.14,-0.09 -0.06,-0.02 -0.11,-0.04 -0.18,-0.04l-1.33 0 0 0.89zm0 -1.78l1.33 0c0.07,0 0.12,-0.01 0.18,-0.03 0.05,-0.02 0.1,-0.05 0.14,-0.09 0.04,-0.05 0.07,-0.09 0.09,-0.15 0.03,-0.05 0.04,-0.11 0.04,-0.17 0,-0.07 -0.01,-0.12 -0.04,-0.18 -0.02,-0.05 -0.05,-0.1 -0.09,-0.14 -0.04,-0.04 -0.09,-0.07 -0.14,-0.09 -0.06,-0.03 -0.11,-0.04 -0.18,-0.04l-1.33 0 0 0.89z"/>
  </g>
 </g>
</svg>
