<?xml version="1.0" encoding="UTF-8"?>
<!DOCTYPE svg PUBLIC "-//W3C//DTD SVG 1.1//EN" "http://www.w3.org/Graphics/SVG/1.1/DTD/svg11.dtd">
<!-- Creator: CorelDRAW 2018 (64-Bit) -->
<svg xmlns="http://www.w3.org/2000/svg" xml:space="preserve" width="354px" height="176px" version="1.1" style="shape-rendering:geometricPrecision; text-rendering:geometricPrecision; image-rendering:optimizeQuality; fill-rule:evenodd; clip-rule:evenodd"
viewBox="0 0 21.13 10.47"
 xmlns:xlink="http://www.w3.org/1999/xlink">
 <defs>
  <style type="text/css">
   <![CDATA[
    .fil0 {fill:#33526F;fill-rule:nonzero}
   ]]>
  </style>
 </defs>
 <g id="Layer_x0020_1">
  <metadata id="CorelCorpID_0Corel-Layer"/>
  <path class="fil0" d="M13.28 4.63l0.31 1.19 0.31 -1.19 0.43 0 0 1.65 -0.33 0 0 -0.45 0.03 -0.69 -0.33 1.14 -0.23 0 -0.33 -1.14 0.04 0.69 0 0.45 -0.34 0 0 -1.65 0.44 0zm-10.91 2.53l1.12 0.43 5.68 -2.87 0 4.82 2.82 0.85 0 -5.86 -2.82 -1.1 -2.77 1.52 -2.62 -0.84 -0.03 2.24 -1.38 0.81zm1.2 -5.74c0.05,0.03 0.08,0.08 0.08,0.14 0,0.04 -0.02,0.08 -0.04,0.11l2.58 1.05 -0.16 0.15 -2.53 -1 -1.73 1.36 -0.22 -0.07 1.83 -1.5c-0.03,-0.03 -0.04,-0.06 -0.04,-0.1 0,-0.06 0.03,-0.11 0.08,-0.14 -0.05,-0.03 -0.08,-0.08 -0.08,-0.14 0,-0.06 0.03,-0.11 0.09,-0.14 -0.06,-0.02 -0.09,-0.08 -0.09,-0.14 0,-0.06 0.03,-0.11 0.08,-0.13 -0.05,-0.03 -0.08,-0.08 -0.08,-0.14 0,-0.07 0.05,-0.13 0.11,-0.15l0 -0.58 0.08 0 0 0.58c0.07,0.02 0.12,0.08 0.12,0.15 0,0.06 -0.03,0.11 -0.08,0.14 0.05,0.02 0.08,0.07 0.08,0.13 0,0.06 -0.04,0.12 -0.09,0.14 0.05,0.03 0.09,0.08 0.09,0.14 0,0.06 -0.03,0.11 -0.08,0.14zm-2.88 2.86l0.31 0.07 2.51 -1.9 3.63 1.35 0.32 -0.23 -3.98 -1.5 -2.79 2.21zm-0.69 1.09l1.14 0.4 0.01 -0.29 2.59 -1.75 2.67 0.91 0.88 -0.46 -3.83 -1.43 -3.46 2.62zm15.67 -0.74l0 1.14c0,0.17 -0.05,0.3 -0.14,0.39 -0.09,0.09 -0.22,0.14 -0.4,0.14 -0.17,0 -0.31,-0.05 -0.4,-0.14 -0.1,-0.09 -0.14,-0.22 -0.14,-0.4l0 -1.13 0.33 0 0 1.13c0,0.1 0.02,0.16 0.05,0.2 0.03,0.04 0.08,0.06 0.16,0.06 0.08,0 0.14,-0.02 0.16,-0.06 0.03,-0.04 0.05,-0.1 0.05,-0.19l0 -1.14 0.33 0zm0.95 1.21c0,-0.06 -0.02,-0.11 -0.05,-0.15 -0.03,-0.03 -0.1,-0.07 -0.19,-0.1 -0.16,-0.07 -0.28,-0.14 -0.35,-0.23 -0.08,-0.08 -0.11,-0.18 -0.11,-0.29 0,-0.14 0.05,-0.25 0.15,-0.34 0.09,-0.08 0.22,-0.12 0.37,-0.12 0.1,0 0.19,0.02 0.27,0.06 0.08,0.04 0.14,0.1 0.18,0.18 0.05,0.08 0.07,0.17 0.07,0.27l-0.33 0c0,-0.08 -0.02,-0.14 -0.05,-0.18 -0.04,-0.04 -0.08,-0.06 -0.14,-0.06 -0.06,0 -0.11,0.02 -0.14,0.05 -0.03,0.03 -0.05,0.08 -0.05,0.14 0,0.04 0.02,0.09 0.06,0.12 0.03,0.04 0.1,0.08 0.19,0.12 0.16,0.05 0.28,0.12 0.35,0.21 0.07,0.08 0.11,0.19 0.11,0.32 0,0.15 -0.05,0.26 -0.14,0.34 -0.09,0.08 -0.22,0.12 -0.37,0.12 -0.11,0 -0.21,-0.02 -0.29,-0.07 -0.09,-0.04 -0.16,-0.1 -0.21,-0.18 -0.05,-0.09 -0.07,-0.18 -0.07,-0.29l0.33 0c0,0.09 0.02,0.16 0.06,0.2 0.03,0.05 0.09,0.07 0.18,0.07 0.11,0 0.17,-0.06 0.17,-0.19zm1.41 -0.27l-0.52 0 0 0.43 0.61 0 0 0.28 -0.94 0 0 -1.65 0.94 0 0 0.28 -0.61 0 0 0.39 0.52 0 0 0.27zm1.36 -0.94l0 1.14c0,0.17 -0.05,0.3 -0.14,0.39 -0.1,0.09 -0.23,0.14 -0.4,0.14 -0.18,0 -0.32,-0.05 -0.41,-0.14 -0.09,-0.09 -0.14,-0.22 -0.14,-0.4l0 -1.13 0.34 0 0 1.13c0,0.1 0.01,0.16 0.04,0.2 0.03,0.04 0.09,0.06 0.17,0.06 0.08,0 0.13,-0.02 0.16,-0.06 0.03,-0.04 0.04,-0.1 0.04,-0.19l0 -1.14 0.34 0zm0.69 0l0.31 1.19 0.31 -1.19 0.43 0 0 1.65 -0.33 0 0 -0.45 0.03 -0.69 -0.33 1.14 -0.23 0 -0.33 -1.14 0.03 0.69 0 0.45 -0.33 0 0 -1.65 0.44 0zm-6.12 3.55c-0.06,0.07 -0.14,0.12 -0.23,0.15 -0.1,0.04 -0.2,0.06 -0.31,0.06 -0.19,0 -0.34,-0.06 -0.44,-0.18 -0.11,-0.12 -0.16,-0.29 -0.16,-0.51l0 -0.3c0,-0.23 0.05,-0.4 0.15,-0.52 0.1,-0.13 0.24,-0.19 0.43,-0.19 0.18,0 0.31,0.05 0.41,0.13 0.09,0.09 0.14,0.23 0.15,0.42l-0.32 0c-0.01,-0.1 -0.03,-0.18 -0.07,-0.21 -0.03,-0.04 -0.09,-0.06 -0.16,-0.06 -0.09,0 -0.15,0.03 -0.19,0.1 -0.05,0.06 -0.07,0.17 -0.07,0.31l0 0.3c0,0.15 0.02,0.26 0.07,0.33 0.04,0.07 0.12,0.1 0.22,0.1 0.07,0 0.12,-0.01 0.16,-0.04l0.03 -0.02 0 -0.3 -0.23 0 0 -0.25 0.56 0 0 0.68zm1.09 -0.53l-0.52 0 0 0.44 0.62 0 0 0.27 -0.95 0 0 -1.64 0.94 0 0 0.27 -0.61 0 0 0.39 0.52 0 0 0.27zm0.29 0.71l0 -1.64 0.43 0c0.2,0 0.35,0.06 0.46,0.18 0.12,0.12 0.18,0.29 0.18,0.5l0 0.27c0,0.22 -0.06,0.39 -0.17,0.51 -0.12,0.12 -0.28,0.18 -0.48,0.18l-0.42 0zm0.33 -1.37l0 1.1 0.1 0c0.11,0 0.19,-0.03 0.23,-0.09 0.05,-0.06 0.07,-0.16 0.08,-0.3l0 -0.29c0,-0.15 -0.03,-0.26 -0.07,-0.32 -0.04,-0.06 -0.12,-0.09 -0.22,-0.1l-0.12 0zm2.05 -0.27l0 1.14c0,0.17 -0.05,0.3 -0.14,0.39 -0.1,0.09 -0.23,0.14 -0.4,0.14 -0.18,0 -0.31,-0.05 -0.41,-0.14 -0.09,-0.09 -0.14,-0.23 -0.14,-0.4l0 -1.13 0.34 0 0 1.13c0,0.09 0.01,0.16 0.04,0.2 0.03,0.04 0.09,0.06 0.17,0.06 0.08,0 0.13,-0.02 0.16,-0.06 0.03,-0.04 0.05,-0.1 0.05,-0.19l0 -1.14 0.33 0zm1.4 1.64l-0.33 0 -0.49 -1.08 0 1.08 -0.33 0 0 -1.64 0.33 0 0.49 1.08 0 -1.08 0.33 0 0 1.64zm1.39 -0.18c-0.06,0.07 -0.14,0.12 -0.23,0.15 -0.1,0.04 -0.2,0.06 -0.31,0.06 -0.19,0 -0.34,-0.06 -0.44,-0.18 -0.11,-0.12 -0.16,-0.29 -0.16,-0.51l0 -0.3c0,-0.23 0.05,-0.4 0.15,-0.52 0.1,-0.13 0.24,-0.19 0.43,-0.19 0.18,0 0.31,0.05 0.4,0.13 0.1,0.09 0.15,0.23 0.16,0.42l-0.32 0c-0.01,-0.1 -0.03,-0.18 -0.07,-0.21 -0.03,-0.04 -0.09,-0.06 -0.16,-0.06 -0.09,0 -0.16,0.03 -0.2,0.1 -0.04,0.06 -0.06,0.17 -0.06,0.31l0 0.3c0,0.15 0.02,0.26 0.07,0.33 0.04,0.07 0.12,0.1 0.22,0.1 0.07,0 0.12,-0.01 0.16,-0.04l0.03 -0.02 0 -0.3 -0.23 0 0 -0.25 0.56 0 0 0.68zm-6.97 1.84c0,-0.07 -0.02,-0.12 -0.05,-0.15 -0.04,-0.04 -0.1,-0.07 -0.19,-0.11 -0.17,-0.06 -0.28,-0.14 -0.36,-0.22 -0.07,-0.08 -0.11,-0.18 -0.11,-0.3 0,-0.14 0.05,-0.25 0.15,-0.33 0.1,-0.09 0.23,-0.13 0.38,-0.13 0.1,0 0.19,0.02 0.27,0.06 0.08,0.05 0.14,0.11 0.18,0.18 0.04,0.08 0.06,0.17 0.06,0.27l-0.33 0c0,-0.08 -0.01,-0.14 -0.05,-0.18 -0.03,-0.04 -0.08,-0.06 -0.14,-0.06 -0.06,0 -0.1,0.02 -0.13,0.05 -0.04,0.04 -0.05,0.09 -0.05,0.14 0,0.05 0.02,0.09 0.05,0.13 0.04,0.03 0.1,0.07 0.19,0.11 0.17,0.06 0.28,0.13 0.35,0.21 0.08,0.09 0.11,0.2 0.11,0.33 0,0.14 -0.04,0.25 -0.13,0.33 -0.09,0.08 -0.22,0.12 -0.38,0.12 -0.1,0 -0.2,-0.02 -0.29,-0.06 -0.08,-0.05 -0.15,-0.11 -0.2,-0.19 -0.05,-0.08 -0.08,-0.18 -0.08,-0.29l0.34 0c0,0.1 0.02,0.17 0.05,0.21 0.04,0.04 0.1,0.06 0.18,0.06 0.12,0 0.18,-0.06 0.18,-0.18zm1.34 0.1l-0.45 0 -0.09 0.33 -0.35 0 0.51 -1.65 0.31 0 0.52 1.65 -0.36 0 -0.09 -0.33zm-0.38 -0.28l0.31 0 -0.16 -0.59 -0.15 0.59zm1.91 -0.76l-0.41 0 0 1.37 -0.33 0 0 -1.37 -0.4 0 0 -0.28 1.14 0 0 0.28zm1.04 0.66l-0.51 0 0 0.44 0.61 0 0 0.27 -0.95 0 0 -1.65 0.95 0 0 0.28 -0.61 0 0 0.39 0.51 0 0 0.27z"/>
 </g>
</svg>
