<?xml version="1.0" encoding="UTF-8"?>
<!DOCTYPE svg PUBLIC "-//W3C//DTD SVG 1.1//EN" "http://www.w3.org/Graphics/SVG/1.1/DTD/svg11.dtd">
<!-- Creator: CorelDRAW 2018 (64-Bit) -->
<svg xmlns="http://www.w3.org/2000/svg" xml:space="preserve" width="354px" height="131px" version="1.1" style="shape-rendering:geometricPrecision; text-rendering:geometricPrecision; image-rendering:optimizeQuality; fill-rule:evenodd; clip-rule:evenodd"
viewBox="0 0 32.01 11.88"
 xmlns:xlink="http://www.w3.org/1999/xlink">
 <defs>
  <style type="text/css">
   <![CDATA[
    .fil0 {fill:#55BFB9}
   ]]>
  </style>
 </defs>
 <g id="Layer_x0020_1">
  <metadata id="CorelCorpID_0Corel-Layer"/>
  <path class="fil0" d="M26.3 6.24c0.26,-0.35 1.07,-1.07 1.29,-0.33 0.23,0.77 -0.54,1.28 -1.21,0.98 -0.34,-0.15 -0.23,-0.41 -0.08,-0.65zm-16.48 0c0.27,-0.35 1.08,-1.07 1.3,-0.33 0.23,0.77 -0.55,1.28 -1.21,0.98 -0.34,-0.15 -0.24,-0.41 -0.09,-0.65zm2.01 1.86c0.93,0.02 1.85,-0.06 2.79,0 0.51,0.03 0.91,-0.45 0.91,-0.94 -0.02,-1.48 -1.76,-3.12 -3.21,-3.21 -1.36,-0.08 -2.56,0.21 -3.57,1.17 -0.92,0.92 -1.26,1.85 -1.18,3.15 0.03,0.56 0.26,1.11 0.46,1.64 0.11,0.31 0.22,0.46 0.43,0.71 0.58,0.64 1.16,0.87 2.01,1.09 1.02,0.25 2.31,0.26 3.25,-0.26 0.37,-0.2 1.43,-0.79 0.97,-1.33 -0.3,-0.34 -1.11,-0.01 -1.48,0.09 -0.66,0.18 -1.72,0.2 -2.4,0.13 -0.8,-0.07 -1.28,-0.56 -1.51,-1.32 -0.44,-1.44 1.66,-0.96 2.44,-0.92l0.09 0zm-2.85 -5.15c0.77,0.31 2.04,-0.37 3.08,-0.2 0.74,0.11 2.09,0.63 2.4,-0.41 0.19,-0.65 -0.43,-1.27 -1.05,-1.36 -0.39,-0.07 -1.04,-0.12 -1.45,-0.14 -0.98,-0.07 -2.08,0.1 -2.97,0.52 -0.46,0.27 -0.45,0.65 -0.34,1.12 0.07,0.21 0.15,0.34 0.33,0.47zm-2.37 2.78c0.01,-0.68 0.15,-5.48 -0.3,-5.67 -0.24,-0.09 -0.97,-0.08 -1.21,0.05 -0.55,0.29 -0.35,1.35 -0.33,1.88 0.01,0.22 0.03,1.4 -0.21,1.47 -0.21,0.07 -2.45,0.07 -2.64,0 -0.38,-0.16 -0.23,-1.21 -0.21,-1.57 0.01,-0.28 0.09,-1.58 -0.23,-1.7 -0.84,-0.26 -1.33,0.03 -1.44,0.89 -0.1,0.71 0.02,1.79 0.03,2.56 0.02,1.2 0,2.4 0,3.6 0,0.28 -0.06,0.9 0.31,1.01 0.57,0.19 1.2,0.19 1.4,-0.49 0.17,-0.59 -0.03,-2.21 0.2,-2.49 0.16,-0.21 2.61,-0.2 2.69,0.07 0.08,0.27 -0.04,1.57 0.03,2.05 0.03,0.2 0.23,0.79 0.41,0.87 0.25,0.1 0.87,0.14 1.11,-0.08 0.53,-0.48 0.38,-1.77 0.39,-2.45zm21.69 2.37c0.94,0.02 1.86,-0.06 2.79,0 0.52,0.03 0.91,-0.45 0.92,-0.94 -0.03,-1.48 -1.76,-3.12 -3.21,-3.21 -1.37,-0.08 -2.56,0.21 -3.58,1.17 -0.92,0.92 -1.25,1.85 -1.17,3.15 0.03,0.56 0.26,1.11 0.45,1.64 0.12,0.31 0.22,0.46 0.44,0.71 0.58,0.64 1.15,0.87 2.01,1.09 1.02,0.25 2.31,0.26 3.25,-0.26 0.37,-0.2 1.43,-0.79 0.97,-1.33 -0.3,-0.34 -1.12,-0.01 -1.48,0.09 -0.66,0.18 -1.72,0.2 -2.4,0.13 -0.8,-0.07 -1.28,-0.56 -1.52,-1.32 -0.44,-1.44 1.67,-0.96 2.44,-0.92l0.09 0zm-2.85 -5.15c0.77,0.31 2.04,-0.37 3.08,-0.2 0.74,0.11 2.1,0.63 2.4,-0.41 0.2,-0.65 -0.43,-1.27 -1.04,-1.36 -0.39,-0.07 -1.05,-0.12 -1.45,-0.14 -0.98,-0.07 -2.08,0.1 -2.97,0.52 -0.46,0.27 -0.46,0.65 -0.34,1.12 0.06,0.21 0.14,0.34 0.32,0.47zm-2.37 2.78c0.01,-0.68 0.16,-5.48 -0.3,-5.67 -0.23,-0.09 -0.96,-0.08 -1.21,0.05 -0.54,0.29 -0.34,1.35 -0.32,1.88 0,0.22 0.02,1.4 -0.21,1.47 -0.21,0.07 -2.45,0.07 -2.65,0 -0.37,-0.16 -0.22,-1.21 -0.21,-1.57 0.02,-0.28 0.09,-1.58 -0.23,-1.7 -0.83,-0.26 -1.32,0.03 -1.44,0.89 -0.09,0.71 0.03,1.79 0.04,2.56 0.02,1.2 0,2.4 -0.01,3.6 0,0.28 -0.05,0.9 0.31,1.01 0.58,0.19 1.2,0.19 1.4,-0.49 0.18,-0.59 -0.02,-2.21 0.2,-2.49 0.16,-0.21 2.61,-0.2 2.7,0.07 0.08,0.27 -0.04,1.57 0.03,2.05 0.02,0.2 0.22,0.79 0.41,0.87 0.25,0.1 0.87,0.14 1.11,-0.08 0.53,-0.48 0.37,-1.77 0.38,-2.45zm-0.88 5.57c0.1,-0.45 0.1,-1 -0.5,-0.97 -0.44,0.03 -0.99,0.19 -1.49,0.23 -0.96,0.08 -1.55,-0.14 -2.44,-0.19 -0.63,-0.03 -0.67,0.32 -0.44,0.83 0.09,0.2 0.58,0.28 0.77,0.32 1.17,0.29 2.4,0.35 3.54,-0.04 0.07,-0.02 0.54,-0.14 0.55,-0.15l0.01 -0.03z"/>
 </g>
</svg>
