<?xml version="1.0" encoding="UTF-8"?>
<!DOCTYPE svg PUBLIC "-//W3C//DTD SVG 1.1//EN" "http://www.w3.org/Graphics/SVG/1.1/DTD/svg11.dtd">
<!-- Creator: CorelDRAW 2018 (64-Bit) -->
<svg xmlns="http://www.w3.org/2000/svg" xml:space="preserve" width="354px" height="156px" version="1.1" style="shape-rendering:geometricPrecision; text-rendering:geometricPrecision; image-rendering:optimizeQuality; fill-rule:evenodd; clip-rule:evenodd"
viewBox="0 0 17.93 7.89"
 xmlns:xlink="http://www.w3.org/1999/xlink">
 <defs>
  <style type="text/css">
   <![CDATA[
    .fil1 {fill:#009444}
    .fil17 {fill:#00A59B}
    .fil2 {fill:#00BEF1}
    .fil3 {fill:#2C616D}
    .fil14 {fill:#52BED7}
    .fil12 {fill:#5A9F49}
    .fil16 {fill:#6ABECB}
    .fil6 {fill:#6C9C1F}
    .fil8 {fill:#76A349}
    .fil7 {fill:#77BEC8}
    .fil9 {fill:#8DBEC1}
    .fil11 {fill:#92AA43}
    .fil19 {fill:#99BDAA}
    .fil13 {fill:#A6BEB4}
    .fil10 {fill:#ACAC36}
    .fil21 {fill:#B2BFA8}
    .fil18 {fill:#C3BF97}
    .fil5 {fill:#CABF85}
    .fil4 {fill:#D2BE72}
    .fil15 {fill:#D2BE84}
    .fil20 {fill:#D8BF73}
    .fil0 {fill:#FABF23}
   ]]>
  </style>
 </defs>
 <g id="Layer_x0020_1">
  <metadata id="CorelCorpID_0Corel-Layer"/>
  <g id="_2474159654448">
   <path class="fil0" d="M4.58 1.8l-0.01 1.59 -0.02 0.08 0 0.05 -0.01 0.04 -0.03 0.02 0 0.04 -0.03 0.04 -0.03 0.04 -0.04 0.07 -0.04 0.03 -0.03 0.03 -0.03 0.01 -0.05 0.03 -0.04 0.03 -0.04 0.01 -0.07 0.02 -1.6 0.01 -0.07 0.04c-0.18,0.05 -0.35,0.21 -0.37,0.43l-0.05 0.07 0 1.59 2.57 0.01c0.1,-0.05 0.42,-0.04 0.54,0l0.94 0.01 0.05 -0.04 0.05 0 0.03 0 0.04 -0.03 0.04 0 0.03 -0.04 0.04 -0.03 0.03 -0.03 0.03 -0.04 0.04 -0.03 0.03 -0.08 0.03 -0.05 0.01 -0.06 0.03 -0.07 -0.01 -0.04 0.05 -0.1c0,-0.68 0.04,-4.24 -0.03,-4.6 -0.23,-1.09 -1.64,-1.12 -1.94,-0.13 -0.06,0.21 -0.12,0.85 -0.04,1.08z"/>
   <path class="fil1" d="M0.44 1.84l-0.03 0c0,0.05 0.01,0.03 -0.04,0.03l-0.03 0 -0.04 0.04 -0.04 0.03 -0.02 0.04 -0.04 0.03 -0.04 0.04 -0.07 0.16 -0.03 0.06c0,0.06 0.02,0.04 -0.04,0.04l0 3.26 0.04 0.05 0.02 0.05c0.05,0.14 0.15,0.27 0.24,0.33 0.14,0.1 0.3,0.08 0.51,0.08 0.4,0 0.79,0 1.19,-0.01l0 -1.59 0.05 -0.07c0.02,-0.22 0.19,-0.38 0.37,-0.43l0 -0.04c-0.17,-0.12 -0.25,-0.14 -0.34,-0.32 -0.07,-0.16 -0.08,-0.36 -0.08,-0.55 0,-0.42 0.02,-0.86 0,-1.27l-1.51 0 -0.07 0.04z"/>
   <path class="fil2" d="M2.44 3.94l0.07 0 1.6 -0.01 0.07 -0.02 0.04 -0.01 0.04 -0.03 0.05 -0.03 0.03 -0.01 0.03 -0.03 0.04 -0.03 0.04 -0.07 0.03 -0.04 0.03 -0.04 0 -0.04 0.01 -0.02 0.03 -0.04 0 -0.05 0.02 -0.08 0.01 -1.59 -2.56 0c0.02,0.41 0,0.85 0,1.27 0,0.19 0.01,0.39 0.08,0.55 0.09,0.18 0.17,0.2 0.34,0.32z"/>
   <path class="fil2" d="M2.02 6.07c-0.4,0.01 -0.79,0.01 -1.19,0.01 -0.21,0 -0.37,0.02 -0.51,-0.08 -0.09,-0.06 -0.19,-0.19 -0.24,-0.33l-0.02 -0.05 -0.04 -0.05c0,0.73 -0.21,2.09 0.79,2.29 0.48,0.1 0.82,-0.1 1.04,-0.41 0.24,-0.33 0.17,-0.81 0.17,-1.38z"/>
   <path class="fil0" d="M0.02 2.31c0.06,0 0.04,0.02 0.04,-0.04l0.03 -0.06 0.07 -0.16 0.04 -0.04 0.04 -0.03 0.02 -0.04c0,-0.05 -0.01,-0.03 0.04,-0.03l0.04 -0.04 0.03 0 0.04 -0.03 0.03 0 0.07 -0.04 1.51 0c0.01,-0.24 0,-0.49 0,-0.74 0.01,-0.7 -0.6,-1.19 -1.21,-1.03 -1.02,0.28 -0.79,1.5 -0.79,2.28z"/>
   <path class="fil2" d="M6.52 5.66l-0.01 0.06c0.01,0.06 0.02,0.05 -0.03,0.05l-0.03 0.08 -0.04 0.03 -0.03 0.04 -0.03 0.03 -0.04 0.03 -0.03 0.04 -0.04 0 -0.04 0.03 -0.03 0 -0.05 0.03 -0.05 0.01 -0.94 -0.01 -0.54 0c-0.01,0.56 -0.07,0.99 0.16,1.35 0.55,0.81 1.57,0.46 1.8,-0.36 0.08,-0.26 0.04,-1.16 0.04,-1.52l-0.05 0 0.01 0.04 -0.03 0.07z"/>
   <path class="fil3" d="M11.99 2.22l0 0.95c0,0.12 0.09,0.14 0.18,0.14 0.13,0 0.15,-0.15 0.15,-0.25 0,-0.13 -0.01,-0.25 -0.01,-0.38 0,-0.19 0,-0.38 0,-0.57 0,-0.03 -0.01,-0.1 0.01,-0.13 0.02,-0.05 0.2,-0.12 0.26,-0.14 0.3,-0.07 0.32,0.25 0.33,0.46 0,0.23 -0.02,0.47 -0.02,0.7 0.01,0.09 0.02,0.31 0.15,0.31l0.01 0c0.39,0 -0.17,-1.47 0.42,-1.47 0.36,0 0.31,0.27 0.31,0.63 0,0.8 -0.07,0.89 0.28,0.81 0.08,-0.32 0.04,-0.7 0.04,-1.02 0,-0.43 -0.22,-0.67 -0.63,-0.67 -0.23,0 -0.28,0.1 -0.46,0.14 -0.46,-0.31 -1.02,-0.11 -1.02,0.49z"/>
   <path class="fil3" d="M15.22 5.21c0,-0.52 0.78,-0.5 0.78,-0.07 0,0.42 -0.44,0.46 -0.64,0.28 -0.04,-0.02 -0.14,-0.18 -0.14,-0.21zm-0.28 1.05c0.36,0.08 0.28,0.07 0.28,-0.6 0.09,0.06 0.92,0.95 0.92,0.53 0,-0.15 -0.31,-0.31 -0.39,-0.42 0.31,-0.15 0.53,-0.2 0.53,-0.67 0,-0.6 -1.29,-0.82 -1.33,0.1l-0.01 1.06z"/>
   <path class="fil3" d="M11.89 6.05l-0.32 0 0 -0.53 0.32 0c0.15,0 0.28,0.11 0.28,0.25 0,0.17 -0.11,0.28 -0.28,0.28zm-0.11 -0.77l-0.21 0 0 -0.28c0,-0.09 0.1,-0.18 0.18,-0.18l0.07 0c0.32,0 0.32,0.46 -0.04,0.46zm-0.49 -0.28l0 1.19c0,0.16 0.2,0.11 0.6,0.11 0.48,0 0.81,-0.59 0.31,-0.92 0.59,-0.87 -0.91,-1.08 -0.91,-0.38z"/>
   <path class="fil3" d="M15.05 2.12c0,-0.4 0.59,-0.4 0.59,0l0 0.42 -0.59 0 0 -0.42zm-0.28 1.16c0.33,0.08 0.28,-0.01 0.28,-0.53 0.12,0.07 0.35,0.03 0.49,0.03 0.13,0 0.01,0.02 0.1,-0.03 0,0.61 -0.01,0.6 0.28,0.53 0,-0.47 0.09,-1.31 -0.13,-1.52 -0.21,-0.22 -0.64,-0.23 -0.87,-0.02 -0.25,0.22 -0.15,1.01 -0.15,1.54z"/>
   <path class="fil3" d="M9.71 5.1c0,-0.38 0.6,-0.38 0.6,0l0 0.42 -0.6 0 0 -0.42zm-0.28 0l0 1.09c0,0.15 0.28,0.15 0.28,0l0 -0.42 0.6 0 0 0.49c0.38,0.09 0.28,0.14 0.28,-1.23 0,-0.56 -1.16,-0.67 -1.16,0.07z"/>
   <path class="fil3" d="M13.4 5.03c0,-0.21 0.59,-0.42 0.59,0.18l0 0.31 -0.59 0 0 -0.49zm-0.28 0l0 1.16c0,0.17 0.28,0.13 0.28,-0.04l0 -0.38 0.59 0c0,0.49 -0.04,0.53 0.14,0.53 0.09,0 0.14,-0.06 0.14,-0.15 0,-0.75 0.17,-1.58 -0.59,-1.58 -0.28,0 -0.56,0.19 -0.56,0.46z"/>
   <path class="fil3" d="M7.99 1.63l0 1.37c-0.01,0.51 0.28,0.29 0.28,0.17l0 -0.6 0.74 0c0,0.39 -0.07,0.74 0.14,0.74 0.16,0 0.14,-0.15 0.14,-0.31l0 -1.37c-0.34,-0.09 -0.28,-0.03 -0.28,0.7l-0.74 0c0,-0.63 0.1,-0.85 -0.28,-0.7z"/>
   <path class="fil3" d="M9.99 1.7c0,0.74 -0.17,1.61 0.67,1.61 0.36,0 0.67,-0.29 0.67,-0.56l0 -1.05c0,-0.12 -0.07,-0.11 -0.18,-0.11 -0.17,0 -0.11,0.51 -0.1,0.84 0,0.32 0.01,0.64 -0.43,0.64 -0.13,0 -0.26,-0.09 -0.31,-0.18 -0.15,-0.28 0.13,-1.3 -0.18,-1.3 -0.09,0 -0.14,0 -0.14,0.11z"/>
   <path class="fil3" d="M16.59 2.08c0,0.24 0.22,0.41 0.42,0.46 0.26,0.07 0.64,-0.07 0.64,0.28 0,0.11 -0.04,0.16 -0.11,0.21 -0.17,0.1 -0.5,-0.02 -0.88,0.07 0,0.27 -0.04,0.21 0.7,0.21 0.65,0 0.77,-0.76 0.22,-0.95 -0.19,-0.07 -0.52,0.03 -0.65,-0.13 -0.14,-0.18 0.03,-0.39 0.23,-0.42 0.23,-0.04 0.55,0.04 0.73,-0.04 -0.02,-0.25 -0.15,-0.18 -0.77,-0.18 -0.28,0 -0.53,0.22 -0.53,0.49z"/>
   <path class="fil3" d="M8.48 4.61c0,0.34 0.02,0.72 0,1.05 -0.02,0.53 -0.52,0.29 -0.52,0.53 0,0.25 0.8,0.1 0.8,-0.56 0,-0.83 0.11,-1.17 -0.28,-1.02z"/>
   <path class="fil4" d="M5.13 6.08c-0.12,-0.04 -0.44,-0.05 -0.54,0l0.54 0z"/>
   <polygon class="fil5" points="6.54,5.55 6.59,5.55 6.59,5.45 "/>
   <polygon class="fil6" points="2.51,3.94 2.44,3.94 2.44,3.98 "/>
   <path class="fil7" d="M6.51 5.72l-0.03 0.05c0.05,0 0.04,0.01 0.03,-0.05z"/>
   <path class="fil8" d="M0.3 1.91c-0.05,0 -0.04,-0.02 -0.04,0.03l0.04 -0.03z"/>
   <path class="fil8" d="M0.41 1.84l-0.04 0.03c0.05,0 0.04,0.02 0.04,-0.03z"/>
   <polygon class="fil5" points="6.12,6.08 6.12,6.05 6.07,6.09 "/>
   <polygon class="fil7" points="6.17,6.05 6.12,6.05 6.12,6.08 "/>
   <polygon class="fil9" points="4.54,3.56 4.55,3.52 4.52,3.56 "/>
   <polygon class="fil4" points="4.54,3.56 4.52,3.56 4.51,3.58 "/>
   <polygon class="fil10" points="0.51,1.8 0.44,1.84 "/>
   <polygon class="fil11" points="0.34,1.87 0.3,1.91 "/>
   <polygon class="fil12" points="0.24,1.98 0.2,2.01 "/>
   <polygon class="fil11" points="0.09,2.21 0.06,2.27 "/>
   <polygon class="fil11" points="2.02,4.48 2.07,4.41 "/>
   <polygon class="fil13" points="4.18,3.91 4.11,3.93 "/>
   <polygon class="fil5" points="4.26,3.87 4.22,3.9 "/>
   <polygon class="fil14" points="4.31,3.84 4.26,3.87 "/>
   <polygon class="fil15" points="4.37,3.8 4.34,3.83 "/>
   <polygon class="fil5" points="4.41,3.77 4.37,3.8 "/>
   <polygon class="fil16" points="4.48,3.66 4.45,3.7 "/>
   <polygon class="fil17" points="0.08,5.67 0.06,5.62 "/>
   <polygon class="fil18" points="6.52,5.66 6.55,5.59 "/>
   <polygon class="fil4" points="4.51,3.62 4.48,3.66 "/>
   <polygon class="fil19" points="6.45,5.85 6.41,5.88 "/>
   <polygon class="fil5" points="6.41,5.88 6.38,5.92 "/>
   <polygon class="fil20" points="6.38,5.92 6.35,5.95 "/>
   <polygon class="fil18" points="6.35,5.95 6.31,5.98 "/>
   <polygon class="fil21" points="6.24,6.02 6.2,6.05 "/>
   <polygon class="fil21" points="4.57,3.39 4.55,3.47 "/>
   <polygon class="fil11" points="0.2,2.01 0.16,2.05 "/>
   <polygon class="fil9" points="6.31,5.98 6.28,6.02 "/>
  </g>
 </g>
</svg>
