<?xml version="1.0" encoding="UTF-8"?>
<!DOCTYPE svg PUBLIC "-//W3C//DTD SVG 1.1//EN" "http://www.w3.org/Graphics/SVG/1.1/DTD/svg11.dtd">
<!-- Creator: CorelDRAW 2018 (64-Bit) -->
<svg xmlns="http://www.w3.org/2000/svg" xml:space="preserve" width="354px" height="100px" version="1.1" style="shape-rendering:geometricPrecision; text-rendering:geometricPrecision; image-rendering:optimizeQuality; fill-rule:evenodd; clip-rule:evenodd"
viewBox="0 0 21.13 5.99"
 xmlns:xlink="http://www.w3.org/1999/xlink">
 <defs>
  <style type="text/css">
   <![CDATA[
    .fil0 {fill:black}
    .fil1 {fill:#474443;fill-rule:nonzero}
   ]]>
  </style>
 </defs>
 <g id="Layer_x0020_1">
  <metadata id="CorelCorpID_0Corel-Layer"/>
  <g id="_2474203651248">
   <path class="fil0" d="M4.12 4.59c0,0.17 -0.03,1.13 0.03,1.24 0.04,0.09 0.12,0.16 0.26,0.16 0.29,-0.02 0.26,-0.32 0.26,-0.59l0 -2.51c0,-0.25 0.06,-0.59 -0.14,-0.7 -0.11,-0.07 -0.25,-0.04 -0.32,0.03 -0.09,0.08 -0.09,0.18 -0.09,0.31 0,0.28 0,0.57 0,0.85 0,0.31 -0.03,0.45 -0.2,0.64 -0.21,0.25 -0.61,0.34 -0.92,0.16 -0.35,-0.21 -0.38,-0.48 -0.38,-0.87 0,-0.28 0,-0.55 0,-0.83 -0.01,-0.37 -0.33,-0.37 -0.46,-0.27 -0.23,0.19 0,1.12 -0.13,1.53 -0.23,0.72 -1.23,0.69 -1.44,-0.01 -0.09,-0.3 0,-1.97 -0.03,-2.5 -0.01,-0.25 -0.29,-0.35 -0.47,-0.2 -0.13,0.13 -0.08,0.55 -0.08,0.77 0,0.28 0,0.56 0,0.84 0,0.5 -0.07,1.11 0.16,1.51 0.35,0.6 1.08,0.85 1.71,0.54 0.16,-0.08 0.38,-0.25 0.46,-0.36 0.21,0.2 0.36,0.38 0.77,0.47 0.44,0.09 0.7,-0.05 1.01,-0.21z"/>
   <path class="fil0" d="M1.59 1.4c0,-0.29 0,-0.57 0,-0.86 0,-0.16 0.05,-0.57 -0.31,-0.54 -0.29,0.03 -0.24,0.34 -0.24,0.61l0 2.51c0,0.25 -0.06,0.59 0.15,0.69 0.12,0.06 0.23,0.03 0.31,-0.05 0.09,-0.09 0.09,-0.17 0.09,-0.32 0,-0.28 0,-0.56 0,-0.84 0,-0.31 0.03,-0.46 0.2,-0.64 0.33,-0.34 0.82,-0.32 1.13,0.04 0.15,0.17 0.17,0.39 0.17,0.67 0,0.28 0,0.56 0,0.84 0,0.14 0.04,0.23 0.14,0.29 0.1,0.06 0.23,0.04 0.31,-0.02 0.23,-0.17 0.01,-1.12 0.13,-1.53 0.22,-0.71 1.24,-0.71 1.45,0.02 0.09,0.33 -0.01,1.98 0.03,2.5 0.02,0.27 0.34,0.34 0.48,0.17 0.11,-0.13 0.06,-0.57 0.06,-0.78 0,-0.28 0,-0.56 0,-0.84 0,-0.52 0.07,-1.06 -0.16,-1.49 -0.42,-0.77 -1.5,-0.87 -2.07,-0.28 -0.02,0.03 -0.02,0.03 -0.05,0.06l-0.05 0.05c-0.22,-0.2 -0.35,-0.39 -0.78,-0.47 -0.49,-0.1 -0.69,0.08 -0.99,0.21z"/>
   <path class="fil0" d="M0.24 0.01c-0.38,0.06 -0.26,0.62 0.12,0.53 0.33,-0.08 0.22,-0.6 -0.12,-0.53z"/>
   <path class="fil0" d="M5.15 5.76c0.05,0.34 0.61,0.28 0.54,-0.1 -0.05,-0.33 -0.6,-0.28 -0.54,0.1z"/>
   <path class="fil1" d="M6.71 2.46l0 -1.65 0.25 0 0 1.67 -0.25 0 0 -0.02zm0.58 0l0 -1.76 1.19 1.3 0 -1.19 0.24 0 0 1.78 -1.19 -1.28 0 1.17 -0.24 0 0 -0.02zm1.76 0l0 -1.65 0.91 0 0 0.23 -0.66 0 0 0.41 0.66 0 0 0.23 -0.66 0 0 0.8 -0.25 0 0 -0.02zm1.15 0l0 -1.65 0.25 0 0 1.67 -0.25 0 0 -0.02zm0.58 0l0 -1.76 1.19 1.3 0 -1.19 0.24 0 0 1.78 -1.19 -1.28 0 1.17 -0.24 0 0 -0.02zm2.58 -0.17c0.04,0 0.08,0 0.12,-0.01 0.04,-0.01 0.08,-0.02 0.12,-0.04 0.04,-0.01 0.07,-0.03 0.11,-0.06 0.03,-0.02 0.06,-0.05 0.1,-0.08 0.03,-0.03 0.05,-0.06 0.08,-0.1 0.02,-0.03 0.04,-0.07 0.05,-0.1 0.02,-0.04 0.03,-0.08 0.04,-0.12 0.01,-0.04 0.01,-0.09 0.01,-0.13 0,-0.04 0,-0.09 -0.01,-0.13 -0.01,-0.04 -0.02,-0.08 -0.04,-0.12 -0.01,-0.04 -0.03,-0.07 -0.05,-0.11 -0.03,-0.03 -0.05,-0.07 -0.08,-0.1 -0.03,-0.03 -0.07,-0.05 -0.1,-0.08 -0.04,-0.02 -0.07,-0.04 -0.11,-0.06 -0.04,-0.01 -0.08,-0.02 -0.12,-0.03 -0.04,-0.01 -0.08,-0.01 -0.12,-0.01 -0.05,0 -0.09,0 -0.13,0.01 -0.04,0.01 -0.08,0.02 -0.12,0.03 -0.04,0.02 -0.07,0.04 -0.11,0.06 -0.03,0.03 -0.06,0.05 -0.09,0.08 -0.03,0.03 -0.06,0.07 -0.08,0.1 -0.03,0.04 -0.05,0.07 -0.06,0.11 -0.02,0.04 -0.03,0.08 -0.04,0.12 -0.01,0.04 -0.01,0.09 -0.01,0.13 0,0.04 0,0.09 0.01,0.13 0.01,0.04 0.02,0.08 0.04,0.11 0.01,0.04 0.03,0.08 0.05,0.11 0.03,0.04 0.05,0.07 0.09,0.1 0.03,0.03 0.06,0.06 0.09,0.08 0.04,0.03 0.08,0.05 0.11,0.06 0.04,0.02 0.08,0.03 0.12,0.04 0.04,0.01 0.08,0.01 0.13,0.01zm0.89 -0.64c0,0.06 -0.01,0.12 -0.02,0.17 -0.01,0.06 -0.03,0.11 -0.05,0.17 -0.02,0.05 -0.05,0.1 -0.08,0.15 -0.03,0.04 -0.07,0.09 -0.11,0.13 -0.04,0.04 -0.09,0.08 -0.14,0.11 -0.05,0.03 -0.1,0.06 -0.15,0.08 -0.06,0.02 -0.11,0.04 -0.17,0.05 -0.06,0.01 -0.12,0.02 -0.17,0.02 -0.12,0 -0.24,-0.03 -0.34,-0.07 -0.06,-0.02 -0.11,-0.05 -0.16,-0.08 -0.05,-0.03 -0.09,-0.07 -0.13,-0.11 -0.05,-0.04 -0.08,-0.09 -0.12,-0.13 -0.03,-0.05 -0.06,-0.1 -0.08,-0.15 -0.02,-0.06 -0.04,-0.11 -0.05,-0.17 -0.01,-0.05 -0.02,-0.11 -0.02,-0.17 0,-0.12 0.03,-0.23 0.07,-0.34 0.02,-0.05 0.05,-0.1 0.08,-0.15 0.03,-0.05 0.07,-0.09 0.12,-0.13 0.04,-0.04 0.08,-0.08 0.13,-0.11 0.05,-0.03 0.1,-0.06 0.16,-0.08 0.05,-0.02 0.11,-0.04 0.16,-0.05 0.06,-0.01 0.12,-0.02 0.18,-0.02 0.05,0 0.11,0.01 0.17,0.02 0.06,0.01 0.11,0.03 0.17,0.05 0.05,0.02 0.1,0.05 0.15,0.08 0.05,0.03 0.1,0.07 0.14,0.11 0.04,0.04 0.08,0.08 0.11,0.13 0.03,0.05 0.06,0.1 0.08,0.15 0.02,0.05 0.04,0.11 0.05,0.17 0.01,0.05 0.02,0.11 0.02,0.17zm1.02 0.88l-0.47 -1.08 -0.19 1.03 -0.25 0c0.12,-0.6 0.24,-1.2 0.35,-1.8l0.58 1.36 0.58 -1.36 0.35 1.8 -0.24 0 -0.2 -1.03 -0.49 1.14 -0.02 -0.06zm1.14 -0.07l0 -1.65 0.9 0 0 0.23 -0.66 0 0 0.41 0.66 0 0 0.23 -0.66 0 0 0.57 0.66 0 0 0.23 -0.9 0 0 -0.02zm1.43 -0.21l0.09 0c0.1,0 0.18,0 0.25,-0.01 0.07,0 0.12,-0.01 0.16,-0.02 0.04,-0.01 0.07,-0.02 0.1,-0.03 0.03,-0.01 0.06,-0.03 0.08,-0.05 0.03,-0.03 0.06,-0.06 0.08,-0.09 0.03,-0.03 0.05,-0.07 0.06,-0.11 0.02,-0.05 0.03,-0.09 0.04,-0.14 0.01,-0.05 0.01,-0.1 0.01,-0.15 0,-0.06 0,-0.11 -0.01,-0.16 -0.01,-0.05 -0.02,-0.09 -0.04,-0.13 -0.01,-0.04 -0.03,-0.08 -0.06,-0.12 -0.02,-0.03 -0.05,-0.06 -0.08,-0.09 -0.02,-0.02 -0.05,-0.03 -0.08,-0.05 -0.03,-0.01 -0.07,-0.02 -0.1,-0.03 -0.04,-0.01 -0.09,-0.02 -0.16,-0.02 -0.07,-0.01 -0.15,-0.01 -0.25,-0.01l-0.09 0 0 1.21zm-0.25 0.21l0 -1.65 0.34 0c0.11,0 0.21,0 0.29,0.01 0.08,0 0.15,0.01 0.2,0.03 0.05,0.01 0.09,0.02 0.13,0.04 0.05,0.02 0.09,0.05 0.12,0.08 0.05,0.03 0.1,0.08 0.13,0.12 0.04,0.05 0.07,0.1 0.09,0.16 0.03,0.06 0.05,0.12 0.06,0.19 0.01,0.06 0.02,0.13 0.02,0.21 0,0.07 -0.01,0.14 -0.02,0.21 -0.01,0.06 -0.03,0.12 -0.06,0.18 -0.02,0.06 -0.05,0.11 -0.09,0.16 -0.03,0.05 -0.08,0.09 -0.13,0.13 -0.03,0.02 -0.07,0.05 -0.11,0.07 -0.05,0.02 -0.09,0.04 -0.14,0.05 -0.04,0.01 -0.1,0.02 -0.17,0.02 -0.08,0.01 -0.16,0.01 -0.26,0.01l-0.4 0 0 -0.02zm1.64 0l0 -1.65 0.25 0 0 1.67 -0.25 0 0 -0.02zm1.12 -1.19l-0.21 0.5 0.43 0 -0.22 -0.5zm0.03 -0.51l0.75 1.72 -0.27 0 -0.21 -0.49 -0.59 0 -0.21 0.49 -0.27 0 0.77 -1.77 0.03 0.05zm-13.05 3.49c0.06,0.02 0.11,0.05 0.15,0.08 0.04,0.03 0.08,0.07 0.1,0.11 0.03,0.04 0.05,0.08 0.07,0.13 0.01,0.04 0.02,0.09 0.02,0.15 0,0.07 -0.01,0.14 -0.04,0.21 -0.02,0.06 -0.06,0.12 -0.11,0.16 -0.05,0.05 -0.11,0.09 -0.18,0.11 -0.06,0.03 -0.14,0.04 -0.22,0.04 -0.06,0 -0.12,-0.01 -0.18,-0.03 -0.06,-0.01 -0.11,-0.04 -0.15,-0.07 -0.05,-0.04 -0.09,-0.08 -0.12,-0.13 -0.03,-0.05 -0.05,-0.1 -0.07,-0.17l0 -0.02 0.22 -0.11 0.01 0.03c0.01,0.05 0.03,0.09 0.04,0.13 0.02,0.03 0.04,0.06 0.07,0.08 0.02,0.03 0.05,0.04 0.08,0.06 0.03,0.01 0.07,0.01 0.1,0.01 0.05,0 0.09,0 0.13,-0.02 0.03,-0.01 0.06,-0.03 0.09,-0.05 0.03,-0.03 0.05,-0.06 0.06,-0.09 0.01,-0.03 0.02,-0.07 0.02,-0.11 0,-0.04 0,-0.07 -0.01,-0.09 -0.01,-0.03 -0.03,-0.06 -0.05,-0.08 -0.01,-0.03 -0.04,-0.05 -0.07,-0.07 -0.03,-0.02 -0.06,-0.04 -0.1,-0.06l-0.2 -0.09c-0.06,-0.02 -0.1,-0.05 -0.15,-0.08 -0.04,-0.03 -0.07,-0.06 -0.1,-0.1 -0.03,-0.04 -0.05,-0.08 -0.07,-0.12 -0.01,-0.05 -0.02,-0.1 -0.02,-0.15 0,-0.06 0.01,-0.12 0.04,-0.17 0.02,-0.05 0.06,-0.09 0.1,-0.13 0.05,-0.04 0.1,-0.07 0.16,-0.09 0.05,-0.02 0.12,-0.03 0.19,-0.03 0.05,0 0.09,0 0.14,0.01 0.04,0.01 0.08,0.03 0.12,0.05 0.04,0.02 0.07,0.05 0.1,0.08 0.03,0.04 0.06,0.07 0.08,0.12l0.01 0.02 -0.2 0.13 -0.02 -0.03c-0.01,-0.03 -0.03,-0.05 -0.05,-0.07 -0.02,-0.03 -0.04,-0.04 -0.06,-0.06 -0.02,-0.01 -0.04,-0.02 -0.07,-0.03 -0.02,-0.01 -0.04,-0.01 -0.07,-0.01 -0.03,0 -0.06,0.01 -0.09,0.02 -0.02,0.01 -0.05,0.02 -0.07,0.04 -0.02,0.02 -0.03,0.04 -0.04,0.07 -0.01,0.02 -0.02,0.05 -0.02,0.08 0,0.03 0.01,0.05 0.01,0.07 0.01,0.02 0.02,0.04 0.04,0.06 0.01,0.02 0.04,0.04 0.06,0.06 0.03,0.01 0.06,0.03 0.09,0.05l0.23 0.1zm0.83 0.92l0 -1.41 -0.46 0 0 -0.23 1.16 0 0 0.23 -0.46 0 0 1.44 -0.24 0 0 -0.03zm0.88 -1.64l0.22 0 0 1.03c0,0.08 0.01,0.15 0.03,0.21 0.01,0.05 0.04,0.1 0.07,0.13 0.03,0.04 0.07,0.06 0.12,0.08 0.05,0.02 0.12,0.03 0.19,0.03 0.07,0 0.13,-0.01 0.18,-0.03 0.05,-0.02 0.09,-0.04 0.13,-0.08 0.03,-0.03 0.05,-0.08 0.07,-0.13 0.02,-0.06 0.02,-0.13 0.02,-0.21l0 -1.03 0.25 0 0 1.03c0,0.11 -0.01,0.21 -0.04,0.3 -0.03,0.08 -0.07,0.15 -0.12,0.21 -0.06,0.06 -0.13,0.1 -0.21,0.13 -0.08,0.03 -0.17,0.04 -0.28,0.04 -0.11,0 -0.2,-0.01 -0.29,-0.04 -0.08,-0.03 -0.15,-0.07 -0.2,-0.13 -0.06,-0.06 -0.1,-0.13 -0.13,-0.21 -0.02,-0.09 -0.04,-0.19 -0.04,-0.3l0 -1.03 0.03 0zm1.86 1.43l0.1 0c0.1,0 0.18,0 0.25,0 0.06,-0.01 0.12,-0.01 0.15,-0.02 0.04,-0.01 0.07,-0.02 0.1,-0.04 0.03,-0.01 0.06,-0.03 0.08,-0.05 0.04,-0.02 0.06,-0.05 0.09,-0.09 0.02,-0.03 0.04,-0.07 0.06,-0.11 0.01,-0.04 0.03,-0.09 0.03,-0.13 0.01,-0.05 0.02,-0.1 0.02,-0.16 0,-0.05 -0.01,-0.11 -0.01,-0.15 -0.01,-0.05 -0.03,-0.1 -0.04,-0.14 -0.02,-0.04 -0.04,-0.08 -0.06,-0.11 -0.03,-0.03 -0.05,-0.06 -0.09,-0.09 -0.02,-0.02 -0.05,-0.04 -0.08,-0.05 -0.03,-0.02 -0.06,-0.03 -0.1,-0.04 -0.04,0 -0.09,-0.01 -0.16,-0.02 -0.06,0 -0.15,0 -0.24,0l-0.1 0 0 1.2zm-0.25 0.21l0 -1.64 0.34 0c0.11,0 0.21,0 0.29,0 0.09,0.01 0.15,0.02 0.2,0.03 0.05,0.01 0.1,0.03 0.14,0.05 0.04,0.02 0.08,0.04 0.12,0.07 0.05,0.04 0.09,0.08 0.13,0.13 0.03,0.05 0.06,0.1 0.09,0.16 0.02,0.05 0.04,0.12 0.05,0.18 0.02,0.07 0.02,0.14 0.02,0.21 0,0.08 0,0.15 -0.02,0.21 -0.01,0.07 -0.03,0.13 -0.05,0.19 -0.03,0.05 -0.06,0.11 -0.09,0.15 -0.04,0.05 -0.08,0.09 -0.13,0.13 -0.04,0.03 -0.08,0.05 -0.12,0.07 -0.04,0.02 -0.09,0.04 -0.13,0.05 -0.05,0.01 -0.11,0.02 -0.18,0.03 -0.07,0.01 -0.15,0.01 -0.25,0.01l-0.41 0 0 -0.03zm1.65 0l0 -1.64 0.24 0 0 1.67 -0.24 0 0 -0.03zm1.4 -0.16c0.04,0 0.08,-0.01 0.12,-0.02 0.04,0 0.08,-0.02 0.12,-0.03 0.04,-0.02 0.07,-0.04 0.11,-0.06 0.03,-0.02 0.07,-0.05 0.1,-0.08 0.03,-0.03 0.06,-0.07 0.08,-0.1 0.02,-0.03 0.04,-0.07 0.06,-0.11 0.01,-0.04 0.02,-0.08 0.03,-0.12 0.01,-0.04 0.01,-0.08 0.01,-0.12 0,-0.05 0,-0.09 -0.01,-0.13 -0.01,-0.04 -0.02,-0.08 -0.03,-0.12 -0.02,-0.04 -0.04,-0.08 -0.06,-0.11 -0.03,-0.04 -0.05,-0.07 -0.08,-0.1 -0.03,-0.03 -0.06,-0.06 -0.1,-0.08 -0.03,-0.03 -0.07,-0.04 -0.11,-0.06 -0.04,-0.02 -0.08,-0.03 -0.12,-0.04 -0.04,0 -0.08,-0.01 -0.12,-0.01 -0.05,0 -0.09,0.01 -0.13,0.01 -0.04,0.01 -0.08,0.02 -0.12,0.04 -0.04,0.02 -0.07,0.03 -0.11,0.06 -0.03,0.02 -0.06,0.05 -0.09,0.08 -0.03,0.03 -0.06,0.06 -0.08,0.1 -0.03,0.03 -0.05,0.07 -0.06,0.11 -0.02,0.04 -0.03,0.08 -0.04,0.12 -0.01,0.04 -0.01,0.08 -0.01,0.13 0,0.04 0,0.08 0.01,0.12 0.01,0.04 0.02,0.08 0.04,0.12 0.01,0.04 0.03,0.07 0.06,0.11 0.02,0.03 0.05,0.07 0.08,0.1 0.03,0.03 0.06,0.06 0.1,0.08 0.03,0.02 0.07,0.04 0.11,0.06 0.03,0.01 0.07,0.03 0.11,0.03 0.04,0.01 0.09,0.02 0.13,0.02zm0.89 -0.64c0,0.05 -0.01,0.11 -0.02,0.17 -0.01,0.06 -0.02,0.11 -0.05,0.16 -0.02,0.06 -0.05,0.11 -0.08,0.15 -0.03,0.05 -0.07,0.09 -0.11,0.13 -0.04,0.05 -0.09,0.08 -0.14,0.11 -0.04,0.04 -0.1,0.06 -0.15,0.08 -0.06,0.03 -0.11,0.04 -0.17,0.05 -0.06,0.02 -0.11,0.02 -0.17,0.02 -0.12,0 -0.23,-0.02 -0.34,-0.07 -0.06,-0.02 -0.11,-0.04 -0.16,-0.08 -0.05,-0.03 -0.09,-0.06 -0.13,-0.11 -0.05,-0.04 -0.08,-0.08 -0.12,-0.13 -0.03,-0.04 -0.06,-0.1 -0.08,-0.15 -0.02,-0.05 -0.04,-0.11 -0.05,-0.16 -0.01,-0.06 -0.01,-0.12 -0.01,-0.17 0,-0.12 0.02,-0.24 0.06,-0.34 0.02,-0.06 0.05,-0.11 0.08,-0.15 0.04,-0.05 0.07,-0.1 0.12,-0.14 0.04,-0.04 0.08,-0.07 0.13,-0.1 0.05,-0.04 0.1,-0.06 0.16,-0.08 0.05,-0.03 0.11,-0.04 0.16,-0.05 0.06,-0.02 0.12,-0.02 0.18,-0.02 0.06,0 0.12,0 0.17,0.02 0.06,0.01 0.12,0.02 0.17,0.05 0.05,0.02 0.11,0.04 0.16,0.08 0.04,0.03 0.09,0.06 0.13,0.1 0.04,0.04 0.08,0.09 0.11,0.14 0.03,0.04 0.06,0.09 0.08,0.15 0.03,0.05 0.04,0.1 0.05,0.16 0.01,0.06 0.02,0.12 0.02,0.18z"/>
  </g>
 </g>
</svg>
