<?xml version="1.0" encoding="UTF-8"?>
<!DOCTYPE svg PUBLIC "-//W3C//DTD SVG 1.1//EN" "http://www.w3.org/Graphics/SVG/1.1/DTD/svg11.dtd">
<!-- Creator: CorelDRAW 2018 (64-Bit) -->
<svg xmlns="http://www.w3.org/2000/svg" xml:space="preserve" width="354px" height="51px" version="1.1" style="shape-rendering:geometricPrecision; text-rendering:geometricPrecision; image-rendering:optimizeQuality; fill-rule:evenodd; clip-rule:evenodd"
viewBox="0 0 25.6 3.69"
 xmlns:xlink="http://www.w3.org/1999/xlink">
 <defs>
  <style type="text/css">
   <![CDATA[
    .fil0 {fill:#0093DD}
    .fil1 {fill:#1C1714}
    .fil2 {fill:#1F1A17}
   ]]>
  </style>
 </defs>
 <g id="Layer_x0020_1">
  <metadata id="CorelCorpID_0Corel-Layer"/>
  <g id="_2474158021344">
   <path class="fil0" d="M6.6 0.01c0.11,-0.03 0.22,0.01 0.33,0.05 0.19,0.09 0.29,0.3 0.32,0.5 0.05,0.33 -0.02,0.67 -0.11,0.99 -0.19,0.62 -0.5,1.21 -0.98,1.65 -0.3,0.28 -0.7,0.5 -1.12,0.49 -0.29,0 -0.57,-0.14 -0.74,-0.38 -0.26,-0.36 -0.34,-0.83 -0.26,-1.26 0.09,-0.52 0.38,-0.99 0.73,-1.38 0.09,-0.12 0.23,-0.18 0.37,-0.24 0.2,-0.09 0.4,-0.16 0.61,-0.22 -0.05,0.08 -0.11,0.16 -0.18,0.22 -0.25,0.24 -0.44,0.54 -0.56,0.87 -0.18,0.42 -0.28,0.89 -0.2,1.34 0.06,0.28 0.32,0.53 0.62,0.54 0.31,-0.01 0.6,-0.17 0.81,-0.38 0.37,-0.38 0.59,-0.89 0.7,-1.41 0.05,-0.26 0.09,-0.53 0.04,-0.8 -0.04,-0.13 -0.11,-0.28 -0.24,-0.34 -0.17,-0.05 -0.34,0.06 -0.45,0.19 -0.17,0.22 -0.27,0.51 -0.22,0.78 0.04,0.13 0.2,0.15 0.31,0.16 0,0.12 -0.05,0.26 -0.18,0.3 -0.22,0.09 -0.54,0.02 -0.62,-0.23 -0.09,-0.27 -0.01,-0.57 0.13,-0.8 0.21,-0.32 0.52,-0.57 0.89,-0.64z"/>
   <path class="fil1" d="M24.63 0.38c0.09,-0.23 0.34,-0.36 0.58,-0.31 0.18,0.03 0.34,0.18 0.39,0.36 0.01,0.09 0.01,0.18 -0.01,0.27 -0.05,0.27 -0.37,0.44 -0.63,0.35 -0.28,-0.07 -0.45,-0.41 -0.33,-0.67zm0.35 -0.23c0.26,-0.09 0.57,0.13 0.56,0.41 0.02,0.23 -0.2,0.45 -0.44,0.44 -0.22,0 -0.42,-0.19 -0.43,-0.41 -0.01,-0.2 0.12,-0.39 0.31,-0.44z"/>
   <path class="fil1" d="M24.88 0.3c0.13,0.01 0.31,-0.04 0.4,0.07 0.07,0.1 -0.03,0.21 -0.13,0.23 0.08,0.07 0.14,0.16 0.19,0.25 -0.03,0 -0.07,0 -0.1,-0.01 -0.06,-0.1 -0.12,-0.25 -0.27,-0.24 0,0.09 0,0.17 0,0.25 -0.02,0 -0.07,0 -0.09,0 0,-0.18 0,-0.37 0,-0.55zm0.09 0.06c0.09,0.01 0.28,-0.02 0.25,0.13 -0.07,0.08 -0.17,0.05 -0.25,0.06 0,-0.06 0,-0.13 0,-0.19z"/>
   <path class="fil2" d="M17.88 0.48c0.38,-0.05 0.79,-0.02 1.11,0.21 0.32,0.23 0.46,0.63 0.51,1 0.05,0.44 0.02,0.9 -0.18,1.3 -0.16,0.33 -0.48,0.57 -0.83,0.65 -0.3,0.06 -0.61,0.06 -0.9,-0.03 -0.33,-0.09 -0.6,-0.34 -0.72,-0.66 -0.16,-0.42 -0.18,-0.89 -0.1,-1.34 0.06,-0.3 0.17,-0.6 0.4,-0.81 0.2,-0.17 0.44,-0.29 0.71,-0.32zm-0.03 0.36c0.3,-0.07 0.67,-0.04 0.91,0.18 0.24,0.22 0.31,0.56 0.32,0.87 0.02,0.35 0.01,0.72 -0.19,1.03 -0.13,0.23 -0.38,0.38 -0.64,0.4 -0.27,0.02 -0.57,-0.01 -0.77,-0.21 -0.22,-0.2 -0.29,-0.51 -0.32,-0.8 -0.01,-0.34 -0.01,-0.7 0.14,-1.02 0.11,-0.22 0.31,-0.39 0.55,-0.45z"/>
   <path class="fil2" d="M0 0.72c-0.01,-0.1 0.05,-0.2 0.15,-0.21 0.13,-0.02 0.27,-0.01 0.41,0 0.1,0.02 0.18,0.1 0.21,0.19 0.32,0.78 0.62,1.57 0.94,2.34 0.33,-0.77 0.63,-1.55 0.96,-2.32 0.04,-0.1 0.11,-0.2 0.23,-0.21 0.13,-0.01 0.27,-0.02 0.4,0 0.09,0.02 0.12,0.13 0.11,0.21 0,0.94 0,1.88 0,2.82 0.02,0.11 -0.12,0.1 -0.19,0.11 -0.07,-0.01 -0.23,0.01 -0.21,-0.11 -0.01,-0.9 0,-1.8 -0.01,-2.71 -0.39,0.93 -0.75,1.87 -1.14,2.8 -0.12,0.02 -0.24,0.03 -0.36,-0.01 -0.37,-0.93 -0.71,-1.86 -1.08,-2.78 -0.02,0.93 0.01,1.85 -0.01,2.78 -0.14,0.03 -0.28,0.04 -0.41,-0.01 0,-0.96 0,-1.93 0,-2.89z"/>
   <path class="fil2" d="M7.77 0.62c0,-0.05 0.01,-0.11 0.07,-0.12 0.11,-0.01 0.24,-0.03 0.34,0.03 0.01,0.52 0,1.04 0,1.55 0,0.22 -0.01,0.45 0.03,0.67 0.05,0.24 0.22,0.48 0.47,0.55 0.27,0.07 0.58,0.05 0.79,-0.13 0.19,-0.17 0.25,-0.43 0.25,-0.67 0,-0.65 0,-1.3 0,-1.95 0.09,-0.09 0.23,-0.06 0.35,-0.05 0.06,0.01 0.06,0.07 0.06,0.12 0,0.64 0,1.28 0,1.92 0,0.29 -0.1,0.58 -0.29,0.79 -0.18,0.19 -0.42,0.31 -0.67,0.33 -0.34,0.05 -0.71,0 -0.99,-0.2 -0.28,-0.21 -0.4,-0.56 -0.4,-0.89 -0.01,-0.65 0,-1.3 -0.01,-1.95z"/>
   <path class="fil2" d="M11.22 0.51c0.12,-0.02 0.25,-0.01 0.37,0 0.11,0.02 0.18,0.13 0.23,0.21 0.43,0.78 0.84,1.56 1.25,2.35 0,-0.83 0,-1.65 0,-2.48 -0.01,-0.1 0.12,-0.09 0.18,-0.09 0.08,0 0.22,-0.02 0.23,0.09 0,0.94 -0.01,1.88 0,2.83 0,0.08 -0.03,0.2 -0.13,0.21 -0.14,0.02 -0.32,0.04 -0.43,-0.08 -0.1,-0.11 -0.16,-0.26 -0.23,-0.39 -0.4,-0.73 -0.81,-1.46 -1.18,-2.21 0.01,0.85 0.01,1.71 0.01,2.56 -0.01,0.04 0,0.12 -0.06,0.12 -0.1,0.03 -0.21,0.03 -0.31,0 -0.05,-0.02 -0.04,-0.08 -0.04,-0.12 0,-0.93 0,-1.86 0,-2.79 0,-0.08 0.02,-0.19 0.11,-0.21z"/>
   <path class="fil2" d="M14.11 0.81c-0.01,-0.1 -0.06,-0.3 0.08,-0.31 0.72,0 1.43,0 2.14,0 0.11,0 0.1,0.12 0.1,0.19 -0.01,0.05 0,0.13 -0.06,0.16 -0.3,0.01 -0.61,0 -0.91,0 0,0.92 0,1.84 0,2.76 -0.13,0.05 -0.27,0.04 -0.4,0.01 -0.01,-0.92 0,-1.85 0,-2.77 -0.31,0 -0.61,0 -0.91,0 -0.01,-0.01 -0.03,-0.03 -0.04,-0.04z"/>
   <path class="fil2" d="M19.85 0.52c0.14,-0.03 0.3,-0.05 0.44,0.01 0.26,0.49 0.49,0.99 0.71,1.5 0.21,-0.49 0.44,-0.98 0.68,-1.46 0.01,-0.03 0.04,-0.07 0.08,-0.07 0.12,-0.01 0.25,-0.01 0.37,0.02 -0.05,0.15 -0.14,0.29 -0.2,0.43 -0.24,0.49 -0.5,0.97 -0.73,1.46 -0.02,0.39 0,0.79 -0.01,1.19 -0.11,0.08 -0.28,0.05 -0.4,0.01 0,-0.38 0,-0.76 0,-1.14 0,-0.07 -0.04,-0.13 -0.07,-0.19 -0.27,-0.54 -0.54,-1.07 -0.8,-1.6 -0.03,-0.05 -0.05,-0.11 -0.07,-0.16z"/>
   <path class="fil2" d="M23.15 0.59c0.04,-0.13 0.2,-0.09 0.3,-0.1 0.08,0.01 0.22,-0.01 0.25,0.1 0.36,1.01 0.73,2.01 1.09,3.02 -0.14,0.05 -0.29,0.05 -0.43,0.01 -0.11,-0.26 -0.19,-0.54 -0.3,-0.82 -0.43,0 -0.87,0 -1.3,0 -0.09,0.25 -0.17,0.5 -0.26,0.74 -0.01,0.03 -0.02,0.08 -0.07,0.09 -0.12,0.03 -0.25,0.03 -0.36,-0.02 0.02,-0.13 0.08,-0.26 0.12,-0.39 0.32,-0.88 0.64,-1.75 0.96,-2.63zm-0.29 1.89c0.18,-0.52 0.35,-1.06 0.55,-1.58 0.18,0.53 0.36,1.06 0.55,1.58 -0.37,0.01 -0.74,0 -1.1,0z"/>
  </g>
 </g>
</svg>
