<?xml version="1.0" encoding="UTF-8"?>
<!DOCTYPE svg PUBLIC "-//W3C//DTD SVG 1.1//EN" "http://www.w3.org/Graphics/SVG/1.1/DTD/svg11.dtd">
<!-- Creator: CorelDRAW 2018 (64-Bit) -->
<svg xmlns="http://www.w3.org/2000/svg" xml:space="preserve" width="354px" height="125px" version="1.1" style="shape-rendering:geometricPrecision; text-rendering:geometricPrecision; image-rendering:optimizeQuality; fill-rule:evenodd; clip-rule:evenodd"
viewBox="0 0 32.01 11.32"
 xmlns:xlink="http://www.w3.org/1999/xlink">
 <defs>
  <style type="text/css">
   <![CDATA[
    .fil4 {fill:#0E377F}
    .fil5 {fill:#12347F}
    .fil0 {fill:#183783}
    .fil2 {fill:#D61D15}
    .fil1 {fill:#D9241C}
    .fil3 {fill:#E2261E}
   ]]>
  </style>
 </defs>
 <g id="Layer_x0020_1">
  <metadata id="CorelCorpID_0Corel-Layer"/>
  <g id="_2474204642384">
   <path class="fil0" d="M1.48 8.36l0 -5.44c0,-0.95 0.56,-1.46 1.44,-1.46l5.88 0c0.3,0 0.6,0.06 0.82,0.2 0.15,0.1 0.26,0.2 0.36,0.34 0.05,0.07 0.09,0.15 0.12,0.22 0.09,0.17 0.12,0.32 0.12,0.58l0 5.7c0,0.37 -0.14,0.76 -0.39,0.99 -0.28,0.25 -0.63,0.35 -1.03,0.35l-5.88 0c-0.52,0 -0.8,-0.13 -1.06,-0.39 -0.26,-0.25 -0.38,-0.59 -0.38,-1.09zm-1.48 -5.54l0 5.66c0,0.81 0.25,1.46 0.82,2.03 0.56,0.56 1.22,0.81 2.02,0.81l6.04 0c0.34,0 0.65,-0.03 0.94,-0.14l0.26 -0.1c0.18,-0.08 0.32,-0.18 0.46,-0.26 0.16,-0.1 0.35,-0.3 0.48,-0.44l0.24 -0.3c0.1,-0.16 0.17,-0.31 0.25,-0.49 0.15,-0.35 0.21,-0.76 0.21,-1.25l0 -5.38c0,-0.46 -0.05,-0.85 -0.19,-1.19 -0.13,-0.33 -0.29,-0.6 -0.52,-0.85 -0.04,-0.04 -0.04,-0.06 -0.07,-0.09l-0.18 -0.17c-0.19,-0.17 -0.51,-0.37 -0.75,-0.47 -0.08,-0.03 -0.19,-0.07 -0.27,-0.09 -0.18,-0.06 -0.35,-0.1 -0.6,-0.1l-6.56 0c-0.32,0 -0.81,0.13 -1.06,0.28 -0.07,0.04 -0.15,0.08 -0.22,0.12 -0.23,0.15 -0.36,0.27 -0.56,0.46 -0.49,0.51 -0.74,1.24 -0.74,1.96z"/>
   <path class="fil1" d="M6.15 4.37c-0.04,0.06 0.05,0.05 -0.04,0.05 0,-0.06 -0.02,-0.05 0.04,-0.05zm0 0l-0.37 -0.58c-0.05,-0.08 -0.09,-0.12 -0.14,-0.21l-0.5 -0.79c-0.19,-0.31 -0.4,-0.5 -0.74,-0.57 -0.18,-0.04 -1.08,-0.04 -1.3,-0.01 -0.06,0 -0.07,0.01 -0.09,-0.03 -0.22,0 -0.5,0.04 -0.66,0.15 -0.05,0.03 -0.16,0.17 -0.18,0.22 -0.06,0.1 -0.06,0.22 -0.05,0.37 0.01,0.22 0.17,0.38 0.32,0.5 0.2,0.15 0.37,0.12 0.7,0.12 0.06,0.09 0.11,0.18 0.18,0.27 0.06,0.09 0.1,0.17 0.17,0.26l0.69 1.07c0.33,0.47 0.72,1.13 1.06,1.63 0.46,0.68 0.91,1.48 1.43,2.11 0.36,0.43 0.89,0.34 1.43,0.34 0.45,0 0.91,0.09 1.19,-0.35 0.15,-0.21 0.1,-0.62 -0.17,-0.81 -0.08,-0.06 -0.17,-0.1 -0.31,-0.13 -0.21,-0.03 -0.26,-0.01 -0.41,-0.01 -0.05,-0.09 -0.08,-0.14 -0.13,-0.22l-1.69 -2.65c-0.05,-0.08 -0.1,-0.14 -0.14,-0.22l-0.29 -0.46z"/>
   <path class="fil0" d="M8.32 4.94c0.54,0 1.02,-0.33 1.24,-0.81 0.27,-0.6 0.09,-1.17 -0.38,-1.59 -0.42,-0.38 -1.21,-0.41 -1.66,-0.04l-0.25 0.25c-0.1,0.12 -0.13,0.17 -0.19,0.31 -0.06,0.15 -0.13,0.38 -0.12,0.56 0.05,0.46 0.25,0.87 0.59,1.07 0.09,0.05 0.11,0.09 0.21,0.13 0.16,0.06 0.35,0.12 0.56,0.12z"/>
   <path class="fil0" d="M2 7.8c0,0.46 0.03,0.59 0.28,0.94 0.13,0.19 0.03,0.06 0.17,0.18 0.12,0.11 0.22,0.19 0.39,0.26 0.36,0.14 0.88,0.13 1.19,-0.09 0.18,-0.13 0.26,-0.16 0.43,-0.39l0.12 -0.22c0.21,-0.39 0.14,-0.92 -0.11,-1.31 -0.12,-0.19 -0.32,-0.36 -0.53,-0.47 -0.38,-0.19 -0.94,-0.16 -1.29,0.07 -0.15,0.1 -0.05,0.01 -0.19,0.15 -0.21,0.19 -0.05,0.01 -0.23,0.25 -0.11,0.13 -0.23,0.47 -0.23,0.63z"/>
   <path class="fil0" d="M22.31 6.92l0.54 0 0.03 -1.57c0.01,0.05 0.02,0.07 0.03,0.11l0.15 0.65c0.04,0.15 0.06,0.26 0.1,0.42 0.11,0.48 0.02,0.39 0.55,0.39 0.07,0 0.1,-0.21 0.13,-0.36l0.31 -1.24 0 1.44c-0.01,0.21 -0.06,0.16 0.56,0.16l0 -2.3 -0.88 0 -0.16 0.67c-0.03,0.12 -0.05,0.21 -0.07,0.34 -0.02,0.09 -0.05,0.27 -0.11,0.31 -0.01,-0.13 -0.19,-0.78 -0.23,-0.97 -0.02,-0.1 -0.07,-0.26 -0.07,-0.35l-0.88 0 0 2.3z"/>
   <path class="fil0" d="M20.13 2.02l0 2.1c0,0.05 0.01,0.06 0.06,0.06l0.58 0 0 -1.18 0.5 0.74c0.03,0.05 0.06,0.1 0.1,0.16 0.03,0.06 0.17,0.28 0.22,0.28l0.54 0c0.04,0 0.06,-0.01 0.06,-0.06l0 -2.1c0,-0.05 -0.02,-0.06 -0.06,-0.06 -0.72,0 -0.58,-0.12 -0.58,0.56 0,0.21 0,0.41 0,0.62l-0.7 -1.04c-0.12,-0.19 -0.04,-0.14 -0.66,-0.14 -0.05,0 -0.06,0.01 -0.06,0.06z"/>
   <path class="fil0" d="M19.19 7.32l0 2.12 0.64 0 0 -1.16c0.04,0.04 0.07,0.09 0.1,0.14l0.48 0.71c0.06,0.1 0.17,0.21 0.2,0.31l0.66 0 0 -2.18 -0.64 0 0 1.18c-0.02,-0.02 0,0.01 -0.03,-0.03 -0.01,-0.01 -0.02,-0.02 -0.03,-0.04l-0.68 -1c-0.1,-0.16 -0.17,-0.11 -0.64,-0.11 -0.05,0 -0.06,0.02 -0.06,0.06z"/>
   <path class="fil0" d="M28.49 5.54l-0.2 0 0 -0.44c0.37,0 0.58,-0.05 0.58,0.24 0,0.18 -0.2,0.2 -0.38,0.2zm0.26 0.94l0.02 0.02 0.2 0.42c0.2,0 0.4,0 0.6,0 0.25,0.01 0.15,0 0.01,-0.31l-0.14 -0.3c-0.03,-0.05 -0.03,-0.06 -0.05,-0.11 -0.09,-0.15 -0.16,-0.21 -0.31,-0.29 0,0 -0.01,-0.01 -0.01,-0.01 0.69,-0.16 0.6,-1.2 0.02,-1.24 -0.03,0 -0.03,0.01 -0.03,-0.02 -0.11,0 -0.19,-0.02 -0.33,-0.02l-1.12 0 0 2.3 0.68 0 0 -0.94c0.3,0 0.3,0.24 0.46,0.5z"/>
   <path class="fil0" d="M18.35 6.38l-0.16 0 0 -1.22c0.48,0 0.62,0.02 0.62,0.68 0,0.14 -0.03,0.33 -0.09,0.41 -0.07,0.1 -0.22,0.13 -0.37,0.13zm0.58 -1.68l-0.04 -0.02c-0.31,-0.11 -0.97,-0.06 -1.38,-0.06l0 2.3c0.62,0 1.58,0.17 1.87,-0.51 0.16,-0.38 0.17,-1.07 -0.11,-1.45 -0.07,-0.1 -0.21,-0.24 -0.34,-0.26z"/>
   <path class="fil0" d="M20.41 5.78c0,-0.82 0.63,-0.71 0.78,-0.48 0.14,0.23 0.16,0.88 -0.09,1.03 -0.22,0.14 -0.59,0.12 -0.67,-0.32 -0.01,-0.05 -0.02,-0.19 -0.02,-0.23zm-0.66 -0.18c0,0.44 -0.02,0.78 0.36,1.12l0.18 0.12c0.28,0.15 0.85,0.15 1.13,0 0.44,-0.24 0.55,-0.63 0.55,-1.16 0,-0.29 -0.11,-0.6 -0.3,-0.78 -0.24,-0.25 -0.49,-0.32 -0.86,-0.32 -0.6,0 -1.06,0.44 -1.06,1.02z"/>
   <path class="fil0" d="M16.02 5.14c0.44,0 0.46,0.34 0.46,0.7 0,0.24 -0.11,0.56 -0.36,0.56 -0.18,0 -0.33,0 -0.43,-0.2 -0.11,-0.21 -0.1,-0.72 0,-0.87 0.08,-0.12 0.18,-0.19 0.33,-0.19zm-1.1 0.64c0,0.34 0.1,0.62 0.26,0.81 0.32,0.38 0.6,0.35 1.04,0.35 0.44,0 0.8,-0.35 0.89,-0.73 0.18,-0.79 -0.1,-1.63 -1.03,-1.63 -0.73,0 -1.16,0.45 -1.16,1.2z"/>
   <path class="fil0" d="M30.95 6.4c-0.14,0 -0.31,-0.01 -0.4,-0.18 -0.1,-0.19 -0.22,-1.08 0.34,-1.08 0.18,0 0.28,0.04 0.37,0.19 0.03,0.07 0.05,0.13 0.06,0.2 0.01,0.07 0.03,0.18 0.03,0.23 0,0.05 -0.02,0.17 -0.03,0.24 -0.02,0.19 -0.13,0.4 -0.37,0.4zm-1.16 -0.72c0,0.4 0.03,0.63 0.27,0.93 0.28,0.36 0.66,0.33 1.05,0.33 0.18,0 0.41,-0.11 0.53,-0.21l0.09 -0.09c0.24,-0.29 0.28,-0.49 0.28,-0.94 0,-0.18 -0.02,-0.33 -0.07,-0.46 -0.34,-0.86 -1.44,-0.78 -1.86,-0.34 -0.15,0.16 -0.29,0.47 -0.29,0.78z"/>
   <path class="fil0" d="M26.23 6.4l-0.12 0c-0.55,0 -0.54,-1.26 0,-1.26 0.37,0 0.48,0.2 0.48,0.62 0,0.24 -0.06,0.64 -0.36,0.64zm-1.18 -0.76c0,0.35 0,0.72 0.26,0.98 0.1,0.1 0.15,0.16 0.28,0.22 0.24,0.13 0.46,0.1 0.74,0.1 0.57,0 0.94,-0.53 0.94,-1.14 0,-0.48 -0.15,-0.93 -0.62,-1.12 -0.34,-0.15 -0.85,-0.13 -1.15,0.07 -0.28,0.19 -0.45,0.53 -0.45,0.89z"/>
   <path class="fil0" d="M23.39 8.94l0 -1.18c0.63,0 0.62,0.2 0.62,0.72 0,0.45 -0.23,0.46 -0.62,0.46zm-0.68 0.5c0.48,0 1.05,0.05 1.46,-0.08 0.73,-0.23 0.77,-1.87 -0.14,-2.06 -0.26,-0.05 -1.03,-0.04 -1.32,-0.04l0 2.18z"/>
   <path class="fil0" d="M22.53 2.92c0,0.27 -0.02,0.4 0.08,0.66 0.25,0.61 0.66,0.62 1.2,0.62 0.34,0 0.56,-0.13 0.82,-0.3 0.04,-0.03 0.08,-0.02 0.08,-0.08l0 -0.9 -1.04 0 0 0.46 0.44 0 0 0.16c0,0.16 -0.9,0.42 -0.9,-0.34 0,-0.18 -0.02,-0.48 0.11,-0.63 0.17,-0.18 0.51,-0.26 0.71,0.11 0.13,0 0.33,-0.06 0.46,-0.08 0.15,-0.03 0.26,0.03 0.08,-0.29 -0.07,-0.12 -0.16,-0.2 -0.28,-0.27 -0.18,-0.12 -0.47,-0.1 -0.7,-0.1 -0.45,0 -0.81,0.21 -0.95,0.57 -0.05,0.11 -0.11,0.27 -0.11,0.41z"/>
   <path class="fil0" d="M15.1 2.98c0,0.51 0.11,0.89 0.58,1.13 0.3,0.15 0.93,0.12 1.22,-0.03l0.11 -0.05c0.06,-0.03 0.28,-0.15 0.28,-0.21l0 -0.9 -1.05 0 0 0.46 0.45 0 0 0.16c0,0.11 -0.56,0.33 -0.8,0.01 -0.14,-0.18 -0.15,-0.74 0,-0.95 0.12,-0.18 0.4,-0.24 0.58,-0.11 0.09,0.06 0.1,0.13 0.14,0.19 0.06,0 0.6,-0.1 0.64,-0.12 0.02,-0.02 -0.12,-0.62 -0.85,-0.62 -0.22,0 -0.49,-0.01 -0.68,0.07 -0.38,0.17 -0.62,0.57 -0.62,0.97z"/>
   <path class="fil0" d="M17.65 2.02l0 1.08c0,0.65 0.22,1.1 0.92,1.1 0.38,0 0.61,0.04 0.88,-0.23 0.14,-0.14 0.26,-0.36 0.26,-0.57l0 -1.44 -0.66 0 0 1.32c0,0.1 -0.03,0.2 -0.07,0.27 -0.12,0.18 -0.65,0.27 -0.65,-0.31l0 -1.28 -0.62 0c-0.05,0 -0.06,0.01 -0.06,0.06z"/>
   <path class="fil0" d="M13.86 2.58l0.22 0.74 -0.44 0c0.06,-0.11 0.07,-0.24 0.12,-0.37 0.03,-0.11 0.09,-0.25 0.1,-0.37zm-1.14 1.6l0.68 0c0.01,-0.13 0.08,-0.24 0.1,-0.36l0.74 0c0.01,0.13 0.08,0.24 0.1,0.36 0.16,0 0.31,0 0.46,0 0.26,0 0.27,0.04 0.19,-0.17 -0.04,-0.12 -0.09,-0.21 -0.13,-0.33l-0.62 -1.72 -0.72 0 -0.3 0.82c-0.08,0.2 -0.49,1.31 -0.5,1.4z"/>
   <path class="fil0" d="M16.81 7.86c0,0.1 0.07,0.28 0.09,0.37 0.04,0.1 0.1,0.26 0.11,0.37l-0.43 0c0.02,-0.14 0.14,-0.48 0.19,-0.65l0.04 -0.09zm-1.19 1.58l0.7 0c0.01,-0.11 0.08,-0.24 0.1,-0.36l0.75 0c0.02,0.11 0.09,0.27 0.1,0.36l0.72 0 -0.42 -1.11c-0.07,-0.18 -0.13,-0.37 -0.2,-0.55 -0.04,-0.09 -0.07,-0.17 -0.11,-0.28 -0.1,-0.32 0,-0.24 -0.78,-0.24 -0.07,0 -0.19,0.38 -0.24,0.52l-0.21 0.55c-0.06,0.23 -0.36,0.93 -0.41,1.11z"/>
   <path class="fil0" d="M13.54 5.6l0 -0.5c0.24,0 0.48,-0.02 0.48,0.26 0,0.11 -0.06,0.18 -0.15,0.21 -0.1,0.03 -0.24,-0.01 -0.33,0.03zm-0.68 1.32l0.62 0c0.05,0 0.06,-0.01 0.06,-0.06l0 -0.78c0.3,0 0.68,0.01 0.89,-0.15 0.42,-0.34 0.38,-1.31 -0.43,-1.31l-1.14 0 0 2.3z"/>
   <path class="fil0" d="M12.82 7.32l0 2.12 1.72 0 0 -0.54 -1.04 0 0 -1.56c0,-0.12 0.08,-0.08 -0.62,-0.08 -0.04,0 -0.06,0.02 -0.06,0.06z"/>
   <path class="fil2" d="M3.1 2.21c-0.03,-0.04 0.01,-0.02 -0.04,-0.03 -0.02,0 -0.04,0 -0.05,0 0.02,0.04 0.03,0.03 0.09,0.03z"/>
   <path class="fil3" d="M6.15 4.37c-0.06,0 -0.04,-0.01 -0.04,0.05 0.09,0 0,0.01 0.04,-0.05z"/>
   <path class="fil4" d="M29.09 4.66c0,-0.03 0.01,-0.02 -0.03,-0.02 0,0.03 0,0.02 0.03,0.02z"/>
   <polygon class="fil5" points="18.93,4.7 18.89,4.68 "/>
   <polygon class="fil4" points="28.77,6.5 28.75,6.48 "/>
  </g>
 </g>
</svg>
