<?xml version="1.0" encoding="UTF-8"?>
<!DOCTYPE svg PUBLIC "-//W3C//DTD SVG 1.1//EN" "http://www.w3.org/Graphics/SVG/1.1/DTD/svg11.dtd">
<!-- Creator: CorelDRAW 2018 (64-Bit) -->
<svg xmlns="http://www.w3.org/2000/svg" xml:space="preserve" width="354px" height="175px" version="1.1" style="shape-rendering:geometricPrecision; text-rendering:geometricPrecision; image-rendering:optimizeQuality; fill-rule:evenodd; clip-rule:evenodd"
viewBox="0 0 17.93 8.83"
 xmlns:xlink="http://www.w3.org/1999/xlink">
 <defs>
  <style type="text/css">
   <![CDATA[
    .fil0 {fill:#332C2B}
    .fil1 {fill:#ED4136}
   ]]>
  </style>
 </defs>
 <g id="Layer_x0020_1">
  <metadata id="CorelCorpID_0Corel-Layer"/>
  <g id="_2474158013472">
   <path class="fil0" d="M12.23 1.84c0,-0.18 0.09,-0.21 0.19,-0.1 0.06,0.07 0.95,1.64 1.03,1.77 0.03,0.06 0.05,0.07 0.01,0.13l-0.51 0.89c-0.1,0.17 -0.2,0.34 -0.3,0.51 -0.05,0.09 -0.09,0.17 -0.15,0.26 -0.17,0.31 -0.27,0.2 -0.27,0.03l0 -3.49zm-0.77 4.08c0.2,0.02 1.26,0.01 1.54,0.01 0.05,0 0.07,-0.08 0.1,-0.12l0.59 -1.02c0.11,-0.2 0.21,-0.38 0.33,-0.58 0.06,-0.09 0.1,-0.18 0.16,-0.28 0.23,-0.39 0.17,-0.33 -0.17,-0.92 -0.11,-0.19 -0.21,-0.38 -0.32,-0.57l-0.62 -1.07c-0.02,-0.04 -0.01,-0.04 -0.05,-0.06l-1.56 0 0 4.61z"/>
   <path class="fil0" d="M5.49 5.93l0.88 -0.01 -1.11 -1.89c0.4,-0.01 0.8,-0.01 1.2,-0.01 0.14,0 0.44,0.03 0.56,-0.02 0.32,-0.13 0.34,-0.59 0.02,-0.73 -0.13,-0.06 -0.41,-0.04 -0.57,-0.04 -0.4,0 -0.8,0 -1.2,0l1.2 -2.1c-0.21,-0.01 -0.65,0 -0.88,0 -0.06,0 -0.15,0.19 -0.2,0.27l-0.89 1.46c-0.47,0.77 -0.42,0.63 -0.06,1.28l0.94 1.65c0.02,0.05 0.05,0.14 0.11,0.14z"/>
   <path class="fil0" d="M9.04 5.93l0.88 -0.01 -1.1 -1.89c0.4,-0.01 0.8,-0.01 1.19,-0.01 0.15,0 0.44,0.03 0.57,-0.02 0.31,-0.13 0.34,-0.59 0.01,-0.73 -0.12,-0.06 -0.41,-0.04 -0.57,-0.04 -0.4,0 -0.8,0 -1.2,0l1.2 -2.1c-0.16,-0.01 -0.68,0 -0.88,0 -0.05,0 -0.14,0.18 -0.19,0.27l-0.54 0.88c-0.11,0.19 -0.67,1.05 -0.69,1.19 -0.02,0.2 0.03,0.23 0.1,0.36l1.03 1.81c0.05,0.09 0.14,0.29 0.19,0.29z"/>
   <path class="fil0" d="M2.54 4.02c-0.02,0.1 -1.02,1.74 -1.08,1.91l0.91 0c0.07,-0.15 0.18,-0.33 0.26,-0.47 0.1,-0.16 0.18,-0.31 0.27,-0.47 0.19,-0.31 0.37,-0.63 0.55,-0.94 0.08,-0.15 0.22,-0.32 0.16,-0.55 -0.03,-0.1 -0.09,-0.16 -0.16,-0.2 -0.11,-0.07 -0.2,-0.05 -0.33,-0.05 -0.49,0 -1.01,0.02 -1.49,0l1.21 -2.11 -0.92 -0.01c-0.1,0.16 -0.19,0.33 -0.28,0.5 -0.1,0.16 -0.19,0.33 -0.29,0.49l-0.72 1.24c-0.1,0.19 -0.13,0.4 0.04,0.56 0.19,0.17 0.77,0.1 1.07,0.1 0.27,0 0.53,0 0.8,0z"/>
   <path class="fil0" d="M16.85 4l-1.09 1.9 0.92 0c0.02,-0.05 0.09,-0.17 0.13,-0.23l0.4 -0.71c0.18,-0.31 0.36,-0.62 0.54,-0.93 0.12,-0.2 0.33,-0.53 -0.01,-0.74 -0.09,-0.05 -0.21,-0.04 -0.33,-0.04 -0.5,0 -0.99,0 -1.49,0l1.21 -2.11 -0.91 -0.01c-0.39,0.64 -0.75,1.32 -1.14,1.96 -0.13,0.22 -0.22,0.34 -0.22,0.55 0,0.26 0.17,0.36 0.42,0.36 0.52,0 1.05,-0.01 1.57,0z"/>
   <path class="fil0" d="M15.22 7c0,0.18 -0.01,1.71 0.01,1.76 0.03,0.1 0.26,0.1 0.28,-0.02 0.03,-0.15 -0.03,-1.05 0.01,-1.29 0.13,0.22 0.25,0.45 0.38,0.68 0.12,0.22 0.24,0.48 0.37,0.69l0.37 0c0.01,-0.17 0.02,-1.68 0,-1.75 -0.03,-0.1 -0.26,-0.1 -0.28,0.02l-0.01 1.3 -0.74 -1.39 -0.39 0z"/>
   <path class="fil0" d="M1.76 7.59c0,-0.1 0.09,-0.13 0.23,-0.2 0,0.07 0.01,0.14 0.01,0.2l0 0.51c0.01,0.08 0.05,0.12 0.13,0.12 0.07,0 0.13,-0.04 0.14,-0.1 0.02,-0.06 0,-0.59 0.01,-0.73 0.09,0.04 0.23,0.12 0.3,0.17l0 1.23 0.31 0 -0.01 -1.4c-0.8,-0.45 -0.62,-0.5 -1.07,-0.24 -0.11,0.06 -0.24,0.13 -0.34,0.2 -0.02,0.24 0,1.13 0,1.44l0.29 0 0 -1.2z"/>
   <path class="fil1" d="M0.53 0.01c-0.32,0.07 -0.59,0.36 -0.52,0.76 0.06,0.31 0.36,0.58 0.75,0.52 0.32,-0.05 0.6,-0.37 0.53,-0.76 -0.06,-0.32 -0.37,-0.59 -0.76,-0.52z"/>
   <path class="fil0" d="M4.95 7.3c0.05,0.02 0.08,0.1 0.11,0.16 0.3,0.58 0.35,0.35 0.1,0.8 -0.24,0.41 -0.22,0.33 -0.43,-0.03 -0.23,-0.39 -0.21,-0.21 0.11,-0.79 0.06,-0.1 0.06,-0.13 0.11,-0.14zm-0.24 1.51c0.1,0 0.33,0.01 0.42,0 0.07,-0.01 0.07,-0.04 0.1,-0.1l0.38 -0.64c0.07,-0.13 0.06,-0.17 -0.02,-0.28l-0.43 -0.76c-0.09,-0.01 -0.34,-0.02 -0.42,0l-0.26 0.44c-0.04,0.07 -0.23,0.38 -0.24,0.44 -0.01,0.12 0.38,0.7 0.47,0.9z"/>
   <path class="fil0" d="M13.21 8.52c-0.01,0 -0.01,0 -0.02,-0.01l-0.26 -0.44c-0.04,-0.05 -0.08,-0.11 -0.07,-0.17 0.02,-0.04 0.3,-0.52 0.35,-0.59 0.05,0.07 0.34,0.55 0.35,0.59 0.02,0.06 -0.03,0.12 -0.06,0.17l-0.27 0.44c0,0.01 -0.01,0.01 -0.02,0.01zm0 -1.5l-0.18 -0.01c-0.03,0.04 -0.5,0.83 -0.5,0.89 -0.02,0.1 0.16,0.36 0.22,0.46 0.07,0.14 0.19,0.31 0.25,0.45l0.22 -0.01 0.21 0.01c0.06,-0.14 0.17,-0.31 0.25,-0.45 0.06,-0.1 0.24,-0.36 0.22,-0.46 -0.01,-0.06 -0.47,-0.85 -0.51,-0.89l-0.18 0.01z"/>
   <path class="fil0" d="M8.16 7.28c0.07,-0.02 0.13,-0.1 0.09,-0.2 -0.05,-0.12 -0.35,-0.08 -0.55,-0.08 -0.16,0 -0.5,-0.05 -0.56,0.08 -0.04,0.1 0.02,0.18 0.1,0.2 0.07,0.02 0.23,0.01 0.31,0.01l0 1.5 0.29 0 0 -1.5c0.1,-0.02 0.22,0.01 0.32,-0.01z"/>
   <path class="fil0" d="M10.15 8.8c0.08,0.01 0.72,0.02 0.79,0l0 -0.29 -0.24 0c-0.02,-0.19 -0.01,-0.97 -0.01,-1.25 0,-0.14 0.01,-0.27 -0.15,-0.27 -0.15,-0.01 -0.14,0.13 -0.14,0.27l0 1.25 -0.25 0.01 0 0.28z"/>
  </g>
 </g>
</svg>
