<?xml version="1.0" encoding="UTF-8"?>
<!DOCTYPE svg PUBLIC "-//W3C//DTD SVG 1.1//EN" "http://www.w3.org/Graphics/SVG/1.1/DTD/svg11.dtd">
<!-- Creator: CorelDRAW 2018 (64-Bit) -->
<svg xmlns="http://www.w3.org/2000/svg" xml:space="preserve" width="354px" height="171px" version="1.1" style="shape-rendering:geometricPrecision; text-rendering:geometricPrecision; image-rendering:optimizeQuality; fill-rule:evenodd; clip-rule:evenodd"
viewBox="0 0 25.6 12.32"
 xmlns:xlink="http://www.w3.org/1999/xlink">
 <defs>
  <style type="text/css">
   <![CDATA[
    .fil1 {fill:#321C2F}
    .fil0 {fill:#EA9587}
   ]]>
  </style>
 </defs>
 <g id="Layer_x0020_1">
  <metadata id="CorelCorpID_0Corel-Layer"/>
  <g id="_2474162522624">
   <path class="fil0" d="M13.61 0.62c-0.25,-0.07 -0.09,-0.09 -0.29,0.01 0.42,0.6 0.91,0.5 0.98,1.78 -1.35,-0.24 -1.27,-0.9 -1.64,-1.04 -0.1,0.26 0.36,0.78 0.5,0.91 0.28,0.24 0.77,0.36 1.11,0.49l-0.33 1.26c-0.35,0.04 -0.59,0.09 -0.92,-0.02 0,-0.78 -0.35,-2.11 -0.75,-2.04 0,0.01 -0.01,0.02 -0.01,0.04 0.01,0.31 0.14,0.2 0.26,0.67 -0.2,-0.07 -0.3,-0.16 -0.56,-0.13 0.22,0.4 0.31,0.27 0.69,0.54l0.09 0.87c-0.78,-0.13 -0.36,-0.46 -0.8,-0.33l0 0.2c0.01,0.03 0.11,0.17 0.12,0.18 0.12,0.13 0.26,0.2 0.46,0.26 1.38,0.43 3.19,-0.23 3.09,1.15 -0.26,-0.11 -0.48,-0.27 -0.85,-0.31 0.06,0.84 0.64,0.27 0.9,1.29 0.13,0.53 0.06,1.56 0.67,1.54 0.58,-0.02 0.52,-1 0.66,-1.57 0.13,-0.52 0.06,-0.4 0.47,-0.64 0.27,-0.16 0.37,-0.27 0.45,-0.62 -0.32,0 -0.54,0.17 -0.83,0.27l0.01 -0.57c1.81,-0.53 3.87,0.05 3.96,-1.61 -0.41,0.07 -0.13,0.18 -0.57,0.6 -0.23,0.22 -0.51,0.3 -0.9,0.33 0.26,-0.25 0.41,-0.37 0.62,-0.69 0.18,-0.27 0.32,-0.48 0.39,-0.88 0.45,-0.01 0.52,-0.02 0.66,-0.31 -0.27,-0.16 -0.33,-0.09 -0.62,-0.01 0.01,-0.49 -0.02,-0.38 -0.14,-0.44 -0.12,0.17 -0.19,0.62 -0.24,0.83 -1.33,-0.69 -0.78,-1.1 -0.65,-1.45 -0.17,-0.14 0.08,-0.02 -0.2,-0.07 -0.01,-0.01 -0.03,0 -0.04,-0.01 0,-0.05 0.02,-0.19 0.01,-0.23 -0.02,-0.19 0.01,-0.12 -0.08,-0.23 -0.21,0.25 -0.22,1.06 -0.08,1.43 0.18,0.48 0.54,0.46 0.84,0.94 -0.37,0.52 -0.6,0.85 -1.56,0.96l-0.52 -0.7c0.14,-0.17 0.21,-0.21 0.32,-0.38 0.37,-0.55 0.05,-0.55 0.04,-0.55 -0.22,0.18 -0.13,0.28 -0.44,0.48l0.08 -0.66c-0.23,0.04 -0.22,0.01 -0.31,0.34 -0.18,0.71 0.11,1.01 0.35,1.47 -0.25,0.16 -0.8,0.18 -1.09,0.34 -0.69,0.38 -0.26,0.72 -0.58,0.94 -0.13,-0.09 -0.4,-0.85 -0.36,-1.07 0.18,-1.04 1.35,-1.3 1.36,-3.22 0.43,-0.07 0.56,0 0.65,-0.34 -0.3,-0.19 -0.42,-0.06 -0.62,0.06 -0.17,-0.28 -0.01,-0.37 -0.31,-0.45 -0.26,0.34 0.08,0.26 -0.07,1.06 -0.07,0.4 -0.2,0.69 -0.33,1.03 -0.42,-0.12 -0.86,-0.41 -1.12,-0.66 0.09,-0.27 0.31,-0.54 0.24,-0.87 -0.08,-0.38 -0.05,-0.17 -0.16,-0.24 -0.2,0.38 0.03,0.35 -0.37,0.84 -0.43,-0.51 -0.31,-0.87 -0.59,-1.35 -0.1,0.14 -0.04,-0.04 -0.08,0.2 -0.16,1.05 0.94,1.93 1.74,2.38l-0.3 0.42c-0.37,-0.15 -0.27,-0.32 -0.76,-0.22 0.05,0.32 0.17,0.36 0.54,0.41 -0.11,0.28 -0.28,0.58 -0.44,0.88l-0.98 -0.12c0.1,-0.7 0.57,-1.46 0.02,-2.55 -0.18,-0.36 -0.36,-0.46 -0.6,-0.75 0.17,-0.23 0.28,-0.34 0.15,-0.69 -0.32,0.11 -0.34,0.18 -0.34,0.62z"/>
   <path class="fil1" d="M22.81 8.22c0.43,0.04 1.46,0.03 1.74,0.3 -0.12,0.34 -0.56,0.31 -0.97,0.26 -0.5,-0.06 -0.72,-0.12 -0.77,-0.56zm1.07 -1.45c-0.91,0.18 -0.8,-1.08 -0.43,-1.42 0.63,0.12 0.62,0.99 0.43,1.42zm-1.11 0.16l0.29 0.1 -0.15 0.06c-0.71,0.05 -0.96,0.35 -0.67,0.95 -0.09,0.12 -0.85,0.71 0.5,1.02 2.29,0.52 3.93,-1.44 1.5,-1.65 -0.85,-0.07 -0.75,0.03 -0.89,-0.25 0.41,-0.23 1.95,0.09 1.63,-1.48l0.49 0.11c0.19,-0.03 0.02,0.07 0.13,-0.06l0 -0.6 -0.23 0.05c-1.09,0.07 -0.12,0.17 -1.3,-0.07 -2.06,-0.42 -2.59,1.56 -1.3,1.82z"/>
   <path class="fil1" d="M12.7 6.2c0,-0.48 0.19,-0.55 0.69,-0.47 0.55,0.88 0.17,2.33 -0.53,1.89 -0.28,-0.18 -0.16,-0.51 -0.16,-1.42zm0.05 2.3c-0.16,-0.11 -0.1,-0.39 -0.08,-0.61l0.23 0.07c1.17,-0.02 1.96,-0.42 1.91,-1.67 -0.05,-1.27 -1.26,-1.44 -1.99,-0.73l-0.19 -0.43c-0.23,-0.01 -1.29,0.26 -1.51,0.36 0.07,0.19 -0.01,0.05 0.15,0.19 0.06,0.04 0.21,0.1 0.25,0.13 0.06,0.57 0.02,1.24 0.03,1.83 0,1.57 -0.31,0.87 -0.44,1.35 0.24,0.23 1.77,0.1 2.21,0.1 -0.06,-0.54 0.1,-0.11 -0.29,-0.31 -0.22,-0.11 -0.19,-0.06 -0.28,-0.28z"/>
   <path class="fil1" d="M18.07 5.49c0.08,0.19 -0.02,0.05 0.16,0.18 0.05,0.04 0.22,0.1 0.27,0.13 0.16,2.51 -0.29,1.51 -0.45,2 0.18,0.15 1.58,0.08 1.96,0.1 -0.07,-0.69 -0.35,0.31 -0.34,-1.14 0,-0.76 -0.14,-1.13 0.34,-1.12 0.63,0.02 0.38,1.63 0.35,1.72 -0.18,0.5 -0.22,-0.03 -0.27,0.54l1.66 -0.03c0.23,-0.05 0.03,0.04 0.18,-0.07 -0.1,-0.25 -0.18,-0.05 -0.33,-0.31 -0.08,-0.15 -0.06,-0.38 -0.05,-0.56 0,-0.39 0.05,-0.95 -0.08,-1.31 -0.28,-0.81 -1.16,-0.56 -1.72,-0.16 -0.1,-0.15 -0.06,-0.18 -0.16,-0.34 -0.24,0.03 -1.32,0.28 -1.52,0.37z"/>
   <path class="fil1" d="M2.44 5.24l0.23 0.03 0.01 -0.26 -0.04 -0.69c-0.4,-0.05 -0.09,0.06 -0.51,0.03 -0.29,-0.02 -1.04,-0.32 -1.63,0.08 -0.68,0.45 -0.6,1.3 0.04,1.76 0.65,0.47 1.56,0.77 1.14,1.32 -0.21,0.28 -0.72,0.24 -0.99,0.04 -0.44,-0.3 -0.24,-0.64 -0.65,-0.7 -0.11,0.25 0.02,0.77 0.1,1.09 0.4,-0.02 0.35,-0.07 0.79,0 0.89,0.15 1.96,-0.06 1.97,-1.1 0.01,-1.38 -2.18,-1.31 -1.77,-2.18 0.48,-0.47 1.19,0.12 1.31,0.58z"/>
   <path class="fil1" d="M3.98 8.96c0.05,0.5 0.17,2.62 -0.07,2.86 -0.19,0.18 -0.26,0.03 -0.37,0.28l0.26 0.08c0.07,0.01 0.23,0 0.31,0 1.65,-0.08 1.79,0.26 1.84,-0.23 -0.84,-0.01 -0.72,-0.17 -0.72,-1.44 2.17,0 0.46,0.5 1.42,0.46l0.01 -1.16c-0.83,-0.02 0.56,0.42 -1.43,0.42l0.02 -1.38c0.5,0.01 1.03,-0.05 1.49,0.08 0.27,0.56 -0.04,0.43 0.33,0.54 0.06,-0.1 0.03,0.01 0.06,-0.17l-0.02 -0.67c-0.49,-0.14 -2.87,-0.05 -3.55,-0.05 0.04,0.43 -0.01,0.21 0.42,0.38z"/>
   <path class="fil1" d="M9.18 11.96c-0.52,0.02 -0.69,-0.31 -0.84,-0.72 -0.56,-1.46 0.18,-2.11 0.67,-1.15 0.31,0.61 0.45,1.21 0.17,1.87zm-0.77 -2.53c-0.92,0.17 -1.59,0.68 -1.39,1.77 0.15,0.85 1.12,1.2 2.05,1.07 2.21,-0.31 1.77,-3.26 -0.66,-2.84z"/>
   <path class="fil1" d="M9.33 6.18c0.03,-0.38 0.05,-0.48 0.19,-0.78 0.53,0.01 0.46,0.3 0.51,0.81l-0.7 -0.03zm0 0.28l1.75 -0.02c-0.05,-1.93 -2.55,-1.67 -2.88,-0.22 -0.29,1.26 0.75,1.92 1.83,1.75 0.43,-0.07 1.07,-0.49 1.06,-0.74 -0.04,-0.5 -0.39,0.4 -1.05,0.33 -0.55,-0.06 -0.65,-0.59 -0.71,-1.1z"/>
   <path class="fil1" d="M14.69 10.51c0.03,-0.44 0.02,-0.6 0.29,-0.82 0.43,0.11 0.38,0.38 0.4,0.82l-0.69 0zm0 0.24l1.77 -0.01c-0.1,-1.13 -0.92,-1.67 -2.05,-1.2 -0.86,0.35 -1.27,1.65 -0.5,2.35 0.93,0.84 2.42,0.19 2.53,-0.32 0.09,-0.42 -0.28,-0.03 -0.36,0.03 -0.67,0.57 -1.27,0.28 -1.39,-0.85z"/>
   <path class="fil1" d="M6.11 6.2c0.04,-0.49 0,-0.79 0.51,-0.8 0.15,0.31 0.14,0.39 0.19,0.8l-0.7 0zm1.71 0.93c-0.37,-0.06 -0.37,0.61 -1.12,0.41 -0.43,-0.11 -0.54,-0.6 -0.59,-1.1l1.77 0c-0.08,-1.93 -2.66,-1.68 -2.92,-0.1 -0.33,1.99 2.45,1.99 2.85,1l0.01 -0.21z"/>
   <path class="fil1" d="M2.94 4.37c0.42,0.54 0.44,-0.36 0.44,1.67 0,2.33 -0.23,1.18 -0.44,1.76 0.22,0.17 0.35,0.06 0.94,0.06 0.35,-0.01 0.74,0.07 1.07,-0.01 -0.03,-0.43 -0.3,-0.02 -0.41,-0.55 -0.05,-0.24 0.04,-2.62 -0.03,-3.32 -0.29,-0.02 -1.41,0.23 -1.57,0.39z"/>
   <path class="fil1" d="M10.52 9.79c0.08,0.25 0.14,0.15 0.44,0.34 0.04,0.34 0.13,1.42 -0.11,1.68 -0.19,0.21 -0.25,0.07 -0.34,0.29 0.11,0.09 0.13,0.1 0.47,0.08 0.34,-0.01 1.64,0.07 1.82,-0.08 -0.1,-0.28 0.09,-0.04 -0.27,-0.18 -0.16,-0.06 -0.19,-0.06 -0.33,-0.15 -0.15,-0.64 -0.12,-1.23 0.24,-1.55l0.78 0.2 0.37 -0.71c-0.14,-0.14 -0.76,-0.58 -1.13,-0.05 -0.19,0.28 -0.04,0.19 -0.31,0.38l-0.01 -0.53c-0.24,-0.16 -0.41,-0.01 -0.72,0.07 -0.3,0.09 -0.67,0.09 -0.9,0.21z"/>
   <path class="fil1" d="M16.82 11.41c-0.12,0.19 -0.05,0.59 -0.03,0.87 0.39,-0.04 0.21,-0.1 0.62,-0.06 0.26,0.03 0.4,0.08 0.69,0.06 0.43,-0.04 0.79,-0.31 0.87,-0.67 0.29,-1.23 -1.32,-1.01 -1.09,-1.87 0.29,-0.07 0.39,-0.08 0.54,0.12 0.29,0.37 -0.08,0.36 0.41,0.45l0.01 -0.66c-1.06,-0.74 -2.8,0.13 -1.82,1.22 0.2,0.22 1.08,0.63 0.94,0.95 -0.09,0.23 -0.41,0.21 -0.62,0.09 -0.41,-0.26 -0.13,-0.43 -0.52,-0.5z"/>
   <path class="fil1" d="M19.11 9.79c0.29,0.01 0.16,-0.03 0.32,0.08 0,0.74 -0.41,3.01 1.47,2.33 0.46,-0.17 0.71,-0.37 0.57,-0.68 -0.37,-0.04 -0.2,0.45 -0.76,0.21 -0.26,-0.43 -0.12,-1.35 -0.12,-1.92 0.52,-0.05 0.82,0.16 0.87,-0.32l-0.87 -0.01 0 -0.8c-0.3,0.06 -0.42,0.4 -0.69,0.6 -0.49,0.38 -0.66,0.2 -0.79,0.51z"/>
  </g>
 </g>
</svg>
