<?xml version="1.0" encoding="UTF-8"?>
<!DOCTYPE svg PUBLIC "-//W3C//DTD SVG 1.1//EN" "http://www.w3.org/Graphics/SVG/1.1/DTD/svg11.dtd">
<!-- Creator: CorelDRAW 2018 (64-Bit) -->
<svg xmlns="http://www.w3.org/2000/svg" xml:space="preserve" width="354px" height="131px" version="1.1" style="shape-rendering:geometricPrecision; text-rendering:geometricPrecision; image-rendering:optimizeQuality; fill-rule:evenodd; clip-rule:evenodd"
viewBox="0 0 17.93 6.64"
 xmlns:xlink="http://www.w3.org/1999/xlink">
 <defs>
  <style type="text/css">
   <![CDATA[
    .fil4 {fill:#016127}
    .fil5 {fill:#046326}
    .fil0 {fill:#1D1B18}
    .fil9 {fill:#343433}
    .fil10 {fill:#5C5411}
    .fil11 {fill:#D7D406}
    .fil2 {fill:#E10016}
    .fil6 {fill:#F4E302}
    .fil8 {fill:#FBE600}
    .fil3 {fill:#FECB00}
    .fil7 {fill:#FEE800}
    .fil1 {fill:white}
    .fil12 {fill:#332C2B;fill-rule:nonzero}
   ]]>
  </style>
 </defs>
 <g id="Layer_x0020_1">
  <metadata id="CorelCorpID_0Corel-Layer"/>
  <g id="_2474158003648">
   <g>
    <path class="fil0" d="M2.16 5.31l0.23 0c0.02,0.25 0.04,0.5 0.06,0.75 0.01,0.13 0.02,0.25 0.03,0.38 0,0.06 0.01,0.05 -0.07,0.13 -0.03,0.02 -0.08,0.06 -0.14,0.06 -0.08,-0.01 -0.15,-0.07 -0.19,-0.12 -0.03,-0.03 -0.02,-0.02 -0.02,-0.08l0.07 -0.75c0.01,-0.12 0.02,-0.25 0.03,-0.37zm0.11 -5.31l0 0c0.01,0.01 0.02,0.04 0.02,0.05 0.03,0.11 0.1,0.3 0.12,0.38l0.38 0c0.06,0 0.07,0 0.12,-0.02 0.2,-0.05 0.45,-0.05 0.62,0.08l0.06 0.04c0.01,0.01 0,0.01 0.01,0.02 0.02,0.02 0.04,0.04 0.06,0.07 0.07,0.09 0.03,0.09 0.08,0.11 0.05,0.01 0.1,0.03 0.14,0.05 0.03,0.01 0.06,0.03 0.08,0.05 0.03,0.02 0.04,0.03 0.07,0.06 0.01,0.01 0.02,0.02 0.03,0.03 0.03,0.03 0.06,0.07 0.08,0.11 0.01,0.02 0.01,0.03 0.02,0.05 0,0.01 0.01,0.01 0.01,0.02 0,0.01 0,0.02 0.01,0.02 0,0.02 0,0.01 0.02,0.02l0.06 0.03c0.04,0.02 0.07,0.06 0.1,0.09 0.01,0.02 0.01,0.03 0.02,0.04 0.01,0.03 0.03,0.07 0.04,0.09 0.01,0.07 0.02,0.16 0.01,0.24 0,0.02 -0.01,0.04 -0.01,0.06 -0.01,0.1 -0.02,0.04 0.04,0.13 0.06,0.11 0.05,0.31 -0.01,0.42 0.02,0.01 0.05,0.06 0.06,0.08 0.01,0.04 0.02,0.07 0.02,0.11l0 0.01c0,0.09 -0.02,0.14 -0.06,0.22 0.08,0.11 0.04,0.28 -0.02,0.4 -0.03,0.06 -0.05,0.06 -0.07,0.1 0.01,0.03 0.06,0.09 0.05,0.2 -0.01,0.04 -0.01,0.07 -0.03,0.1 -0.01,0.02 -0.04,0.06 -0.06,0.07 0,0.08 -0.01,0.12 -0.04,0.17 -0.03,0.03 -0.08,0.09 -0.12,0.1 0.03,0.06 -0.03,0.3 -0.16,0.32 0.03,0.02 0.05,0.05 0.07,0.08 0.13,0.16 0.15,0.31 0.06,0.5 -0.02,0.05 -0.04,0.1 -0.07,0.14 -0.02,0.05 -0.05,0.09 -0.07,0.13 -0.05,0.09 -0.1,0.18 -0.13,0.29 -0.01,0.03 -0.01,0.06 -0.02,0.09 0,0.04 0,0.05 0.01,0.09 0.07,0.13 0.15,0.35 0.1,0.49 -0.05,0.12 -0.16,0.1 -0.19,0.12 -0.01,0.01 -0.02,0.01 -0.03,0.02 -0.08,0.04 -0.19,0.09 -0.28,0.07l-0.09 -0.01c0,0.08 -0.03,0.13 -0.08,0.16 -0.09,0.06 -0.15,0.01 -0.18,0.01 0,0.03 -0.02,0.08 -0.03,0.1 -0.02,0.03 -0.04,0.06 -0.07,0.07 -0.03,0.02 -0.07,0.01 -0.11,0 -0.02,-0.01 -0.03,-0.01 -0.05,-0.02 -0.01,-0.01 -0.02,-0.02 -0.04,-0.02 0,0.02 -0.04,0.07 -0.05,0.08 -0.01,0.01 -0.02,0.02 -0.04,0.03 -0.04,0.03 -0.1,0.03 -0.15,0.01 -0.03,-0.01 -0.07,-0.04 -0.08,-0.04 -0.01,0.01 -0.02,0.01 -0.02,0.03 -0.02,0.02 -0.05,0.04 -0.07,0.06 -0.05,0.04 -0.08,0.04 -0.14,0.04l0 0c-0.06,0 -0.09,-0.01 -0.13,-0.04 -0.03,-0.02 -0.07,-0.06 -0.09,-0.09 -0.02,0 -0.01,0 -0.02,0.01 -0.05,0.04 -0.11,0.06 -0.17,0.04 -0.02,-0.01 -0.03,-0.02 -0.04,-0.02 -0.03,-0.03 -0.08,-0.08 -0.09,-0.11 -0.02,0 -0.03,0.01 -0.05,0.02 -0.05,0.02 -0.11,0.03 -0.16,0.01 -0.06,-0.02 -0.1,-0.09 -0.1,-0.16 -0.01,0 -0.02,0.01 -0.04,0.01 -0.02,0.01 -0.04,0.01 -0.05,0.01 -0.07,-0.01 -0.12,-0.03 -0.15,-0.09 -0.01,-0.02 -0.02,-0.06 -0.02,-0.09 -0.04,0 -0.07,0.01 -0.1,0.01 -0.15,0 -0.28,-0.1 -0.31,-0.1 -0.26,-0.03 -0.2,-0.3 -0.13,-0.47 0.02,-0.06 0.04,-0.1 0.06,-0.15 0.01,-0.03 0.01,-0.05 0,-0.09 -0.01,-0.13 -0.08,-0.26 -0.14,-0.37 -0.03,-0.05 -0.07,-0.1 -0.09,-0.16l-0.05 -0.1c-0.04,-0.09 -0.08,-0.22 -0.04,-0.34 0.03,-0.08 0.07,-0.13 0.12,-0.2 0.01,-0.01 0.03,-0.03 0.04,-0.05 -0.04,0 -0.08,-0.03 -0.1,-0.05 -0.05,-0.07 -0.09,-0.17 -0.07,-0.26 -0.04,-0.03 -0.08,-0.06 -0.11,-0.1 -0.04,-0.05 -0.05,-0.11 -0.05,-0.17 -0.02,-0.01 -0.02,-0.02 -0.03,-0.04 -0.09,-0.1 -0.07,-0.24 0,-0.34 -0.03,-0.01 -0.06,-0.07 -0.08,-0.1 -0.05,-0.09 -0.08,-0.23 -0.05,-0.33 0.01,-0.03 0.03,-0.06 0.02,-0.08 -0.03,-0.06 -0.05,-0.11 -0.05,-0.17l0 -0.04c0,-0.03 0.01,-0.05 0.01,-0.08 0.04,-0.12 0.08,-0.07 0.05,-0.15 -0.03,-0.09 -0.04,-0.21 -0.02,-0.3 0.01,-0.03 0.02,-0.06 0.04,-0.08 0.05,-0.09 0.05,-0.04 0.03,-0.12 0,-0.04 -0.01,-0.1 -0.01,-0.14 0,-0.07 0.01,-0.13 0.03,-0.2 0.02,-0.07 0.07,-0.14 0.13,-0.19 0.07,-0.04 0.09,-0.03 0.1,-0.06 0.01,-0.04 0.03,-0.08 0.05,-0.11 0.03,-0.05 0.06,-0.08 0.1,-0.12 0.08,-0.07 0.17,-0.13 0.28,-0.16 0.02,0 0.02,0 0.03,-0.01 0.02,-0.04 0.04,-0.07 0.07,-0.11 0.17,-0.23 0.45,-0.25 0.72,-0.2 0.03,0.01 0.05,0.02 0.09,0.02 0.14,0 0.28,0 0.43,0 0.01,-0.01 0.01,-0.03 0.02,-0.05 0,-0.02 0.01,-0.03 0.02,-0.05l0.07 -0.22c0.01,-0.03 0.03,-0.07 0.03,-0.11zm1.11 6.13l0 0zm-0.03 -0.1c0.14,0.02 0.23,-0.01 0.33,-0.07 0.04,-0.03 0.08,-0.07 0.11,-0.11 0.07,-0.1 0.03,-0.1 0.05,-0.15 0.03,0.07 0.03,0.14 0,0.2 -0.01,0.03 -0.02,0.06 -0.03,0.08 -0.02,0.03 -0.03,0.04 -0.06,0.06 -0.05,0.03 -0.11,0.06 -0.17,0.07 -0.05,0.01 -0.16,0.02 -0.2,-0.01 -0.01,-0.01 -0.02,-0.05 -0.03,-0.07zm-2.19 0.08c-0.12,0.05 -0.29,-0.02 -0.37,-0.07 -0.02,-0.01 -0.03,-0.03 -0.05,-0.06 -0.05,-0.08 -0.07,-0.19 -0.03,-0.27 0.02,0.04 -0.01,0.06 0.05,0.14 0.09,0.13 0.23,0.2 0.41,0.19l-0.01 0.07zm2.4 -0.57c0.04,0.01 0.05,0.01 0.07,-0.01 0.03,-0.01 0.13,0.02 0.15,-0.13 0,0.01 0,0.01 0.01,0.02 0,0.01 0.01,0.01 0.01,0.02 0.01,0.04 0.03,0.07 0.03,0.12 0.03,0.17 -0.05,0.32 -0.19,0.4 -0.08,0.04 -0.16,0.06 -0.25,0.05 -0.01,0 -0.03,0 -0.04,0 -0.02,-0.01 -0.02,-0.01 -0.02,-0.03l-0.13 -0.27c0.07,0.02 0.17,0.07 0.25,0.06l0.01 -0.02c-0.08,0 -0.17,-0.03 -0.24,-0.06 -0.05,-0.02 -0.04,-0.01 -0.05,-0.04l-0.13 -0.27c0.03,0 0.27,0.07 0.3,0.08 0.02,0 0.04,0.01 0.05,0.01 0.02,0 0.04,0.01 0.05,0.02 0,0.01 -0.05,0.03 -0.07,0.04 0.01,0.01 0.03,0.02 0.04,0.03 0.05,0.03 0.11,0.03 0.15,-0.03l0 0.01zm-2.5 0.21l0.01 0.03c0.11,0 0.17,-0.04 0.25,-0.05 -0.01,0.03 -0.05,0.11 -0.07,0.14 -0.01,0.03 -0.02,0.05 -0.04,0.08 -0.01,0.01 -0.02,0.06 -0.04,0.07 -0.08,0.01 -0.17,-0.01 -0.23,-0.04 -0.13,-0.07 -0.23,-0.19 -0.23,-0.35 0,-0.06 0.03,-0.19 0.06,-0.22 0.02,0.06 0.01,0.08 0.06,0.11 0.04,0.02 0.05,0.01 0.08,0.01 0.02,0.01 0.01,0.02 0.06,0.02 0.01,-0.01 0.01,-0.01 0.02,-0.01 0.02,0.01 0.06,0.08 0.14,0.03 0.02,-0.01 0.04,-0.03 0.04,-0.04 -0.01,-0.01 -0.05,-0.02 -0.07,-0.04l0.14 -0.04c0.02,-0.01 0.03,-0.01 0.05,-0.02 0.05,-0.01 0.17,-0.04 0.21,-0.04 -0.03,0.03 -0.05,0.09 -0.07,0.13 -0.02,0.04 -0.05,0.08 -0.07,0.13 -0.01,0.03 -0.01,0.04 -0.04,0.05 -0.03,0.01 -0.05,0.02 -0.08,0.03 -0.05,0.01 -0.11,0.02 -0.18,0.02zm2.04 0.43c-0.03,-0.07 -0.28,-0.81 -0.29,-0.84 0.05,0.01 0.11,0.02 0.16,0.03 0.05,0.01 0.04,0 0.05,0.04l0.28 0.57c0.02,0.04 0.04,0.08 0.05,0.13 0.02,0.13 -0.09,0.21 -0.18,0.18 -0.06,-0.02 -0.06,-0.06 -0.07,-0.11zm-1.35 -0.84c-0.01,0.03 -0.04,0.11 -0.05,0.15l-0.25 0.7c-0.03,0.08 -0.01,0.09 -0.08,0.1 -0.06,0.01 -0.11,0 -0.15,-0.04 -0.03,-0.04 -0.04,-0.08 -0.04,-0.15 0.01,-0.06 0.03,-0.09 0.05,-0.14 0.04,-0.08 0.08,-0.16 0.13,-0.25 0.04,-0.08 0.08,-0.17 0.13,-0.25 0.03,-0.08 0.03,-0.08 0.06,-0.08 0.07,-0.02 0.12,-0.03 0.2,-0.04zm0.23 -0.02l0.16 -0.01c-0.01,0.12 -0.02,0.24 -0.03,0.36l-0.07 0.79c0,0.03 -0.01,0.03 -0.04,0.05 -0.12,0.07 -0.18,0.01 -0.25,-0.08 -0.01,-0.03 0,-0.05 0,-0.08l0.16 -0.71c0.02,-0.1 0.05,-0.22 0.07,-0.32zm-0.03 0c0,0.05 -0.02,0.12 -0.03,0.17l-0.19 0.84c-0.01,0.06 0.01,0.08 -0.09,0.11 -0.06,0.02 -0.12,0.01 -0.15,-0.03 -0.03,-0.03 -0.06,-0.1 -0.04,-0.16 0.02,-0.05 0.04,-0.1 0.06,-0.15 0.07,-0.2 0.14,-0.4 0.21,-0.6 0.06,-0.2 0.03,-0.16 0.14,-0.17 0.03,0 0.06,-0.01 0.09,-0.01zm0.69 0.17c-0.01,-0.05 -0.03,-0.12 -0.04,-0.17 0.03,0 0.07,0.01 0.1,0.01 0.11,0.01 0.07,-0.03 0.14,0.17l0.21 0.61c0.01,0.05 0.04,0.1 0.05,0.15 0.01,0.04 -0.03,0.13 -0.04,0.15 -0.06,0.08 -0.15,0.05 -0.22,0 -0.01,-0.01 -0.01,-0.01 -0.02,-0.03 0,-0.02 0,-0.03 -0.01,-0.04l-0.17 -0.85zm-0.14 0.94l-0.06 -0.75c0,-0.06 -0.03,-0.34 -0.03,-0.37l0.15 0.01c0.02,0 0.02,0 0.02,0.02 0.07,0.33 0.15,0.68 0.21,1.01 0.01,0.04 0.02,0.05 0,0.08 -0.05,0.11 -0.14,0.14 -0.26,0.07 -0.03,-0.02 -0.02,-0.02 -0.03,-0.07zm0.66 -1.05c-0.1,-0.02 -0.21,-0.04 -0.32,-0.05 -0.57,-0.09 -1.17,-0.04 -1.72,0.13 -0.04,0.01 -0.03,0.01 -0.03,0 -0.01,-0.01 0,-0.07 0,-0.09 0.02,-0.09 0,-0.09 0.01,-0.12 0.03,-0.06 0,-0.04 0.08,-0.06 0.38,-0.13 0.83,-0.19 1.24,-0.18 0.31,0.01 0.66,0.08 0.95,0.18 0.03,0 0.06,0.01 0.06,0.03 0.03,0.05 0.02,0.04 0.02,0.07 -0.01,0.06 0.02,0.12 0.01,0.17l-0.3 -0.08zm-2.02 -0.2c0,-0.02 0.04,-0.03 0.06,-0.05 0.02,0 0.02,0 0.03,-0.01 0,0 0.01,0.02 0.02,0.02l-0.11 0.04zm2.18 -0.06c0.03,0.01 0.08,0.03 0.09,0.05l-0.11 -0.03c0.01,-0.01 0.01,-0.01 0.02,-0.02zm-1.09 -0.51l0.1 -0.01c0.01,0.03 0.03,0.34 0.03,0.39l-0.17 0 0.04 -0.38zm-0.88 0.28c0,-0.02 0,-0.02 0.01,-0.03 0.07,-0.06 0.03,-0.03 0.08,-0.08 0.01,0.03 -0.03,0.04 -0.06,0.08 0.02,-0.01 0.06,-0.05 0.07,-0.06 0.01,0 0.04,0 0.06,-0.01 0.02,0 0.03,-0.01 0.05,-0.01 -0.02,0.04 -0.12,0.12 -0.21,0.11zm1.85 0c-0.1,0.01 -0.18,-0.07 -0.21,-0.12 0.02,0.01 0.03,0.02 0.05,0.02 0.02,0 0.05,0 0.06,0.01 0.01,0.01 0.05,0.05 0.07,0.06 -0.02,-0.04 -0.07,-0.05 -0.06,-0.09 0.01,0.01 0.01,0.02 0.02,0.03 0.04,0.06 0.08,0.05 0.07,0.09zm0.1 -0.07c0.04,0.01 0.05,0.01 0.09,0 0.01,-0.02 0,-0.04 0,-0.06l0.02 0c0.02,0.03 0.03,0.07 0.02,0.11 0.07,0.03 0.03,0.07 0.03,0.09 0,0.01 0.01,0 0.02,0.01 0.02,0.01 0,0.02 0.05,0.05 0.03,0.02 0.06,0.03 0.08,0.06 0.01,0.01 0.02,0.01 0.03,0.03 0.03,0.05 0.1,0.18 0.11,0.23 0.02,0.08 -0.01,0.18 -0.09,0.16 0.02,-0.06 0.04,-0.11 0.02,-0.19 -0.02,-0.09 -0.05,-0.11 -0.08,-0.16l-0.01 0.01c0.01,0.02 0.03,0.03 0.05,0.08 0.03,0.07 0.04,0.16 0.01,0.23 -0.02,0.04 -0.05,0.07 -0.08,0.04 0,0 0.02,-0.07 0.03,-0.1 0,-0.09 -0.05,-0.25 -0.09,-0.28l-0.01 0.01c0.02,0.04 0.03,0.04 0.05,0.11 0.09,0.25 -0.07,0.36 -0.13,0.28 0.01,-0.01 0.01,-0.01 0.03,-0.01 0.01,-0.01 0.01,-0.02 0.02,-0.03 0.03,-0.04 0.01,-0.09 0.01,-0.15 -0.01,-0.06 0,-0.06 0,-0.08l-0.03 -0.06c-0.02,-0.06 -0.03,-0.06 -0.09,-0.09 -0.06,-0.02 -0.01,-0.04 -0.05,-0.04 -0.01,0.01 -0.01,0.05 -0.04,0.06 -0.01,0 -0.19,-0.05 -0.21,-0.05 0.01,-0.04 0.03,-0.08 0.07,-0.09 0.03,0 0.05,0.01 0.06,0.02 0.02,0.01 0.04,0.02 0.05,0.02l0.02 -0.01c-0.01,-0.01 -0.02,-0.03 -0.01,-0.04 0.02,-0.02 0.03,-0.01 0.05,0 0,-0.02 0,-0.01 0.01,-0.02 -0.02,-0.03 -0.01,-0.04 0.01,-0.06 0,-0.02 0,-0.01 -0.02,-0.02l0 -0.06zm-2.18 0.05c-0.02,-0.04 0.01,-0.07 0.02,-0.11l0.02 0c0,0.02 -0.01,0.04 0,0.07 0.03,0.01 0.05,0 0.08,-0.01l0.01 0.06c-0.02,0.01 -0.02,0.01 -0.02,0.03 0.03,0.02 0.02,0.02 0.01,0.06 0.01,0 0,0 0.01,0.01 0.01,-0.01 0.03,-0.02 0.04,0 0.01,0.01 0.01,0.03 0,0.05l0.02 0.01c0.03,-0.01 0.06,-0.05 0.11,-0.04 0.03,0 0.06,0.04 0.06,0.08 -0.02,0.01 -0.1,0.02 -0.13,0.03 -0.02,0.01 -0.06,0.02 -0.07,0.02 -0.03,-0.01 -0.03,-0.04 -0.04,-0.05 -0.03,0 -0.01,0 -0.03,0.02 0,0.01 -0.01,0.01 -0.02,0.02 -0.03,0.01 -0.04,0.01 -0.06,0.03 -0.03,0.02 -0.06,0.12 -0.06,0.12 0,0.01 0.01,0.02 0.01,0.04 0,0.03 -0.02,0.08 -0.02,0.12 0,0.08 0.06,0.09 0.07,0.11 -0.04,0.04 -0.09,0.02 -0.12,-0.01 -0.03,-0.04 -0.04,-0.07 -0.04,-0.14 0,-0.06 0.02,-0.14 0.05,-0.2 0.01,-0.01 0.01,-0.02 0.02,-0.03 0.01,-0.02 0.02,-0.01 0,-0.03 -0.04,0.02 -0.09,0.19 -0.09,0.29 0,0.03 0.03,0.09 0.03,0.1 -0.01,0.01 -0.06,0.02 -0.08,-0.05 -0.05,-0.11 -0.01,-0.22 0.06,-0.31l-0.01 -0.01c-0.08,0.08 -0.12,0.25 -0.06,0.36 -0.07,0.01 -0.11,-0.08 -0.09,-0.17 0.01,-0.04 0.06,-0.14 0.08,-0.18 0.02,-0.04 0.04,-0.06 0.06,-0.08 0.04,-0.04 0.1,-0.04 0.11,-0.09 0.01,-0.03 0.01,-0.01 0.02,-0.02 0.01,0 0.02,0 0.02,-0.02 -0.01,-0.02 -0.02,-0.02 0,-0.05 0.01,-0.02 0.01,-0.02 0.03,-0.03zm0.14 0.01c-0.01,-0.06 0.02,-0.14 0.06,-0.17 0,0.03 -0.01,0.04 0.01,0.05l0.01 0.01c-0.01,0 -0.05,0.06 -0.05,0.07 0.01,0 0.01,0 0.02,-0.01 0.04,-0.07 0.03,-0.06 0.09,-0.08 0.01,0 0.03,-0.01 0.04,-0.02 0,0.05 -0.11,0.16 -0.18,0.15zm1.97 -0.17l0.02 0.01c0.03,0.05 0.05,0.1 0.04,0.16 -0.06,0.01 -0.18,-0.11 -0.18,-0.15 0.1,0.05 0.05,-0.01 0.12,0.08 0.01,0 0.01,0.01 0.02,0.02 0,0.01 0,0.01 0.01,0.01 0,-0.01 -0.04,-0.07 -0.05,-0.08l0.02 -0.01 0 -0.04zm-2.03 0.07c0.02,0 0.05,-0.04 0.09,-0.06 -0.01,0.01 -0.02,0.02 -0.02,0.04 -0.02,0.04 -0.01,0.04 -0.05,0.05 -0.02,0 -0.03,0 -0.05,0l0.01 -0.05 0.06 -0.02c-0.01,0.02 -0.03,0.02 -0.04,0.04zm2.17 0.03c-0.01,0 -0.03,0 -0.04,0 -0.02,-0.01 -0.03,-0.01 -0.04,-0.03 -0.02,-0.05 -0.01,-0.03 -0.03,-0.07 0.03,0.01 0.07,0.06 0.08,0.07 -0.01,-0.03 -0.02,-0.03 -0.03,-0.05l0.06 0.03 0 0.05zm-1.91 -0.03c-0.01,-0.04 0,-0.06 0.02,-0.07l0.05 -0.05c-0.01,0.05 -0.02,0.05 -0.03,0.08 0.01,-0.01 0.02,-0.02 0.02,-0.03 0.01,0.02 0,0.01 0.01,0.01 0.01,0.01 0.04,0.02 0.05,0.02 -0.02,0.02 -0.07,0.04 -0.12,0.04zm1.59 -0.05c-0.01,-0.03 -0.03,-0.03 -0.03,-0.07 0.01,0.01 0.01,0.01 0.02,0.02 0.04,0.03 0.06,0.02 0.05,0.1 -0.05,0 -0.1,-0.02 -0.12,-0.05 0.01,0 0.02,0 0.04,0 0,0 0.01,-0.01 0.01,-0.01l0.01 -0.01c0,0 0,0.01 0.01,0.01 0.01,0.01 0,0.01 0.01,0.01zm-0.63 -0.14l0.09 0.4 -0.12 0 -0.03 -0.39 0.06 -0.01zm-0.91 0.48c-0.01,-0.03 -0.01,-0.05 -0.04,-0.07 -0.01,-0.01 -0.01,-0.01 -0.02,-0.02 -0.04,-0.02 -0.09,0 -0.13,0.02 0.01,-0.03 -0.01,-0.05 -0.04,-0.05 0,-0.02 0,-0.02 -0.01,-0.03 0,-0.01 0,0 -0.01,-0.02 0.04,-0.01 0.04,0 0.07,-0.02 0,0.02 -0.01,0.05 0.07,0.03 0.08,-0.02 0.14,-0.07 0.18,-0.14 0.01,-0.02 0,-0.01 0.01,-0.02 0,0 0.02,-0.01 0.02,-0.01 0.02,-0.01 0.02,0 0.04,0 0.15,-0.03 0.19,-0.11 0.23,-0.11 -0.06,0.11 -0.13,0.27 -0.19,0.37l-0.02 0.03c0,0.01 -0.01,0.01 -0.03,0.02l-0.09 0.01c-0.01,0.01 -0.02,0.01 -0.04,0.01zm1.16 -0.45c0.06,0.03 0.02,0.01 0.07,0.04 0.13,0.1 0.2,0.05 0.23,0.1 0.01,0.03 0.02,0.04 0.04,0.07 0.04,0.04 0.12,0.09 0.19,0.08 0.02,0 0.02,-0.01 0.02,-0.04 0.02,0.01 0.04,0.02 0.06,0.03 -0.01,0.02 -0.01,0.02 -0.01,0.04 -0.03,0 -0.04,0.02 -0.05,0.05 -0.02,0 -0.14,-0.08 -0.18,0.08 -0.19,-0.04 -0.16,-0.01 -0.2,-0.1 -0.01,-0.03 -0.03,-0.05 -0.04,-0.07l-0.12 -0.26c-0.01,-0.01 -0.01,-0.01 -0.01,-0.02zm-0.54 -0.03l0.07 0.01 -0.03 0.39 -0.12 0 0.08 -0.4zm-0.08 -0.02l0.06 0.02 -0.09 0.41 -0.13 0.01 0.16 -0.44zm0.46 -0.01c0.01,0.01 0.15,0.41 0.16,0.45l-0.14 -0.01 -0.08 -0.42 0.06 -0.02zm-1.35 0.18c-0.01,-0.08 0.03,-0.13 0.06,-0.18 0,0.03 -0.01,0.05 -0.01,0.08 0,0.04 -0.02,0.04 -0.03,0.07 0.02,-0.01 0.03,-0.02 0.03,-0.03 0.04,0 0.05,-0.01 0.08,-0.01 -0.02,0.02 -0.07,0.07 -0.13,0.07zm2.2 -0.04c-0.01,-0.02 -0.02,-0.03 -0.02,-0.06 0,-0.04 -0.01,-0.05 -0.01,-0.08 0.03,0.02 0.07,0.12 0.06,0.18 -0.06,0 -0.11,-0.05 -0.13,-0.08 0.09,0.02 0.07,0 0.09,0.03 0.01,0.01 0,0.01 0.01,0.01zm-2.13 -0.04c0,-0.05 0,-0.07 0.02,-0.11l0 0.02 0.04 0c-0.01,0.02 -0.02,0.03 -0.02,0.04 0.01,0 0,0.01 0.01,0 0.04,-0.05 0.01,-0.03 0.09,-0.05 -0.01,0.02 -0.03,0.06 -0.05,0.07 -0.03,0.02 -0.05,0.03 -0.09,0.03zm-0.11 0.02c0.04,-0.07 0.02,-0.1 0.08,-0.12 -0.02,0.03 -0.03,0.04 -0.05,0.09 0,0.01 -0.01,0.04 -0.01,0.05 -0.01,0.01 -0.03,0.02 -0.04,0.02 -0.02,-0.06 -0.02,-0.07 -0.01,-0.14l0.05 0c0,0.02 -0.01,0.03 -0.01,0.05 -0.01,0.01 -0.01,0.02 -0.01,0.03 0,0.01 -0.01,0.01 0,0.02zm2.33 0.04c-0.05,-0.01 -0.04,-0.04 -0.05,-0.08 -0.02,-0.04 -0.04,-0.06 -0.05,-0.08 0.06,0.01 0.05,0.07 0.08,0.11 0.01,-0.01 -0.02,-0.07 -0.02,-0.09l0.04 0c0.03,0.04 0.01,0.1 0,0.14zm-0.15 -0.18l0.01 0.03c0,0.01 0,0.02 0.01,0.02 0,0.03 0,0.04 0,0.07 -0.04,0 -0.07,-0.01 -0.1,-0.03 -0.02,-0.01 -0.01,-0.02 -0.02,-0.04 -0.01,-0.01 -0.02,-0.02 -0.02,-0.03 0.02,0 0.05,0 0.07,0.01 0.01,0.01 0.02,0.04 0.03,0.04 0,-0.01 -0.02,-0.03 -0.02,-0.04l0.04 -0.01 0 -0.02zm-0.71 -0.02c0,0 0.24,0.48 0.25,0.51l-0.14 -0.02c-0.01,0 -0.02,-0.05 -0.03,-0.06l-0.06 -0.17c-0.01,-0.04 -0.02,-0.08 -0.04,-0.11 -0.01,-0.04 -0.03,-0.09 -0.03,-0.12l0.05 -0.03zm-0.63 0.01l0.06 0.03 -0.16 0.45 -0.16 0.02 0.26 -0.5zm-0.42 0.18c0,-0.02 0.01,-0.04 0.02,-0.06 0.01,-0.04 0.01,-0.03 0.04,-0.05 0.04,-0.02 0.06,-0.04 0.09,-0.06 -0.01,0.07 0,0.05 -0.07,0.1 -0.02,0.03 -0.02,0.02 -0.02,0.03 0.01,0 0.03,-0.02 0.04,-0.03 0.01,0 0.03,-0.01 0.04,-0.02 0.01,0.02 0,0.02 0.02,0.03 0.03,0.01 0.08,0 0.11,0 -0.05,0.04 -0.18,0.1 -0.27,0.06zm-0.2 0.03c-0.01,-0.08 0.02,-0.15 0.06,-0.19 0,0.03 -0.01,0.04 -0.01,0.08l0.02 0c0,0.02 -0.03,0.05 -0.04,0.07l0.06 -0.06c0.05,-0.01 0.02,0 0.11,-0.01 -0.02,0.03 -0.13,0.12 -0.2,0.11zm1.81 -0.11c0,-0.01 0,-0.01 0.01,-0.01l-0.01 -0.07c0.04,0.04 0.07,0.1 0.06,0.19 -0.07,0.01 -0.18,-0.08 -0.2,-0.12 0.05,0.01 0.06,0.01 0.11,0.01 0.02,0.02 0.03,0.05 0.05,0.07 0,-0.02 -0.02,-0.05 -0.03,-0.07 0,0 0,0 0,0l0 0c0,0 0.01,0 0.01,0zm-0.28 -0.02c0.03,0.02 0.07,0.05 0.08,0.06 0,-0.01 0,-0.01 -0.01,-0.02l-0.05 -0.03c-0.03,-0.03 -0.03,-0.03 -0.03,-0.08 0.1,0.08 0.11,0.05 0.13,0.1 0.01,0.02 0.02,0.05 0.02,0.07 -0.06,0.01 -0.09,0.01 -0.15,-0.01 -0.05,-0.01 -0.09,-0.03 -0.12,-0.06 0.03,0.01 0.05,0.01 0.08,0.01 0.05,-0.01 0.04,-0.01 0.05,-0.04zm-1.46 0.01c0,-0.03 0.01,-0.05 0.01,-0.07 0.01,-0.02 0.01,-0.02 0.03,-0.03 0.05,-0.02 0.07,-0.05 0.08,-0.06 0,0.04 0,0.04 -0.02,0.06 -0.02,0.02 -0.04,0.03 -0.05,0.05 0.02,0 0.01,0 0.02,-0.01 0.15,-0.11 -0.02,0 0.22,-0.06 -0.01,0.03 -0.08,0.07 -0.11,0.09 -0.05,0.02 -0.12,0.04 -0.18,0.03zm1.72 -0.07c0,0.02 0.01,0.04 0.01,0.06 -0.12,0.03 -0.28,-0.07 -0.29,-0.11 0.05,0.01 0.07,0.02 0.14,0.01 0.03,0 0.05,0.04 0.1,0.06 -0.03,-0.05 -0.08,-0.04 -0.07,-0.11 0.02,0.01 0.04,0.04 0.07,0.06 0.03,0.01 0.03,0.01 0.04,0.03zm-1.43 0.08c0,-0.03 0.01,-0.11 0.03,-0.14 0,0 0.04,-0.02 0.05,-0.03 0.01,-0.01 0.03,-0.02 0.04,-0.02 0.02,0 0.03,0.01 0.04,0.02 -0.01,0.01 -0.02,0.02 -0.03,0.03l-0.07 0.08c0.02,0 0.08,-0.07 0.12,-0.09 0.02,0.01 0.03,0.03 0.06,0.03 -0.01,0.02 -0.02,0.05 -0.03,0.07 -0.01,0.01 -0.01,0.01 -0.02,0.02 -0.01,0.01 -0.02,0.01 -0.03,0.01 -0.04,0.02 -0.12,0.04 -0.16,0.02zm0.91 -0.12c0.01,-0.01 0.05,-0.04 0.06,-0.04l0.12 0.1c-0.01,-0.02 -0.01,-0.02 -0.03,-0.03 -0.01,-0.01 -0.01,-0.02 -0.02,-0.03l-0.04 -0.05c-0.01,0 0,0 -0.01,-0.01 0.01,-0.01 0.02,-0.01 0.03,-0.02l0.1 0.06c0.02,0.02 0.03,0.11 0.03,0.14 -0.06,0.01 -0.11,0 -0.16,-0.02 -0.04,-0.01 -0.03,-0.01 -0.05,-0.04 -0.01,-0.02 -0.02,-0.04 -0.03,-0.06zm1.08 -0.1c0.03,0.01 0.04,0.03 0.05,0.05 0.03,0.06 0.06,0.17 0.06,0.24l-0.01 0c0,-0.05 -0.04,-0.11 -0.06,-0.15 -0.03,-0.04 -0.07,-0.1 -0.04,-0.14zm-2.93 0.29l-0.01 0c0,-0.07 0.01,-0.11 0.03,-0.16 0.01,-0.04 0.04,-0.12 0.07,-0.12 0.03,0 0.02,0.05 0.01,0.07 -0.03,0.06 -0.1,0.15 -0.1,0.21zm0.38 -0.18c0.01,0 0.03,-0.02 0.03,-0.03 0.05,-0.06 0.06,-0.05 0.11,-0.07 -0.01,0.01 -0.02,0.04 -0.02,0.06 -0.01,0.03 -0.01,0.03 -0.03,0.05 -0.03,0.01 -0.08,0.04 -0.12,0.03 -0.01,-0.02 0,-0.08 0.02,-0.11l0.06 0c-0.01,0.02 -0.04,0.05 -0.05,0.07zm2.3 0.04c-0.04,0.01 -0.09,-0.02 -0.12,-0.04 -0.02,-0.01 -0.02,-0.01 -0.03,-0.05 0,-0.02 -0.01,-0.04 -0.02,-0.05 0.02,0 0.03,0.01 0.05,0.01 0.02,0.01 0.04,0.04 0.06,0.06 0.01,0.01 0.02,0.02 0.02,0.03 0,-0.03 -0.03,-0.05 -0.04,-0.07l0.06 0c0.01,0.03 0.03,0.07 0.02,0.11zm-2.17 -0.01c-0.02,-0.1 0.07,-0.2 0.07,-0.2l0.01 0.05 0.04 0.01c-0.01,0.02 -0.06,0.07 -0.07,0.09 0.01,0 0.03,-0.03 0.04,-0.04l0.05 -0.04c0.02,-0.02 0.05,-0.02 0.08,-0.02 0.02,-0.01 0.04,-0.02 0.06,-0.03 0,0.02 -0.01,0.03 -0.01,0.05 -0.01,0.01 -0.02,0.02 -0.03,0.03 -0.06,0.06 -0.15,0.11 -0.24,0.1zm1.93 -0.21l0.02 0.03c0.04,0.04 0.07,0.12 0.06,0.18 -0.1,0.01 -0.19,-0.05 -0.25,-0.1 -0.02,-0.03 -0.02,-0.04 -0.03,-0.08 0.02,0.01 0.04,0.02 0.07,0.02 0.02,0.01 0.05,0.01 0.07,0.02l0.09 0.09c0,-0.01 0,-0.01 -0.02,-0.03 -0.01,-0.02 -0.04,-0.05 -0.05,-0.06 0,0 0,0 0,0l0.04 -0.02 0 -0.05zm-1.65 0.16c0,-0.03 0,-0.13 0.03,-0.15 0.02,-0.01 0.04,-0.02 0.06,-0.03 0.01,-0.01 0.03,-0.03 0.04,-0.04 0.01,0.01 0.02,0.03 0.03,0.04 -0.01,0.02 -0.1,0.1 -0.1,0.12 0.03,-0.03 0.1,-0.09 0.12,-0.1l0.08 0.08c0,0 0,0 -0.01,0.01 0,0 0,0 0,0 -0.07,0.05 -0.16,0.08 -0.25,0.07zm1.45 -0.01c-0.11,0.02 -0.19,-0.03 -0.26,-0.07 0,-0.01 0.01,-0.01 0.02,-0.02 0.02,-0.03 0.04,-0.05 0.06,-0.07 0.03,0.02 0.09,0.09 0.12,0.1 0,-0.01 0,0 -0.01,-0.01l-0.09 -0.1 0.03 -0.04c0.03,0.03 0.05,0.04 0.1,0.07 0.02,0.02 0.03,0.11 0.03,0.14zm-2.26 1.53c-0.08,-0.01 -0.13,-0.05 -0.15,-0.12 -0.03,-0.12 0.04,-0.3 0.09,-0.41 0.02,-0.04 0.03,-0.06 0.03,-0.11 0,-0.17 -0.1,-0.34 -0.18,-0.47 -0.17,-0.28 -0.25,-0.48 -0.02,-0.73 0.02,-0.03 0.1,-0.1 0.14,-0.12 0.03,-0.03 0.19,-0.02 0.24,-0.01 0.1,0.02 0.18,0.07 0.23,0.17 0.03,0.06 0.02,0.05 0,0.08 -0.04,0.11 -0.01,0.14 -0.02,0.17l-0.03 0.16c-0.01,0.04 0,0.09 0.02,0.11l0.04 -0.01c-0.02,0.04 -0.04,0.07 -0.04,0.13 -0.02,0.03 -0.04,0.03 -0.03,0.09 -0.04,0.03 -0.01,0.03 -0.05,0.06 -0.02,0.01 -0.07,0.04 -0.08,0.04 -0.03,-0.04 -0.07,-0.11 -0.1,-0.15 -0.14,-0.25 0.03,-0.31 0.06,-0.43 0.01,-0.04 0,-0.08 -0.04,-0.08 -0.05,0.01 -0.08,0.1 -0.1,0.15 -0.05,0.17 -0.03,0.25 0.05,0.39l0.1 0.15c0,0.01 -0.02,0.03 -0.03,0.05l-0.08 0.16c-0.01,0.02 -0.01,0.04 -0.02,0.06 0,0.01 -0.02,0.03 -0.02,0.05 -0.04,0.07 -0.07,0.17 -0.06,0.25 0,0.05 0,0.03 -0.01,0.07 -0.03,0.06 -0.02,0.14 0,0.2 0.03,0.06 0.05,0.07 0.06,0.1zm2.72 -1.28c0.02,-0.03 0.02,-0.08 0.02,-0.12l-0.03 -0.16c-0.01,-0.02 0.02,-0.06 -0.03,-0.16 -0.01,-0.02 -0.02,-0.03 0,-0.05 0.04,-0.11 0.12,-0.18 0.25,-0.2 0.04,-0.01 0.2,-0.02 0.23,0 0.06,0.04 0.12,0.1 0.16,0.14 0.01,0.01 0.01,0.01 0.02,0.02 0.01,0.01 0.01,0.02 0.02,0.04 0.02,0.02 0.04,0.05 0.05,0.08 0.03,0.07 0.04,0.14 0.03,0.22 -0.05,0.28 -0.34,0.53 -0.34,0.84 0,0.04 0.02,0.06 0.03,0.1 0.05,0.1 0.12,0.29 0.08,0.41 -0.01,0.06 -0.07,0.12 -0.14,0.12 0.01,-0.02 0.02,-0.03 0.03,-0.05 0.03,-0.05 0.05,-0.13 0.04,-0.19 0,-0.1 -0.03,-0.06 -0.02,-0.13 0,-0.05 0,-0.09 -0.01,-0.14 -0.01,-0.04 -0.03,-0.08 -0.05,-0.12 -0.01,-0.01 -0.02,-0.03 -0.03,-0.05 0,-0.02 -0.01,-0.04 -0.01,-0.06 -0.02,-0.03 -0.04,-0.07 -0.06,-0.1 -0.01,-0.04 -0.05,-0.1 -0.05,-0.1 0.05,-0.08 0.14,-0.2 0.17,-0.32 0.02,-0.11 -0.04,-0.36 -0.12,-0.37 -0.04,0 -0.05,0.04 -0.04,0.08 0.02,0.06 0.11,0.16 0.11,0.25 0,0.1 -0.11,0.28 -0.16,0.33 -0.01,-0.01 -0.05,-0.04 -0.07,-0.04 -0.03,-0.03 -0.02,-0.04 -0.05,-0.07 0,-0.02 0,-0.04 -0.01,-0.06 -0.02,-0.03 -0.02,0 -0.02,-0.05 -0.01,-0.04 -0.03,-0.07 -0.04,-0.11 0.01,0.01 0.02,0.01 0.04,0.02zm-0.13 -0.41c0,0.01 0.01,0.01 0.02,0.02 0.01,0.01 0.02,0.02 0.03,0.03 0,-0.02 -0.08,-0.09 -0.08,-0.1 0,0 0,-0.01 0,-0.01l0.01 -0.03c0,-0.02 -0.01,-0.04 -0.01,-0.07 0.03,0.02 0.07,0.07 0.09,0.11 0.02,0.02 0.06,0.11 0.04,0.15 -0.05,0.01 -0.12,-0.01 -0.16,-0.04 -0.02,-0.01 -0.03,-0.03 -0.04,-0.05 -0.02,-0.02 -0.03,-0.02 -0.04,-0.06 0.1,0.01 0.07,-0.01 0.14,0.05zm-2.21 0.1c0,0 0,0 0,0 0,0 0,0 0,0 -0.01,-0.02 0.01,-0.1 0.04,-0.15 0.02,-0.03 0.06,-0.09 0.09,-0.1 -0.01,0.05 -0.01,0.05 0,0.1 -0.02,0.02 -0.12,0.15 -0.07,0.09 0.11,-0.11 0.09,-0.08 0.17,-0.09 0,0.04 -0.01,0.05 -0.03,0.07 -0.02,0.02 -0.02,0.03 -0.05,0.05 -0.03,0.02 -0.1,0.05 -0.15,0.03zm0.24 -0.05c-0.02,-0.13 0.12,-0.29 0.19,-0.32l0.04 0.08c-0.02,0.02 -0.16,0.16 -0.17,0.18 0.01,0 0.01,0 0.03,-0.01 0.03,-0.03 0.08,-0.08 0.11,-0.1 0.02,-0.01 0.03,-0.03 0.05,-0.04 0.01,0.01 0.06,0.09 0.06,0.1 -0.06,0.07 -0.23,0.15 -0.31,0.11zm1.63 -0.33c0.03,0.01 0.09,0.07 0.11,0.09 0.04,0.06 0.11,0.16 0.08,0.24 -0.11,0.02 -0.23,-0.05 -0.3,-0.12 0,-0.02 0.04,-0.06 0.05,-0.09 0.03,0.01 0.1,0.07 0.13,0.09 0.01,0.01 0.01,0.02 0.02,0.02 0.01,0.01 0.01,0.01 0.02,0.02 0.01,0.02 0.01,0.02 0.03,0.02 -0.01,-0.02 -0.16,-0.17 -0.18,-0.19l0.04 -0.08zm-1.73 0.21c-0.02,-0.12 0.12,-0.32 0.26,-0.35 0,0.07 0,0.05 0,0.08 -0.02,0.02 -0.19,0.19 -0.2,0.22 0.02,-0.01 0.04,-0.04 0.06,-0.05 0.02,-0.03 0.15,-0.13 0.16,-0.12 0.01,0.01 0.01,0 -0.01,0.01 -0.07,0.05 -0.11,0.09 -0.16,0.18 -0.01,0.02 0,0.06 -0.11,0.03zm1.78 -0.26c-0.03,-0.03 -0.02,-0.01 -0.02,-0.09 0.17,0.02 0.3,0.25 0.27,0.35 -0.03,0.01 -0.08,0.01 -0.1,0l-0.02 -0.04c-0.03,-0.06 -0.06,-0.11 -0.11,-0.15 -0.05,-0.03 -0.06,-0.03 -0.06,-0.04 0.04,0 0.21,0.17 0.23,0.17 -0.01,-0.02 -0.11,-0.12 -0.12,-0.13 -0.03,-0.03 -0.04,-0.05 -0.07,-0.07zm-1.24 0.08c0.01,-0.01 0.02,-0.02 0.04,-0.03 0.01,-0.01 0.01,-0.02 0.02,-0.03 0,0 0.01,-0.01 0.02,-0.02l0.14 -0.13c0.01,-0.01 0.01,-0.02 0.02,-0.02l0.17 -0.16c0.01,-0.01 0.03,-0.02 0.04,-0.04 0.03,-0.03 0.05,-0.05 0.08,-0.07l0.16 -0.16c0.02,-0.03 0.15,-0.13 0.17,-0.16 0.02,-0.02 0.14,-0.13 0.16,-0.16 0.03,-0.02 0.06,-0.04 0.08,-0.07 0.01,-0.01 0.07,-0.07 0.08,-0.08 0,0.28 0,0.55 0,0.83 0,0.18 0.02,0.19 -0.06,0.35 -0.04,0.06 -0.08,0.12 -0.13,0.18 -0.01,0.01 -0.01,0.02 -0.02,0.03 -0.01,0.01 -0.02,0.01 -0.03,0.02 -0.07,0.07 -0.14,0.13 -0.25,0.17 -0.11,0.04 -0.23,0.05 -0.35,0.03 -0.13,-0.03 -0.22,-0.09 -0.31,-0.16 0,-0.01 -0.01,-0.02 -0.02,-0.03 -0.04,-0.04 -0.13,-0.13 -0.14,-0.17l0.13 -0.12zm-0.64 0.16c-0.04,-0.07 -0.06,-0.11 -0.14,-0.16l0.22 -0.22c0.01,-0.02 0.02,-0.02 0.03,-0.04 0.04,-0.04 0.08,-0.08 0.12,-0.12 0.03,-0.03 0.1,-0.12 0.12,-0.13l0 0.32c0,0.01 -0.02,0.01 -0.03,0.01 -0.03,0.01 -0.06,0.03 -0.08,0.05 -0.06,0.05 -0.11,0.11 -0.14,0.18 0,0.02 0,0.02 -0.01,0.03 -0.06,0.03 -0.08,0.07 -0.09,0.08zm1.86 -0.69c0.01,0.01 0.02,0.02 0.03,0.03 0.01,0.02 0.02,0.03 0.03,0.04l0.08 0.08c0,0 0,0 0,0l0.37 0.38c-0.07,0.03 -0.11,0.1 -0.14,0.16 -0.01,-0.01 -0.02,-0.04 -0.09,-0.09 -0.02,-0.02 -0.03,-0.09 -0.11,-0.16 -0.01,-0.02 -0.02,-0.03 -0.04,-0.05 -0.03,-0.02 -0.09,-0.05 -0.13,-0.05l0 -0.34zm-1.82 0.14c0.07,0.03 0.06,0.02 0.15,0.02l-0.18 0.18c-0.05,0.06 -0.11,0.12 -0.17,0.17 -0.1,-0.04 -0.14,-0.03 -0.25,-0.04l0.45 -0.33zm1.99 0.01c0.03,0 0.06,0 0.08,0 0.04,0 0.04,0 0.06,-0.01 0.08,0.05 0.15,0.11 0.23,0.16l0.23 0.17c-0.11,-0.01 -0.15,0.01 -0.24,0.04 -0.02,-0.01 -0.04,-0.03 -0.05,-0.04l-0.09 -0.09c-0.01,-0.02 -0.03,-0.03 -0.04,-0.05l-0.18 -0.18zm-2.81 0.12c0.09,0.02 0.09,0.02 0.18,-0.01 0.1,-0.04 0.38,-0.16 0.48,-0.2 0.07,0.04 0.05,0.04 0.15,0.06 -0.01,0.01 -0.09,0.07 -0.11,0.08 -0.11,0.09 -0.21,0.16 -0.33,0.24 -0.09,0.07 -0.06,0.01 -0.14,0.06 -0.03,0.03 -0.06,0.07 -0.13,0.04 -0.08,-0.05 -0.11,-0.17 -0.1,-0.27zm2.96 -0.16c0.06,-0.01 0.13,-0.02 0.15,-0.06l0.17 0.07c0.1,0.04 0.22,0.1 0.32,0.13 0.13,0.05 0.12,0.01 0.18,0.01 0.02,0.2 -0.12,0.33 -0.19,0.27 -0.08,-0.07 -0.08,-0.05 -0.13,-0.06 -0.04,-0.01 -0.36,-0.26 -0.44,-0.32 -0.02,-0.01 -0.04,-0.02 -0.06,-0.04zm-3.12 -0.1c0.03,0.01 0.04,0.02 0.09,0.01 0.02,0 0.05,-0.01 0.08,-0.01 0.08,-0.02 0.45,-0.09 0.49,-0.09 0.01,0.02 0.02,0.03 0.03,0.04 0.01,0.01 0.03,0.02 0.04,0.03 0.04,0.02 0.06,0.02 0.1,0.04 -0.07,0.03 -0.16,0.07 -0.23,0.1 -0.08,0.03 -0.15,0.06 -0.23,0.09 -0.11,0.04 -0.16,0.06 -0.25,0 -0.06,-0.04 -0.12,-0.11 -0.12,-0.21zm3.32 -0.01c0.04,-0.02 0.1,-0.05 0.11,-0.09 0.18,0.03 0.41,0.08 0.59,0.11 0.04,0 0.05,-0.01 0.08,-0.02 -0.01,0.1 -0.06,0.17 -0.12,0.21 -0.1,0.06 -0.15,0.05 -0.25,0.01 -0.03,-0.01 -0.44,-0.18 -0.46,-0.2l0.05 -0.02zm-2.32 0.13c0,0 0,0 0.01,0l0 -0.01c0.01,0 0,0 0.01,0 0.04,-0.03 0.25,-0.19 0.28,-0.2 0,0.08 0,0.05 -0.04,0.1 -0.02,0.02 -0.04,0.04 -0.06,0.07 -0.01,0 -0.01,0.01 -0.02,0.01 -0.04,0.04 -0.03,0.04 -0.06,0.04 -0.05,0 -0.09,0.01 -0.12,-0.01zm2.1 -0.01c-0.03,0.02 -0.08,0.02 -0.12,0.01 -0.03,0 -0.03,0 -0.05,-0.02l-0.06 -0.07c-0.07,-0.08 -0.07,-0.05 -0.07,-0.13 0.04,0.01 0.27,0.2 0.3,0.21zm-2.26 -0.07c0.01,-0.01 0.42,-0.18 0.46,-0.19 0,0.02 0,0.02 -0.02,0.04l-0.19 0.13c-0.01,0.02 -0.03,0.03 -0.05,0.04 -0.02,0.02 -0.03,0.04 -0.07,0.03 -0.06,-0.01 -0.09,-0.02 -0.13,-0.05zm2 -0.15c-0.05,-0.03 -0.04,-0.02 -0.04,-0.05 0.03,0.01 0.45,0.18 0.46,0.19 -0.03,0.03 -0.09,0.05 -0.14,0.05 -0.02,0.01 -0.02,0 -0.04,-0.01l-0.24 -0.18zm-1.56 -0.08c0.01,0 0,0 0.01,0 0,0 0,0 0,0 0,0 0,0 0.01,0.01 -0.01,0.01 -0.02,0.01 -0.04,0.02l-0.36 0.15c-0.04,0.01 -0.04,0.02 -0.08,0.01 -0.06,-0.02 -0.12,-0.05 -0.14,-0.09l0.6 -0.1zm2.27 -0.07c0.15,-0.01 0.38,-0.04 0.53,-0.1 0.02,-0.01 0.04,-0.03 0.06,-0.03 0.02,0.04 0.05,0.11 0.05,0.16 0,0.09 -0.04,0.16 -0.09,0.19 -0.06,0.04 -0.15,0.01 -0.22,0 -0.15,-0.03 -0.31,-0.06 -0.46,-0.08 0.01,-0.01 0.05,-0.03 0.08,-0.06 0.02,-0.02 0.05,-0.04 0.05,-0.08zm-0.75 0.07c0.01,-0.01 0.02,0 0.04,0l0.42 0.06c0.04,0.01 0.13,0.03 0.16,0.03 -0.01,0.04 -0.09,0.07 -0.14,0.09 -0.05,0.01 -0.05,0 -0.09,-0.01 -0.02,-0.01 -0.05,-0.02 -0.08,-0.04l-0.24 -0.1c-0.01,0 -0.06,-0.02 -0.07,-0.03zm-2.12 0.07c-0.01,0.01 -0.03,0.01 -0.04,0.01 -0.17,0.03 -0.34,0.06 -0.52,0.09 -0.05,0.01 -0.09,0.02 -0.13,-0.01 -0.11,-0.09 -0.1,-0.26 -0.03,-0.35 0.01,0 0.04,0.02 0.06,0.03 0.06,0.02 0.14,0.04 0.21,0.05 0.05,0.01 0.1,0.02 0.15,0.03 0.03,0 0.15,0.01 0.16,0.01 0.01,0.01 0,0 0.01,0.01 0,0 0,0.01 0,0.01 0,0.01 0,0.01 0.01,0.03 0.02,0.03 0.08,0.08 0.12,0.09zm2.12 -0.11c0.01,-0.01 0,0 0.02,0l0.53 -0.02c0.06,-0.01 0.13,-0.01 0.18,-0.01 0,0.06 -0.07,0.09 -0.12,0.12 -0.02,0.01 -0.02,0.01 -0.05,0.01 -0.1,-0.03 -0.25,-0.05 -0.36,-0.06 -0.02,-0.01 -0.19,-0.02 -0.2,-0.04zm-1.51 0c0.01,0.01 0,0.01 0.01,0.01 -0.01,0.01 0,0 -0.01,0.01l-0.1 0.01c-0.03,0 -0.07,0.01 -0.1,0.01 -0.07,0.02 -0.14,0.03 -0.21,0.04 -0.03,0 -0.07,0.01 -0.1,0.01 -0.07,0.02 -0.07,0.02 -0.1,0 -0.03,-0.01 -0.05,-0.03 -0.07,-0.04 -0.02,-0.02 -0.05,-0.05 -0.05,-0.08 0.02,0.01 0.32,0.02 0.36,0.02l0.37 0.01zm-0.68 -0.05c-0.03,-0.02 -0.18,-0.18 -0.14,-0.28 0.03,0.01 0.07,0.03 0.1,0.04l0.31 0.12c0.07,0.02 0.14,0.04 0.21,0.07l0.16 0.05c0.01,0 0.02,0 0.03,0.01 0.02,0 0.01,0 0.02,0.01 -0.01,0.01 -0.02,0.01 -0.04,0.01 -0.11,-0.01 -0.63,-0.02 -0.65,-0.03zm2.19 0.02c0,-0.02 0,-0.01 0.05,-0.03 0.25,-0.08 0.48,-0.16 0.73,-0.25l0.04 -0.03c0.04,0.07 -0.03,0.17 -0.06,0.21 -0.08,0.1 -0.07,0.08 -0.2,0.08 -0.02,0.01 -0.54,0.03 -0.56,0.02zm-1.48 -0.37l0.32 0c0.02,0 0.02,0.02 0.04,0.01 0.02,0 0,-0.01 0.09,-0.01 0,0.01 0.01,0.03 0.03,0.02 0.05,-0.01 -0.01,-0.02 0.09,-0.02 0,0.02 0.02,0.04 0.04,0.04 0.04,-0.01 0.02,-0.04 0.07,-0.04 0.02,0 0.02,0.05 0.06,0.06 0.02,0 0.04,-0.03 0.04,-0.06l0.04 0c0.01,0.02 0.03,0.04 0.04,0.04 0.04,0 0.03,-0.03 0.05,-0.04l0.04 0c0.01,0.02 0.02,0.04 0.04,0.04 0.04,0 0.02,-0.04 0.05,-0.04 0.07,0 0.04,0.02 0.07,0.02 0.03,0.01 0.02,-0.01 0.03,-0.02l0.31 0c-0.02,0.03 -0.05,0.05 -0.08,0.08 -0.02,0.02 -0.05,0.05 -0.07,0.06l-0.68 0.66c-0.02,0.01 -0.03,0.03 -0.05,0.04 0,0.01 -0.01,0.01 -0.02,0.02 -0.05,0.06 -0.36,0.34 -0.39,0.38 -0.02,0.01 -0.03,0.03 -0.04,0.04 -0.02,-0.03 -0.12,-0.22 -0.12,-0.25l0 -1.03zm-0.74 0.35c-0.06,0.01 -0.24,-0.02 -0.31,-0.03 -0.09,-0.02 -0.2,-0.04 -0.27,-0.08 -0.09,-0.04 -0.12,-0.11 -0.15,-0.2 -0.03,-0.08 -0.04,-0.17 -0.01,-0.26l0.01 -0.02c0,0 0.01,0 0.01,0 0.01,0.02 0.03,0.04 0.05,0.06 0.04,0.03 0.32,0.15 0.38,0.18 0.03,0.01 0.14,0.05 0.16,0.07 -0.02,0.06 0.01,0.11 0.04,0.16 0.02,0.03 0.07,0.1 0.09,0.12zm3.06 -0.29c0.03,-0.01 0.06,-0.02 0.08,-0.03 0.13,-0.05 0.28,-0.12 0.39,-0.18 0.05,-0.02 0.07,-0.03 0.1,-0.07 0.01,-0.01 0.02,-0.02 0.03,-0.03 0,0 0,0.01 0,0.01l0.01 0.02c0.03,0.09 0.02,0.18 -0.01,0.26 -0.03,0.08 -0.06,0.15 -0.14,0.19 -0.09,0.04 -0.18,0.06 -0.27,0.08 -0.06,0.01 -0.26,0.04 -0.31,0.03 0.05,-0.04 0.15,-0.19 0.12,-0.28zm-2.34 0.28c-0.1,-0.02 -0.55,-0.18 -0.65,-0.22 -0.13,-0.05 -0.13,-0.02 -0.18,-0.16 -0.01,-0.05 -0.03,-0.11 0,-0.14 0.03,0.01 0.08,0.04 0.1,0.06 0.1,0.06 0.65,0.39 0.73,0.42l0 0.04zm1.5 -0.05c0.05,-0.01 0.37,-0.2 0.42,-0.23l0.41 -0.25c0.02,0.05 0.02,0.08 -0.01,0.14 -0.01,0.03 -0.03,0.1 -0.06,0.12 -0.08,0.04 -0.68,0.25 -0.76,0.26l0 -0.04zm-1.13 -0.61c0.03,0.09 0.09,0 0.1,-0.01 0.02,0.03 0.02,0.06 0.05,0.06 0.03,0 0.05,-0.03 0.07,-0.04 0.03,0.04 0.06,0.09 0.11,0.02 0.01,0 0.07,0.1 0.11,-0.01 0.03,0.02 0.06,0.1 0.12,-0.01 0.08,0.08 0.09,0.02 0.11,-0.01 0.04,0.03 0.05,0.06 0.09,0.02l0.03 0.06c0.04,0.07 0.1,0.09 0.11,0.11 -0.04,0.02 -0.07,0 -0.1,0 0.01,0.02 0.03,0.04 0.04,0.06 0.02,0.02 0.04,0.03 0.06,0.05l-0.07 0c-0.01,-0.02 -0.03,-0.06 -0.05,-0.06 -0.01,0.03 0.01,0.07 -0.01,0.09 -0.04,0 -0.06,-0.07 -0.08,-0.1 -0.02,0.03 -0.01,0.2 -0.09,0.07 -0.01,-0.02 -0.03,-0.05 -0.04,-0.06 -0.04,0.22 -0.09,0.04 -0.12,0.01 -0.01,0.04 -0.02,0.1 -0.05,0.12 -0.03,-0.01 -0.06,-0.08 -0.07,-0.12 -0.01,0.01 -0.01,0.02 -0.01,0.03 -0.06,0.16 -0.1,-0.01 -0.11,-0.02 -0.02,0.02 -0.08,0.16 -0.12,-0.01 -0.02,0.02 -0.03,0.05 -0.05,0.07 -0.05,0.02 -0.04,-0.03 -0.05,-0.05 -0.03,0 0,0.03 -0.08,0.03l0.03 -0.03c0.01,-0.01 0.01,-0.02 0.02,-0.03 0.01,-0.02 0.02,-0.06 0.03,-0.08 0.04,0.04 0.07,0.02 0.1,-0.02l0.01 0c0,0 0,0 0,0.01l0 0.01c0.04,0.09 0.1,0.01 0.12,-0.01 0.01,0.03 0.03,0.05 0.05,0.06 0.04,0.01 0.05,-0.02 0.07,-0.04 0.01,0.02 0.03,0.05 0.06,0.05 0.03,0 0.05,-0.03 0.05,-0.06 0.02,0.02 0.03,0.05 0.07,0.05 0.03,0 0.04,-0.03 0.05,-0.05 0.1,0.07 0.09,0.03 0.12,-0.01 0.02,0.01 0.07,0.06 0.09,0.03 0.02,-0.02 0.01,-0.1 -0.02,-0.11 0.01,0.02 0.02,0.07 0,0.09 -0.02,0 -0.04,-0.02 -0.05,-0.03 -0.01,-0.02 -0.02,-0.04 -0.03,-0.05 -0.01,0.02 0,0.06 -0.03,0.08 -0.03,0.01 -0.05,-0.02 -0.06,-0.03 -0.01,-0.02 -0.02,-0.04 -0.03,-0.06 -0.01,0.04 -0.01,0.09 -0.04,0.11 -0.05,0.01 -0.05,-0.08 -0.07,-0.1 -0.01,0.01 -0.01,0.1 -0.05,0.11 -0.05,0 -0.05,-0.1 -0.06,-0.11 -0.02,0.01 -0.02,0.09 -0.06,0.1 -0.05,0 -0.05,-0.09 -0.06,-0.1 -0.01,0 -0.02,0.04 -0.03,0.05 -0.01,0.02 -0.02,0.04 -0.05,0.04 -0.02,-0.01 -0.02,-0.08 -0.03,-0.08l0 -0.01c-0.02,0.03 -0.03,0.06 -0.06,0.07 -0.02,0.01 -0.03,0 -0.03,-0.02 0,-0.02 0.01,-0.04 0.01,-0.06 -0.04,0.03 -0.02,0.09 -0.12,0.08 0.02,-0.02 0.04,-0.04 0.06,-0.06 0.02,-0.03 0.03,-0.06 0.04,-0.09zm0.78 0.04l0 0zm0.35 0.55c0.01,-0.01 0.02,-0.02 0.02,-0.03 0.01,0 0.02,-0.01 0.03,-0.02l0.4 -0.37c0.01,-0.01 0.01,-0.02 0.02,-0.03l0.19 -0.18c0.02,-0.02 0.07,-0.08 0.09,-0.09 0.02,0.01 0.03,0.04 0.04,0.06 0.02,0.06 0,0.12 -0.01,0.17 -0.02,0.04 -0.01,0.04 -0.04,0.06 -0.08,0.05 -0.16,0.1 -0.24,0.15 -0.07,0.03 -0.44,0.25 -0.5,0.28zm-1.51 0c-0.03,-0.02 -0.09,-0.05 -0.12,-0.07l-0.37 -0.21c-0.08,-0.05 -0.16,-0.1 -0.25,-0.15 -0.02,-0.02 -0.02,-0.03 -0.03,-0.06 -0.02,-0.07 -0.04,-0.18 0.03,-0.22 0.01,0.01 0.01,0.01 0.02,0.02 0.01,0.01 0.01,0.02 0.02,0.03 0.02,0.01 0.03,0.02 0.05,0.04l0.19 0.18c0.06,0.06 0.13,0.13 0.18,0.18 0.01,0.01 0.02,0.01 0.03,0.02l0.07 0.07c0.04,0.03 0.07,0.07 0.12,0.1l0.06 0.07zm2.35 -0.47c0.03,-0.01 0.3,-0.19 0.32,-0.21 0.06,-0.04 0.11,-0.07 0.16,-0.11 0.06,-0.04 0.07,-0.08 0.11,-0.15 0.05,0.08 0.08,0.18 0.04,0.29 -0.02,0.1 -0.07,0.16 -0.16,0.21 -0.05,0.02 -0.44,0.2 -0.51,0.22 0.04,-0.09 0.09,-0.15 0.04,-0.25zm-1.2 -0.23l0 0zm-0.76 -0.01l0 0zm-1.88 -0.03c0,-0.07 0.03,-0.15 0.07,-0.19l0.01 0.02c0,0.01 0.01,0.02 0.01,0.03 0.03,0.06 0.04,0.07 0.09,0.1 0.05,0.04 0.1,0.07 0.16,0.11l0.24 0.16c0.02,0.01 0.06,0.03 0.07,0.05 -0.02,0.05 -0.02,0.07 0,0.13 0.01,0.05 0.04,0.09 0.04,0.12 -0.07,-0.02 -0.46,-0.2 -0.53,-0.24 -0.09,-0.05 -0.16,-0.18 -0.16,-0.29zm1.93 -0.1c0.02,0.05 0.05,0.02 0.08,-0.02 0.01,0.03 0.02,0.06 0.05,0.06 0.03,0 0.04,-0.03 0.05,-0.04 0.03,0.05 0.07,0.08 0.1,0.01 0,0 0,0.01 0,0.01 0,0 0,0 0,0l0.02 0.02c0.02,0.02 0.05,0.03 0.07,0 0,-0.01 0.01,-0.02 0.01,-0.03 0.01,0.01 0.03,0.05 0.06,0.05 0.02,-0.01 0.03,-0.04 0.04,-0.06 0.02,0.01 0.04,0.04 0.06,0.04 0.03,0 0.03,-0.03 0.04,-0.05 0.01,0.01 0.02,0.02 0.04,0.03 0.01,0.01 0.02,0.01 0.03,0l0.01 -0.01c0,0 0,0 0,0 0.01,0.03 0.05,0.08 0.07,0.1l0.03 0.02c-0.04,0 -0.05,-0.01 -0.08,-0.03 0.01,0.04 0.04,0.07 0.06,0.1 0.04,0.05 0.05,0.05 0.08,0.08 -0.05,0.01 -0.09,0 -0.12,-0.02 0,-0.03 0,-0.07 -0.02,-0.09 -0.01,0.02 0.02,0.07 -0.01,0.09 -0.02,0 -0.04,-0.02 -0.04,-0.03 -0.01,-0.02 -0.02,-0.04 -0.03,-0.05 -0.01,0.01 -0.01,0.03 -0.01,0.05 -0.01,0.02 -0.01,0.02 -0.02,0.04 -0.05,0 -0.07,-0.08 -0.09,-0.1 0,0.03 -0.01,0.13 -0.05,0.11 -0.03,-0.01 -0.04,-0.09 -0.05,-0.1 -0.01,0.02 0,0.11 -0.06,0.11 -0.02,-0.01 -0.02,-0.03 -0.03,-0.05 0,-0.01 -0.01,-0.02 -0.01,-0.03 0,0 0,-0.01 0,-0.02 0,0 0,0 0,0l-0.01 -0.01c-0.01,0.03 -0.01,0.1 -0.05,0.1 -0.05,0 -0.05,-0.09 -0.06,-0.1 -0.02,0.02 -0.02,0.1 -0.08,0.09 -0.03,-0.04 -0.01,-0.07 -0.02,-0.09 -0.02,0.01 -0.04,0.09 -0.08,0.08 -0.02,-0.04 0,-0.05 0,-0.08 -0.03,0.01 -0.01,0.07 -0.09,0.07 0.03,-0.03 0.07,-0.08 0.08,-0.14l-0.05 0.01c0.02,-0.04 0.06,-0.07 0.08,-0.12zm-0.44 0.8c-0.02,-0.01 -0.11,-0.1 -0.14,-0.12 -0.04,-0.04 -0.08,-0.08 -0.11,-0.11l-0.08 -0.08c-0.01,0 -0.02,-0.01 -0.03,-0.02l-0.3 -0.29c-0.02,-0.02 -0.02,-0.02 -0.03,-0.07 -0.01,-0.03 -0.01,-0.06 -0.01,-0.1 0.01,-0.06 0.03,-0.11 0.08,-0.13l0.04 0.05c0.01,0.02 0.02,0.04 0.03,0.06l0.48 0.66c0.07,0.09 0.08,0.08 0.07,0.15zm1.51 0c-0.01,-0.06 0.01,-0.06 0.06,-0.13 0.07,-0.1 0.52,-0.72 0.57,-0.8 0.03,0.02 0.04,0.03 0.06,0.06 0.02,0.05 0.02,0.12 0.01,0.18 -0.02,0.06 -0.02,0.04 -0.04,0.07l-0.16 0.16c-0.02,0.02 -0.04,0.03 -0.06,0.05 -0.05,0.04 -0.11,0.11 -0.16,0.16l-0.06 0.05c-0.05,0.04 -0.12,0.12 -0.16,0.15 -0.02,0.02 -0.04,0.04 -0.06,0.05zm-1.5 -0.1c-0.01,0 -0.01,0 -0.01,0l0 0c0,0 0,0 0,0 -0.01,-0.01 -0.01,-0.01 -0.01,-0.01l-0.17 -0.23c-0.09,-0.12 -0.18,-0.26 -0.27,-0.37 -0.01,-0.02 -0.08,-0.11 -0.08,-0.13 -0.03,-0.1 0.01,-0.24 0.13,-0.28l0.11 0.25c0.07,0.16 0.14,0.34 0.21,0.5 0.02,0.04 0.04,0.08 0.06,0.12 0.03,0.08 0.03,0.05 0.03,0.15zm1.5 0.01c0,-0.09 0,-0.09 0.03,-0.16l0.38 -0.88c0.05,0.03 0.08,0.05 0.11,0.1 0.02,0.04 0.04,0.14 0.02,0.19 0,0.01 -0.07,0.1 -0.09,0.12 -0.04,0.06 -0.43,0.61 -0.45,0.63zm-1.5 -0.16c-0.01,-0.01 -0.11,-0.23 -0.12,-0.26l-0.2 -0.47c-0.02,-0.05 0.05,-0.16 0.08,-0.2 0.02,-0.02 0.07,-0.07 0.11,-0.08 0,0.04 0.05,0.2 0.06,0.25 0.02,0.09 0.04,0.17 0.06,0.25 0.01,0.06 0.1,0.46 0.1,0.51l-0.09 0zm1.41 0c0.01,-0.08 0.03,-0.18 0.05,-0.26 0.01,-0.07 0.16,-0.74 0.17,-0.75 0.04,0.01 0.09,0.06 0.11,0.08 0.03,0.03 0.05,0.07 0.07,0.12 0.01,0.03 0.02,0.05 0.01,0.08 -0.01,0.02 -0.02,0.04 -0.03,0.07l-0.28 0.66c-0.01,0 -0.01,0 -0.01,0 0,0 0,0 0,0l-0.09 0zm-2.2 -0.17c-0.02,-0.01 -0.24,-0.15 -0.26,-0.17 -0.07,-0.04 -0.27,-0.16 -0.31,-0.22 -0.01,-0.02 -0.03,-0.04 -0.04,-0.07 -0.05,-0.1 -0.08,-0.23 -0.06,-0.35 0.01,-0.05 0.04,-0.11 0.07,-0.14 0,0 0,0 0.01,0.01 0.01,0.04 0.03,0.1 0.07,0.16l0.25 0.23c0.03,0.03 0.27,0.27 0.29,0.28 -0.01,0.03 -0.05,0.04 -0.05,0.13 0,0.06 0.02,0.09 0.03,0.14zm3.47 -0.67c0.04,-0.05 0.12,-0.12 0.15,-0.17 0.02,-0.03 0.04,-0.08 0.05,-0.12 0.03,0.02 0.06,0.1 0.07,0.15 0.01,0.06 0.01,0.13 0,0.19 -0.02,0.1 -0.07,0.22 -0.15,0.28 -0.04,0.03 -0.08,0.06 -0.13,0.09 -0.07,0.04 -0.32,0.21 -0.38,0.25 0.01,-0.05 0.03,-0.08 0.03,-0.15 0,-0.03 -0.01,-0.07 -0.03,-0.1l-0.02 -0.02 0.41 -0.4zm-2.22 0.21c-0.01,0 -0.01,0 -0.01,0.01 -0.01,0.02 0,0.01 -0.02,0 -0.01,0.04 -0.03,0.05 -0.07,0.05 0.01,-0.02 0.02,-0.04 0.04,-0.07 0.01,-0.03 0.02,-0.05 0.03,-0.08 0.02,-0.02 0.03,-0.05 0.05,-0.06 0.03,-0.03 0.05,-0.04 0.07,-0.05 -0.03,-0.02 -0.2,-0.03 -0.24,-0.19 0.02,0.01 0.03,0.02 0.05,0.03 0.06,0.04 0.13,0.05 0.19,0.05 0,0 0,0 0,-0.01 -0.08,-0.07 -0.07,-0.08 -0.11,-0.12 -0.07,-0.07 -0.13,-0.05 -0.19,-0.06 0.02,-0.05 0.05,-0.09 0.12,-0.08 0.03,0.01 0.05,0.02 0.08,0.03 0.01,0.01 0.02,0.02 0.03,0.02 0.01,0.01 0.02,0.02 0.03,0.03 0.04,-0.02 0.1,-0.07 0.21,-0.04 0.07,0.02 0.12,0.06 0.16,0.1 0.06,0.05 0.15,0.14 0.21,0.18 0.02,0.01 0.04,0.02 0.07,0.03l0.02 0.01c-0.05,0.03 -0.05,0.04 -0.13,0.05 0.01,0.01 0,0 0.01,0.01l0.02 0.02c0.06,0.05 0.03,0.03 0.09,0.07 0,0 0.01,0 0.01,0.01 -0.03,0.01 -0.08,0 -0.11,-0.01 0.01,0.04 0.04,0.08 0.07,0.1 0.01,0.01 0.03,0.01 0.03,0.02 -0.02,0.01 -0.04,0.03 -0.08,0.02 0,-0.04 -0.01,-0.05 -0.02,-0.08 0,0.01 0,0 0,0.01 0,0.01 0.01,0.05 -0.01,0.08 -0.04,0 -0.04,-0.07 -0.06,-0.08 -0.01,0.02 0,0.06 -0.03,0.09 -0.05,0 -0.05,-0.08 -0.07,-0.09 -0.01,0.03 -0.01,0.09 -0.04,0.1 -0.02,0 -0.02,-0.02 -0.03,-0.04l-0.02 -0.06c0,0 0,0 0,0 -0.02,0.03 -0.01,0.1 -0.05,0.11 -0.03,0 -0.04,-0.1 -0.04,-0.11 -0.02,0.02 -0.02,0.1 -0.05,0.1 -0.02,0 -0.03,-0.02 -0.04,-0.04 0,-0.02 0,-0.05 -0.01,-0.06l-0.01 0.01c-0.01,0.03 -0.02,0.08 -0.06,0.08 -0.02,-0.02 -0.02,-0.05 -0.02,-0.09 -0.01,0 -0.01,0.01 -0.01,0.02 -0.01,0.01 -0.01,0.02 -0.02,0.02 -0.01,0.02 -0.02,0.04 -0.04,0.04 -0.02,-0.03 -0.01,-0.05 0,-0.08zm-1.17 0.21c-0.02,-0.02 -0.05,-0.04 -0.07,-0.06l-0.21 -0.21c-0.04,-0.04 -0.12,-0.11 -0.15,-0.14 -0.01,-0.02 -0.05,-0.05 -0.07,-0.07l-0.07 -0.06c-0.05,-0.06 -0.07,-0.12 -0.09,-0.19 -0.02,-0.08 -0.03,-0.17 -0.02,-0.26 0.01,-0.14 0.08,-0.29 0.22,-0.33 -0.03,0.13 -0.02,0.22 0.03,0.34 0.04,0.07 0.35,0.51 0.41,0.6l0.09 0.11c-0.02,0.02 -0.03,0.02 -0.05,0.05 -0.05,0.07 -0.03,0.15 -0.02,0.22zm2.85 -0.27l0.25 -0.36c0.03,-0.04 0.06,-0.08 0.08,-0.12 0.15,-0.21 0.25,-0.31 0.2,-0.58 0.23,0.09 0.25,0.37 0.19,0.59 -0.05,0.2 -0.1,0.18 -0.16,0.26l-0.21 0.2c-0.05,0.05 -0.09,0.1 -0.14,0.14 -0.01,0.01 -0.02,0.03 -0.04,0.04l-0.1 0.1c0.02,-0.13 0.03,-0.21 -0.07,-0.27zm-1.38 -1.59c0,0.01 0.32,0.45 0.33,0.47l-0.33 -0.24 0 -0.23zm-0.35 0.47c0.06,-0.1 0.22,-0.3 0.3,-0.41 0.01,-0.02 0.02,-0.05 0.04,-0.06l0 0.23c-0.01,0.01 -0.03,0.02 -0.04,0.03 -0.02,0.01 -0.03,0.02 -0.05,0.03l-0.16 0.12c-0.03,0.02 -0.06,0.05 -0.09,0.06zm-1.04 1.1c-0.03,-0.03 -0.05,-0.06 -0.07,-0.09 -0.04,-0.07 -0.09,-0.13 -0.13,-0.19 -0.06,-0.08 -0.22,-0.32 -0.27,-0.39 -0.14,-0.24 -0.04,-0.52 0.17,-0.67 0.05,-0.04 0.14,-0.1 0.22,-0.11 -0.01,0.03 -0.02,0.06 -0.03,0.08 -0.02,0.1 -0.03,0.19 -0.03,0.29 0.01,0.12 0.05,0.24 0.1,0.33 0.05,0.09 0.09,0.18 0.13,0.28l0.1 0.22c0.01,0.02 0.02,0.05 0.03,0.07 -0.06,0.02 -0.1,0.06 -0.12,0.1 -0.04,0.06 -0.03,0.1 -0.04,0.17l-0.06 -0.09zm2.54 -0.18c0.01,-0.03 0.02,-0.05 0.03,-0.08 0.07,-0.17 0.15,-0.34 0.23,-0.5 0.1,-0.18 0.12,-0.41 0.06,-0.62 0,-0.02 -0.01,-0.05 -0.02,-0.07 0.08,0.01 0.17,0.06 0.22,0.1 0.21,0.16 0.3,0.43 0.16,0.68 -0.02,0.03 -0.04,0.06 -0.06,0.09 -0.02,0.04 -0.05,0.07 -0.07,0.1l-0.36 0.52c-0.01,0.01 -0.03,0.04 -0.04,0.05 0,-0.08 0,-0.12 -0.03,-0.18 -0.03,-0.04 -0.07,-0.07 -0.12,-0.09zm-0.76 0.63c0.02,0 0.09,0.02 0.13,0 -0.01,-0.01 -0.03,-0.02 -0.04,-0.03 -0.03,-0.03 -0.09,-0.09 -0.1,-0.12 0.02,0 0.06,0.02 0.09,0 -0.01,-0.01 -0.06,-0.03 -0.11,-0.09 0,-0.01 -0.02,-0.03 -0.02,-0.05 0.05,0 0.08,-0.01 0.1,-0.04 -0.04,-0.01 -0.1,-0.05 -0.11,-0.09 0.06,0.01 0.09,0 0.13,-0.01 -0.01,0 0,0 -0.01,-0.01l-0.03 -0.01c-0.03,-0.01 -0.1,-0.06 -0.1,-0.08 0.05,-0.01 0.06,-0.01 0.1,-0.05 0.01,-0.01 0.02,-0.01 0.02,-0.03 -0.12,0 -0.24,-0.15 -0.31,-0.21 -0.01,-0.01 -0.02,-0.02 -0.04,-0.03 -0.11,-0.09 -0.22,-0.1 -0.34,-0.04 -0.01,-0.01 -0.18,-0.16 -0.26,0 -0.01,0.01 -0.01,0.02 -0.02,0.04 0.04,0 0.07,-0.01 0.1,0 0.09,0.01 0.11,0.06 0.16,0.12 0.01,0.02 0.02,0.02 0.02,0.04 -0.06,0 -0.15,-0.04 -0.2,-0.08 -0.01,-0.01 -0.01,-0.02 -0.02,-0.02 0,0.02 0.02,0.07 0.02,0.08 0.05,0.08 0.12,0.12 0.2,0.14 0,0.01 0.01,0 0,0.01 -0.03,0.02 -0.03,0.02 -0.06,0.05 -0.01,0.01 -0.01,0.02 -0.02,0.03 -0.01,0.02 -0.01,0.02 -0.02,0.04 -0.01,0.03 -0.03,0.08 -0.06,0.11 0,0.01 -0.02,0.02 -0.02,0.03 0.01,0 0.04,0 0.05,0 0.02,0 0.02,-0.01 0.04,-0.02 -0.02,0.04 0,0.02 -0.04,0.09 -0.01,0.02 -0.05,0.06 -0.05,0.08 0.02,0 0.03,-0.01 0.05,-0.01 -0.01,0.07 -0.08,0.12 -0.09,0.13 0.03,0 0.05,0.01 0.07,0 -0.01,0.05 -0.06,0.1 -0.11,0.14l-0.01 0c0.02,0.01 0.03,0.01 0.05,0.01 0.03,0 0.03,0 0.05,-0.01 0,0.01 -0.01,0.03 -0.01,0.04 -0.02,0.05 -0.06,0.11 -0.12,0.11 -0.03,0 -0.06,0 -0.09,0 -0.03,-0.11 -0.05,-0.24 -0.08,-0.37 -0.04,-0.17 -0.08,-0.37 -0.12,-0.54 -0.04,-0.16 -0.09,-0.41 -0.11,-0.57 -0.02,-0.13 -0.03,-0.28 -0.01,-0.42 0.01,-0.06 0.02,-0.12 0.05,-0.17 0,-0.01 0.01,-0.02 0.01,-0.04 0.04,-0.06 0.08,-0.11 0.14,-0.14 0.07,-0.05 0.15,-0.08 0.24,-0.1 0.02,0 0.03,-0.01 0.05,-0.01 0.02,0 0.02,0 0.04,0.01 0.02,0.02 0.04,0.03 0.06,0.05l0.13 0.09 -0.12 0.38c-0.01,0.02 -0.01,0.04 -0.02,0.05 0.02,0 0.22,-0.15 0.26,-0.18 0,0 0.01,-0.01 0.02,-0.02 0.02,-0.01 0.03,-0.02 0.05,-0.03 0.01,-0.01 0.03,-0.02 0.04,-0.03 0.02,0.01 0.03,0.02 0.05,0.03 0.01,0.01 0.03,0.02 0.04,0.03 0.04,0.03 0.26,0.19 0.28,0.2 0,-0.02 -0.03,-0.09 -0.03,-0.11 -0.02,-0.03 -0.03,-0.07 -0.04,-0.11l-0.07 -0.21c0.01,-0.01 0.02,-0.01 0.03,-0.02l0.16 -0.12c0.04,-0.02 0.03,-0.02 0.09,-0.01 0.12,0.02 0.22,0.07 0.3,0.15 0.02,0.02 0.04,0.04 0.05,0.06 0.18,0.25 0.07,0.77 0.02,1.05l-0.25 1.1c-0.02,0 -0.06,0.01 -0.08,0 0,0 0,0 0,0 -0.04,-0.03 -0.09,-0.06 -0.11,-0.09 0.06,0.01 0.08,-0.01 0.11,-0.01l0 -0.01c-0.03,-0.01 -0.14,-0.1 -0.15,-0.15zm-0.05 -1.56c-0.02,-0.01 -0.04,-0.04 -0.05,-0.06l-0.12 -0.17c-0.03,-0.04 -0.06,-0.08 -0.08,-0.12l-0.08 -0.12c0.04,0.01 0.1,0.04 0.14,0.06 0.05,0.02 0.06,0.01 0.07,0.04 0.01,0.05 0.11,0.35 0.12,0.37zm-0.69 0c0,-0.02 0.08,-0.25 0.09,-0.3 0.04,-0.1 0.02,-0.08 0.1,-0.11 0.03,-0.01 0.12,-0.05 0.14,-0.06l-0.33 0.47zm-0.75 1.04c-0.01,-0.01 -0.05,-0.12 -0.06,-0.14 -0.06,-0.14 -0.13,-0.3 -0.19,-0.43 -0.05,-0.1 -0.1,-0.17 -0.12,-0.28 -0.04,-0.12 -0.04,-0.24 -0.02,-0.37 0.08,-0.47 0.49,-0.57 0.88,-0.46 0.08,0.03 0.06,0.02 0.13,0.08 0,0 -0.08,0.01 -0.1,0.02 -0.24,0.06 -0.37,0.21 -0.41,0.46 -0.04,0.29 0.04,0.6 0.09,0.87 -0.09,0.05 -0.16,0.14 -0.2,0.25zm1.57 -1.61c0.04,-0.02 0.04,-0.05 0.12,-0.07 0.17,-0.05 0.37,-0.07 0.53,-0.01 0.19,0.07 0.31,0.24 0.35,0.47 0.02,0.13 0.01,0.25 -0.02,0.37 -0.03,0.11 -0.08,0.18 -0.13,0.28l-0.24 0.57c-0.02,-0.06 -0.05,-0.11 -0.08,-0.15 -0.04,-0.05 -0.07,-0.07 -0.12,-0.1 0,-0.03 0.01,-0.08 0.02,-0.11 0.02,-0.1 0.04,-0.2 0.05,-0.31 0.03,-0.19 0.05,-0.47 -0.04,-0.65 -0.09,-0.18 -0.23,-0.25 -0.44,-0.29zm0.08 -0.07c-0.01,0 -0.02,0.02 -0.03,0.02l-0.29 0.21c-0.01,0.01 -0.01,0.02 -0.03,0.01 -0.04,-0.02 -0.18,-0.07 -0.19,-0.08l0.54 -0.16zm-0.57 0.16c-0.06,0.02 -0.11,0.05 -0.16,0.07 -0.06,0.02 -0.03,0.03 -0.13,-0.05l-0.25 -0.18c0.03,0.01 0.53,0.16 0.54,0.16zm0.03 -0.01c0.01,-0.01 0.12,-0.16 0.13,-0.16 0.06,0 0.13,0 0.2,0 0.04,0 0.17,0 0.2,0l-0.53 0.16zm-0.57 -0.16l0.41 0c0.02,0.03 0.05,0.06 0.07,0.08 0.02,0.03 0.04,0.05 0.06,0.08l-0.54 -0.16zm0.46 0.05c-0.02,-0.03 -0.04,-0.05 -0.04,-0.06 0.01,-0.03 0.02,-0.06 0.03,-0.08 0.01,-0.05 0.08,-0.27 0.1,-0.3l0 0.55 -0.09 -0.11zm0.1 -0.44c0.02,0.07 0.07,0.22 0.1,0.3 0,0.02 0.02,0.06 0.02,0.08 0,0.01 0,0.02 -0.01,0.03 -0.01,0.01 -0.02,0.02 -0.03,0.03 -0.01,0.02 -0.02,0.04 -0.04,0.06 -0.01,0.01 -0.03,0.04 -0.04,0.05l0 -0.55z"/>
    <path class="fil1" d="M1.67 4.2c0.01,0.04 0.1,0.13 0.14,0.17 0.01,0.01 0.02,0.02 0.02,0.03 0.09,0.07 0.18,0.13 0.31,0.16 0.12,0.02 0.24,0.01 0.35,-0.03 0.11,-0.04 0.18,-0.1 0.25,-0.17 0.01,-0.01 0.02,-0.01 0.03,-0.02 0.01,-0.01 0.01,-0.02 0.02,-0.03 0.05,-0.06 0.09,-0.12 0.13,-0.18 0.08,-0.16 0.06,-0.17 0.06,-0.35 0,-0.28 0,-0.55 0,-0.83 -0.01,0.01 -0.07,0.07 -0.08,0.08 -0.02,0.03 -0.05,0.05 -0.08,0.07 -0.02,0.03 -0.14,0.14 -0.16,0.16 -0.02,0.03 -0.15,0.13 -0.17,0.16l-0.16 0.16c-0.03,0.02 -0.05,0.04 -0.08,0.07 -0.01,0.02 -0.03,0.03 -0.04,0.04l-0.17 0.16c-0.01,0 -0.01,0.01 -0.02,0.02l-0.14 0.13c-0.01,0.01 -0.02,0.02 -0.02,0.02 -0.01,0.01 -0.01,0.02 -0.02,0.03 -0.02,0.01 -0.03,0.02 -0.04,0.03l-0.13 0.12z"/>
    <path class="fil2" d="M1.54 3.96c0,0.03 0.1,0.22 0.12,0.25 0.01,-0.01 0.02,-0.03 0.04,-0.04 0.03,-0.04 0.34,-0.32 0.39,-0.38 0.01,-0.01 0.02,-0.01 0.02,-0.02 0.02,-0.01 0.03,-0.03 0.05,-0.04l0.68 -0.66c0.02,-0.01 0.05,-0.04 0.07,-0.06 0.03,-0.03 0.06,-0.05 0.08,-0.08l-0.31 0c-0.01,0.01 0,0.03 -0.03,0.02 -0.03,0 0,-0.02 -0.07,-0.02 -0.03,0 -0.01,0.04 -0.05,0.04 -0.02,0 -0.03,-0.02 -0.04,-0.04l-0.04 0c-0.02,0.01 -0.01,0.04 -0.05,0.04 -0.01,0 -0.03,-0.02 -0.04,-0.04l-0.04 0c0,0.03 -0.02,0.06 -0.04,0.06 -0.04,-0.01 -0.04,-0.06 -0.06,-0.06 -0.05,0 -0.03,0.03 -0.07,0.04 -0.02,0 -0.04,-0.02 -0.04,-0.04 -0.1,0 -0.04,0.01 -0.09,0.02 -0.02,0.01 -0.03,-0.01 -0.03,-0.02 -0.09,0 -0.07,0.01 -0.09,0.01 -0.02,0.01 -0.02,-0.01 -0.04,-0.01l-0.32 0 0 1.03z"/>
    <path class="fil3" d="M1.18 2.13c0.04,-0.11 0.11,-0.2 0.2,-0.25 -0.05,-0.27 -0.13,-0.58 -0.09,-0.87 0.04,-0.25 0.17,-0.4 0.41,-0.46 0.02,-0.01 0.1,-0.02 0.1,-0.02 -0.07,-0.06 -0.05,-0.05 -0.13,-0.08 -0.39,-0.11 -0.8,-0.01 -0.88,0.46 -0.02,0.13 -0.02,0.25 0.02,0.37 0.02,0.11 0.07,0.18 0.12,0.28 0.06,0.13 0.13,0.29 0.19,0.43 0.01,0.02 0.05,0.13 0.06,0.14z"/>
    <path class="fil3" d="M2.75 0.52c0.21,0.04 0.35,0.11 0.44,0.29 0.09,0.18 0.07,0.46 0.04,0.65 -0.01,0.11 -0.03,0.21 -0.05,0.31 -0.01,0.03 -0.02,0.08 -0.02,0.11 0.05,0.03 0.08,0.05 0.12,0.1 0.03,0.04 0.06,0.09 0.08,0.15l0.24 -0.57c0.05,-0.1 0.1,-0.17 0.13,-0.28 0.03,-0.12 0.04,-0.24 0.02,-0.37 -0.04,-0.23 -0.16,-0.4 -0.35,-0.47 -0.16,-0.06 -0.36,-0.04 -0.53,0.01 -0.08,0.02 -0.08,0.05 -0.12,0.07z"/>
    <path class="fil4" d="M0.74 6.02c-0.01,-0.03 -0.03,-0.04 -0.06,-0.1 -0.02,-0.06 -0.03,-0.14 0,-0.2 0.01,-0.04 0.01,-0.02 0.01,-0.07 -0.01,-0.08 0.02,-0.18 0.06,-0.25 0,-0.02 0.02,-0.04 0.02,-0.05 0.01,-0.02 0.01,-0.04 0.02,-0.06l0.08 -0.16c0.01,-0.02 0.03,-0.04 0.03,-0.05l-0.1 -0.15c-0.08,-0.14 -0.1,-0.22 -0.05,-0.39 0.02,-0.05 0.05,-0.14 0.1,-0.15 0.04,0 0.05,0.04 0.04,0.08 -0.03,0.12 -0.2,0.18 -0.06,0.43 0.03,0.04 0.07,0.11 0.1,0.15 0.01,0 0.06,-0.03 0.08,-0.04 0.04,-0.03 0.01,-0.03 0.05,-0.06 -0.01,-0.06 0.01,-0.06 0.03,-0.09 0,-0.06 0.02,-0.09 0.04,-0.13l-0.04 0.01c-0.02,-0.02 -0.03,-0.07 -0.02,-0.11l0.03 -0.16c0.01,-0.03 -0.02,-0.06 0.02,-0.17 0.02,-0.03 0.03,-0.02 0,-0.08 -0.05,-0.1 -0.13,-0.15 -0.23,-0.17 -0.05,-0.01 -0.21,-0.02 -0.24,0.01 -0.04,0.02 -0.12,0.09 -0.14,0.12 -0.23,0.25 -0.15,0.45 0.02,0.73 0.08,0.13 0.18,0.3 0.18,0.47 0,0.05 -0.01,0.07 -0.03,0.11 -0.05,0.11 -0.12,0.29 -0.09,0.41 0.02,0.07 0.07,0.11 0.15,0.12z"/>
    <path class="fil4" d="M3.46 4.74c-0.02,-0.01 -0.03,-0.01 -0.04,-0.02 0.01,0.04 0.03,0.07 0.04,0.11 0,0.05 0,0.02 0.02,0.05 0.01,0.02 0.01,0.04 0.01,0.06 0.03,0.03 0.02,0.04 0.05,0.07 0.02,0 0.06,0.03 0.07,0.04 0.05,-0.05 0.16,-0.23 0.16,-0.33 0,-0.09 -0.09,-0.19 -0.11,-0.25 -0.01,-0.04 0,-0.08 0.04,-0.08 0.08,0.01 0.14,0.26 0.12,0.37 -0.03,0.12 -0.12,0.24 -0.17,0.32 0,0 0.04,0.06 0.05,0.1 0.02,0.03 0.04,0.07 0.06,0.1 0,0.02 0.01,0.04 0.01,0.06 0.01,0.02 0.02,0.04 0.03,0.05 0.02,0.04 0.04,0.08 0.05,0.12 0.01,0.05 0.01,0.09 0.01,0.14 -0.01,0.07 0.02,0.03 0.02,0.13 0.01,0.06 -0.01,0.14 -0.04,0.19 -0.01,0.02 -0.02,0.03 -0.03,0.05 0.07,0 0.13,-0.06 0.14,-0.12 0.04,-0.12 -0.03,-0.31 -0.08,-0.41 -0.01,-0.04 -0.03,-0.06 -0.03,-0.1 0,-0.31 0.29,-0.56 0.34,-0.84 0.01,-0.08 0,-0.15 -0.03,-0.22 -0.01,-0.03 -0.03,-0.06 -0.05,-0.08 -0.01,-0.02 -0.01,-0.03 -0.02,-0.04 -0.01,-0.01 -0.01,-0.01 -0.02,-0.02 -0.04,-0.04 -0.1,-0.1 -0.16,-0.14 -0.03,-0.02 -0.19,-0.01 -0.23,0 -0.13,0.02 -0.21,0.09 -0.25,0.2 -0.02,0.02 -0.01,0.03 0,0.05 0.05,0.1 0.02,0.14 0.03,0.16l0.03 0.16c0,0.04 0,0.09 -0.02,0.12z"/>
    <path class="fil3" d="M0.95 2.29c0.01,-0.07 0,-0.11 0.04,-0.17 0.02,-0.04 0.06,-0.08 0.12,-0.1 -0.01,-0.02 -0.02,-0.05 -0.03,-0.07l-0.1 -0.22c-0.04,-0.1 -0.08,-0.19 -0.13,-0.28 -0.05,-0.09 -0.09,-0.21 -0.1,-0.33 0,-0.1 0.01,-0.19 0.03,-0.29 0.01,-0.02 0.02,-0.05 0.03,-0.08 -0.08,0.01 -0.17,0.07 -0.22,0.11 -0.21,0.15 -0.31,0.43 -0.17,0.67 0.05,0.07 0.21,0.31 0.27,0.39 0.04,0.06 0.09,0.12 0.13,0.19 0.02,0.03 0.04,0.06 0.07,0.09l0.06 0.09z"/>
    <path class="fil3" d="M3.43 2.02c0.05,0.02 0.09,0.05 0.12,0.09 0.03,0.06 0.03,0.1 0.03,0.18 0.01,-0.01 0.03,-0.04 0.04,-0.05l0.36 -0.52c0.02,-0.03 0.05,-0.06 0.07,-0.1 0.02,-0.03 0.04,-0.06 0.06,-0.09 0.14,-0.25 0.05,-0.52 -0.16,-0.68 -0.05,-0.04 -0.14,-0.09 -0.22,-0.1 0.01,0.02 0.02,0.05 0.02,0.07 0.06,0.21 0.04,0.44 -0.06,0.62 -0.08,0.16 -0.16,0.33 -0.23,0.5 -0.01,0.03 -0.02,0.05 -0.03,0.08z"/>
    <path class="fil5" d="M1.54 5.14c0.01,-0.01 0.01,-0.01 0.03,-0.01 0,-0.01 0.01,-0.01 0.02,-0.01 0.02,0 0.1,-0.02 0.07,0.05 -0.01,0.02 -0.02,0.03 -0.03,0.04 0.02,0.05 0.06,0.06 0.06,0.06 0,0.02 -0.04,0.03 -0.06,0.01 0,-0.01 -0.01,-0.02 -0.01,-0.03l-0.02 -0.02 0 0.05c0,0 0.03,0 0.01,0.02 0,0 -0.03,0.01 -0.04,0.01 -0.02,0 -0.05,0.01 -0.07,0.02 0,-0.03 0,-0.04 -0.01,-0.06l-0.04 0.01 -0.01 0.04 0.02 0c0,0.02 -0.01,0.02 -0.04,0.02 -0.02,0.01 -0.04,0.02 -0.06,0.02 0,-0.01 -0.04,-0.05 -0.05,-0.06 0,0.06 0.01,0.05 0.02,0.05 0,0.02 -0.01,0.02 -0.03,0.03 -0.01,0 -0.02,0 -0.04,0.01 0,-0.04 0.02,0 0.02,-0.06l0 -0.1 -0.01 -0.01c-0.01,0 0,0.01 -0.01,-0.01 0,-0.01 0.06,-0.02 0.06,-0.02 0.01,0 0.01,0 0.01,0 0,0.03 -0.02,0 -0.02,0.07 0.01,-0.01 0.03,-0.03 0.03,-0.04 0.02,-0.03 0,0 0,-0.04l0.06 -0.01c0,0.03 0,0.01 -0.03,0.04 -0.01,0.02 -0.03,0.04 -0.03,0.05 0,0.01 0.05,0.07 0.06,0.07 0.02,-0.01 0.03,-0.07 0.04,-0.09 0,-0.02 0.01,-0.04 0.02,-0.05 0.01,-0.04 0,-0.04 0.02,-0.05 0.01,0.01 0.05,0.13 0.06,0.16 0.03,-0.01 0.02,-0.01 0.02,-0.04l0 -0.11c-0.02,-0.01 -0.01,0 -0.02,-0.01zm1.41 -0.03c0.01,0 0.06,0.01 0.07,0.02 0,0.02 0,0 -0.02,0.02l0 0.04c0.02,-0.01 0.03,-0.02 0.04,-0.04 -0.01,-0.02 -0.01,0.01 -0.02,-0.02 0.02,0 0.03,0 0.04,0 0.03,0.01 0.03,0 0.03,0.02 -0.01,0.01 -0.01,0.01 -0.02,0.01 -0.01,0.01 -0.04,0.03 -0.05,0.04 0.02,0.03 0.05,0.1 0.07,0.1l0 -0.04c0.03,0 0.02,0.02 0.03,0.04 0.01,0.01 0.02,0.02 0.04,0.02 0.02,-0.05 -0.04,-0.06 -0.06,-0.1 -0.03,-0.07 0.07,-0.08 0.09,-0.04l0 0.04c-0.03,0 -0.02,0 -0.03,-0.03 0,-0.01 -0.01,-0.02 -0.03,-0.02 -0.01,0.03 0.03,0.07 0.05,0.08 0.02,0.03 0.02,0.07 -0.02,0.09 -0.02,0.01 -0.03,0 -0.05,-0.01 -0.05,-0.03 -0.04,0.01 -0.08,-0.05l-0.03 -0.05 0 0.05c0.02,0.01 0.02,0 0.02,0.03 -0.04,-0.01 -0.08,-0.02 -0.12,-0.02 0,-0.02 0.01,-0.04 -0.01,-0.07l-0.04 0c-0.01,0.05 -0.01,0.03 0,0.04 0.01,0.01 0.01,0 0.01,0.02l-0.06 -0.01c0,-0.04 0,0 0.02,-0.04l0.05 -0.13c0,-0.01 0,0 0.01,-0.01 0.01,0.01 0.01,0.01 0.02,0.05l0.03 0.1c0,0.01 0.01,0.03 0.02,0.04 0.02,0 0.01,0 0.01,-0.01l0.01 -0.13c-0.01,-0.02 -0.02,0.01 -0.02,-0.03zm-0.24 0.12c0.01,0 0.01,-0.09 0.01,-0.11 0,-0.05 -0.02,-0.01 -0.02,-0.05 0.04,0.01 0.11,0 0.12,0.04 0.02,0.04 -0.03,0.08 -0.07,0.07l0 0.06c0.02,0.01 0.02,0 0.02,0.02 -0.01,0 -0.02,0 -0.04,0 -0.01,0 -0.03,0 -0.03,-0.01 0,0 0,0 0,0 0,-0.03 0,0 0.01,-0.02zm-1.04 -0.13c0.02,0 0.01,0 0.03,0l0.07 -0.01c0.02,-0.01 0.02,-0.01 0.02,-0.01 0.02,0 0.01,0 0.03,0 0.01,0 0.04,0 0.05,0 0,0.03 -0.02,-0.01 -0.02,0.05 0,0.02 0,0.1 0.01,0.11 0.02,0.02 0.03,0.02 -0.03,0.02 -0.02,0.01 -0.02,0.01 -0.03,0 0.01,-0.03 0.02,0 0.02,-0.03l0 -0.09c0,-0.05 0,-0.04 -0.01,-0.04 -0.01,0.01 0,0.02 0,0.04l-0.02 0c-0.01,-0.02 0,-0.03 -0.03,-0.03 0,0.02 -0.01,0.12 0,0.13 0,0.03 0,0 0.01,0.02 0.01,0.02 -0.06,0.02 -0.07,0.02 0,-0.03 0.01,-0.01 0.02,-0.02l0 -0.15c-0.01,0.01 -0.02,0.01 -0.03,0.02 0,0.03 0.01,0.03 -0.02,0.03l0 -0.06zm0.35 0.12c0.02,-0.01 0.04,-0.1 0.06,-0.13 0,-0.02 0,-0.04 0.02,-0.04 0.02,0 0.04,0.14 0.06,0.16 0.01,0.01 0.01,0 0.01,0.02 -0.01,0.01 -0.02,0 -0.05,0.01 0,-0.04 0.01,0 -0.01,-0.06l-0.05 0 0 0.04c0.02,0.01 0.02,-0.01 0.02,0.02l-0.1 0.01c-0.01,-0.02 -0.04,-0.06 -0.05,-0.07 0,0.01 0,0.03 0,0.04 0.01,0.03 0.02,-0.01 0.01,0.03 0,0 -0.05,0.01 -0.06,0 0,-0.03 0.01,0 0.01,-0.03l0 -0.13c-0.01,-0.01 -0.02,0.01 -0.01,-0.02 0.01,0 0.02,0 0.03,0l0.03 0c0,0 0,0 0,0 0,0 0,0 0.01,0 -0.01,0.02 0,0.01 -0.02,0.02l0 0.05 0.03 -0.05c0,-0.01 -0.01,-0.01 -0.01,-0.02l0.07 -0.01c0,0.02 0,0.01 -0.01,0.02 -0.02,0.01 -0.05,0.04 -0.06,0.06 0.01,0.02 0.02,0.03 0.03,0.05 0.01,0.01 0.02,0.03 0.04,0.03zm0.35 -0.15c-0.02,-0.01 -0.02,0.01 -0.02,-0.02 0.01,-0.01 0.05,0 0.07,0 0,0.02 0,0.02 -0.02,0.02l0 0.05c0.01,-0.01 0.03,-0.03 0.04,-0.05 -0.01,-0.02 -0.01,0.01 -0.01,-0.02 0.01,0 0.02,0 0.03,0 0.01,0 0.02,0 0.02,0l0.01 0c0,0 0,0 0,0.01 0,0.02 -0.02,0 -0.07,0.07 0.02,0.02 0.05,0.08 0.08,0.09 0,-0.01 0,-0.01 0,-0.01l0.05 -0.12c0,-0.02 0.02,-0.06 0.03,-0.01l0.02 0.07c0.01,0.02 0.01,0.04 0.02,0.06 0.01,0.03 0.02,0.01 0.02,0.04l-0.05 -0.01c0,0 0,0.01 0,0 -0.01,-0.02 0.01,0 -0.01,-0.06l-0.05 0c-0.01,0.06 0,0.04 0.01,0.04 0.01,0.01 0.01,-0.01 0.01,0.02 0,0.01 -0.03,0 -0.05,0 -0.02,0 -0.02,-0.01 -0.05,-0.01l-0.03 -0.05c-0.01,-0.01 -0.01,-0.01 -0.01,-0.01l-0.01 -0.01c0,0.1 0.02,0.02 0.02,0.07 -0.02,0 -0.07,0.01 -0.07,0 0,-0.04 0.01,0 0.02,-0.03 0,-0.01 0,-0.03 0,-0.04 0,-0.03 0,-0.06 0,-0.09zm-0.04 0.08l-0.05 0 0 0.06c0.07,0 0.03,-0.04 0.06,-0.04 0.01,0.01 0.01,0.02 0,0.04 0,0.01 0,0.02 0,0.03 -0.02,0 -0.01,-0.01 -0.03,-0.01l-0.08 0c-0.01,-0.03 0.01,-0.01 0.02,-0.02 0,-0.01 0,-0.01 0,-0.02 0,-0.02 0,-0.04 0,-0.06 0,-0.01 0,-0.04 0,-0.05 -0.01,-0.03 -0.02,0.01 -0.02,-0.03l0.09 0c0.01,-0.01 0,-0.01 0.02,-0.01l0 0.06c-0.03,0 -0.01,0 -0.02,-0.02 -0.01,-0.01 -0.02,-0.02 -0.04,-0.01 0,0.06 0,0.05 0.05,0.06l0 0.02zm1.13 0.31c0.01,-0.05 -0.02,-0.11 -0.01,-0.17 0,-0.03 0.01,-0.02 -0.02,-0.07 0,-0.02 -0.03,-0.03 -0.06,-0.03 -0.29,-0.1 -0.64,-0.17 -0.95,-0.18 -0.41,-0.01 -0.86,0.05 -1.24,0.18 -0.08,0.02 -0.05,0 -0.08,0.06 -0.01,0.03 0.01,0.03 -0.01,0.12 0,0.02 -0.01,0.08 0,0.09 0,0.01 -0.01,0.01 0.03,0 0.55,-0.17 1.15,-0.22 1.72,-0.13 0.11,0.01 0.22,0.03 0.32,0.05l0.3 0.08z"/>
    <path class="fil3" d="M2.16 5.31c-0.01,0.12 -0.02,0.25 -0.03,0.37l-0.07 0.75c0,0.06 -0.01,0.05 0.02,0.08 0.04,0.05 0.11,0.11 0.19,0.12 0.06,0 0.11,-0.04 0.14,-0.06 0.08,-0.08 0.07,-0.07 0.07,-0.13 -0.01,-0.13 -0.02,-0.25 -0.03,-0.38 -0.02,-0.25 -0.04,-0.5 -0.06,-0.75l-0.23 0z"/>
    <path class="fil3" d="M0.81 2.49c-0.01,-0.07 -0.03,-0.15 0.02,-0.22 0.02,-0.03 0.03,-0.03 0.05,-0.05l-0.09 -0.11c-0.06,-0.09 -0.37,-0.53 -0.41,-0.6 -0.05,-0.12 -0.06,-0.21 -0.03,-0.34 -0.14,0.04 -0.21,0.19 -0.22,0.33 -0.01,0.09 0,0.18 0.02,0.26 0.02,0.07 0.04,0.13 0.09,0.19l0.07 0.06c0.02,0.02 0.06,0.05 0.07,0.07 0.03,0.03 0.11,0.1 0.15,0.14l0.21 0.21c0.02,0.02 0.05,0.04 0.07,0.06z"/>
    <path class="fil3" d="M3.66 2.22c0.1,0.06 0.09,0.14 0.07,0.27l0.1 -0.1c0.02,-0.01 0.03,-0.03 0.04,-0.04 0.05,-0.04 0.09,-0.09 0.14,-0.14l0.21 -0.2c0.06,-0.08 0.11,-0.06 0.16,-0.26 0.06,-0.22 0.04,-0.5 -0.19,-0.59 0.05,0.27 -0.05,0.37 -0.2,0.58 -0.02,0.04 -0.05,0.08 -0.08,0.12l-0.25 0.36z"/>
    <path class="fil3" d="M2.37 1.95c0,0 -0.01,0 -0.02,0 0.01,0.03 0.01,0.04 0.01,0.07l-0.03 -0.03c-0.05,-0.04 -0.11,0 -0.16,-0.03 -0.05,-0.04 -0.06,-0.12 -0.11,-0.14 0.01,-0.01 0.03,-0.01 0.05,-0.02 0.02,0 0.04,0 0.06,0 0.06,0.01 0.08,0.03 0.12,0.06 0.08,0.07 0.07,0.05 0.1,0.08 0,0 -0.01,0.01 -0.02,0.01zm-0.6 -0.17c0.06,0.01 0.12,-0.01 0.19,0.06 0.04,0.04 0.03,0.05 0.11,0.12 0,0.01 0,0.01 0,0.01 -0.06,0 -0.13,-0.01 -0.19,-0.05 -0.02,-0.01 -0.03,-0.02 -0.05,-0.03 0.04,0.16 0.21,0.17 0.24,0.19 -0.02,0.01 -0.04,0.02 -0.07,0.05 -0.02,0.01 -0.03,0.04 -0.05,0.06 -0.01,0.03 -0.02,0.05 -0.03,0.08 -0.02,0.03 -0.03,0.05 -0.04,0.07 0.04,0 0.06,-0.01 0.07,-0.05 0.02,0.01 0.01,0.02 0.02,0 0,-0.01 0,-0.01 0.01,-0.01 -0.01,0.03 -0.02,0.05 0,0.08 0.02,0 0.03,-0.02 0.04,-0.04 0.01,0 0.01,-0.01 0.02,-0.02 0,-0.01 0,-0.02 0.01,-0.02 0,0.04 0,0.07 0.02,0.09 0.04,0 0.05,-0.05 0.06,-0.08l0.01 -0.01c0.01,0.01 0.01,0.04 0.01,0.06 0.01,0.02 0.02,0.04 0.04,0.04 0.03,0 0.03,-0.08 0.05,-0.1 0,0.01 0.01,0.11 0.04,0.11 0.04,-0.01 0.03,-0.08 0.05,-0.11 0,0 0,0 0,0l0.02 0.06c0.01,0.02 0.01,0.04 0.03,0.04 0.03,-0.01 0.03,-0.07 0.04,-0.1 0.02,0.01 0.02,0.09 0.07,0.09 0.03,-0.03 0.02,-0.07 0.03,-0.09 0.02,0.01 0.02,0.08 0.06,0.08 0.02,-0.03 0.01,-0.07 0.01,-0.08 0,-0.01 0,0 0,-0.01 0.01,0.03 0.02,0.04 0.02,0.08 0.04,0.01 0.06,-0.01 0.08,-0.02 0,-0.01 -0.02,-0.01 -0.03,-0.02 -0.03,-0.02 -0.06,-0.06 -0.07,-0.1 0.03,0.01 0.08,0.02 0.11,0.01 0,-0.01 -0.01,-0.01 -0.01,-0.01 -0.06,-0.04 -0.03,-0.02 -0.09,-0.07l-0.02 -0.02c-0.01,-0.01 0,0 -0.01,-0.01 0.08,-0.01 0.08,-0.02 0.13,-0.05l-0.02 -0.01c-0.03,-0.01 -0.05,-0.02 -0.07,-0.03 -0.06,-0.04 -0.15,-0.13 -0.21,-0.18 -0.04,-0.04 -0.09,-0.08 -0.16,-0.1 -0.11,-0.03 -0.17,0.02 -0.21,0.04 -0.01,-0.01 -0.02,-0.02 -0.03,-0.03 -0.01,0 -0.02,-0.01 -0.03,-0.02 -0.03,-0.01 -0.05,-0.02 -0.08,-0.03 -0.07,-0.01 -0.1,0.03 -0.12,0.08z"/>
    <path class="fil3" d="M2.41 5.31c0,0.03 0.03,0.31 0.03,0.37l0.06 0.75c0.01,0.05 0,0.05 0.03,0.07 0.12,0.07 0.21,0.04 0.26,-0.07 0.02,-0.03 0.01,-0.04 0,-0.08 -0.06,-0.33 -0.14,-0.68 -0.21,-1.01 0,-0.02 0,-0.02 -0.02,-0.02l-0.15 -0.01z"/>
    <path class="fil3" d="M1.98 5.32c-0.02,0.1 -0.05,0.22 -0.07,0.32l-0.16 0.71c0,0.03 -0.01,0.05 0,0.08 0.07,0.09 0.13,0.15 0.25,0.08 0.03,-0.02 0.04,-0.02 0.04,-0.05l0.07 -0.79c0.01,-0.12 0.02,-0.24 0.03,-0.36l-0.16 0.01z"/>
    <path class="fil3" d="M2.6 5.32c0.01,0.05 0.03,0.12 0.04,0.17l0.17 0.85c0.01,0.01 0.01,0.02 0.01,0.04 0.01,0.02 0.01,0.02 0.02,0.03 0.07,0.05 0.16,0.08 0.22,0 0.01,-0.02 0.05,-0.11 0.04,-0.15 -0.01,-0.05 -0.04,-0.1 -0.05,-0.15l-0.21 -0.61c-0.07,-0.2 -0.03,-0.16 -0.14,-0.17 -0.03,0 -0.07,-0.01 -0.1,-0.01z"/>
    <path class="fil3" d="M1.95 5.32c-0.03,0 -0.06,0.01 -0.09,0.01 -0.11,0.01 -0.08,-0.03 -0.14,0.17 -0.07,0.2 -0.14,0.4 -0.21,0.6 -0.02,0.05 -0.04,0.1 -0.06,0.15 -0.02,0.06 0.01,0.13 0.04,0.16 0.03,0.04 0.09,0.05 0.15,0.03 0.1,-0.03 0.08,-0.05 0.09,-0.11l0.19 -0.84c0.01,-0.05 0.03,-0.12 0.03,-0.17z"/>
    <path class="fil3" d="M0.73 2.74c-0.01,-0.05 -0.03,-0.08 -0.03,-0.14 0,-0.09 0.04,-0.1 0.05,-0.13 -0.02,-0.01 -0.26,-0.25 -0.29,-0.28l-0.25 -0.23c-0.04,-0.06 -0.06,-0.12 -0.07,-0.16 -0.01,-0.01 -0.01,-0.01 -0.01,-0.01 -0.03,0.03 -0.06,0.09 -0.07,0.14 -0.02,0.12 0.01,0.25 0.06,0.35 0.01,0.03 0.03,0.05 0.04,0.07 0.04,0.06 0.24,0.18 0.31,0.22 0.02,0.02 0.24,0.16 0.26,0.17z"/>
    <path class="fil3" d="M3.79 2.47l0.02 0.02c0.02,0.03 0.03,0.07 0.03,0.1 0,0.07 -0.02,0.1 -0.03,0.15 0.06,-0.04 0.31,-0.21 0.38,-0.25 0.05,-0.03 0.09,-0.06 0.13,-0.09 0.08,-0.06 0.13,-0.18 0.15,-0.28 0.01,-0.06 0.01,-0.13 0,-0.19 -0.01,-0.05 -0.04,-0.13 -0.07,-0.15 -0.01,0.04 -0.03,0.09 -0.05,0.12 -0.03,0.05 -0.11,0.12 -0.15,0.17l-0.41 0.4z"/>
    <path class="fil3" d="M1.75 5.34c-0.08,0.01 -0.13,0.02 -0.2,0.04 -0.03,0 -0.03,0 -0.06,0.08 -0.05,0.08 -0.09,0.17 -0.13,0.25 -0.05,0.09 -0.09,0.17 -0.13,0.25 -0.02,0.05 -0.04,0.08 -0.05,0.14 0,0.07 0.01,0.11 0.04,0.15 0.04,0.04 0.09,0.05 0.15,0.04 0.07,-0.01 0.05,-0.02 0.08,-0.1l0.25 -0.7c0.01,-0.04 0.04,-0.12 0.05,-0.15z"/>
    <path class="fil3" d="M2.81 5.34c0.01,0.03 0.26,0.77 0.29,0.84 0.01,0.05 0.01,0.09 0.07,0.11 0.09,0.03 0.2,-0.05 0.18,-0.18 -0.01,-0.05 -0.03,-0.09 -0.05,-0.13l-0.28 -0.57c-0.01,-0.04 0,-0.03 -0.05,-0.04 -0.05,-0.01 -0.11,-0.02 -0.16,-0.03z"/>
    <path class="fil3" d="M0.8 3.28c-0.02,-0.02 -0.07,-0.09 -0.09,-0.12 -0.03,-0.05 -0.06,-0.1 -0.04,-0.16 -0.02,-0.02 -0.13,-0.06 -0.16,-0.07 -0.06,-0.03 -0.34,-0.15 -0.38,-0.18 -0.02,-0.02 -0.04,-0.04 -0.05,-0.06 0,0 -0.01,0 -0.01,0l-0.01 0.02c-0.03,0.09 -0.02,0.18 0.01,0.26 0.03,0.09 0.06,0.16 0.15,0.2 0.07,0.04 0.18,0.06 0.27,0.08 0.07,0.01 0.25,0.04 0.31,0.03z"/>
    <path class="fil3" d="M3.86 2.99c0.03,0.09 -0.07,0.24 -0.12,0.28 0.05,0.01 0.25,-0.02 0.31,-0.03 0.09,-0.02 0.18,-0.04 0.27,-0.08 0.08,-0.04 0.11,-0.11 0.14,-0.19 0.03,-0.08 0.04,-0.17 0.01,-0.26l-0.01 -0.02c0,0 0,-0.01 0,-0.01 -0.01,0.01 -0.02,0.02 -0.03,0.03 -0.03,0.04 -0.05,0.05 -0.1,0.07 -0.11,0.06 -0.26,0.13 -0.39,0.18 -0.02,0.01 -0.05,0.02 -0.08,0.03z"/>
    <path class="fil3" d="M1.89 2.61c-0.01,0.03 -0.02,0.06 -0.04,0.09 -0.02,0.02 -0.04,0.04 -0.06,0.06 0.1,0.01 0.08,-0.05 0.12,-0.08 0,0.02 -0.01,0.04 -0.01,0.06 0,0.02 0.01,0.03 0.03,0.02 0.03,-0.01 0.04,-0.04 0.06,-0.07l0 0.01c0.01,0 0.01,0.07 0.03,0.08 0.03,0 0.04,-0.02 0.05,-0.04 0.01,-0.01 0.02,-0.05 0.03,-0.05 0.01,0.01 0.01,0.1 0.06,0.1 0.04,-0.01 0.04,-0.09 0.06,-0.1 0.01,0.01 0.01,0.11 0.06,0.11 0.04,-0.01 0.04,-0.1 0.05,-0.11 0.02,0.02 0.02,0.11 0.07,0.1 0.03,-0.02 0.03,-0.07 0.04,-0.11 0.01,0.02 0.02,0.04 0.03,0.06 0.01,0.01 0.03,0.04 0.06,0.03 0.03,-0.02 0.02,-0.06 0.03,-0.08 0.01,0.01 0.02,0.03 0.03,0.05 0.01,0.01 0.03,0.03 0.05,0.03 0.02,-0.02 0.01,-0.07 0,-0.09 0.03,0.01 0.04,0.09 0.02,0.11 -0.02,0.03 -0.07,-0.02 -0.09,-0.03 -0.03,0.04 -0.02,0.08 -0.12,0.01 -0.01,0.02 -0.02,0.05 -0.05,0.05 -0.04,0 -0.05,-0.03 -0.07,-0.05 0,0.03 -0.02,0.06 -0.05,0.06 -0.03,0 -0.05,-0.03 -0.06,-0.05 -0.02,0.02 -0.03,0.05 -0.07,0.04 -0.02,-0.01 -0.04,-0.03 -0.05,-0.06 -0.02,0.02 -0.08,0.1 -0.12,0.01l0 -0.01c0,-0.01 0,-0.01 0,-0.01l-0.01 0c-0.03,0.04 -0.06,0.06 -0.1,0.02 -0.01,0.02 -0.02,0.06 -0.03,0.08 -0.01,0.01 -0.01,0.02 -0.02,0.03l-0.03 0.03c0.08,0 0.05,-0.03 0.08,-0.03 0.01,0.02 0,0.07 0.05,0.05 0.02,-0.02 0.03,-0.05 0.05,-0.07 0.04,0.17 0.1,0.03 0.12,0.01 0.01,0.01 0.05,0.18 0.11,0.02 0,-0.01 0,-0.02 0.01,-0.03 0.01,0.04 0.04,0.11 0.07,0.12 0.03,-0.02 0.04,-0.08 0.05,-0.12 0.03,0.03 0.08,0.21 0.12,-0.01 0.01,0.01 0.03,0.04 0.04,0.06 0.08,0.13 0.07,-0.04 0.09,-0.07 0.02,0.03 0.04,0.1 0.08,0.1 0.02,-0.02 0,-0.06 0.01,-0.09 0.02,0 0.04,0.04 0.05,0.06l0.07 0c-0.02,-0.02 -0.04,-0.03 -0.06,-0.05 -0.01,-0.02 -0.03,-0.04 -0.04,-0.06 0.03,0 0.06,0.02 0.1,0 -0.01,-0.02 -0.07,-0.04 -0.11,-0.11l-0.03 -0.06c-0.04,0.04 -0.05,0.01 -0.09,-0.02 -0.02,0.03 -0.03,0.09 -0.11,0.01 -0.06,0.11 -0.09,0.03 -0.12,0.01 -0.04,0.11 -0.1,0.01 -0.11,0.01 -0.05,0.07 -0.08,0.02 -0.11,-0.02 -0.02,0.01 -0.04,0.04 -0.07,0.04 -0.03,0 -0.03,-0.03 -0.05,-0.06 -0.01,0.01 -0.07,0.1 -0.1,0.01z"/>
    <path class="fil3" d="M0.02 2.46c0,0.11 0.07,0.24 0.16,0.29 0.07,0.04 0.46,0.22 0.53,0.24 0,-0.03 -0.03,-0.07 -0.04,-0.12 -0.02,-0.06 -0.02,-0.08 0,-0.13 -0.01,-0.02 -0.05,-0.04 -0.07,-0.05l-0.24 -0.16c-0.06,-0.04 -0.11,-0.07 -0.16,-0.11 -0.05,-0.03 -0.06,-0.04 -0.09,-0.1 0,-0.01 -0.01,-0.02 -0.01,-0.03l-0.01 -0.02c-0.04,0.04 -0.07,0.12 -0.07,0.19z"/>
    <path class="fil3" d="M3.86 2.73c0.05,0.1 0,0.16 -0.04,0.25 0.07,-0.02 0.46,-0.2 0.51,-0.22 0.09,-0.05 0.14,-0.11 0.16,-0.21 0.04,-0.11 0.01,-0.21 -0.04,-0.29 -0.04,0.07 -0.05,0.11 -0.11,0.15 -0.05,0.04 -0.1,0.07 -0.16,0.11 -0.02,0.02 -0.29,0.2 -0.32,0.21z"/>
    <path class="fil4" d="M3.56 5.54l-0.1 0.21 -0.01 0.02c-0.08,0.01 -0.18,-0.04 -0.25,-0.06l0.13 0.27c0,0.02 0,0.02 0.02,0.03 0.01,0 0.03,0 0.04,0 0.09,0.01 0.17,-0.01 0.25,-0.05 0.14,-0.08 0.22,-0.23 0.19,-0.4 0,-0.05 -0.02,-0.08 -0.03,-0.12 0,-0.01 -0.01,-0.01 -0.01,-0.02 -0.01,-0.01 -0.01,-0.01 -0.01,-0.02 -0.02,0.15 -0.12,0.12 -0.15,0.13 -0.02,0.02 -0.03,0.02 -0.07,0.01z"/>
    <path class="fil3" d="M1.52 2.91l0.09 0c0,-0.05 -0.09,-0.45 -0.1,-0.51 -0.02,-0.08 -0.04,-0.16 -0.06,-0.25 -0.01,-0.05 -0.06,-0.21 -0.06,-0.25 -0.04,0.01 -0.09,0.06 -0.11,0.08 -0.03,0.04 -0.1,0.15 -0.08,0.2l0.2 0.47c0.01,0.03 0.11,0.25 0.12,0.26z"/>
    <path class="fil4" d="M1.06 5.75l-0.06 -0.15c-0.01,-0.02 -0.02,-0.03 -0.03,-0.05 -0.05,0 -0.04,-0.01 -0.06,-0.02 -0.03,0 -0.04,0.01 -0.08,-0.01 -0.05,-0.03 -0.04,-0.05 -0.06,-0.11 -0.03,0.03 -0.06,0.16 -0.06,0.22 0,0.16 0.1,0.28 0.23,0.35 0.06,0.03 0.15,0.05 0.23,0.04 0.02,-0.01 0.03,-0.06 0.04,-0.07 0.02,-0.03 0.03,-0.05 0.04,-0.08 0.02,-0.03 0.06,-0.11 0.07,-0.14 -0.08,0.01 -0.14,0.05 -0.25,0.05l-0.01 -0.03z"/>
    <path class="fil3" d="M2.93 2.91l0.09 0c0,0 0,0 0,0 0,0 0,0 0.01,0l0.28 -0.66c0.01,-0.03 0.02,-0.05 0.03,-0.07 0.01,-0.03 0,-0.05 -0.01,-0.08 -0.02,-0.05 -0.04,-0.09 -0.07,-0.12 -0.02,-0.02 -0.07,-0.07 -0.11,-0.08 -0.01,0.01 -0.16,0.68 -0.17,0.75 -0.02,0.08 -0.04,0.18 -0.05,0.26z"/>
    <path class="fil3" d="M3.39 4.82c-0.04,0.01 -0.05,0.01 -0.09,0l0 0.06c0.02,0.01 0.02,0 0.02,0.02 -0.02,0.02 -0.03,0.03 -0.01,0.06 -0.01,0.01 -0.01,0 -0.01,0.02 -0.02,-0.01 -0.03,-0.02 -0.05,0 -0.01,0.01 0,0.03 0.01,0.04l-0.02 0.01c-0.01,0 -0.03,-0.01 -0.05,-0.02 -0.01,-0.01 -0.03,-0.02 -0.06,-0.02 -0.04,0.01 -0.06,0.05 -0.07,0.09 0.02,0 0.2,0.05 0.21,0.05 0.03,-0.01 0.03,-0.05 0.04,-0.06 0.04,0 -0.01,0.02 0.05,0.04 0.06,0.03 0.07,0.03 0.09,0.09l0.03 0.06c0,0.02 -0.01,0.02 0,0.08 0,0.06 0.02,0.11 -0.01,0.15 -0.01,0.01 -0.01,0.02 -0.02,0.03 -0.02,0 -0.02,0 -0.03,0.01 0.06,0.08 0.22,-0.03 0.13,-0.28 -0.02,-0.07 -0.03,-0.07 -0.05,-0.11l0.01 -0.01c0.04,0.03 0.09,0.19 0.09,0.28 -0.01,0.03 -0.03,0.1 -0.03,0.1 0.03,0.03 0.06,0 0.08,-0.04 0.03,-0.07 0.02,-0.16 -0.01,-0.23 -0.02,-0.05 -0.04,-0.06 -0.05,-0.08l0.01 -0.01c0.03,0.05 0.06,0.07 0.08,0.16 0.02,0.08 0,0.13 -0.02,0.19 0.08,0.02 0.11,-0.08 0.09,-0.16 -0.01,-0.05 -0.08,-0.18 -0.11,-0.23 -0.01,-0.02 -0.02,-0.02 -0.03,-0.03 -0.02,-0.03 -0.05,-0.04 -0.08,-0.06 -0.05,-0.03 -0.03,-0.04 -0.05,-0.05 -0.01,-0.01 -0.02,0 -0.02,-0.01 0,-0.02 0.04,-0.06 -0.03,-0.09 0.01,-0.04 0,-0.08 -0.02,-0.11l-0.02 0c0,0.02 0.01,0.04 0,0.06z"/>
    <path class="fil3" d="M1.12 4.87c-0.02,0.01 -0.02,0.01 -0.03,0.03 -0.02,0.03 -0.01,0.03 0,0.05 0,0.02 -0.01,0.02 -0.02,0.02 -0.01,0.01 -0.01,-0.01 -0.02,0.02 -0.01,0.05 -0.07,0.05 -0.11,0.09 -0.02,0.02 -0.04,0.04 -0.06,0.08 -0.02,0.04 -0.07,0.14 -0.08,0.18 -0.02,0.09 0.02,0.18 0.09,0.17 -0.06,-0.11 -0.02,-0.28 0.06,-0.36l0.01 0.01c-0.07,0.09 -0.11,0.2 -0.06,0.31 0.02,0.07 0.07,0.06 0.08,0.05 0,-0.01 -0.03,-0.07 -0.03,-0.1 0,-0.1 0.05,-0.27 0.09,-0.29 0.02,0.02 0.01,0.01 0,0.03 -0.01,0.01 -0.01,0.02 -0.02,0.03 -0.03,0.06 -0.05,0.14 -0.05,0.2 0,0.07 0.01,0.1 0.04,0.14 0.03,0.03 0.08,0.05 0.12,0.01 -0.01,-0.02 -0.07,-0.03 -0.07,-0.11 0,-0.04 0.02,-0.09 0.02,-0.12 0,-0.02 -0.01,-0.03 -0.01,-0.04 0,0 0.03,-0.1 0.06,-0.12 0.02,-0.02 0.03,-0.02 0.06,-0.03 0.01,-0.01 0.02,-0.01 0.02,-0.02 0.02,-0.02 0,-0.02 0.03,-0.02 0.01,0.01 0.01,0.04 0.04,0.05 0.01,0 0.05,-0.01 0.07,-0.02 0.03,-0.01 0.11,-0.02 0.13,-0.03 0,-0.04 -0.03,-0.08 -0.06,-0.08 -0.05,-0.01 -0.08,0.03 -0.11,0.04l-0.02 -0.01c0.01,-0.02 0.01,-0.04 0,-0.05 -0.01,-0.02 -0.03,-0.01 -0.04,0 -0.01,-0.01 0,-0.01 -0.01,-0.01 0.01,-0.04 0.02,-0.04 -0.01,-0.06 0,-0.02 0,-0.02 0.02,-0.03l-0.01 -0.06c-0.03,0.01 -0.05,0.02 -0.08,0.01 -0.01,-0.03 0,-0.05 0,-0.07l-0.02 0c-0.01,0.04 -0.04,0.07 -0.02,0.11z"/>
    <path class="fil3" d="M0.38 3.82c-0.01,0.1 0.02,0.22 0.1,0.27 0.07,0.03 0.1,-0.01 0.13,-0.04 0.08,-0.05 0.05,0.01 0.14,-0.06 0.12,-0.08 0.22,-0.15 0.33,-0.24 0.02,-0.01 0.1,-0.07 0.11,-0.08 -0.1,-0.02 -0.08,-0.02 -0.15,-0.06 -0.1,0.04 -0.38,0.16 -0.48,0.2 -0.09,0.03 -0.09,0.03 -0.18,0.01z"/>
    <path class="fil3" d="M0.9 3.44c-0.04,-0.01 -0.1,-0.06 -0.12,-0.09 -0.01,-0.02 -0.01,-0.02 -0.01,-0.03 0,0 0,-0.01 0,-0.01 -0.01,-0.01 0,0 -0.01,-0.01 -0.01,0 -0.13,-0.01 -0.16,-0.01 -0.05,-0.01 -0.1,-0.02 -0.15,-0.03 -0.07,-0.01 -0.15,-0.03 -0.21,-0.05 -0.02,-0.01 -0.05,-0.03 -0.06,-0.03 -0.07,0.09 -0.08,0.26 0.03,0.35 0.04,0.03 0.08,0.02 0.13,0.01 0.18,-0.03 0.35,-0.06 0.52,-0.09 0.01,0 0.03,0 0.04,-0.01z"/>
    <path class="fil3" d="M3.34 3.66c0.02,0.02 0.04,0.03 0.06,0.04 0.08,0.06 0.4,0.31 0.44,0.32 0.05,0.01 0.05,-0.01 0.13,0.06 0.07,0.06 0.21,-0.07 0.19,-0.27 -0.06,0 -0.05,0.04 -0.18,-0.01 -0.1,-0.03 -0.22,-0.09 -0.32,-0.13l-0.17 -0.07c-0.02,0.04 -0.09,0.05 -0.15,0.06z"/>
    <path class="fil3" d="M3.77 3.3c0,0.04 -0.03,0.06 -0.05,0.08 -0.03,0.03 -0.07,0.05 -0.08,0.06 0.15,0.02 0.31,0.05 0.46,0.08 0.07,0.01 0.16,0.04 0.22,0 0.05,-0.03 0.09,-0.1 0.09,-0.19 0,-0.05 -0.03,-0.12 -0.05,-0.16 -0.02,0 -0.04,0.02 -0.06,0.03 -0.15,0.06 -0.38,0.09 -0.53,0.1z"/>
    <path class="fil3" d="M3.02 3.07c0.02,-0.02 0.41,-0.57 0.45,-0.63 0.02,-0.02 0.09,-0.11 0.09,-0.12 0.02,-0.05 0,-0.15 -0.02,-0.19 -0.03,-0.05 -0.06,-0.07 -0.11,-0.1l-0.38 0.88c-0.03,0.07 -0.03,0.07 -0.03,0.16z"/>
    <path class="fil3" d="M1.52 3.06c0,-0.1 0,-0.07 -0.03,-0.15 -0.02,-0.04 -0.04,-0.08 -0.06,-0.12 -0.07,-0.16 -0.14,-0.34 -0.21,-0.5l-0.11 -0.25c-0.12,0.04 -0.16,0.18 -0.13,0.28 0,0.02 0.07,0.11 0.08,0.13 0.09,0.11 0.18,0.25 0.27,0.37l0.17 0.23c0,0 0,0 0.01,0.01 0,0 0,0 0,0l0 0c0,0 0,0 0.01,0z"/>
    <path class="fil3" d="M0.22 3.56c0,0.1 0.06,0.17 0.12,0.21 0.09,0.06 0.14,0.04 0.25,0 0.08,-0.03 0.15,-0.06 0.23,-0.09 0.07,-0.03 0.16,-0.07 0.23,-0.1 -0.04,-0.02 -0.06,-0.02 -0.1,-0.04 -0.01,-0.01 -0.03,-0.02 -0.04,-0.03 -0.01,-0.01 -0.02,-0.02 -0.03,-0.04 -0.04,0 -0.41,0.07 -0.49,0.09 -0.03,0 -0.06,0.01 -0.08,0.01 -0.05,0.01 -0.06,0 -0.09,-0.01z"/>
    <path class="fil3" d="M3.49 3.57c0.02,0.02 0.43,0.19 0.46,0.2 0.1,0.04 0.15,0.05 0.25,-0.01 0.06,-0.04 0.11,-0.11 0.12,-0.21 -0.03,0.01 -0.04,0.02 -0.08,0.02 -0.18,-0.03 -0.41,-0.08 -0.59,-0.11 -0.01,0.04 -0.07,0.07 -0.11,0.09l-0.05 0.02z"/>
    <path class="fil3" d="M1.51 3.16c0.01,-0.07 0,-0.06 -0.07,-0.15l-0.48 -0.66c-0.01,-0.02 -0.02,-0.04 -0.03,-0.06l-0.04 -0.05c-0.05,0.02 -0.07,0.07 -0.08,0.13 0,0.04 0,0.07 0.01,0.1 0.01,0.05 0.01,0.05 0.03,0.07l0.3 0.29c0.01,0.01 0.02,0.02 0.03,0.02l0.08 0.08c0.03,0.03 0.07,0.07 0.11,0.11 0.03,0.02 0.12,0.11 0.14,0.12z"/>
    <path class="fil3" d="M3.02 3.16c0.02,-0.01 0.04,-0.03 0.06,-0.05 0.04,-0.03 0.11,-0.11 0.16,-0.15l0.06 -0.05c0.05,-0.05 0.11,-0.12 0.16,-0.16 0.02,-0.02 0.04,-0.03 0.06,-0.05l0.16 -0.16c0.02,-0.03 0.02,-0.01 0.04,-0.07 0.01,-0.06 0.01,-0.13 -0.01,-0.18 -0.02,-0.03 -0.03,-0.04 -0.06,-0.06 -0.05,0.08 -0.5,0.7 -0.57,0.8 -0.05,0.07 -0.07,0.07 -0.06,0.13z"/>
    <path class="fil3" d="M2.59 2.49c0.02,-0.02 0,-0.05 0.01,-0.08 0.02,0.01 0.02,0.07 0.01,0.1 -0.02,0.04 -0.06,0 -0.07,-0.02 0,0 0,0 0,0 0,0 -0.01,0 -0.01,0l0 0.01c-0.03,0.08 -0.08,0.01 -0.1,0 -0.01,0.02 -0.02,0.06 -0.05,0.05 -0.03,0 -0.04,-0.03 -0.05,-0.05 -0.01,0.03 -0.02,0.06 -0.05,0.06 -0.03,0 -0.04,-0.03 -0.06,-0.05 -0.01,0.02 -0.02,0.05 -0.05,0.04 -0.02,-0.01 -0.04,-0.04 -0.05,-0.06 0,0 0,0.01 0,0.01 0,0 0,0 0,0 -0.05,0.04 -0.07,0.07 -0.1,-0.02 0,0 -0.03,0.02 -0.03,0.03 -0.01,0.01 -0.02,0.01 -0.05,0.01 -0.02,-0.01 -0.01,-0.08 0.01,-0.1 0.01,0 0,0 0.01,-0.01 -0.01,0.03 -0.02,0.06 0,0.08 0.03,0.01 0.03,-0.01 0.04,-0.03 0.01,-0.01 0.01,-0.01 0.02,-0.02l0.01 -0.02 0.01 0.01c0,0.01 0,0.1 0.04,0.08 0.01,-0.01 0.02,-0.03 0.03,-0.05 0,-0.01 0.01,-0.04 0.02,-0.04 0.01,0.02 0.01,0.1 0.05,0.1 0.03,-0.01 0.03,-0.08 0.05,-0.1l0 0.01c0.01,0.02 0.02,0.1 0.05,0.1 0.04,-0.02 0.03,-0.08 0.05,-0.11l0.02 0.06c0,0.02 0.01,0.03 0.03,0.04 0.03,-0.01 0.03,-0.07 0.04,-0.11 0.02,0.02 0.03,0.09 0.07,0.09 0.03,-0.02 0.02,-0.06 0.04,-0.09l0 0.01c0,0 0,0 0,0 0.01,0.02 0.02,0.08 0.06,0.07zm-0.64 -0.13c-0.02,0.05 -0.06,0.08 -0.08,0.12l0.05 -0.01c-0.01,0.06 -0.05,0.11 -0.08,0.14 0.08,0 0.06,-0.06 0.09,-0.07 0,0.03 -0.02,0.04 0,0.08 0.04,0.01 0.06,-0.07 0.08,-0.08 0.01,0.02 -0.01,0.05 0.02,0.09 0.06,0.01 0.06,-0.07 0.08,-0.09 0.01,0.01 0.01,0.1 0.06,0.1 0.04,0 0.04,-0.07 0.05,-0.1l0.01 0.01c0,0 0,0 0,0 0,0.01 0,0.02 0,0.02 0,0.01 0.01,0.02 0.01,0.03 0.01,0.02 0.01,0.04 0.03,0.05 0.06,0 0.05,-0.09 0.06,-0.11 0.01,0.01 0.02,0.09 0.05,0.1 0.04,0.02 0.05,-0.08 0.05,-0.11 0.02,0.02 0.04,0.1 0.09,0.1 0.01,-0.02 0.01,-0.02 0.02,-0.04 0,-0.02 0,-0.04 0.01,-0.05 0.01,0.01 0.02,0.03 0.03,0.05 0,0.01 0.02,0.03 0.04,0.03 0.03,-0.02 0,-0.07 0.01,-0.09 0.02,0.02 0.02,0.06 0.02,0.09 0.03,0.02 0.07,0.03 0.12,0.02 -0.03,-0.03 -0.04,-0.03 -0.08,-0.08 -0.02,-0.03 -0.05,-0.06 -0.06,-0.1 0.03,0.02 0.04,0.03 0.08,0.03l-0.03 -0.02c-0.02,-0.02 -0.06,-0.07 -0.07,-0.1 0,0 0,0 0,0l-0.01 0.01c-0.01,0.01 -0.02,0.01 -0.03,0 -0.02,-0.01 -0.03,-0.02 -0.04,-0.03 -0.01,0.02 -0.01,0.05 -0.04,0.05 -0.02,0 -0.04,-0.03 -0.06,-0.04 -0.01,0.02 -0.02,0.05 -0.04,0.06 -0.03,0 -0.05,-0.04 -0.06,-0.05 0,0.01 -0.01,0.02 -0.01,0.03 -0.02,0.03 -0.05,0.02 -0.07,0l-0.02 -0.02c0,0 0,0 0,0 0,0 0,-0.01 0,-0.01 -0.03,0.07 -0.07,0.04 -0.1,-0.01 -0.01,0.01 -0.02,0.04 -0.05,0.04 -0.03,0 -0.04,-0.03 -0.05,-0.06 -0.03,0.04 -0.06,0.07 -0.08,0.02z"/>
    <path class="fil3" d="M3.02 3.2c0.06,-0.03 0.43,-0.25 0.5,-0.28 0.08,-0.05 0.16,-0.1 0.24,-0.15 0.03,-0.02 0.02,-0.02 0.04,-0.06 0.01,-0.05 0.03,-0.11 0.01,-0.17 -0.01,-0.02 -0.02,-0.05 -0.04,-0.06 -0.02,0.01 -0.07,0.07 -0.09,0.09l-0.19 0.18c-0.01,0.01 -0.01,0.02 -0.02,0.03l-0.4 0.37c-0.01,0.01 -0.02,0.02 -0.03,0.02 0,0.01 -0.01,0.02 -0.02,0.03z"/>
    <path class="fil3" d="M1.51 3.2l-0.06 -0.07c-0.05,-0.03 -0.08,-0.07 -0.12,-0.1l-0.07 -0.07c-0.01,-0.01 -0.02,-0.01 -0.03,-0.02 -0.05,-0.05 -0.12,-0.12 -0.18,-0.18l-0.19 -0.18c-0.02,-0.02 -0.03,-0.03 -0.05,-0.04 -0.01,-0.01 -0.01,-0.02 -0.02,-0.03 -0.01,-0.01 -0.01,-0.01 -0.02,-0.02 -0.07,0.04 -0.05,0.15 -0.03,0.22 0.01,0.03 0.01,0.04 0.03,0.06 0.09,0.05 0.17,0.1 0.25,0.15l0.37 0.21c0.03,0.02 0.09,0.05 0.12,0.07z"/>
    <path class="fil3" d="M1.52 3.27l0 -0.04c-0.08,-0.03 -0.63,-0.36 -0.73,-0.42 -0.02,-0.02 -0.07,-0.05 -0.1,-0.06 -0.03,0.03 -0.01,0.09 0,0.14 0.05,0.14 0.05,0.11 0.18,0.16 0.1,0.04 0.55,0.2 0.65,0.22z"/>
    <path class="fil3" d="M3.02 3.22l0 0.04c0.08,-0.01 0.68,-0.22 0.76,-0.26 0.03,-0.02 0.05,-0.09 0.06,-0.12 0.03,-0.06 0.03,-0.09 0.01,-0.14l-0.41 0.25c-0.05,0.03 -0.37,0.22 -0.42,0.23z"/>
    <path class="fil3" d="M1.52 3.3c-0.01,-0.01 0,-0.01 -0.02,-0.01 -0.01,-0.01 -0.02,-0.01 -0.03,-0.01l-0.16 -0.05c-0.07,-0.03 -0.14,-0.05 -0.21,-0.07l-0.31 -0.12c-0.03,-0.01 -0.07,-0.03 -0.1,-0.04 -0.04,0.1 0.11,0.26 0.14,0.28 0.02,0.01 0.54,0.02 0.65,0.03 0.02,0 0.03,0 0.04,-0.01z"/>
    <path class="fil3" d="M3.02 3.3c0.02,0.01 0.54,-0.01 0.56,-0.02 0.13,0 0.12,0.02 0.2,-0.08 0.03,-0.04 0.1,-0.14 0.06,-0.21l-0.04 0.03c-0.25,0.09 -0.48,0.17 -0.73,0.25 -0.05,0.02 -0.05,0.01 -0.05,0.03z"/>
    <path class="fil3" d="M0.75 4.02c0.11,0.01 0.15,0 0.25,0.04 0.06,-0.05 0.12,-0.11 0.17,-0.17l0.18 -0.18c-0.09,0 -0.08,0.01 -0.15,-0.02l-0.45 0.33z"/>
    <path class="fil3" d="M3.19 3.7l0.18 0.18c0.01,0.02 0.03,0.03 0.04,0.05l0.09 0.09c0.01,0.01 0.03,0.03 0.05,0.04 0.09,-0.03 0.13,-0.05 0.24,-0.04l-0.23 -0.17c-0.08,-0.05 -0.15,-0.11 -0.23,-0.16 -0.02,0.01 -0.02,0.01 -0.06,0.01 -0.02,0 -0.05,0 -0.08,0z"/>
    <path class="fil3" d="M2.95 4.13c0.02,0.02 0.17,0.17 0.18,0.19 -0.02,0 -0.02,0 -0.03,-0.02 -0.01,-0.01 -0.01,-0.01 -0.02,-0.02 -0.01,0 -0.01,-0.01 -0.02,-0.02 -0.03,-0.02 -0.1,-0.08 -0.13,-0.09 -0.01,0.03 -0.05,0.07 -0.05,0.09 0.07,0.07 0.19,0.14 0.3,0.12 0.03,-0.08 -0.04,-0.18 -0.08,-0.24 -0.02,-0.02 -0.08,-0.08 -0.11,-0.09l-0.04 0.08z"/>
    <path class="fil3" d="M1.36 4.38c0.08,0.04 0.25,-0.04 0.31,-0.11 0,-0.01 -0.05,-0.09 -0.06,-0.1 -0.02,0.01 -0.03,0.03 -0.05,0.04 -0.03,0.02 -0.08,0.07 -0.11,0.1 -0.02,0.01 -0.02,0.01 -0.03,0.01 0.01,-0.02 0.15,-0.16 0.17,-0.18l-0.04 -0.08c-0.07,0.03 -0.21,0.19 -0.19,0.32z"/>
    <polygon class="fil3" points="1.7,5.03 1.86,5.01 2.02,4.56 1.96,4.53 "/>
    <path class="fil4" d="M3.35 6.03c0.01,0.02 0.02,0.06 0.03,0.07 0.04,0.03 0.15,0.02 0.2,0.01 0.06,-0.01 0.12,-0.04 0.17,-0.07 0.03,-0.02 0.04,-0.03 0.06,-0.06 0.01,-0.02 0.02,-0.05 0.03,-0.08 0.03,-0.06 0.03,-0.13 0,-0.2 -0.02,0.05 0.02,0.05 -0.05,0.15 -0.03,0.04 -0.07,0.08 -0.11,0.11 -0.1,0.06 -0.19,0.09 -0.33,0.07z"/>
    <path class="fil4" d="M1.16 6.11l0.01 -0.07c-0.18,0.01 -0.32,-0.06 -0.41,-0.19 -0.06,-0.08 -0.03,-0.1 -0.05,-0.14 -0.04,0.08 -0.02,0.19 0.03,0.27 0.02,0.03 0.03,0.05 0.05,0.06 0.08,0.05 0.25,0.12 0.37,0.07z"/>
    <path class="fil3" d="M2.19 4.99l0.17 0c0,-0.05 -0.02,-0.36 -0.03,-0.39l-0.1 0.01 -0.04 0.38z"/>
    <path class="fil3" d="M2.54 4.55c0,0.03 0.02,0.08 0.03,0.12 0.02,0.03 0.03,0.07 0.04,0.11l0.06 0.17c0.01,0.01 0.02,0.06 0.03,0.06l0.14 0.02c-0.01,-0.03 -0.25,-0.51 -0.25,-0.51l-0.05 0.03z"/>
    <path class="fil3" d="M3.02 3.33c0.01,0.02 0.18,0.03 0.2,0.04 0.11,0.01 0.26,0.03 0.36,0.06 0.03,0 0.03,0 0.05,-0.01 0.05,-0.03 0.12,-0.06 0.12,-0.12 -0.05,0 -0.12,0 -0.18,0.01l-0.53 0.02c-0.02,0 -0.01,-0.01 -0.02,0z"/>
    <path class="fil3" d="M1.52 3.34c-0.01,0 0,0 -0.01,-0.01l-0.37 -0.01c-0.04,0 -0.34,-0.01 -0.36,-0.02 0,0.03 0.03,0.06 0.05,0.08 0.02,0.01 0.04,0.03 0.07,0.04 0.03,0.02 0.03,0.02 0.1,0 0.03,0 0.07,-0.01 0.1,-0.01 0.07,-0.01 0.14,-0.02 0.21,-0.04 0.03,0 0.07,-0.01 0.1,-0.01l0.1 -0.01c0.01,-0.01 0,0 0.01,-0.01z"/>
    <path class="fil3" d="M3.02 3.37c0.01,0.01 0.06,0.03 0.07,0.03l0.24 0.1c0.03,0.02 0.06,0.03 0.08,0.04 0.04,0.01 0.04,0.02 0.09,0.01 0.05,-0.02 0.13,-0.05 0.14,-0.09 -0.03,0 -0.12,-0.02 -0.16,-0.03l-0.42 -0.06c-0.02,0 -0.03,-0.01 -0.04,0z"/>
    <path class="fil3" d="M0.9 3.47c0.02,0.04 0.08,0.07 0.14,0.09 0.04,0.01 0.04,0 0.08,-0.01l0.36 -0.15c0.02,-0.01 0.03,-0.01 0.04,-0.02 -0.01,-0.01 -0.01,-0.01 -0.01,-0.01 0,0 0,0 0,0 -0.01,0 0,0 -0.01,0l-0.6 0.1z"/>
    <path class="fil3" d="M2.45 4.58l0.08 0.42 0.14 0.01c-0.01,-0.04 -0.15,-0.44 -0.16,-0.45l-0.06 0.02z"/>
    <path class="fil3" d="M3.23 4.2c-0.02,0 -0.19,-0.17 -0.23,-0.17 0,0.01 0.01,0.01 0.06,0.04 0.05,0.04 0.08,0.09 0.11,0.15l0.02 0.04c0.02,0.01 0.07,0.01 0.1,0 0.03,-0.1 -0.1,-0.33 -0.27,-0.35 0,0.08 -0.01,0.06 0.02,0.09 0.03,0.02 0.04,0.04 0.07,0.07 0.01,0.01 0.11,0.11 0.12,0.13z"/>
    <path class="fil6" d="M1.6 5.23l0.02 0.02c0,0.01 0.01,0.02 0.01,0.03 0.02,0.02 0.06,0.01 0.06,-0.01 0,0 -0.04,-0.01 -0.06,-0.06 0.01,-0.01 0.02,-0.02 0.03,-0.04 0.03,-0.07 -0.05,-0.05 -0.07,-0.05 -0.01,0 -0.02,0 -0.02,0.01 -0.02,0 -0.02,0 -0.03,0.01 0.01,0.01 0,0 0.02,0.01l0 0.11c0,0.03 0.01,0.03 -0.02,0.04 -0.01,-0.03 -0.05,-0.15 -0.06,-0.16 -0.02,0.01 -0.01,0.01 -0.02,0.05 -0.01,0.01 -0.02,0.03 -0.02,0.05 -0.01,0.02 -0.02,0.08 -0.04,0.09 -0.01,0 -0.06,-0.06 -0.06,-0.07 0,-0.01 0.02,-0.03 0.03,-0.05 0.03,-0.03 0.03,-0.01 0.03,-0.04l-0.06 0.01c0,0.04 0.02,0.01 0,0.04 0,0.01 -0.02,0.03 -0.03,0.04 0,-0.07 0.02,-0.04 0.02,-0.07 0,0 0,0 -0.01,0 0,0 -0.06,0.01 -0.06,0.02 0.01,0.02 0,0.01 0.01,0.01l0.01 0.01 0 0.1c0,0.06 -0.02,0.02 -0.02,0.06 0.02,-0.01 0.03,-0.01 0.04,-0.01 0.02,-0.01 0.03,-0.01 0.03,-0.03 -0.01,0 -0.02,0.01 -0.02,-0.05 0.01,0.01 0.05,0.05 0.05,0.06 0.02,0 0.04,-0.01 0.06,-0.02 0.03,0 0.04,0 0.04,-0.02l-0.02 0 0.01 -0.04 0.04 -0.01c0.01,0.02 0.01,0.03 0.01,0.06 0.02,-0.01 0.05,-0.02 0.07,-0.02 0.01,0 0.04,-0.01 0.04,-0.01 0.02,-0.02 -0.01,-0.02 -0.01,-0.02l0 -0.05z"/>
    <path class="fil3" d="M1.26 4.26c0.11,0.03 0.1,-0.01 0.11,-0.03 0.05,-0.09 0.09,-0.13 0.16,-0.18 0.02,-0.01 0.02,0 0.01,-0.01 -0.01,-0.01 -0.14,0.09 -0.16,0.12 -0.02,0.01 -0.04,0.04 -0.06,0.05 0.01,-0.03 0.18,-0.2 0.2,-0.22 0,-0.03 0,-0.01 0,-0.08 -0.14,0.03 -0.28,0.23 -0.26,0.35z"/>
    <polygon class="fil3" points="1.89,5.01 2.02,5 2.11,4.59 2.05,4.57 "/>
    <path class="fil3" d="M2.26 0.61c-0.01,0 -0.51,-0.15 -0.54,-0.16l0.25 0.18c0.1,0.08 0.07,0.07 0.13,0.05 0.05,-0.02 0.1,-0.05 0.16,-0.07z"/>
    <path class="fil3" d="M1.93 1.1c0.03,-0.01 0.06,-0.04 0.09,-0.06l0.16 -0.12c0.02,-0.01 0.03,-0.02 0.05,-0.03 0.01,-0.01 0.03,-0.02 0.04,-0.03l0 -0.23c-0.02,0.01 -0.03,0.04 -0.04,0.06 -0.08,0.11 -0.24,0.31 -0.3,0.41z"/>
    <path class="fil7" d="M2.28 0.86l0.33 0.24c-0.01,-0.02 -0.33,-0.46 -0.33,-0.47l0 0.23z"/>
    <path class="fil7" d="M2.29 0.61c0.01,0.01 0.15,0.06 0.19,0.08 0.02,0.01 0.02,0 0.03,-0.01l0.29 -0.21c0.01,0 0.02,-0.02 0.03,-0.02l-0.54 0.16z"/>
    <polygon class="fil3" points="2.36,4.6 2.39,4.99 2.51,4.99 2.42,4.59 "/>
    <path class="fil8" d="M2.95 5.11c0,0.04 0.01,0.01 0.02,0.03l-0.01 0.13c0,0.01 0.01,0.01 -0.01,0.01 -0.01,-0.01 -0.02,-0.03 -0.02,-0.04l-0.03 -0.1c-0.01,-0.04 -0.01,-0.04 -0.02,-0.05 -0.01,0.01 -0.01,0 -0.01,0.01l-0.05 0.13c-0.02,0.04 -0.02,0 -0.02,0.04l0.06 0.01c0,-0.02 0,-0.01 -0.01,-0.02 -0.01,-0.01 -0.01,0.01 0,-0.04l0.04 0c0.02,0.03 0.01,0.05 0.01,0.07 0.04,0 0.08,0.01 0.12,0.02 0,-0.03 0,-0.02 -0.02,-0.03l0 -0.05 0.03 0.05c0.04,0.06 0.03,0.02 0.08,0.05 0.02,0.01 0.03,0.02 0.05,0.01 0.04,-0.02 0.04,-0.06 0.02,-0.09 -0.02,-0.01 -0.06,-0.05 -0.05,-0.08 0.02,0 0.03,0.01 0.03,0.02 0.01,0.03 0,0.03 0.03,0.03l0 -0.04c-0.02,-0.04 -0.12,-0.03 -0.09,0.04 0.02,0.04 0.08,0.05 0.06,0.1 -0.02,0 -0.03,-0.01 -0.04,-0.02 -0.01,-0.02 0,-0.04 -0.03,-0.04l0 0.04c-0.02,0 -0.05,-0.07 -0.07,-0.1 0.01,-0.01 0.04,-0.03 0.05,-0.04 0.01,0 0.01,0 0.02,-0.01 0,-0.02 0,-0.01 -0.03,-0.02 -0.01,0 -0.02,0 -0.04,0 0.01,0.03 0.01,0 0.02,0.02 -0.01,0.02 -0.02,0.03 -0.04,0.04l0 -0.04c0.02,-0.02 0.02,0 0.02,-0.02 -0.01,-0.01 -0.06,-0.02 -0.07,-0.02z"/>
    <polygon class="fil3" points="2.05,4.99 2.17,4.99 2.2,4.6 2.13,4.59 "/>
    <path class="fil7" d="M1.93 1.09l0.33 -0.47c-0.02,0.01 -0.11,0.05 -0.14,0.06 -0.08,0.03 -0.06,0.01 -0.1,0.11 -0.01,0.05 -0.09,0.28 -0.09,0.3z"/>
    <path class="fil3" d="M2.62 1.09c-0.01,-0.02 -0.11,-0.32 -0.12,-0.37 -0.01,-0.03 -0.02,-0.02 -0.07,-0.04 -0.04,-0.02 -0.1,-0.05 -0.14,-0.06l0.08 0.12c0.02,0.04 0.05,0.08 0.08,0.12l0.12 0.17c0.01,0.02 0.03,0.05 0.05,0.06z"/>
    <path class="fil3" d="M2.27 0.6l0 -0.55c-0.02,0.03 -0.09,0.25 -0.1,0.3 -0.01,0.02 -0.02,0.05 -0.03,0.08 0,0.01 0.02,0.03 0.04,0.06l0.09 0.11z"/>
    <path class="fil7" d="M2.28 0.6c0.01,-0.01 0.03,-0.04 0.04,-0.05 0.02,-0.02 0.03,-0.04 0.04,-0.06 0.01,-0.01 0.02,-0.02 0.03,-0.03 0.01,-0.01 0.01,-0.02 0.01,-0.03 0,-0.02 -0.02,-0.06 -0.02,-0.08 -0.03,-0.08 -0.08,-0.23 -0.1,-0.3l0 0.55z"/>
    <path class="fil9" d="M2.59 2.49c-0.04,0.01 -0.05,-0.05 -0.06,-0.07 0,0 0,0 0,0l0 -0.01c-0.02,0.03 -0.01,0.07 -0.04,0.09 -0.04,0 -0.05,-0.07 -0.07,-0.09 -0.01,0.04 -0.01,0.1 -0.04,0.11 -0.02,-0.01 -0.03,-0.02 -0.03,-0.04l-0.02 -0.06c-0.02,0.03 -0.01,0.09 -0.05,0.11 -0.03,0 -0.04,-0.08 -0.05,-0.1l0 -0.01c-0.02,0.02 -0.02,0.09 -0.05,0.1 -0.04,0 -0.04,-0.08 -0.05,-0.1 -0.01,0 -0.02,0.03 -0.02,0.04 -0.01,0.02 -0.02,0.04 -0.03,0.05 -0.04,0.02 -0.04,-0.07 -0.04,-0.08l-0.01 -0.01 -0.01 0.02c-0.01,0.01 -0.01,0.01 -0.02,0.02 -0.01,0.02 -0.01,0.04 -0.04,0.03 -0.02,-0.02 -0.01,-0.05 0,-0.08 -0.01,0.01 0,0.01 -0.01,0.01 -0.02,0.02 -0.03,0.09 -0.01,0.1 0.03,0 0.04,0 0.05,-0.01 0,-0.01 0.03,-0.03 0.03,-0.03 0.03,0.09 0.05,0.06 0.1,0.02 0,0 0,0 0,0 0,0 0,-0.01 0,-0.01 0.01,0.02 0.03,0.05 0.05,0.06 0.03,0.01 0.04,-0.02 0.05,-0.04 0.02,0.02 0.03,0.05 0.06,0.05 0.03,0 0.04,-0.03 0.05,-0.06 0.01,0.02 0.02,0.05 0.05,0.05 0.03,0.01 0.04,-0.03 0.05,-0.05 0.02,0.01 0.07,0.08 0.1,0l0 -0.01c0,0 0.01,0 0.01,0 0,0 0,0 0,0 0.01,0.02 0.05,0.06 0.07,0.02 0.01,-0.03 0.01,-0.09 -0.01,-0.1 -0.01,0.03 0.01,0.06 -0.01,0.08z"/>
    <path class="fil3" d="M3.48 3.59c-0.01,-0.01 -0.43,-0.18 -0.46,-0.19 0,0.03 -0.01,0.02 0.04,0.05l0.24 0.18c0.02,0.01 0.02,0.02 0.04,0.01 0.05,0 0.11,-0.02 0.14,-0.05z"/>
    <path class="fil3" d="M1.06 3.6c0.04,0.03 0.07,0.04 0.13,0.05 0.04,0.01 0.05,-0.01 0.07,-0.03 0.02,-0.01 0.04,-0.02 0.05,-0.04l0.19 -0.13c0.02,-0.02 0.02,-0.02 0.02,-0.04 -0.04,0.01 -0.45,0.18 -0.46,0.19z"/>
    <path class="fil3" d="M2.29 0.6l0.53 -0.16c-0.03,0 -0.16,0 -0.2,0 -0.07,0 -0.14,0 -0.2,0 -0.01,0 -0.12,0.15 -0.13,0.16z"/>
    <path class="fil7" d="M2.26 0.6c-0.02,-0.03 -0.04,-0.05 -0.06,-0.08 -0.02,-0.02 -0.05,-0.05 -0.07,-0.08l-0.41 0 0.54 0.16z"/>
    <path class="fil3" d="M2.84 4.32l0.09 0.1c0.01,0.01 0.01,0 0.01,0.01 -0.03,-0.01 -0.09,-0.08 -0.12,-0.1 -0.02,0.02 -0.04,0.04 -0.06,0.07 -0.01,0.01 -0.02,0.01 -0.02,0.02 0.07,0.04 0.15,0.09 0.26,0.07 0,-0.03 -0.01,-0.12 -0.03,-0.14 -0.05,-0.03 -0.07,-0.04 -0.1,-0.07l-0.03 0.04z"/>
    <path class="fil3" d="M1.55 4.5c0.09,0.01 0.18,-0.02 0.25,-0.07 0,0 0,0 0,0 0.01,-0.01 0.01,-0.01 0.01,-0.01l-0.08 -0.08c-0.02,0.01 -0.09,0.07 -0.12,0.1 0,-0.02 0.09,-0.1 0.1,-0.12 -0.01,-0.01 -0.02,-0.03 -0.03,-0.04 -0.01,0.01 -0.03,0.03 -0.04,0.04 -0.02,0.01 -0.04,0.02 -0.06,0.03 -0.03,0.02 -0.03,0.12 -0.03,0.15z"/>
    <path class="fil3" d="M2.69 4.45c0.01,0.01 0,0.01 0.01,0.01l0.04 0.05c0.01,0.01 0.01,0.02 0.02,0.03 0.02,0.01 0.02,0.01 0.03,0.03l-0.12 -0.1c-0.01,0 -0.05,0.03 -0.06,0.04 0.01,0.02 0.02,0.04 0.03,0.06 0.02,0.03 0.01,0.03 0.05,0.04 0.05,0.02 0.1,0.03 0.16,0.02 0,-0.03 -0.01,-0.12 -0.03,-0.14l-0.1 -0.06c-0.01,0.01 -0.02,0.01 -0.03,0.02z"/>
    <path class="fil3" d="M1.7 4.63c0.04,0.02 0.12,0 0.16,-0.02 0.01,0 0.02,0 0.03,-0.01 0.01,-0.01 0.01,-0.01 0.02,-0.02 0.01,-0.02 0.02,-0.05 0.03,-0.07 -0.03,0 -0.04,-0.02 -0.06,-0.03 -0.04,0.02 -0.1,0.09 -0.12,0.09l0.07 -0.08c0.01,-0.01 0.02,-0.02 0.03,-0.03 -0.01,-0.01 -0.02,-0.02 -0.04,-0.02 -0.01,0 -0.03,0.01 -0.04,0.02 -0.01,0.01 -0.05,0.03 -0.05,0.03 -0.02,0.03 -0.03,0.11 -0.03,0.14z"/>
    <path class="fil3" d="M3.38 4.38c-0.01,-0.01 -0.02,-0.02 -0.03,-0.03 -0.01,-0.01 -0.02,-0.01 -0.02,-0.02 -0.07,-0.06 -0.04,-0.04 -0.14,-0.05 0.01,0.04 0.02,0.04 0.04,0.06 0.01,0.02 0.02,0.04 0.04,0.05 0.04,0.03 0.11,0.05 0.16,0.04 0.02,-0.04 -0.02,-0.13 -0.04,-0.15 -0.02,-0.04 -0.06,-0.09 -0.09,-0.11 0,0.03 0.01,0.05 0.01,0.07l-0.01 0.03c0,0 0,0.01 0,0.01 0,0.01 0.08,0.08 0.08,0.1z"/>
    <path class="fil3" d="M1.12 4.43c0.05,0.02 0.12,-0.01 0.15,-0.03 0.03,-0.02 0.03,-0.03 0.05,-0.05 0.02,-0.02 0.03,-0.03 0.03,-0.07 -0.08,0.01 -0.06,-0.02 -0.17,0.09 -0.05,0.06 0.05,-0.07 0.07,-0.09 -0.01,-0.05 -0.01,-0.05 0,-0.1 -0.03,0.01 -0.07,0.07 -0.09,0.1 -0.03,0.05 -0.05,0.13 -0.04,0.15 0,0 0,0 0,0 0,0 0,0 0,0z"/>
    <path class="fil3" d="M3.2 4.39l-0.04 0.02c0,0 0,0 0,0 0.01,0.01 0.04,0.04 0.05,0.06 0.02,0.02 0.02,0.02 0.02,0.03l-0.09 -0.09c-0.02,-0.01 -0.05,-0.01 -0.07,-0.02 -0.03,0 -0.05,-0.01 -0.07,-0.02 0.01,0.04 0.01,0.05 0.03,0.08 0.06,0.05 0.15,0.11 0.25,0.1 0.01,-0.06 -0.02,-0.14 -0.06,-0.18l-0.02 -0.03 0 0.05z"/>
    <path class="fil3" d="M1.27 4.55c0.09,0.01 0.18,-0.04 0.24,-0.1 0.01,-0.01 0.02,-0.02 0.03,-0.03 0,-0.02 0.01,-0.03 0.01,-0.05 -0.02,0.01 -0.04,0.02 -0.06,0.03 -0.03,0 -0.06,0 -0.08,0.02l-0.05 0.04c-0.01,0.01 -0.03,0.04 -0.04,0.04 0.01,-0.02 0.06,-0.07 0.07,-0.09l-0.04 -0.01 -0.01 -0.05c0,0 -0.09,0.1 -0.07,0.2z"/>
    <path class="fil8" d="M2.02 5.22c-0.02,0 -0.03,-0.02 -0.04,-0.03 -0.01,-0.02 -0.02,-0.03 -0.03,-0.05 0.01,-0.02 0.04,-0.05 0.06,-0.06 0.01,-0.01 0.01,0 0.01,-0.02l-0.07 0.01c0,0.01 0.01,0.01 0.01,0.02l-0.03 0.05 0 -0.05c0.02,-0.01 0.01,0 0.02,-0.02 -0.01,0 -0.01,0 -0.01,0 0,0 0,0 0,0l-0.03 0c-0.01,0 -0.02,0 -0.03,0 -0.01,0.03 0,0.01 0.01,0.02l0 0.13c0,0.03 -0.01,0 -0.01,0.03 0.01,0.01 0.06,0 0.06,0 0.01,-0.04 0,0 -0.01,-0.03 0,-0.01 0,-0.03 0,-0.04 0.01,0.01 0.04,0.05 0.05,0.07l0.1 -0.01c0,-0.03 0,-0.01 -0.02,-0.02l0 -0.04 0.05 0c0.02,0.06 0.01,0.02 0.01,0.06 0.03,-0.01 0.04,0 0.05,-0.01 0,-0.02 0,-0.01 -0.01,-0.02 -0.02,-0.02 -0.04,-0.16 -0.06,-0.16 -0.02,0 -0.02,0.02 -0.02,0.04 -0.02,0.03 -0.04,0.12 -0.06,0.13z"/>
    <path class="fil8" d="M2.35 5.05c0,0.03 0,0.01 0.02,0.02 0,0.03 0,0.06 0,0.09 0,0.01 0,0.03 0,0.04 -0.01,0.03 -0.02,-0.01 -0.02,0.03 0,0.01 0.05,0 0.07,0 0,-0.05 -0.02,0.03 -0.02,-0.07l0.01 0.01c0,0 0,0 0.01,0.01l0.03 0.05c0.03,0 0.03,0.01 0.05,0.01 0.02,0 0.05,0.01 0.05,0 0,-0.03 0,-0.01 -0.01,-0.02 -0.01,0 -0.02,0.02 -0.01,-0.04l0.05 0c0.02,0.06 0,0.04 0.01,0.06 0,0.01 0,0 0,0l0.05 0.01c0,-0.03 -0.01,-0.01 -0.02,-0.04 -0.01,-0.02 -0.01,-0.04 -0.02,-0.06l-0.02 -0.07c-0.01,-0.05 -0.03,-0.01 -0.03,0.01l-0.05 0.12c0,0 0,0 0,0.01 -0.03,-0.01 -0.06,-0.07 -0.08,-0.09 0.05,-0.07 0.07,-0.05 0.07,-0.07 0,-0.01 0,-0.01 0,-0.01l-0.01 0c0,0 -0.01,0 -0.02,0 -0.01,0 -0.02,0 -0.03,0 0,0.03 0,0 0.01,0.02 -0.01,0.02 -0.03,0.04 -0.04,0.05l0 -0.05c0.02,0 0.02,0 0.02,-0.02 -0.02,0 -0.06,-0.01 -0.07,0z"/>
    <path class="fil3" d="M3.32 3.67c-0.03,-0.01 -0.26,-0.2 -0.3,-0.21 0,0.08 0,0.05 0.07,0.13l0.06 0.07c0.02,0.02 0.02,0.02 0.05,0.02 0.04,0.01 0.09,0.01 0.12,-0.01z"/>
    <path class="fil3" d="M1.22 3.68c0.03,0.02 0.07,0.01 0.12,0.01 0.03,0 0.02,0 0.06,-0.04 0.01,0 0.01,-0.01 0.02,-0.01 0.02,-0.03 0.04,-0.05 0.06,-0.07 0.04,-0.05 0.04,-0.02 0.04,-0.1 -0.03,0.01 -0.24,0.17 -0.28,0.2 -0.01,0 0,0 -0.01,0l0 0.01c-0.01,0 -0.01,0 -0.01,0z"/>
    <path class="fil3" d="M1.41 4.62c0.06,0.01 0.13,-0.01 0.18,-0.03 0.03,-0.02 0.1,-0.06 0.11,-0.09 -0.24,0.06 -0.07,-0.05 -0.22,0.06 -0.01,0.01 0,0.01 -0.02,0.01 0.01,-0.02 0.03,-0.03 0.05,-0.05 0.02,-0.02 0.02,-0.02 0.02,-0.06 -0.01,0.01 -0.03,0.04 -0.08,0.06 -0.02,0.01 -0.02,0.01 -0.03,0.03 0,0.02 -0.01,0.04 -0.01,0.07z"/>
    <path class="fil3" d="M3.09 4.57c-0.05,-0.02 -0.07,-0.06 -0.1,-0.06 -0.07,0.01 -0.09,0 -0.14,-0.01 0.01,0.04 0.17,0.14 0.29,0.11 0,-0.02 -0.01,-0.04 -0.01,-0.06 -0.01,-0.02 -0.01,-0.02 -0.04,-0.03 -0.03,-0.02 -0.05,-0.05 -0.07,-0.06 -0.01,0.07 0.04,0.06 0.07,0.11z"/>
    <path class="fil3" d="M1.54 4.71c0.09,0.04 0.22,-0.02 0.27,-0.06 -0.03,0 -0.08,0.01 -0.11,0 -0.02,-0.01 -0.01,-0.01 -0.02,-0.03 -0.01,0.01 -0.03,0.02 -0.04,0.02 -0.01,0.01 -0.03,0.03 -0.04,0.03 0,-0.01 0,0 0.02,-0.03 0.07,-0.05 0.06,-0.03 0.07,-0.1 -0.03,0.02 -0.05,0.04 -0.09,0.06 -0.03,0.02 -0.03,0.01 -0.04,0.05 -0.01,0.02 -0.02,0.04 -0.02,0.06z"/>
    <path class="fil3" d="M2.95 4.67c-0.01,-0.01 -0.05,-0.04 -0.08,-0.06 -0.01,0.03 0,0.03 -0.05,0.04 -0.03,0 -0.05,0 -0.08,-0.01 0.03,0.03 0.07,0.05 0.12,0.06 0.06,0.02 0.09,0.02 0.15,0.01 0,-0.02 -0.01,-0.05 -0.02,-0.07 -0.02,-0.05 -0.03,-0.02 -0.13,-0.1 0,0.05 0,0.05 0.03,0.08l0.05 0.03c0.01,0.01 0.01,0.01 0.01,0.02z"/>
    <path class="fil10" d="M2.09 1.82c0.04,-0.01 0.09,0 0.13,0.01 -0.06,0.08 -0.01,0.14 0.05,0.1 0.01,-0.01 0.01,-0.03 0.03,-0.04 0,0.01 0.04,0.04 0.06,0.05l-0.03 -0.01 0 0.01c0,0 0,0.01 0,0.01 0,0 0,0 0.01,0.01 0,0.01 0,0.01 0,0.02 -0.1,-0.06 -0.12,0.04 -0.21,-0.1 -0.01,-0.02 -0.02,-0.04 -0.04,-0.06zm-0.03 0c0.05,0.02 0.06,0.1 0.11,0.14 0.05,0.03 0.11,-0.01 0.16,0.03l0.03 0.03c0,-0.03 0,-0.04 -0.01,-0.07 0.01,0 0.02,0 0.02,0 0.01,0 0.02,-0.01 0.02,-0.01 -0.03,-0.03 -0.02,-0.01 -0.1,-0.08 -0.04,-0.03 -0.06,-0.05 -0.12,-0.06 -0.02,0 -0.04,0 -0.06,0 -0.02,0.01 -0.04,0.01 -0.05,0.02z"/>
    <path class="fil7" d="M1.67 5.1l0 0.06c0.03,0 0.02,0 0.02,-0.03 0.01,-0.01 0.02,-0.01 0.03,-0.02l0 0.15c-0.01,0.01 -0.02,-0.01 -0.02,0.02 0.01,0 0.08,0 0.07,-0.02 -0.01,-0.02 -0.01,0.01 -0.01,-0.02 -0.01,-0.01 0,-0.11 0,-0.13 0.03,0 0.02,0.01 0.03,0.03l0.02 0c0,-0.02 -0.01,-0.03 0,-0.04 0.01,0 0.01,-0.01 0.01,0.04l0 0.09c0,0.03 -0.01,0 -0.02,0.03 0.01,0.01 0.01,0.01 0.03,0 0.06,0 0.05,0 0.03,-0.02 -0.01,-0.01 -0.01,-0.09 -0.01,-0.11 0,-0.06 0.02,-0.02 0.02,-0.05 -0.01,0 -0.04,0 -0.05,0 -0.02,0 -0.01,0 -0.03,0 0,0 0,0 -0.02,0.01l-0.07 0.01c-0.02,0 -0.01,0 -0.03,0z"/>
    <path class="fil3" d="M1.34 4.74c0.07,0.01 0.18,-0.08 0.2,-0.11 -0.09,0.01 -0.06,0 -0.11,0.01l-0.06 0.06c0.01,-0.02 0.04,-0.05 0.04,-0.07l-0.02 0c0,-0.04 0.01,-0.05 0.01,-0.08 -0.04,0.04 -0.07,0.11 -0.06,0.19z"/>
    <path class="fil3" d="M3.16 4.62c-0.01,0 -0.01,0 -0.01,0.01 0,0 -0.01,0 -0.01,0l0 0c0,0 0,0 0,0 0.01,0.02 0.03,0.05 0.03,0.07 -0.02,-0.02 -0.03,-0.05 -0.05,-0.07 -0.05,0 -0.06,0 -0.11,-0.01 0.02,0.04 0.13,0.13 0.2,0.12 0.01,-0.09 -0.02,-0.15 -0.06,-0.19l0.01 0.07z"/>
    <path class="fil1" d="M2.22 1.83c-0.04,-0.01 -0.09,-0.02 -0.13,-0.01 0.02,0.02 0.03,0.04 0.04,0.06 0.09,0.14 0.11,0.04 0.21,0.1 0,-0.01 0,-0.01 0,-0.02 -0.01,-0.01 -0.01,-0.01 -0.01,-0.01 0,0 0,-0.01 0,-0.01l0 -0.01 0.03 0.01c-0.02,-0.01 -0.06,-0.04 -0.06,-0.05 -0.02,0.01 -0.02,0.03 -0.03,0.04 -0.06,0.04 -0.11,-0.02 -0.05,-0.1z"/>
    <path class="fil11" d="M2.72 5.12c0,0.02 0,0.11 -0.01,0.11 -0.01,0.02 -0.01,-0.01 -0.01,0.02 0,0 0,0 0,0 0,0.01 0.02,0.01 0.03,0.01 0.02,0 0.03,0 0.04,0 0,-0.02 0,-0.01 -0.02,-0.02l0 -0.06c0.04,0.01 0.09,-0.03 0.07,-0.07 -0.01,-0.04 -0.08,-0.03 -0.12,-0.04 0,0.04 0.02,0 0.02,0.05z"/>
    <path class="fil3" d="M1.26 4.88c0.07,0.01 0.18,-0.1 0.18,-0.15 -0.01,0.01 -0.03,0.02 -0.04,0.02 -0.06,0.02 -0.05,0.01 -0.09,0.08 -0.01,0.01 -0.01,0.01 -0.02,0.01 0,-0.01 0.04,-0.07 0.05,-0.07l-0.01 -0.01c-0.02,-0.01 -0.01,-0.02 -0.01,-0.05 -0.04,0.03 -0.07,0.11 -0.06,0.17z"/>
    <path class="fil3" d="M3.23 4.75l-0.02 0.01c0.01,0.01 0.05,0.07 0.05,0.08 -0.01,0 -0.01,0 -0.01,-0.01 -0.01,-0.01 -0.01,-0.02 -0.02,-0.02 -0.07,-0.09 -0.02,-0.03 -0.12,-0.08 0,0.04 0.12,0.16 0.18,0.15 0.01,-0.06 -0.01,-0.11 -0.04,-0.16l-0.02 -0.01 0 0.04z"/>
    <path class="fil3" d="M1.14 4.52c0.01,-0.02 0.04,-0.05 0.05,-0.07l-0.06 0c-0.02,0.03 -0.03,0.09 -0.02,0.11 0.04,0.01 0.09,-0.02 0.12,-0.03 0.02,-0.02 0.02,-0.02 0.03,-0.05 0,-0.02 0.01,-0.05 0.02,-0.06 -0.05,0.02 -0.06,0.01 -0.11,0.07 0,0.01 -0.02,0.03 -0.03,0.03z"/>
    <path class="fil3" d="M3.44 4.56c0.01,-0.04 -0.01,-0.08 -0.02,-0.11l-0.06 0c0.01,0.02 0.04,0.04 0.04,0.07 0,-0.01 -0.01,-0.02 -0.02,-0.03 -0.02,-0.02 -0.04,-0.05 -0.06,-0.06 -0.02,0 -0.03,-0.01 -0.05,-0.01 0.01,0.01 0.02,0.03 0.02,0.05 0.01,0.04 0.01,0.04 0.03,0.05 0.03,0.02 0.08,0.05 0.12,0.04z"/>
    <path class="fil7" d="M2.23 5.05c0,0.04 0.01,0 0.02,0.03 0,0.01 0,0.04 0,0.05 0,0.02 0,0.04 0,0.06 0,0.01 0,0.01 0,0.02 -0.01,0.01 -0.03,-0.01 -0.02,0.02l0.08 0c0.02,0 0.01,0.01 0.03,0.01 0,-0.01 0,-0.02 0,-0.03 0.01,-0.02 0.01,-0.03 0,-0.04 -0.03,0 0.01,0.04 -0.06,0.04l0 -0.06 0.05 0 0 -0.02c-0.05,-0.01 -0.05,0 -0.05,-0.06 0.02,-0.01 0.03,0 0.04,0.01 0.01,0.02 -0.01,0.02 0.02,0.02l0 -0.06c-0.02,0 -0.01,0 -0.02,0.01l-0.09 0z"/>
    <path class="fil3" d="M1.35 4.89c0.09,0.01 0.19,-0.07 0.21,-0.11 -0.02,0 -0.03,0.01 -0.05,0.01 -0.02,0.01 -0.05,0.01 -0.06,0.01 -0.01,0.01 -0.05,0.05 -0.07,0.06 0.03,-0.04 0.07,-0.05 0.06,-0.08 -0.05,0.05 -0.01,0.02 -0.08,0.08 -0.01,0.01 -0.01,0.01 -0.01,0.03z"/>
    <path class="fil3" d="M3.2 4.89c0.01,-0.04 -0.03,-0.03 -0.07,-0.09 -0.01,-0.01 -0.01,-0.02 -0.02,-0.03 -0.01,0.04 0.04,0.05 0.06,0.09 -0.02,-0.01 -0.06,-0.05 -0.07,-0.06 -0.01,-0.01 -0.04,-0.01 -0.06,-0.01 -0.02,0 -0.03,-0.01 -0.05,-0.02 0.03,0.05 0.11,0.13 0.21,0.12z"/>
    <path class="fil3" d="M1.23 4.66c0.04,0 0.06,-0.01 0.09,-0.03 0.02,-0.01 0.04,-0.05 0.05,-0.07 -0.08,0.02 -0.05,0 -0.09,0.05 -0.01,0.01 0,0 -0.01,0 0,-0.01 0.01,-0.02 0.02,-0.04l-0.04 0 0 -0.02c-0.02,0.04 -0.02,0.06 -0.02,0.11z"/>
    <path class="fil3" d="M3.3 4.56l-0.04 0.01c0,0.01 0.02,0.03 0.02,0.04 -0.01,0 -0.02,-0.03 -0.03,-0.04 -0.02,-0.01 -0.05,-0.01 -0.07,-0.01 0,0.01 0.01,0.02 0.02,0.03 0.01,0.02 0,0.03 0.02,0.04 0.03,0.02 0.06,0.03 0.1,0.03 0,-0.03 0,-0.04 0,-0.07 -0.01,0 -0.01,-0.01 -0.01,-0.02l-0.01 -0.03 0 0.02z"/>
    <path class="fil3" d="M3.36 4.7c-0.01,0 0,0 -0.01,-0.01 -0.02,-0.03 0,-0.01 -0.09,-0.03 0.02,0.03 0.07,0.08 0.13,0.08 0.01,-0.06 -0.03,-0.16 -0.06,-0.18 0,0.03 0.01,0.04 0.01,0.08 0,0.03 0.01,0.04 0.02,0.06z"/>
    <path class="fil3" d="M1.16 4.74c0.06,0 0.11,-0.05 0.13,-0.07 -0.03,0 -0.04,0.01 -0.08,0.01 0,0.01 -0.01,0.02 -0.03,0.03 0.01,-0.03 0.03,-0.03 0.03,-0.07 0,-0.03 0.01,-0.05 0.01,-0.08 -0.03,0.05 -0.07,0.1 -0.06,0.18z"/>
    <path class="fil3" d="M3.45 4.72c0.01,-0.04 0.03,-0.1 0,-0.14l-0.04 0c0,0.02 0.03,0.08 0.02,0.09 -0.03,-0.04 -0.02,-0.1 -0.08,-0.11 0.01,0.02 0.03,0.04 0.05,0.08 0.01,0.04 0,0.07 0.05,0.08z"/>
    <path class="fil3" d="M1.12 4.68c-0.01,-0.01 0,-0.01 0,-0.02 0,-0.01 0,-0.02 0.01,-0.03 0,-0.02 0.01,-0.03 0.01,-0.05l-0.05 0c-0.01,0.07 -0.01,0.08 0.01,0.14 0.01,0 0.03,-0.01 0.04,-0.02 0,-0.01 0.01,-0.04 0.01,-0.05 0.02,-0.05 0.03,-0.06 0.05,-0.09 -0.06,0.02 -0.04,0.05 -0.08,0.12z"/>
    <path class="fil3" d="M3.05 4.73c-0.01,0 0,0 -0.01,-0.01 -0.01,0 -0.01,-0.01 -0.01,-0.01l-0.01 0.01c0,0 -0.01,0.01 -0.01,0.01 -0.02,0 -0.03,0 -0.04,0 0.02,0.03 0.07,0.05 0.12,0.05 0.01,-0.08 -0.01,-0.07 -0.05,-0.1 -0.01,-0.01 -0.01,-0.01 -0.02,-0.02 0,0.04 0.02,0.04 0.03,0.07z"/>
    <path class="fil3" d="M1.46 4.78c0.05,0 0.1,-0.02 0.12,-0.04 -0.01,0 -0.04,-0.01 -0.05,-0.02 -0.01,0 0,0.01 -0.01,-0.01 0,0.01 -0.01,0.02 -0.02,0.03 0.01,-0.03 0.02,-0.03 0.03,-0.08l-0.05 0.05c-0.02,0.01 -0.03,0.03 -0.02,0.07z"/>
    <path class="fil3" d="M3.37 4.81l0 -0.05 -0.06 -0.03c0.01,0.02 0.02,0.02 0.03,0.05 -0.01,-0.01 -0.05,-0.06 -0.08,-0.07 0.02,0.04 0.01,0.02 0.03,0.07 0.01,0.02 0.02,0.02 0.04,0.03 0.01,0 0.03,0 0.04,0z"/>
    <path class="fil3" d="M1.2 4.78c0.01,-0.02 0.03,-0.02 0.04,-0.04l-0.06 0.02 -0.01 0.05c0.02,0 0.03,0 0.05,0 0.04,-0.01 0.03,-0.01 0.05,-0.05 0,-0.02 0.01,-0.03 0.02,-0.04 -0.04,0.02 -0.07,0.06 -0.09,0.06z"/>
   </g>
   <path class="fil12" d="M7.43 2.36l0 0.61 -0.55 0 0 1.97 -0.74 0 0 -1.97 -0.55 0 0 -0.61 1.84 0zm0.93 1.29l0 1.29 -0.74 0 0 -2.58 0.74 0 0.73 1.29 0 -1.29 0.74 0 0 2.58 -0.74 0 -0.73 -1.29zm1.66 1.29l0 -2.58 0.73 0 0 2.58 -0.73 0zm0.92 -1.58l1.65 0 0 0.55 -1.65 0 0 -0.55zm2.69 1.21l-0.14 0.37 -0.78 0 1.03 -2.58 0.66 0 1.04 2.58 -0.79 0 -0.13 -0.37 -0.89 0zm0.7 -0.55l-0.24 -0.69 -0.26 0.69 0.5 0zm1.13 -1.65l1.2 0c0.42,0 0.72,0.09 0.9,0.28 0.24,0.23 0.37,0.57 0.37,1.01 0,0.58 -0.22,0.97 -0.66,1.16 -0.18,0.08 -0.38,0.12 -0.6,0.12l-1.21 0 0 -2.57zm0.74 0.55l0 1.37 0.31 0c0.28,0 0.47,-0.1 0.56,-0.29 0.05,-0.11 0.08,-0.22 0.08,-0.35l0 -0.09c0,-0.28 -0.12,-0.48 -0.37,-0.59 -0.09,-0.03 -0.19,-0.05 -0.28,-0.05l-0.3 0z"/>
  </g>
 </g>
</svg>
