<?xml version="1.0" encoding="UTF-8"?>
<!DOCTYPE svg PUBLIC "-//W3C//DTD SVG 1.1//EN" "http://www.w3.org/Graphics/SVG/1.1/DTD/svg11.dtd">
<!-- Creator: CorelDRAW 2018 (64-Bit) -->
<svg xmlns="http://www.w3.org/2000/svg" xml:space="preserve" width="354px" height="85px" version="1.1" style="shape-rendering:geometricPrecision; text-rendering:geometricPrecision; image-rendering:optimizeQuality; fill-rule:evenodd; clip-rule:evenodd"
viewBox="0 0 21.13 5.07"
 xmlns:xlink="http://www.w3.org/1999/xlink">
 <defs>
  <style type="text/css">
   <![CDATA[
    .fil1 {fill:#00ACEF}
    .fil0 {fill:#00ADEF}
    .fil2 {fill:#E23304}
   ]]>
  </style>
 </defs>
 <g id="Layer_x0020_1">
  <metadata id="CorelCorpID_0Corel-Layer"/>
  <g id="_2474158011584">
   <path class="fil0" d="M6.35 2.42c0.01,0.03 0.03,0.17 0.03,0.2 0.01,0.05 0.03,0.16 0.03,0.2l-0.23 0c0,-0.04 0.14,-0.32 0.17,-0.4zm-3.27 1.01l1.19 0 0.29 -1.06 0.3 -0.01c0.02,0.14 0.12,1.03 0.14,1.07 0.01,0.01 0.91,0 0.91,0 0.03,-0.04 0.1,-0.23 0.13,-0.29l0.41 0c0.02,0.05 0.04,0.23 0.05,0.29l0.59 0c-0.03,0.09 -0.24,0.3 -0.31,0.37 -0.94,0.83 -2.61,0.96 -3.81,0.79 -1.23,-0.18 -2.61,-0.81 -2.5,-2.2 0.01,-0.14 0.08,-0.44 0.14,-0.53l0.22 -0.01c0.01,0 0.01,0 0.02,0.01 0.01,0 0,-0.01 0.01,0 0.02,0.03 0.18,1.4 0.21,1.57l0.37 0 0.44 -0.96 0.13 0.96 0.41 0 0.22 -0.53c0.06,-0.16 0.16,-0.38 0.22,-0.53l0.46 -0.01 -0.24 1.07zm4.16 -0.29c-0.04,0 -0.29,0 -0.32,0l-0.21 -1.58 -0.43 0 -0.65 1.61 -0.23 0c-0.01,-0.16 -0.04,-0.32 -0.06,-0.47 -0.02,-0.16 -0.04,-0.31 -0.06,-0.46 -0.02,-0.12 -0.01,-0.1 0.05,-0.19 0.04,-0.07 0.29,-0.46 0.3,-0.49l-0.42 0c-0.03,0.04 -0.06,0.08 -0.08,0.12l-0.25 0.35 -0.23 0 0.11 -0.47 -0.41 0 -0.41 1.61 -0.37 0c0.01,-0.1 0.24,-1.04 0.25,-1.14l-0.82 0 0.18 -0.47c-0.07,0 -0.38,-0.01 -0.42,0.01l-0.42 0.97c-0.02,-0.05 -0.14,-0.92 -0.17,-0.98l-0.34 0c-0.03,0.08 -0.33,0.76 -0.4,0.91l-0.02 0.05c-0.01,0.01 -0.01,0 -0.02,0.01 -0.01,-0.07 -0.02,-0.16 -0.03,-0.24 -0.02,-0.11 -0.11,-0.7 -0.12,-0.73l-0.45 0c0.01,-0.03 0.12,-0.15 0.14,-0.18 0.05,-0.04 0.12,-0.11 0.17,-0.15 0.39,-0.32 0.82,-0.51 1.34,-0.64 1.03,-0.26 2.43,-0.22 3.45,0.16 0.34,0.13 0.61,0.29 0.84,0.49 0.39,0.32 0.64,0.79 0.62,1.35 0,0.1 -0.01,0.19 -0.03,0.29 -0.02,0.1 -0.05,0.17 -0.08,0.26zm-3.77 -3.13c-0.26,0.02 -0.5,0.03 -0.75,0.05 -0.82,0.1 -1.52,0.24 -2.29,0.54 -0.04,0.02 -0.09,0.04 -0.14,0.06 -0.03,0.01 -0.04,0.01 -0.05,0.04 -0.33,1.09 -0.31,2.56 -0.01,3.66 0.02,0.05 0.01,0.04 0.11,0.08 0.37,0.15 0.69,0.25 1.07,0.35 0.94,0.23 1.91,0.3 2.95,0.28 0.87,-0.02 1.92,-0.2 2.73,-0.48 0.1,-0.04 0.2,-0.07 0.3,-0.11 0.04,-0.02 0.09,-0.04 0.14,-0.06 0.06,-0.02 0.04,-0.01 0.07,-0.12 0.06,-0.22 0.11,-0.44 0.14,-0.67 0.08,-0.49 0.1,-1.02 0.07,-1.53 -0.02,-0.49 -0.1,-0.94 -0.22,-1.38 -0.02,-0.05 -0.02,-0.04 -0.12,-0.09 -0.05,-0.01 -0.09,-0.03 -0.14,-0.05 -0.1,-0.04 -0.2,-0.08 -0.3,-0.11 -0.21,-0.07 -0.41,-0.13 -0.63,-0.18 -0.68,-0.17 -1.43,-0.26 -2.14,-0.28 -0.25,-0.01 -0.54,-0.02 -0.79,0z"/>
   <path class="fil1" d="M18.58 4.33l0.88 0 0 -1.57c0.03,0.02 0.19,0.35 0.21,0.39 0.07,0.13 0.14,0.26 0.2,0.39 0.13,0.27 0.28,0.54 0.41,0.79l0.74 0 0 -3.56 -0.85 0 0 1.46c-0.01,-0.01 -0.02,-0.03 -0.03,-0.04l-0.07 -0.14c-0.09,-0.17 -0.19,-0.38 -0.29,-0.55l-0.28 -0.54c-0.03,-0.06 -0.07,-0.13 -0.1,-0.19l-0.82 0 0 3.56z"/>
   <path class="fil1" d="M9.12 2.77c0.23,-0.01 0.4,0.12 0.4,0.35l0 0.01c0,0.24 -0.15,0.37 -0.4,0.36l0 -0.68 0 -0.04zm0 -1.28c0.14,-0.01 0.16,0.01 0.23,0.07 0.13,0.11 0.12,0.35 -0.01,0.45 -0.04,0.04 -0.13,0.1 -0.22,0.08l0 -0.6zm-0.93 2.79c0.38,0.01 0.78,0 1.16,0 0.19,0 0.33,0 0.49,-0.08 0.57,-0.27 0.7,-1.1 0.39,-1.59 -0.07,-0.12 -0.18,-0.23 -0.29,-0.29 0.02,-0.03 0.04,-0.05 0.06,-0.07 0.34,-0.37 0.37,-1.01 -0.01,-1.33 -0.21,-0.19 -0.45,-0.19 -0.8,-0.19 -0.16,0 -0.33,0 -0.5,0 -0.16,0 -0.34,-0.01 -0.5,0l0 3.55z"/>
   <polygon class="fil1" points="10.68,4.28 12.33,4.28 12.33,3.53 11.5,3.53 11.5,2.88 12.31,2.87 12.31,2.08 11.5,2.08 11.5,1.49 12.33,1.49 12.33,0.73 10.68,0.73 "/>
   <polygon class="fil1" points="12.57,1.5 13.17,1.5 13.18,4.28 14.07,4.28 14.08,1.5 14.69,1.5 14.69,0.73 12.57,0.73 "/>
   <polygon class="fil0" points="8.21,0.54 21.13,0.54 21.13,0.28 8.21,0.28 "/>
   <polygon class="fil0" points="8.21,4.8 21.13,4.8 21.13,4.54 8.21,4.54 "/>
   <path class="fil2" d="M18.19 2.67l-0.02 0.17c-0.01,0.05 -0.02,0.1 -0.04,0.15 -0.02,0.09 -0.06,0.2 -0.1,0.28 -0.04,0.06 -0.11,0.17 -0.15,0.23 -0.06,0.07 -0.12,0.15 -0.19,0.2 -0.1,0.09 -0.1,0.09 -0.21,0.16 -0.08,0.05 -0.15,0.09 -0.25,0.13 -0.23,0.09 -0.41,0.1 -0.66,0.1 -0.19,0 -0.43,-0.08 -0.59,-0.17 -0.34,-0.17 -0.58,-0.45 -0.72,-0.79 -0.13,-0.33 -0.13,-0.64 -0.05,-0.97 0.06,-0.22 0.23,-0.52 0.39,-0.66 0.08,-0.07 0.05,-0.05 0.16,-0.13 0.25,-0.2 0.51,-0.28 0.83,-0.31 0.24,-0.02 0.59,0.05 0.78,0.16 0.2,0.12 0.25,0.15 0.43,0.33 0.1,0.12 0.22,0.3 0.29,0.47 0.03,0.1 0.06,0.19 0.08,0.3 0.02,0.09 0.03,0.26 0.02,0.35zm-3.29 -0.18c0,0.23 -0.01,0.29 0.05,0.53 0.18,0.75 0.9,1.33 1.7,1.33 0.15,0 0.26,-0.01 0.39,-0.04 0.22,-0.04 0.43,-0.13 0.61,-0.25 0.07,-0.04 0.12,-0.08 0.19,-0.14 0.16,-0.15 0.31,-0.32 0.42,-0.55l0.07 -0.15c0.08,-0.2 0.09,-0.32 0.12,-0.53 0.02,-0.19 -0.02,-0.43 -0.07,-0.6 -0.05,-0.22 -0.15,-0.41 -0.28,-0.58 -0.27,-0.37 -0.76,-0.67 -1.24,-0.71l-0.21 -0.01c-0.13,0.01 -0.25,0.02 -0.38,0.05 -0.19,0.05 -0.44,0.14 -0.6,0.26l-0.24 0.2c-0.02,0.02 -0.03,0.03 -0.05,0.05 -0.24,0.25 -0.41,0.6 -0.46,0.94 -0.01,0.05 -0.02,0.15 -0.02,0.2z"/>
   <path class="fil2" d="M17.69 2.68c-0.02,0.1 0,0.08 -0.04,0.21 -0.06,0.18 -0.18,0.35 -0.31,0.46 -0.2,0.17 -0.42,0.27 -0.77,0.24 -0.23,-0.01 -0.44,-0.13 -0.61,-0.28 -0.21,-0.19 -0.35,-0.54 -0.31,-0.84 0.02,-0.16 0.06,-0.27 0.13,-0.39 0.08,-0.15 0.22,-0.31 0.37,-0.39 0.2,-0.1 0.36,-0.16 0.63,-0.14 0.21,0.02 0.47,0.14 0.6,0.29 0.02,0.01 0.05,0.04 0.07,0.06 0.1,0.14 0.11,0.14 0.19,0.32 0.04,0.11 0.08,0.32 0.05,0.46zm-1.09 -1.39c-0.02,0.01 -0.05,0 -0.08,0.01 -0.4,0.05 -0.71,0.25 -0.93,0.58 -0.05,0.08 -0.08,0.14 -0.11,0.22 -0.07,0.18 -0.1,0.32 -0.09,0.55 0,0.09 0.03,0.2 0.05,0.28 0.05,0.19 0.16,0.36 0.28,0.51 0.11,0.13 0.33,0.27 0.48,0.33 0.22,0.08 0.45,0.11 0.69,0.07 0.05,-0.01 0.09,-0.02 0.13,-0.03 0.16,-0.05 0.3,-0.11 0.43,-0.21 0.19,-0.15 0.33,-0.33 0.42,-0.55 0.2,-0.48 0.06,-1.08 -0.33,-1.43 -0.03,-0.02 -0.06,-0.04 -0.09,-0.07 -0.03,-0.02 -0.06,-0.04 -0.09,-0.06 -0.13,-0.09 -0.3,-0.15 -0.46,-0.18 -0.07,-0.01 -0.23,-0.03 -0.3,-0.02z"/>
   <path class="fil0" d="M3.48 1.85l0.38 0c0.01,-0.02 0.06,-0.25 0.06,-0.29l-0.34 0 -0.03 0 -0.07 0.29z"/>
  </g>
 </g>
</svg>
