<?xml version="1.0" encoding="UTF-8"?>
<!DOCTYPE svg PUBLIC "-//W3C//DTD SVG 1.1//EN" "http://www.w3.org/Graphics/SVG/1.1/DTD/svg11.dtd">
<!-- Creator: CorelDRAW 2018 (64-Bit) -->
<svg xmlns="http://www.w3.org/2000/svg" xml:space="preserve" width="591px" height="591px" version="1.1" style="shape-rendering:geometricPrecision; text-rendering:geometricPrecision; image-rendering:optimizeQuality; fill-rule:evenodd; clip-rule:evenodd"
viewBox="0 0 69.17 69.17"
 xmlns:xlink="http://www.w3.org/1999/xlink">
 <defs>
  <style type="text/css">
   <![CDATA[
    .fil1 {fill:url(#id0)}
    .fil0 {fill:url(#id1)}
   ]]>
  </style>
  <linearGradient id="id0" gradientUnits="userSpaceOnUse" x1="32.24" y1="49.78" x2="36.63" y2="28.4">
   <stop offset="0" style="stop-opacity:1; stop-color:#5B619E"/>
   <stop offset="1" style="stop-opacity:1; stop-color:#91A1D5"/>
  </linearGradient>
  <linearGradient id="id1" gradientUnits="userSpaceOnUse" xlink:href="#id0" x1="53.61" y1="7.61" x2="21.7" y2="64.72">
  </linearGradient>
 </defs>
 <g id="Layer_x0020_1">
  <metadata id="CorelCorpID_0Corel-Layer"/>
  <g id="_1940362428224">
   <path class="fil0" d="M34.59 0c19.1,0 34.58,15.48 34.58,34.59l0 34.58c-9.55,0 -17.29,-7.74 -17.29,-17.29l0 -17.29c0,-9.55 -7.74,-17.3 -17.29,-17.3 -9.55,0 -17.3,7.75 -17.3,17.3 0,6.4 3.48,11.99 8.65,14.98l0 -14.98c0,-4.76 3.89,-8.65 8.65,-8.65l0 0c4.75,0 8.64,3.89 8.64,8.65l0 20.75 0 11.84 0 1.99 -8.64 0c-2.98,0 -5.87,-0.37 -8.62,-1.08 -0.22,-0.06 -0.44,-0.12 -0.66,-0.18l-0.03 0c-0.22,-0.07 -0.44,-0.13 -0.66,-0.2l-0.06 -0.01c-0.21,-0.07 -0.41,-0.13 -0.61,-0.2l-0.09 -0.02c-0.19,-0.07 -0.38,-0.13 -0.56,-0.19l-0.14 -0.05c-0.17,-0.06 -0.35,-0.12 -0.52,-0.19l-0.14 -0.05c-0.18,-0.06 -0.35,-0.13 -0.52,-0.2l-0.13 -0.05c-0.18,-0.07 -0.35,-0.14 -0.52,-0.21l-0.19 -0.08c-0.16,-0.07 -0.32,-0.14 -0.48,-0.21l-0.2 -0.08c-0.14,-0.07 -0.29,-0.14 -0.44,-0.21l-0.2 -0.09c-0.13,-0.06 -0.27,-0.13 -0.41,-0.2l-0.22 -0.11c-0.13,-0.06 -0.26,-0.13 -0.39,-0.19l-0.25 -0.14c-0.12,-0.06 -0.24,-0.12 -0.36,-0.19 -0.1,-0.05 -0.2,-0.11 -0.3,-0.16 -0.1,-0.05 -0.2,-0.11 -0.3,-0.16 -0.11,-0.07 -0.23,-0.13 -0.34,-0.2 -0.08,-0.05 -0.16,-0.1 -0.24,-0.14 -0.12,-0.07 -0.23,-0.14 -0.34,-0.21 -0.11,-0.06 -0.22,-0.13 -0.33,-0.2 -0.09,-0.05 -0.18,-0.11 -0.26,-0.16 -0.11,-0.07 -0.21,-0.13 -0.31,-0.2 -0.12,-0.08 -0.24,-0.16 -0.35,-0.23l-0.2 -0.14c-0.13,-0.08 -0.25,-0.17 -0.38,-0.26 -8.97,-6.25 -14.84,-16.63 -14.84,-28.39 0,-19.11 15.48,-34.59 34.59,-34.59z"/>
   <path class="fil1" d="M25.94 49.57l0 -14.98c0,-4.76 3.89,-8.65 8.65,-8.65l0 0c4.75,0 8.64,3.89 8.64,8.65l0 11.16 0 3.82 0 2.31 -8.64 0c-3.15,0 -6.11,-0.84 -8.65,-2.31z"/>
  </g>
 </g>
</svg>
