<?xml version="1.0" encoding="UTF-8"?>
<!DOCTYPE svg PUBLIC "-//W3C//DTD SVG 1.1//EN" "http://www.w3.org/Graphics/SVG/1.1/DTD/svg11.dtd">
<!-- Creator: CorelDRAW 2018 (64-Bit) -->
<svg xmlns="http://www.w3.org/2000/svg" xml:space="preserve" width="956px" height="200px" version="1.1" style="shape-rendering:geometricPrecision; text-rendering:geometricPrecision; image-rendering:optimizeQuality; fill-rule:evenodd; clip-rule:evenodd"
viewBox="0 0 535.17 111.89"
 xmlns:xlink="http://www.w3.org/1999/xlink">
 <defs>
  <style type="text/css">
   <![CDATA[
    .fil0 {fill:#5B619E;fill-rule:nonzero}
    .fil1 {fill:#91A1D5;fill-rule:nonzero}
    .fil3 {fill:url(#id0)}
    .fil2 {fill:url(#id1)}
   ]]>
  </style>
  <linearGradient id="id0" gradientUnits="userSpaceOnUse" x1="52.15" y1="80.53" x2="59.25" y2="45.95">
   <stop offset="0" style="stop-opacity:1; stop-color:#5B619E"/>
   <stop offset="1" style="stop-opacity:1; stop-color:#91A1D5"/>
  </linearGradient>
  <linearGradient id="id1" gradientUnits="userSpaceOnUse" xlink:href="#id0" x1="86.73" y1="12.31" x2="35.09" y2="104.68">
  </linearGradient>
 </defs>
 <g id="Layer_x0020_1">
  <metadata id="CorelCorpID_0Corel-Layer"/>
  <path class="fil0" d="M156.78 31.33l0 14.36 -4.64 0 0 12.97 -16.15 0 0 -34.6c0,-6.67 1.82,-11.87 5.47,-15.56 3.66,-3.7 8.8,-5.55 15.42,-5.55 6.39,0 11.11,1.67 14.16,5.03 3.06,3.36 4.59,8.52 4.59,15.52l0 35.16 -16.15 0 0 -34.08c0,-2.1 -0.26,-3.54 -0.77,-4.35 -0.51,-0.8 -1.42,-1.21 -2.74,-1.21 -2.56,0 -3.83,1.85 -3.83,5.56l0 6.75 4.64 0zm49.25 -12.79l0 15.93c-1.03,-0.57 -1.97,-0.85 -2.81,-0.85 -2.69,0 -4.04,2.06 -4.04,6.2l0 18.84 -14.92 0 0 -21.71c0,-5.74 1.56,-10.31 4.7,-13.72 3.13,-3.41 7.31,-5.11 12.53,-5.11 1.17,0 2.68,0.14 4.54,0.42zm17.69 -14.28l0 15.25 6.69 0 0 15.74 -6.69 0c0,3.15 0.49,5.33 1.48,6.52 0.99,1.2 2.81,1.8 5.45,1.8l0 15.64c-0.77,0.02 -1.34,0.02 -1.71,0.02 -3.37,0 -6.55,-0.79 -9.53,-2.35 -2.99,-1.57 -5.38,-3.69 -7.19,-6.37 -2.29,-3.41 -3.43,-7.95 -3.43,-13.59l0 -32.66 14.93 0zm28.91 0l0 16.63c2.52,-1.84 5.03,-2.77 7.55,-2.77 3.82,0 6.83,1.39 9.08,4.15 2.24,2.77 3.35,6.5 3.35,11.21l0 25.18 -14.92 0 0 -21c0,-1.69 -0.18,-2.83 -0.53,-3.42 -0.35,-0.58 -1.03,-0.87 -2.05,-0.87 -1.65,0 -2.48,1.23 -2.48,3.69l0 21.6 -14.92 0 0 -54.4 14.92 0zm50.79 39.5l0 15.41c-1.23,0.21 -2.34,0.3 -3.35,0.3 -5.96,0 -10.93,-1.97 -14.91,-5.9 -3.98,-3.93 -5.97,-8.85 -5.97,-14.77 0,-5.77 2.02,-10.65 6.04,-14.66 4.01,-4.01 8.9,-6.02 14.67,-6.02 6.41,0 11.47,1.88 15.18,5.64 3.7,3.77 5.55,8.91 5.55,15.42l0 19.48 -14.93 0 0 -18.41c0,-2.09 -0.5,-3.76 -1.52,-5.01 -1.01,-1.24 -2.38,-1.87 -4.09,-1.87 -1.55,0 -2.9,0.57 -4.03,1.72 -1.13,1.14 -1.7,2.48 -1.7,4.05 0,1.64 0.52,3 1.54,4.06 1.03,1.06 2.34,1.59 3.91,1.59 1.3,0 2.51,-0.34 3.61,-1.03zm39.13 -39.5l0 15.25 6.69 0 0 15.74 -6.69 0c0,3.15 0.49,5.33 1.48,6.52 1,1.2 2.82,1.8 5.46,1.8l0 15.64c-0.78,0.02 -1.35,0.02 -1.72,0.02 -3.37,0 -6.55,-0.79 -9.53,-2.35 -2.99,-1.57 -5.38,-3.69 -7.19,-6.37 -2.28,-3.41 -3.42,-7.95 -3.42,-13.59l0 -32.66 14.92 0zm35.77 14.28l0 15.93c-1.04,-0.57 -1.97,-0.85 -2.82,-0.85 -2.69,0 -4.03,2.06 -4.03,6.2l0 18.84 -14.93 0 0 -21.71c0,-5.74 1.56,-10.31 4.7,-13.72 3.13,-3.41 7.32,-5.11 12.54,-5.11 1.17,0 2.67,0.14 4.54,0.42zm23.24 -0.42c5.64,0 10.47,2.03 14.49,6.08 4.04,4.05 6.05,8.9 6.05,14.56 0,5.73 -2.04,10.63 -6.12,14.66 -4.09,4.04 -9.01,6.05 -14.77,6.05 -5.78,0 -10.71,-2.02 -14.81,-6.07 -4.09,-4.05 -6.14,-8.93 -6.14,-14.64 0,-5.82 2.05,-10.72 6.14,-14.68 4.1,-3.97 9.15,-5.96 15.16,-5.96zm-0.39 14.68c-1.61,0 -2.95,0.59 -4.07,1.74 -1.11,1.16 -1.67,2.57 -1.67,4.26 0,1.64 0.56,3.06 1.69,4.24 1.12,1.17 2.47,1.75 4.05,1.75 1.59,0 2.95,-0.58 4.08,-1.75 1.12,-1.18 1.68,-2.6 1.68,-4.24 0,-1.69 -0.56,-3.1 -1.67,-4.26 -1.12,-1.15 -2.48,-1.74 -4.09,-1.74zm62.5 25.86l-14.93 0 0 -22.43c0,-2.29 -0.92,-3.43 -2.78,-3.43 -1.84,0 -2.76,1.14 -2.76,3.43l0 22.43 -14.93 0 0 -22.16c0,-5.17 1.72,-9.53 5.14,-13.06 3.43,-3.55 7.61,-5.32 12.59,-5.32 5.67,0 10.22,2.05 13.65,6.17 2.67,3.21 4.02,7.68 4.02,13.41l0 20.96zm23.61 -39.72l0 39.72 -14.92 0 0 -39.72 14.92 0zm-7.38 -17.7c2.03,0 3.77,0.71 5.25,2.13 1.48,1.42 2.21,3.1 2.21,5.05 0,2.06 -0.69,3.77 -2.09,5.09 -1.4,1.34 -3.18,2 -5.37,2 -2.17,0 -3.97,-0.66 -5.37,-2 -1.4,-1.32 -2.09,-3.03 -2.09,-5.09 0,-1.95 0.73,-3.63 2.21,-5.05 1.48,-1.42 3.22,-2.13 5.25,-2.13zm40.5 39.13l14.77 -0.55c-0.42,5.72 -2.55,10.44 -6.4,14.12 -3.85,3.68 -8.54,5.53 -14.06,5.53 -5.84,0 -10.76,-2.02 -14.79,-6.09 -4.02,-4.06 -6.03,-9.04 -6.03,-14.92 0,-5.6 2.02,-10.39 6.09,-14.37 4.06,-3.98 8.93,-5.97 14.61,-5.97 4.96,0 9.34,1.56 13.15,4.69 3.79,3.14 6.15,7.12 7.08,11.98l-15.09 0.55c-1.31,-1.69 -2.95,-2.54 -4.94,-2.54 -1.69,0 -3.09,0.56 -4.18,1.67 -1.09,1.12 -1.63,2.53 -1.63,4.23 0,1.73 0.57,3.17 1.72,4.34 1.16,1.17 2.6,1.75 4.33,1.75 2.51,0 4.3,-1.47 5.37,-4.42z"/>
  <path class="fil1" d="M388.26 105.45l3.62 -2.42c0.68,1.31 1.54,2.28 2.59,2.94 1.04,0.65 2.27,0.98 3.69,0.98 1.38,0 2.51,-0.34 3.36,-1.02 0.86,-0.68 1.28,-1.58 1.28,-2.7 0,-0.85 -0.29,-1.57 -0.87,-2.15 -0.59,-0.57 -1.59,-1.11 -3.01,-1.59l-0.7 -0.25c-6.01,-2.06 -9.01,-4.66 -9.01,-7.77 0,-2.19 0.81,-3.99 2.42,-5.37 1.62,-1.39 3.72,-2.08 6.31,-2.08 2.15,0 3.98,0.42 5.51,1.28 1.53,0.86 2.62,2.06 3.29,3.63l-3.42 2.11c-0.51,-1.14 -1.25,-2.01 -2.23,-2.62 -0.98,-0.62 -2.12,-0.92 -3.42,-0.92 -1.24,0 -2.25,0.35 -3.04,1.04 -0.78,0.69 -1.16,1.58 -1.16,2.66 0,1.51 1.63,2.78 4.9,3.81 0.62,0.2 1.11,0.35 1.47,0.46 2.67,0.86 4.54,1.85 5.59,2.95 1.05,1.11 1.57,2.56 1.57,4.39 0,2.33 -0.82,4.23 -2.49,5.67 -1.66,1.45 -3.83,2.18 -6.51,2.18 -2.31,0 -4.26,-0.44 -5.87,-1.3 -1.6,-0.86 -2.9,-2.17 -3.87,-3.91zm25.77 -17.07l-4.53 0 0 -3.48 4.53 0 0 -9.94 4.31 0 0 9.94 4.53 0 0 3.48 -4.53 0 0 21.23 -4.31 0 0 -21.23zm17.62 -3.48l0 12.16c0,3.55 0.53,6.02 1.58,7.44 1.06,1.41 2.82,2.12 5.33,2.12 2.5,0 4.26,-0.7 5.3,-2.09 1.04,-1.4 1.55,-3.89 1.55,-7.47l0 -12.16 4.31 0 0 14.43c0,3.72 -0.95,6.54 -2.85,8.45 -1.91,1.92 -4.72,2.88 -8.42,2.88 -3.67,0 -6.46,-0.96 -8.36,-2.89 -1.91,-1.92 -2.86,-4.74 -2.86,-8.44l0 -14.43 4.42 0zm45.14 12.49c0,-2.75 -0.76,-4.97 -2.29,-6.65 -1.53,-1.68 -3.55,-2.52 -6.05,-2.52 -2.5,0 -4.45,0.76 -5.85,2.29 -1.41,1.53 -2.11,3.64 -2.11,6.34 0,3.04 0.71,5.42 2.13,7.14 1.43,1.72 3.39,2.58 5.88,2.58 2.6,0 4.63,-0.81 6.09,-2.44 1.47,-1.61 2.2,-3.86 2.2,-6.74zm4.09 -29.62l0 41.84 -4.09 0 0 -4.47c-0.97,1.78 -2.23,3.14 -3.77,4.09 -1.55,0.95 -3.28,1.43 -5.19,1.43 -3.55,0 -6.4,-1.22 -8.57,-3.66 -2.16,-2.44 -3.25,-5.67 -3.25,-9.68 0,-4.04 1.06,-7.28 3.19,-9.68 2.12,-2.41 4.95,-3.62 8.47,-3.62 2.05,0 3.84,0.46 5.35,1.39 1.51,0.93 2.72,2.32 3.66,4.15l0 -21.79 4.2 0zm7.84 5.23c0,-0.84 0.3,-1.56 0.9,-2.17 0.61,-0.6 1.35,-0.9 2.21,-0.9 0.84,0 1.57,0.3 2.18,0.92 0.6,0.61 0.9,1.34 0.9,2.21 0,0.85 -0.3,1.57 -0.89,2.16 -0.59,0.6 -1.33,0.9 -2.19,0.9 -0.86,0 -1.6,-0.3 -2.21,-0.9 -0.6,-0.59 -0.9,-1.33 -0.9,-2.22zm0.99 36.61l0 -24.71 4.26 0 0 24.71 -4.26 0zm15.65 -12.27c0,2.6 0.88,4.81 2.62,6.62 1.75,1.81 3.87,2.72 6.35,2.72 2.46,0 4.56,-0.91 6.3,-2.72 1.72,-1.81 2.58,-4.02 2.58,-6.62 0,-2.61 -0.86,-4.82 -2.58,-6.63 -1.74,-1.81 -3.84,-2.71 -6.3,-2.71 -2.5,0 -4.62,0.9 -6.36,2.71 -1.74,1.81 -2.61,4.02 -2.61,6.63zm-4.47 -0.02c0,-1.82 0.33,-3.53 0.99,-5.14 0.67,-1.6 1.64,-3.04 2.92,-4.3 1.28,-1.26 2.73,-2.22 4.35,-2.88 1.62,-0.65 3.34,-0.98 5.18,-0.98 1.8,0 3.5,0.33 5.12,0.99 1.61,0.68 3.06,1.64 4.38,2.92 1.28,1.25 2.25,2.67 2.92,4.28 0.66,1.61 1,3.31 1,5.11 0,1.8 -0.34,3.5 -1,5.09 -0.67,1.6 -1.64,3.01 -2.92,4.25 -1.32,1.3 -2.78,2.28 -4.41,2.97 -1.63,0.68 -3.33,1.03 -5.09,1.03 -1.82,0 -3.54,-0.35 -5.17,-1.02 -1.63,-0.67 -3.08,-1.64 -4.36,-2.9 -1.28,-1.3 -2.25,-2.73 -2.92,-4.32 -0.66,-1.58 -0.99,-3.28 -0.99,-5.1z"/>
  <g id="_2474200143184">
   <path class="fil2" d="M55.95 0c30.9,0 55.94,25.05 55.94,55.95l0 55.94c-15.45,0 -27.97,-12.52 -27.97,-27.97l0 -27.97c0,-15.45 -12.52,-27.98 -27.97,-27.98 -15.45,0 -27.98,12.53 -27.98,27.98 0,10.35 5.63,19.39 13.99,24.23l0 -24.23c0,-7.7 6.29,-13.99 13.99,-13.99l0 0c7.69,0 13.98,6.29 13.98,13.99l0 33.57 0 19.16 0 3.21 -13.98 0c-4.82,0 -9.49,-0.6 -13.94,-1.75 -0.36,-0.09 -0.72,-0.19 -1.08,-0.28l-0.03 -0.01c-0.36,-0.1 -0.72,-0.21 -1.08,-0.32l-0.09 -0.03c-0.33,-0.1 -0.66,-0.2 -0.99,-0.3l-0.15 -0.05c-0.3,-0.1 -0.6,-0.2 -0.9,-0.31l-0.23 -0.07c-0.28,-0.1 -0.56,-0.2 -0.84,-0.3l-0.23 -0.09c-0.28,-0.11 -0.55,-0.21 -0.83,-0.32l-0.22 -0.09c-0.28,-0.11 -0.56,-0.22 -0.84,-0.34l-0.3 -0.12c-0.26,-0.11 -0.52,-0.22 -0.77,-0.34l-0.33 -0.14c-0.24,-0.11 -0.48,-0.22 -0.72,-0.33l-0.32 -0.15c-0.22,-0.1 -0.44,-0.21 -0.65,-0.31l-0.37 -0.18c-0.21,-0.11 -0.42,-0.22 -0.63,-0.33l-0.41 -0.21c-0.19,-0.1 -0.39,-0.2 -0.58,-0.31 -0.16,-0.08 -0.33,-0.17 -0.49,-0.26 -0.16,-0.09 -0.31,-0.18 -0.47,-0.27 -0.18,-0.1 -0.37,-0.21 -0.56,-0.31 -0.13,-0.08 -0.26,-0.16 -0.39,-0.24 -0.18,-0.1 -0.37,-0.21 -0.55,-0.32 -0.17,-0.11 -0.35,-0.22 -0.53,-0.33 -0.14,-0.09 -0.28,-0.18 -0.42,-0.27 -0.17,-0.1 -0.33,-0.21 -0.5,-0.31 -0.19,-0.13 -0.38,-0.26 -0.57,-0.38l-0.32 -0.22c-0.21,-0.14 -0.41,-0.28 -0.61,-0.42 -14.51,-10.11 -24.01,-26.91 -24.01,-45.93 0,-30.9 25.05,-55.95 55.95,-55.95z"/>
   <path class="fil3" d="M41.96 80.18l0 -24.23c0,-7.7 6.29,-13.99 13.99,-13.99l0 0c7.69,0 13.98,6.29 13.98,13.99l0 18.06 0 6.17 0 3.74 -13.98 0c-5.1,0 -9.87,-1.36 -13.99,-3.74z"/>
  </g>
 </g>
</svg>
