<?xml version="1.0" encoding="UTF-8"?>
<!DOCTYPE svg PUBLIC "-//W3C//DTD SVG 1.1//EN" "http://www.w3.org/Graphics/SVG/1.1/DTD/svg11.dtd">
<!-- Creator: CorelDRAW 2018 (64-Bit) -->
<svg xmlns="http://www.w3.org/2000/svg" xml:space="preserve" width="46.1154mm" height="57.7423mm" version="1.1" style="shape-rendering:geometricPrecision; text-rendering:geometricPrecision; image-rendering:optimizeQuality; fill-rule:evenodd; clip-rule:evenodd"
viewBox="0 0 286.88 359.21"
 xmlns:xlink="http://www.w3.org/1999/xlink">
 <defs>
  <style type="text/css">
   <![CDATA[
    .str0 {stroke:#F8B901;stroke-width:1.24;stroke-miterlimit:22.9256}
    .fil20 {fill:#F8B901}
    .fil21 {fill:#F49F0A}
    .fil22 {fill:#F6C2A6}
    .fil6 {fill:#484869;fill-rule:nonzero}
    .fil8 {fill:#99A7D8;fill-rule:nonzero}
    .fil16 {fill:#D3DAED;fill-rule:nonzero}
    .fil3 {fill:#EBE8EB;fill-rule:nonzero}
    .fil19 {fill:#F2B1B5;fill-rule:nonzero}
    .fil1 {fill:#F9F6F9;fill-rule:nonzero}
    .fil17 {fill:white;fill-rule:nonzero}
    .fil4 {fill:#CBCBCB;fill-rule:nonzero}
    .fil18 {fill:#99A7D8;fill-rule:nonzero;fill-opacity:0.301961}
    .fil2 {fill:url(#id0);fill-rule:nonzero}
    .fil0 {fill:url(#id1);fill-rule:nonzero}
    .fil5 {fill:url(#id2);fill-rule:nonzero}
    .fil10 {fill:url(#id3);fill-rule:nonzero}
    .fil15 {fill:url(#id4);fill-rule:nonzero}
    .fil13 {fill:url(#id5);fill-rule:nonzero}
    .fil11 {fill:url(#id6);fill-rule:nonzero}
    .fil12 {fill:url(#id7);fill-rule:nonzero}
    .fil7 {fill:url(#id8);fill-rule:nonzero}
    .fil14 {fill:url(#id9);fill-rule:nonzero}
    .fil9 {fill:url(#id10);fill-rule:nonzero}
   ]]>
  </style>
  <linearGradient id="id0" gradientUnits="userSpaceOnUse" x1="116.79" y1="294.85" x2="116.2" y2="216.89">
   <stop offset="0" style="stop-opacity:1; stop-color:#FDFDFE"/>
   <stop offset="0.529412" style="stop-opacity:1; stop-color:#EEF0F8"/>
   <stop offset="1" style="stop-opacity:1; stop-color:#DEE2F2"/>
  </linearGradient>
  <linearGradient id="id1" gradientUnits="userSpaceOnUse" xlink:href="#id0" x1="180.83" y1="280.54" x2="62.51" y2="280.54">
  </linearGradient>
  <linearGradient id="id2" gradientUnits="userSpaceOnUse" x1="229.79" y1="154.62" x2="-0" y2="154.62">
   <stop offset="0" style="stop-opacity:1; stop-color:#4D4D70"/>
   <stop offset="0.411765" style="stop-opacity:1; stop-color:#555787"/>
   <stop offset="1" style="stop-opacity:1; stop-color:#5E619F"/>
  </linearGradient>
  <linearGradient id="id3" gradientUnits="userSpaceOnUse" x1="44.99" y1="152.05" x2="146.2" y2="92.72">
   <stop offset="0" style="stop-opacity:1; stop-color:#F49E0B"/>
   <stop offset="0.141176" style="stop-opacity:1; stop-color:#F49E0B"/>
   <stop offset="1" style="stop-opacity:1; stop-color:#FBC800"/>
  </linearGradient>
  <linearGradient id="id4" gradientUnits="userSpaceOnUse" xlink:href="#id3" x1="50.56" y1="161.53" x2="151.75" y2="102.2">
  </linearGradient>
  <linearGradient id="id5" gradientUnits="userSpaceOnUse" xlink:href="#id3" x1="75.92" y1="204.8" x2="177.12" y2="145.47">
  </linearGradient>
  <linearGradient id="id6" gradientUnits="userSpaceOnUse" xlink:href="#id3" x1="55.37" y1="169.75" x2="156.58" y2="110.41">
  </linearGradient>
  <linearGradient id="id7" gradientUnits="userSpaceOnUse" xlink:href="#id3" x1="75.96" y1="204.86" x2="177.14" y2="145.53">
  </linearGradient>
  <linearGradient id="id8" gradientUnits="userSpaceOnUse" xlink:href="#id3" x1="35.26" y1="135.46" x2="136.47" y2="76.12">
  </linearGradient>
  <linearGradient id="id9" gradientUnits="userSpaceOnUse" xlink:href="#id3" x1="66.1" y1="188.05" x2="167.3" y2="128.71">
  </linearGradient>
  <linearGradient id="id10" gradientUnits="userSpaceOnUse" xlink:href="#id3" x1="65.63" y1="187.25" x2="166.83" y2="127.91">
  </linearGradient>
 </defs>
 <g id="Layer_x0020_1">
  <metadata id="CorelCorpID_0Corel-Layer"/>
  <g id="_2944331266976">
   <polygon class="fil0" points="102.05,315 180.83,269.2 180.83,264.33 142.36,246.08 62.51,287.31 62.51,292.18 "/>
   <polygon class="fil1" points="102.05,310.14 180.83,264.33 142.36,241.21 62.51,287.31 "/>
   <path class="fil2" d="M84.53 294.49l-0.27 -96.7c0,-5.95 4.2,-13.27 9.34,-16.27l45.33 -26.51c5.14,-3 9.34,-0.59 9.34,5.35l0 99.37 -58.59 37.04 -5.14 -2.28z"/>
   <path class="fil3" d="M89.67 296.76l0 -98.98c0,-5.95 4.2,-13.27 9.34,-16.27l45.33 -26.51c5.13,-3 9.33,-0.59 9.33,5.35l0 99.37 -64 37.04z"/>
   <path class="fil4" d="M99.01 181.51l45.33 -26.51c5.13,-3 9.33,-0.59 9.33,5.35l0 78.28 -63.99 37.05 0 -77.89c0,-5.95 4.2,-13.27 9.33,-16.27z"/>
   <path class="fil5" d="M226.62 2.99c2.02,1.85 3.17,4.46 3.17,7.2l0 162.24c0,5.95 -4.21,13.25 -9.36,16.22l-205.67 119.1c-2.61,1.51 -6.42,2.09 -9.13,0.75l-1.46 -0.72c-2.55,-1.27 -4.17,-3.87 -4.17,-6.72l0 -165.03c0,-5.95 4.21,-13.25 9.37,-16.22l203.81 -118.26c4.32,-2.5 9.76,-1.92 13.44,1.44z"/>
   <path class="fil6" d="M220.43 4.31c5.15,-2.97 9.36,-0.54 9.36,5.41l0 163.19c0,5.95 -4.21,13.25 -9.36,16.22l-205.65 118.73c-5.15,2.97 -9.36,0.54 -9.36,-5.41l0 -163.19c0,-5.95 4.21,-13.25 9.36,-16.22l205.65 -118.73z"/>
   <polygon class="fil6" points="221.49,18.24 221.49,141.81 15.12,259.91 15.12,135.26 "/>
   <path class="fil1" d="M220.43 189.13l-205.65 118.73c-5.15,2.97 -9.36,0.54 -9.36,-5.41l0 -26.25 224.38 -129.91 0 26.62c0,5.95 -4.21,13.25 -9.36,16.22z"/>
   <polygon class="fil7" points="109.49,89.16 73.84,109.74 73.84,115.62 109.49,95.04 "/>
   <polygon class="fil8" points="207.61,42.87 94.78,108.56 94.78,114.44 207.61,48.75 "/>
   <polygon class="fil8" points="205.76,91.15 92.93,156.85 92.93,162.73 205.76,97.03 "/>
   <polygon class="fil8" points="207.79,136.82 94.96,202.51 94.96,208.39 207.79,142.7 "/>
   <polygon class="fil8" points="85.86,113.71 50.22,134.29 50.22,140.17 85.86,119.59 "/>
   <polygon class="fil8" points="78.29,129.54 61.44,139.34 61.44,145.22 78.29,135.42 "/>
   <polygon class="fil9" points="88.06,171.2 71.2,181 71.2,186.88 88.06,177.08 "/>
   <polygon class="fil10" points="100.09,116.85 83.24,126.65 83.24,132.53 100.09,122.73 "/>
   <polygon class="fil8" points="188.69,65.62 110,110.97 110,116.85 188.69,71.5 "/>
   <polygon class="fil8" points="212.02,111.49 133.33,156.85 133.33,162.73 212.02,117.38 "/>
   <polygon class="fil8" points="189.29,89.46 110.6,134.81 110.6,140.69 189.29,95.34 "/>
   <polygon class="fil8" points="71.2,145.72 50.22,157.8 50.22,163.68 71.2,151.61 "/>
   <polygon class="fil11" points="68.04,159.38 60.71,163.68 60.71,169.56 68.04,165.26 "/>
   <polygon class="fil12" points="113.67,179.81 106.34,184.11 106.34,189.99 113.67,185.69 "/>
   <polygon class="fil13" points="124.75,173.23 117.41,177.54 117.41,183.42 124.75,179.11 "/>
   <polygon class="fil14" points="135.24,144.57 127.91,148.87 127.91,154.75 135.24,150.45 "/>
   <polygon class="fil8" points="106.09,137.38 70.44,157.96 70.44,163.84 106.09,143.26 "/>
   <polygon class="fil15" points="149.95,100.48 114.3,121.06 114.3,126.94 149.95,106.36 "/>
   <polygon class="fil8" points="130.61,158.44 94.96,179.02 94.96,184.9 130.61,164.32 "/>
   <polygon class="fil8" points="111.03,122.78 75.38,143.36 75.38,149.24 111.03,128.66 "/>
   <polygon class="fil8" points="88.26,159.38 52.62,179.96 52.62,185.84 88.26,165.26 "/>
   <polygon class="fil8" points="125.96,149.66 90.31,170.24 90.31,176.12 125.96,155.54 "/>
   <polygon class="fil8" points="90.3,181.72 54.65,202.3 54.65,208.18 90.3,187.6 "/>
   <polygon class="fil8" points="103.44,185.84 67.8,206.42 67.8,212.3 103.44,191.72 "/>
   <polygon class="fil8" points="90.3,205.25 54.65,225.83 54.65,231.71 90.3,211.13 "/>
   <polygon class="fil8" points="37.42,129.96 31.33,133.48 31.33,139.36 37.42,135.84 "/>
   <polygon class="fil8" points="37.42,141.73 31.33,145.25 31.33,151.12 37.42,147.61 "/>
   <polygon class="fil8" points="37.42,153.49 31.33,157.01 31.33,162.89 37.42,159.37 "/>
   <polygon class="fil8" points="37.42,165.26 31.33,168.78 31.33,174.66 37.42,171.14 "/>
   <polygon class="fil8" points="37.42,177.02 31.33,180.54 31.33,186.42 37.42,182.9 "/>
   <polygon class="fil8" points="37.42,188.79 31.33,192.31 31.33,198.19 37.42,194.67 "/>
   <polygon class="fil8" points="37.42,200.55 31.33,204.07 31.33,209.95 37.42,206.43 "/>
   <polygon class="fil8" points="37.42,212.32 31.33,215.84 31.33,221.72 37.42,218.2 "/>
   <polygon class="fil8" points="37.42,224.08 31.33,227.6 31.33,233.48 37.42,229.96 "/>
   <polygon class="fil8" points="37.42,235.85 31.33,239.37 31.33,245.25 37.42,241.73 "/>
   <polygon class="fil8" points="149.95,65.62 114.3,86.2 114.3,92.08 149.95,71.5 "/>
   <path class="fil16" d="M163.64 148.82l31.52 -2.96c14.58,-1.37 27.64,-9.76 34.95,-22.45l14.32 -24.85c2.12,-3.68 0.86,-8.39 -2.83,-10.51 -3.68,-2.12 -8.39,-0.86 -10.51,2.83l-14.33 24.85c-4.82,8.37 -13.44,13.9 -23.05,14.81l-30.08 2.83 0 15.46z"/>
   <path class="fil16" d="M222.16 131.96c3.1,0 6.11,-1.6 7.78,-4.47l14.4 -24.71c2.5,-4.29 1.05,-9.8 -3.24,-12.3 -4.29,-2.5 -9.8,-1.05 -12.3,3.24l-14.4 24.71c-2.5,4.29 -1.05,9.8 3.24,12.3 1.42,0.83 2.98,1.22 4.52,1.22z"/>
   <path class="fil6" d="M253.14 292.84l10.28 17.48c0.86,1.84 0.67,4 -0.49,5.66l-10.29 14.7 -6.09 5.18c-2.82,4.03 -7.74,4.22 -12.64,3.79l-6.4 -0.4c-1.24,-0.08 -2.35,-0.83 -2.87,-1.96l-2.35 -5.03c-0.35,-1.12 1.7,1.6 2.46,0.51l12.27 -11.75 0.27 -8.19 -3.46 -10.51 19.29 -9.5z"/>
   <path class="fil1" d="M256.21 294.87l5.38 11.53c0.86,1.84 0.67,4 -0.49,5.66l-11.28 16.12 -3.61 3.71c-2.82,4.03 -9.23,4.27 -14.12,3.84l-6.19 -0.54c-3.1,-0.27 -4.74,-3.79 -2.96,-6.34l7.32 -4.67 4.95 -7.07 -1.79 -10.47 0.92 -0.14 21.86 -11.64z"/>
   <path class="fil6" d="M251.02 292.55c5.77,0.55 7.75,4.9 4.42,9.66 -3.33,4.77 -10.72,8.26 -16.41,7.77 -5.69,-0.5 -7.68,-4.84 -4.42,-9.66 3.26,-4.82 10.64,-8.31 16.41,-7.77z"/>
   <path class="fil17" d="M248.53 296.15c3.37,0.32 4.53,2.86 2.58,5.65 -1.95,2.79 -6.27,4.83 -9.59,4.54 -3.33,-0.29 -4.49,-2.83 -2.58,-5.65 1.91,-2.82 6.22,-4.86 9.59,-4.54z"/>
   <path class="fil6" d="M276.7 319.8l1.92 20.19c0,2.03 -1.08,3.91 -2.84,4.92l-21.56 12.45c-4.26,2.46 -9.5,2.46 -13.76,0l-5.63 -3.07c-1.1,-0.6 -1.78,-1.74 -1.78,-2.99l0 -5.55c0.16,-1.16 0.86,2.17 2.02,1.5l15.1 -8.72 3.7 -7.3 1.31 -10.99 21.5 -0.45z"/>
   <path class="fil1" d="M278.62 322.94l0 12.73c0,2.03 -1.08,3.91 -2.84,4.92l-21.56 12.45c-4.26,2.46 -9.5,2.46 -13.76,0l-5.38 -3.11c-2.69,-1.55 -2.69,-5.44 0,-6.99l15.1 -8.72 2.81 -10.24 0.9 0.27 24.73 -1.3z"/>
   <path class="fil6" d="M274.9 318.64c4.99,2.93 4.95,7.72 -0.08,10.62 -5.04,2.91 -13.21,2.95 -18.15,0.09 -4.95,-2.86 -4.91,-7.64 0.08,-10.62 4.99,-2.99 13.16,-3.03 18.15,-0.1z"/>
   <path class="fil17" d="M271.12 320.85c2.92,1.72 2.9,4.51 -0.05,6.21 -2.94,1.7 -7.72,1.73 -10.61,0.06 -2.89,-1.67 -2.87,-4.46 0.05,-6.21 2.92,-1.75 7.69,-1.77 10.61,-0.06z"/>
   <path class="fil6" d="M227.71 151.01l0 41.41 37.35 21.57c6.98,4.03 15.73,-0.9 15.9,-8.97l0.46 -23.25 -53.71 -30.76z"/>
   <path class="fil6" d="M265.83 329.65c-6.03,0 -10.92,-4.89 -10.92,-10.92l-9.39 -137.34c0,-6.03 14.28,-8.42 20.31,-8.42 6.03,0 10.93,4.89 10.93,10.92l0 134.84c0,6.03 -4.89,10.92 -10.93,10.92z"/>
   <path class="fil6" d="M242.58 309.04c-3.73,0 -7.36,-1.91 -9.4,-5.34l-26.81 -45.09c-3.06,-5.15 -3.7,-11.38 -1.76,-17.04l22.21 -64.63c1.96,-5.71 8.18,-8.74 13.88,-6.78 5.71,1.96 15.32,12.6 13.36,18.3l-26.32 54.21c-1.41,3.37 -1.14,7.21 0.72,10.35l23.49 39.51c3.08,5.19 1.38,11.89 -3.81,14.97 -1.75,1.04 -3.67,1.54 -5.57,1.54z"/>
   <path class="fil16" d="M246.82 84.34l22.59 12.55c5.3,2.95 6.74,8.83 8.59,14.61 7.54,23.52 5.01,81.45 5.01,81.45 -13.88,8.35 -50.92,2.12 -59.61,-11.54 0,0 7.24,-30.51 0.93,-49.36 -3.02,-3.45 -4.13,-8.17 -2.97,-12.61l2.96 -11.27 -0.01 -10.58c-0.01,-11.56 12.41,-18.86 22.51,-13.25z"/>
   <path class="fil18" d="M266.42 195.62c5.23,0.39 10.03,3.61 13.8,2.25l3 -40.22c-0.01,-0.16 -0.01,-0.33 -0.01,-0.49l-18.78 -55.27c-1.26,-3.68 -4.75,-4.36 -8.42,-2.9 -3.44,1.37 -3.05,4.15 -1.87,7.65l12.15 43.18c2.07,6.08 2.89,12.52 2.41,18.93l-2.27 26.88z"/>
   <path class="fil16" d="M275.96 211.24c-0.19,0 -0.38,-0.01 -0.57,-0.02 -4.16,-0.3 -7.29,-3.73 -6.97,-7.69l2.9 -36.94c0.53,-6.73 -0.38,-13.49 -2.67,-19.88l-16.24 -45.36c-1.32,-3.68 0.41,-7.9 4.21,-9.34 4.06,-1.53 8.58,0.48 9.96,4.35l17.97 50.18c1.89,5.28 2.64,10.87 2.2,16.44l-3.26 41.62c-0.3,3.77 -3.61,6.64 -7.53,6.64z"/>
   <path class="fil16" d="M271.31 144.13c-3.41,0 -6.6,-2.15 -7.76,-5.56l-10.83 -31.86c-1.46,-4.28 0.84,-8.94 5.12,-10.39 4.28,-1.46 8.94,0.83 10.39,5.12l10.83 31.85c1.46,4.29 -0.84,8.94 -5.12,10.4 -0.87,0.3 -1.76,0.44 -2.64,0.44z"/>
   <path class="fil19" d="M284.34 207.24c0,4.25 -3.44,7.69 -7.69,7.69 -4.25,0 -7.69,-3.44 -7.69,-7.69 0,-4.25 3.44,-7.69 7.69,-7.69 4.25,0 7.69,3.44 7.69,7.69z"/>
   <path class="fil19" d="M272.22 205.38l-2.12 3.33c-0.52,0.82 -1.61,1.06 -2.43,0.54 -0.82,-0.52 -1.06,-1.61 -0.54,-2.43l2.12 -3.33c0.52,-0.82 1.61,-1.06 2.43,-0.54 0.82,0.52 1.06,1.61 0.54,2.43z"/>
   <path class="fil19" d="M150.02 140.57l15.17 -2.02c1.1,-0.15 1.87,-1.16 1.73,-2.26l-0.01 -0.07c-0.15,-1.1 -1.16,-1.88 -2.26,-1.73l-15.16 2.02c-1.1,0.15 -1.88,1.16 -1.73,2.26l0.01 0.07c0.15,1.1 1.16,1.88 2.26,1.73z"/>
   <path class="fil19" d="M160.84 131.77l4.66 7.67 2.62 -3.57 -3.78 -6.22c-0.58,-0.95 -1.82,-1.25 -2.76,-0.68l-0.06 0.04c-0.95,0.58 -1.25,1.81 -0.67,2.76z"/>
   <path class="fil20" d="M231.84 101.33c1.05,-0.13 2,1.29 4.98,1.56 4.64,0.43 7.38,-0.43 11.3,-2.18 0.64,-0.29 1.79,-1.26 2.26,-1.02 1.1,0.58 -2.89,5.4 -9.94,6.52 -4.9,0.78 -9.14,-2.48 -8.61,-4.88zm25.04 -49.82c1.1,2.33 2.28,3 3.76,7.2 0.9,2.57 1.93,6.47 1.78,9.42 -0.19,3.73 0,6.31 -1.26,9.77 -1.74,4.77 -2.24,5.11 -5.07,8.84 -0.39,0.51 -0.18,0.35 -0.63,0.71 -0.46,0.37 -0.37,0.24 -0.82,0.7 -2.77,2.82 -7.42,4.67 -11.4,5.35 -3.76,0.64 -6.01,0.39 -9.01,-1.33 -0.74,-0.42 -0.95,-0.47 -1.56,-1.1 -0.51,-0.52 -0.89,-0.89 -1.35,-1.52 -0.88,-1.22 -1.29,-2.13 -2.04,-3.66 -2.58,-5.24 -2.1,-13.89 -2.38,-20.04 -0.4,-8.95 4.22,-19.79 15.27,-17.67 2.42,0.46 3.01,0.96 4.97,1.91 0.81,0.4 0.24,0.04 0.89,0.64 3.73,3.44 3.25,2.4 6.99,7.11 0.99,1.24 2.59,3.89 3.03,5.38 0.07,0.25 0.23,0.81 0.3,1 0.29,0.72 0.21,0.63 0.96,0.72 0.48,-2.85 -1.56,-8.02 -2.77,-10.7 -0.51,-1.13 -1.83,-2.57 0.34,-2.73zm-18.41 69.05c3.73,-0.23 6.22,-0.48 9.48,-2.87 2.45,-1.8 4.1,-4.13 6.02,-6.56l4.53 -5.95c2.16,-2.59 5.02,-6.09 9.42,-4.73 2.67,0.82 6.16,4.91 7.31,8.31 0.22,0.64 -0.04,0.32 0.4,0.72 0.83,-0.82 1.02,-0.94 1.65,-1.92 1.68,-2.6 1.29,-6.57 0.74,-9.43 -0.77,-4.03 -1.97,-7.73 -3.01,-11.66 -2.12,-8.03 -3.21,-16.56 -4.21,-25.15 -0.84,-7.21 -1.28,-11.08 -4.97,-16.97 -8.42,-13.45 -33.79,-14.83 -39.24,7.36 -1.93,7.84 -1.01,19.77 -1.27,28.25 -0.38,12.14 -6.93,30.92 1.8,37.04 2.81,1.97 6.9,3.76 11.33,3.55z"/>
   <path class="fil21 str0" d="M256.88 51.51c-2.16,0.15 -0.84,1.6 -0.34,2.73 1.21,2.69 3.25,7.86 2.77,10.7 -0.75,-0.09 -0.67,-0 -0.96,-0.72 -0.08,-0.19 -0.23,-0.75 -0.3,-1 -0.44,-1.48 -2.04,-4.13 -3.03,-5.38 -3.75,-4.7 -3.26,-3.66 -6.99,-7.11 -0.65,-0.6 -0.08,-0.24 -0.89,-0.64 -1.96,-0.96 -2.55,-1.45 -4.97,-1.91 -11.05,-2.12 -15.67,8.72 -15.27,17.67 0.28,6.15 -0.2,14.8 2.38,20.04 0.75,1.53 1.17,2.44 2.04,3.66 0.46,0.63 0.84,1 1.35,1.52 0.61,0.63 0.83,0.67 1.56,1.1 3,1.72 5.24,1.97 9.01,1.33 3.98,-0.68 8.63,-2.53 11.4,-5.35 0.45,-0.46 0.36,-0.33 0.82,-0.7 0.45,-0.36 0.24,-0.2 0.63,-0.71 2.83,-3.73 3.32,-4.06 5.07,-8.84 1.27,-3.46 1.07,-6.04 1.26,-9.77 0.15,-2.95 -0.88,-6.85 -1.78,-9.42 -1.48,-4.2 -2.66,-4.87 -3.76,-7.2z"/>
   <path class="fil21" d="M231.84 101.33c-0.53,2.41 3.7,5.66 8.61,4.88 7.05,-1.12 11.04,-5.94 9.94,-6.52 -0.47,-0.24 -1.61,0.73 -2.26,1.02 -3.92,1.75 -6.67,2.61 -11.3,2.18 -2.98,-0.28 -3.93,-1.69 -4.98,-1.56z"/>
   <path class="fil22" d="M229.4 79.3c0.19,1.09 0.73,2.71 1.42,3.2 0.24,0.59 -0.13,-0.02 0.3,0.61 0.26,0.39 0.02,0.07 0.33,0.34l-0.06 -0.06c0.64,1.38 2.47,2.86 3.93,3.69 8.49,4.8 21.81,-1.97 21.91,-12.46 0.02,-2.25 -0.49,-4.53 -1.06,-6.49 -4.24,-8.53 0,0 -4.24,-8.53 -1.93,-3.23 -4.4,-6.53 -7.96,-8.06 -3.13,-1.34 -5.72,-1.37 -8.83,-0.04 -2.03,0.87 -4.42,3.45 -5.09,5.71 -0.82,0.85 -1.55,3.66 -1.68,5.09 -0.18,1.57 0,0 -0.18,1.57 -0.33,4.3 0.04,11.68 1.21,15.44z"/>
   <path class="fil19" d="M170.85 141.75c0,4.25 -3.44,7.69 -7.69,7.69 -4.25,0 -7.69,-3.44 -7.69,-7.69 0,-4.25 3.44,-7.69 7.69,-7.69 4.25,0 7.69,3.44 7.69,7.69z"/>
  </g>
 </g>
</svg>
