<?xml version="1.0" encoding="UTF-8"?>
<!DOCTYPE svg PUBLIC "-//W3C//DTD SVG 1.1//EN" "http://www.w3.org/Graphics/SVG/1.1/DTD/svg11.dtd">
<!-- Creator: CorelDRAW 2020 (64-Bit) -->
<svg xmlns="http://www.w3.org/2000/svg" xml:space="preserve" width="69.6178mm" height="77.668mm" version="1.1" style="shape-rendering:geometricPrecision; text-rendering:geometricPrecision; image-rendering:optimizeQuality; fill-rule:evenodd; clip-rule:evenodd"
viewBox="0 0 1114.31 1243.16"
 xmlns:xlink="http://www.w3.org/1999/xlink"
 xmlns:xodm="http://www.corel.com/coreldraw/odm/2003">
 <defs>
  <style type="text/css">
   <![CDATA[
    .fil1 {fill:#36364F;fill-rule:nonzero}
    .fil10 {fill:#413F42;fill-rule:nonzero}
    .fil3 {fill:#484869;fill-rule:nonzero}
    .fil0 {fill:#5B629E;fill-rule:nonzero}
    .fil8 {fill:#6D6D87;fill-rule:nonzero}
    .fil12 {fill:#99A7D8;fill-rule:nonzero}
    .fil9 {fill:#D6DCEF;fill-rule:nonzero}
    .fil11 {fill:#E6E6E8;fill-rule:nonzero}
    .fil7 {fill:#EF9EA3;fill-rule:nonzero}
    .fil5 {fill:#F2B1B5;fill-rule:nonzero}
    .fil6 {fill:#F5C5C8;fill-rule:nonzero}
    .fil13 {fill:#FFC107;fill-rule:nonzero}
    .fil2 {fill:white;fill-rule:nonzero}
    .fil4 {fill:#231F1F;fill-rule:nonzero;fill-opacity:0.301961}
    .fil16 {fill:url(#id0);fill-rule:nonzero}
    .fil15 {fill:url(#id1);fill-rule:nonzero}
    .fil14 {fill:url(#id2);fill-rule:nonzero}
   ]]>
  </style>
  <linearGradient id="id0" gradientUnits="userSpaceOnUse" x1="806.07" y1="1098.04" x2="1035.75" y2="1098.04">
   <stop offset="0" style="stop-opacity:1; stop-color:#F49E0B"/>
   <stop offset="0.141176" style="stop-opacity:1; stop-color:#F49E0B"/>
   <stop offset="1" style="stop-opacity:1; stop-color:#FBC800"/>
  </linearGradient>
  <linearGradient id="id1" gradientUnits="userSpaceOnUse" xlink:href="#id0" x1="576.39" y1="1098.04" x2="806.08" y2="1098.04">
  </linearGradient>
  <linearGradient id="id2" gradientUnits="userSpaceOnUse" xlink:href="#id0" x1="576.39" y1="982" x2="1035.75" y2="982">
  </linearGradient>
 </defs>
 <g id="Layer_x0020_1">
  <metadata id="CorelCorpID_0Corel-Layer"/>
  <g id="_2819106430400">
   <path class="fil0" d="M277.61 530.33c5.02,0 10.1,-1.59 14.39,-4.86 10.49,-7.96 12.52,-22.92 4.57,-33.4l-50.06 -65.86 -20.17 -150.56c-1.74,-13.04 -13.77,-22.16 -26.79,-20.46 -13.04,1.75 -22.2,13.74 -20.45,26.79l21.85 163.03 57.66 75.9c4.68,6.17 11.79,9.41 18.99,9.41z"/>
   <path class="fil1" d="M148.43 1093.02l0 25.43c0,6.99 3.61,13.47 9.56,17.15l77.34 47.79c8.02,4.95 18.13,4.98 26.17,0.1l23.67 -13.4c4.7,-2.67 7.6,-7.66 7.58,-13.06l-0.06 -14.62c0,0 -3.19,1.14 -8.02,-1.79l-51.47 -31.18 0 -16.42 -84.78 0z"/>
   <path class="fil0" d="M148.43 1078.84l0 25.43c0,6.99 3.61,13.48 9.56,17.14l77.34 47.79c8.02,4.95 18.13,4.99 26.17,0.1l23.19 -14.09c10.8,-6.55 10.79,-22.23 -0.01,-28.77l-51.47 -31.19 0 -16.42 -84.78 0z"/>
   <polygon class="fil2" points="200.56,1127.66 200.56,1122.54 230.31,1105.36 230.37,1110.02 "/>
   <polygon class="fil2" points="211.77,1137.62 211.77,1132.73 241.53,1115.55 241.71,1119.9 "/>
   <polygon class="fil2" points="226.65,1148.08 226.65,1143.17 256.41,1125.99 256.25,1130.88 "/>
   <path class="fil3" d="M160.81 1096.17c-16.51,-9.53 -16.51,-25.13 0,-34.66 16.51,-9.53 43.52,-9.53 60.02,0 16.51,9.53 16.51,25.13 0,34.66 -16.51,9.53 -43.52,9.53 -60.02,0z"/>
   <path class="fil1" d="M171.02 1090.27c-10.89,-6.29 -10.89,-16.58 0,-22.86 10.89,-6.29 28.71,-6.29 39.61,0 10.89,6.29 10.89,16.58 0,22.86 -10.89,6.28 -28.71,6.28 -39.61,0z"/>
   <path class="fil1" d="M38.98 1149.05l0 25.43c0,6.99 3.62,13.48 9.56,17.15l77.34 47.79c8.01,4.95 18.12,4.99 26.17,0.1l23.68 -13.41c4.7,-2.66 7.59,-7.65 7.58,-13.05l-0.06 -14.61c0,0 -3.19,1.13 -8.01,-1.79l-51.47 -31.19 0 -16.42 -84.79 0z"/>
   <path class="fil0" d="M38.98 1134.88l0 25.44c0,6.98 3.62,13.47 9.56,17.14l77.34 47.79c8.01,4.95 18.12,4.99 26.17,0.1l23.2 -14.09c10.79,-6.55 10.79,-22.22 -0.01,-28.77l-51.47 -31.19 0 -16.42 -84.79 0z"/>
   <polygon class="fil2" points="91.11,1183.7 91.11,1178.57 120.87,1161.39 120.93,1166.06 "/>
   <polygon class="fil2" points="102.33,1193.65 102.33,1188.77 132.08,1171.59 132.26,1175.94 "/>
   <polygon class="fil2" points="117.21,1204.12 117.21,1199.21 146.96,1182.03 146.8,1186.91 "/>
   <path class="fil3" d="M51.36 1152.2c-16.51,-9.53 -16.51,-25.13 0,-34.65 16.51,-9.53 43.52,-9.53 60.03,0 16.51,9.52 16.51,25.12 0,34.65 -16.51,9.53 -43.52,9.53 -60.03,0z"/>
   <path class="fil1" d="M61.57 1143.32c-10.89,-6.29 -10.89,-16.58 0,-22.86 10.89,-6.29 28.71,-6.29 39.6,0 10.89,6.28 10.89,16.57 0,22.86 -10.89,6.29 -28.71,6.29 -39.6,0z"/>
   <path class="fil3" d="M188.91 1092.21c17.29,0 31.98,3.51 33.41,-14.03l16.97 -273.88 -16.92 -294.58c-1.06,-18.52 -16.69,-32.63 -35.43,-31.6 -18.5,1.07 -74.6,16.93 -73.54,35.43l50.2 289.93 -8.19 269.2c-1.51,18.48 12.23,17.91 30.7,19.42 0.93,0.08 1.86,0.11 2.78,0.11z"/>
   <path class="fil3" d="M79.13 1143.95c18.53,0 33.56,1.75 33.56,-16.78l47.97 -596.25c0,-18.54 -63,-1.1 -81.54,-1.1 -18.53,0 -33.56,15.03 -33.56,33.57l0 563.79c0,18.53 15.02,16.78 33.56,16.78z"/>
   <path class="fil4" d="M200.95 445.02l-21.85 -163.03c-1.75,-13.05 7.4,-25.04 20.45,-26.79 13.02,-1.7 25.05,7.41 26.79,20.46l19.37 144.58c-1.41,25.57 -2.13,52.78 -0.76,82.7l-44 -57.92z"/>
   <path class="fil0" d="M150.64 179.84l-20.28 11.7c-67.27,38.84 -101.81,89.56 -97.22,167.1 5.25,88.68 -1.82,268.52 -1.82,268.52 113.35,0 205.14,-50.9 205.14,-50.9 -17.91,-114.2 -0.8,-189.43 -0.8,-266.06 0.01,-76.84 -36.42,-158.42 -85.01,-130.36z"/>
   <path class="fil5" d="M141.35 247.25c-12.93,0 -23.42,-10.48 -23.42,-23.42l0 -53.16 46.83 0 0 53.17c0,12.93 -10.48,23.41 -23.42,23.41z"/>
   <polygon class="fil2" points="117.94,193.2 105.05,200.04 124.7,310.2 150.98,245.14 "/>
   <polygon class="fil2" points="150.98,245.14 164.77,175.35 170.75,175.35 197.27,267.82 "/>
   <path class="fil5" d="M129.12 181.52l-12.98 -2.59c-17.88,-3.57 -29.48,-20.96 -25.91,-38.84l21.88 -109.62 128.86 25.73 -11.68 58.48c-9.21,46.12 -54.05,76.04 -100.18,66.84z"/>
   <path class="fil6" d="M112.11 30.48l-0.37 1.88 119.43 23.84 -11.93 59.78c-7.63,38.2 -40.11,65.01 -77.26,67.19 41.11,2.43 78.78,-25.67 87.07,-67.19l11.93 -59.78 -128.86 -25.73z"/>
   <path class="fil3" d="M148.87 79.01c-9.9,3.82 -18.29,15.38 -20.75,24.89 -1.93,7.5 0.55,10.52 4.13,17.09 2.04,3.72 3.58,8.08 2.48,12.18 -0.12,0.47 -0.3,0.95 -0.65,1.28 -0.38,0.36 -0.89,0.51 -1.41,0.57 -4.25,0.59 -7.78,-3.09 -10.41,-6.5 -3.99,-5.17 -9.47,-9.9 -15.41,-4.42 -6.45,5.95 -2.28,12.57 0.24,18.72 3.04,7.42 6.66,23.71 -1.53,29.59 -6.57,4.71 -20.96,-1.43 -26.87,-5.13 -0.9,-0.57 -1.78,-1.17 -2.62,-1.82 -17.57,-13.73 -14.91,-40.92 -17.61,-60.6 -2.21,-16.04 1.9,-29.66 4.09,-45.18 2.14,-15.1 1.68,-29.06 12.81,-41.19 10.19,-11.1 29.28,-14.84 40.46,-4.74 6.19,-7.89 16.19,-12.06 26.15,-13.27 9.96,-1.22 20.03,0.18 29.96,1.59 19.29,2.71 32.22,8.19 48.1,18.74 7.45,4.95 13.2,12.04 19.56,18.24 6.24,6.08 6.07,13.97 4.32,22.34 -1.97,9.4 -6.27,18.13 -10.54,26.73 -0.93,-0.83 -1.34,-2.09 -1.72,-3.28 -2.65,-8.48 -2.75,-15.72 -9.12,-22.53 -5.96,-6.37 -11.46,-5.02 -19.46,-2.14 -2.29,0.82 -4.55,1.82 -6.43,3.36 -5.03,4.11 -3.71,10.66 -9.58,14.47 -4.71,3.05 -10.78,2.88 -16.3,1.93 -5.52,-0.96 -11.04,-2.61 -16.62,-2.15 -1.8,0.15 -3.57,0.57 -5.29,1.24z"/>
   <path class="fil4" d="M33.48 364.96l17.26 -47.75c4.49,-12.37 18.08,-18.77 30.52,-14.31 12.38,4.48 -24.03,166.44 -24.03,166.44 -5.27,14.6 15.94,38.76 28.85,47.38l38.88 32.82c3.84,2.99 6.5,6.92 7.94,11.21l1.85 1.43 39.54 4.48c3.19,0.36 5.48,3.24 5.13,6.44 -0.36,3.19 -3.24,5.49 -6.44,5.13l-20.61 -2.34 12.02 9.35c3.71,2.89 5.83,6.9 6.84,11.15l4.32 2.54c0.97,0.57 1.61,1.41 2.1,2.33 -12.32,4.26 -26.33,8.5 -41.53,12.32l-27.75 -21.61c-4.46,-0.37 -8.87,-1.84 -12.67,-4.8l-60.71 -47.21c-0.39,-0.27 -0.7,-0.61 -1.09,-0.89 1.24,-55.84 1.97,-126.24 -0.44,-174.1z"/>
   <path class="fil7" d="M157.24 602.58c6.16,0 12.24,-2.86 16.12,-8.25 6.43,-8.9 4.41,-21.31 -4.49,-27.73l-106.06 -76.44c-15.97,-9.9 -22.57,-27.8 -17.27,-44.33l41.57 -129.58c3.36,-10.44 -2.4,-21.63 -12.85,-24.98 -10.49,-3.32 -21.65,2.42 -24.98,12.85l-41.57 129.57c-10.91,33.97 2.7,70.77 33.08,89.49l104.86 75.64c3.51,2.53 7.57,3.75 11.59,3.75z"/>
   <polygon class="fil3" points="343.99,562.72 200.84,602.89 195.87,622.33 339.12,581.81 "/>
   <polygon class="fil8" points="200.84,602.89 146.74,550.04 141.3,571.32 195.87,622.33 "/>
   <polygon class="fil8" points="343.99,562.72 289.14,511.25 146.74,550.04 200.84,602.89 "/>
   <path class="fil3" d="M356.64 475.05c1.22,-4.76 -1.65,-7.56 -6.38,-6.21l-130.93 37.13c-4.73,1.34 -9.59,6.34 -10.81,11.1l-18.97 74.26c-1.22,4.76 1.69,7.65 6.44,6.42l129.83 -33.67c4.76,-1.23 9.65,-6.13 10.86,-10.9l19.95 -78.11z"/>
   <path class="fil8" d="M219.34 505.96l130.93 -37.13c4.46,-1.27 7.13,1.22 6.42,5.5 -0.55,0.04 -1.03,-0.04 -1.64,0.14l-130.92 37.13c-4.73,1.34 -9.59,6.34 -10.81,11.1l-18.97 74.26c-0.09,0.33 0,0.57 -0.05,0.88 -3.66,0.15 -5.8,-2.38 -4.75,-6.51l18.97 -74.26c1.22,-4.77 6.08,-9.75 10.81,-11.1z"/>
   <polygon class="fil8" points="295.25,533 280.33,591.45 256.56,597.69 271.72,538.31 "/>
   <path class="fil7" d="M183.43 553.93c0.25,-3.2 -2.15,-6 -5.36,-6.25l-46.46 -3.55c-3.21,-0.24 -6,2.15 -6.25,5.36 -0.25,3.2 2.15,6 5.36,6.25l46.46 3.55c3.21,0.24 6,-2.15 6.25,-5.36z"/>
   <path class="fil7" d="M182.88 602.65l0 -0.01c1.53,-2.82 0.47,-6.35 -2.36,-7.87l-41.02 -22.11c-2.83,-1.53 -6.36,-0.47 -7.88,2.36 -1.53,2.83 -0.47,6.36 2.36,7.88l41.02 22.11c2.83,1.53 6.35,0.47 7.88,-2.36z"/>
   <path class="fil7" d="M182.88 587.76c1.52,-2.83 0.47,-6.36 -2.36,-7.88l-41.01 -22.11c-2.83,-1.53 -6.36,-0.47 -7.89,2.36 -1.53,2.83 -0.47,6.36 2.36,7.88l41.02 22.11c2.83,1.53 6.36,0.47 7.88,-2.36z"/>
   <path class="fil7" d="M125.35 569.31c0,9.14 7.14,16.55 15.95,16.55 8.81,0 15.95,-7.4 15.95,-16.55 0,-9.14 -7.14,-16.55 -15.95,-16.55 -8.8,0 -15.95,7.41 -15.95,16.55z"/>
   <path class="fil0" d="M114.21 575.54c7.4,0 14.7,-3.43 19.35,-9.9 7.7,-10.67 5.28,-25.57 -5.4,-33.27l-64.46 -46.38c-13.22,-8.15 -19.13,-24.16 -14.4,-38.94l41.58 -129.58c4.02,-12.53 -2.88,-25.95 -15.42,-29.97 -12.6,-4 -25.94,2.9 -29.98,15.42l-41.57 129.57c-11.35,35.42 2.61,73.76 33.99,93.59l62.39 44.96c4.23,3.05 9.1,4.5 13.92,4.5z"/>
   <polygon class="fil3" points="352.4,161.24 356.3,162 287.94,530.32 278.64,528.52 "/>
   <path class="fil3" d="M347.63 159.55c0,3.43 2.79,6.21 6.21,6.21 3.43,0 6.21,-2.79 6.21,-6.21 0,-3.43 -2.78,-6.22 -6.21,-6.22 -3.43,0 -6.21,2.79 -6.21,6.22z"/>
   <polygon class="fil3" points="810.8,1114.61 801.33,1114.61 801.34,537.93 810.81,537.93 "/>
   <polygon class="fil3" points="585.37,984.12 576.39,982 806.08,511.3 1035.75,982 1026.78,984.12 806.08,532.51 "/>
   <polygon class="fil3" points="597.4,646.73 596.82,657.98 777.19,601.46 770.6,572.38 "/>
   <polygon class="fil3" points="1019.97,646.73 1020.56,657.98 840.18,601.46 846.77,572.38 "/>
   <polygon class="fil3" points="1023.95,456.91 1033.32,456.91 1046.15,383.64 1011.12,383.64 "/>
   <polygon class="fil3" points="588.36,456.91 578.98,456.91 566.15,383.64 601.18,383.64 "/>
   <polygon class="fil3" points="582.02,408.78 582.02,420.52 718.23,529.6 737.94,509.42 "/>
   <polygon class="fil3" points="1032.73,408.78 1032.73,420.52 896.51,529.6 876.81,509.42 "/>
   <polygon class="fil9" points="816.28,634.07 803.7,634.07 803.7,610.06 816.28,610.06 "/>
   <path class="fil3" d="M711.19 521.91l0 66.52 0.47 0.27c60.92,35.17 135.9,35.48 197.11,0.82l0 -64.03 -197.58 -3.58z"/>
   <polygon class="fil0" points="576.88,390.84 511.48,428.6 500.77,422.41 534.7,390.73 576.88,381.58 "/>
   <polygon class="fil0" points="666.5,343.81 601.1,381.58 590.39,375.39 624.32,343.7 658.04,336.38 "/>
   <path class="fil3" d="M596.07 374.41c-6.82,-3.94 -17.98,-3.94 -24.8,0 -6.82,3.94 -6.82,10.38 0,14.32 6.82,3.94 17.98,3.94 24.8,0 6.82,-3.94 6.82,-10.38 0,-14.32z"/>
   <path class="fil3" d="M590.86 377.94c-3.96,-2.28 -10.43,-2.28 -14.38,0 -3.96,2.28 -3.96,6.02 0,8.31 3.95,2.28 10.42,2.28 14.38,0 3.96,-2.28 3.96,-6.02 0,-8.31z"/>
   <path class="fil2" d="M590.86 376.19c-3.96,-2.28 -10.43,-2.28 -14.38,0 -3.96,2.28 -3.96,6.02 0,8.31 3.95,2.28 10.42,2.28 14.38,0 3.96,-2.28 3.96,-6.02 0,-8.31z"/>
   <polygon class="fil0" points="1035.42,390.84 1100.82,428.6 1111.53,422.41 1077.6,390.73 1035.42,381.58 "/>
   <polygon class="fil0" points="945.8,343.81 1011.2,381.58 1021.91,375.39 987.98,343.7 954.26,336.38 "/>
   <path class="fil3" d="M1016.23 374.41c6.82,-3.94 17.98,-3.94 24.8,0 6.82,3.94 6.82,10.38 0,14.32 -6.82,3.94 -17.98,3.94 -24.8,0 -6.82,-3.94 -6.82,-10.38 0,-14.32z"/>
   <path class="fil10" d="M1021.44 377.94c3.95,-2.28 10.43,-2.28 14.38,0 3.95,2.28 3.95,6.02 0,8.31 -3.96,2.28 -10.43,2.28 -14.38,0 -3.96,-2.28 -3.96,-6.02 0,-8.31z"/>
   <path class="fil2" d="M1021.44 376.19c3.95,-2.28 10.43,-2.28 14.38,0 3.95,2.28 3.95,6.02 0,8.31 -3.96,2.28 -10.43,2.28 -14.38,0 -3.96,-2.28 -3.96,-6.02 0,-8.31z"/>
   <path class="fil0" d="M879.93 481.53c-38.47,-22.21 -101.41,-22.21 -139.88,0 -38.47,22.21 -38.47,58.55 0,80.76 38.47,22.2 101.41,22.2 139.88,0 38.47,-22.21 38.47,-58.55 0,-80.76z"/>
   <polygon class="fil0" points="844.54,571.6 1017.34,646.73 1032.73,637.85 856.62,524.16 "/>
   <polygon class="fil0" points="770.6,572.38 597.4,646.73 582.02,637.85 758.13,524.16 "/>
   <polygon class="fil0" points="852.58,470.95 1017.34,399.89 1032.73,408.78 856.62,522.46 "/>
   <polygon class="fil0" points="767.07,473.28 597.4,399.89 582.02,408.78 758.13,522.46 "/>
   <polygon class="fil3" points="1036.16,710.61 1026.79,710.61 1013.96,637.34 1048.99,637.34 "/>
   <polygon class="fil0" points="1024.69,644.54 959.29,682.3 948.57,676.12 982.5,644.42 1024.69,635.27 "/>
   <polygon class="fil0" points="1114.31,597.51 1048.91,635.27 1038.2,629.09 1072.12,597.4 1105.85,590.08 "/>
   <path class="fil3" d="M1043.87 628.11c-6.82,-3.94 -17.98,-3.94 -24.8,0 -6.82,3.94 -6.82,10.39 0,14.32 6.82,3.94 17.98,3.94 24.8,0 6.82,-3.94 6.82,-10.38 0,-14.32z"/>
   <path class="fil10" d="M1038.66 631.64c-3.95,-2.28 -10.43,-2.28 -14.38,0 -3.96,2.28 -3.96,6.02 0,8.31 3.95,2.28 10.42,2.28 14.38,0 3.96,-2.28 3.96,-6.02 0,-8.31z"/>
   <path class="fil2" d="M1038.66 629.89c-3.95,-2.29 -10.43,-2.29 -14.38,0 -3.96,2.28 -3.96,6.02 0,8.3 3.95,2.29 10.42,2.29 14.38,0 3.96,-2.28 3.96,-6.02 0,-8.3z"/>
   <polygon class="fil3" points="579.08,710.61 588.45,710.61 601.28,637.34 566.25,637.34 "/>
   <polygon class="fil0" points="590.55,644.54 655.95,682.3 666.67,676.12 632.73,644.42 590.55,635.27 "/>
   <polygon class="fil0" points="500.93,597.51 566.33,635.27 577.05,629.09 543.11,597.4 509.39,590.08 "/>
   <path class="fil3" d="M571.36 628.11c6.82,-3.94 17.98,-3.94 24.8,0 6.82,3.94 6.82,10.39 0,14.32 -6.82,3.94 -17.98,3.94 -24.8,0 -6.82,-3.94 -6.82,-10.38 0,-14.32z"/>
   <path class="fil10" d="M576.57 631.64c3.96,-2.28 10.43,-2.28 14.38,0 3.96,2.28 3.96,6.02 0,8.31 -3.95,2.28 -10.43,2.28 -14.38,0 -3.96,-2.28 -3.96,-6.02 0,-8.31z"/>
   <path class="fil2" d="M576.57 629.89c3.96,-2.29 10.43,-2.29 14.38,0 3.96,2.28 3.96,6.02 0,8.3 -3.95,2.29 -10.43,2.29 -14.38,0 -3.96,-2.28 -3.96,-6.02 0,-8.3z"/>
   <path class="fil11" d="M826.41 645.49c0,9.07 -7.35,16.42 -16.42,16.42 -9.07,0 -16.42,-7.35 -16.42,-16.42 0,-9.07 7.35,-16.42 16.42,-16.42 9.07,0 16.42,7.35 16.42,16.42z"/>
   <path class="fil2" d="M822.48 645.49c0,6.9 -5.59,12.49 -12.49,12.49 -6.89,0 -12.49,-5.59 -12.49,-12.49 0,-6.9 5.59,-12.48 12.49,-12.48 6.9,0 12.49,5.59 12.49,12.48z"/>
   <path class="fil3" d="M818.34 645.49c0,4.61 -3.74,8.36 -8.36,8.36 -4.61,0 -8.35,-3.74 -8.35,-8.36 0,-4.61 3.74,-8.35 8.35,-8.35 4.61,0 8.36,3.74 8.36,8.35z"/>
   <path class="fil12" d="M813.9 645.49c0,2.17 -1.75,3.92 -3.92,3.92 -2.16,0 -3.92,-1.75 -3.92,-3.92 0,-2.16 1.76,-3.92 3.92,-3.92 2.16,0 3.92,1.76 3.92,3.92z"/>
   <path class="fil3" d="M859.51 493.32c-27.24,-15.73 -71.8,-15.73 -99.04,0 -27.24,15.72 -27.24,41.45 0,57.17 27.24,15.73 71.8,15.73 99.04,0 27.23,-15.72 27.23,-41.45 0,-57.17z"/>
   <polygon class="fil2" points="800.52,601.46 789.89,601.46 789.89,591.74 800.52,591.74 "/>
   <polygon class="fil13" points="815.09,601.46 804.45,601.46 804.45,591.74 815.09,591.74 "/>
   <polygon class="fil2" points="829.65,601.46 819.02,601.46 819.02,591.74 829.65,591.74 "/>
   <polygon class="fil14" points="576.39,982 806.07,849.4 1035.75,982 806.08,1114.61 "/>
   <polygon class="fil15" points="576.39,982 576.39,1081.47 806.08,1214.08 806.08,1114.61 "/>
   <polygon class="fil2" points="587.06,1005.82 587.06,1030.87 644.91,1064.27 644.91,1039.22 "/>
   <polygon class="fil16" points="806.08,1214.08 1035.75,1081.47 1035.75,982 806.08,1114.61 "/>
   <polygon class="fil2" points="668.26,1134.52 668.26,1035.05 714.2,1061.57 714.2,1161.04 "/>
   <polygon class="fil2" points="668.26,1035.05 898.05,902.99 945.57,928.83 714.2,1061.57 "/>
   <polygon class="fil3" points="810.81,1112.1 806.08,1114.61 801.33,1111.88 801.34,797.2 810.81,797.2 "/>
  </g>
 </g>
</svg>
