<?xml version="1.0" encoding="UTF-8"?>
<!DOCTYPE svg PUBLIC "-//W3C//DTD SVG 1.1//EN" "http://www.w3.org/Graphics/SVG/1.1/DTD/svg11.dtd">
<!-- Creator: CorelDRAW 2018 (64-Bit) -->
<svg xmlns="http://www.w3.org/2000/svg" xml:space="preserve" width="41.1883mm" height="58.5778mm" version="1.1" style="shape-rendering:geometricPrecision; text-rendering:geometricPrecision; image-rendering:optimizeQuality; fill-rule:evenodd; clip-rule:evenodd"
viewBox="0 0 193.52 275.23"
 xmlns:xlink="http://www.w3.org/1999/xlink">
 <defs>
  <style type="text/css">
   <![CDATA[
    .fil21 {fill:#897870;fill-rule:nonzero}
    .fil20 {fill:#96847B;fill-rule:nonzero}
    .fil14 {fill:#96847B;fill-rule:nonzero}
    .fil27 {fill:#2842A1;fill-rule:nonzero}
    .fil13 {fill:#36364F;fill-rule:nonzero}
    .fil15 {fill:#484869;fill-rule:nonzero}
    .fil18 {fill:#5B629E;fill-rule:nonzero}
    .fil11 {fill:#99A7D8;fill-rule:nonzero}
    .fil12 {fill:#D3DAED;fill-rule:nonzero}
    .fil16 {fill:#F0F2F2;fill-rule:nonzero}
    .fil9 {fill:#F7F8FC;fill-rule:nonzero}
    .fil29 {fill:white;fill-rule:nonzero}
    .fil17 {fill:#5B629E;fill-rule:nonzero;fill-opacity:0.149020}
    .fil19 {fill:#231F1F;fill-rule:nonzero;fill-opacity:0.301961}
    .fil30 {fill:#6D6D87;fill-rule:nonzero;fill-opacity:0.490196}
    .fil5 {fill:#484869;fill-rule:nonzero;fill-opacity:0.521569}
    .fil4 {fill:#4D4D6D;fill-rule:nonzero;fill-opacity:0.521569}
    .fil3 {fill:#515170;fill-rule:nonzero;fill-opacity:0.521569}
    .fil2 {fill:#575775;fill-rule:nonzero;fill-opacity:0.521569}
    .fil1 {fill:#5A5A78;fill-rule:nonzero;fill-opacity:0.521569}
    .fil0 {fill:#60607C;fill-rule:nonzero;fill-opacity:0.521569}
    .fil7 {fill:url(#id0);fill-rule:nonzero}
    .fil8 {fill:url(#id1);fill-rule:nonzero}
    .fil6 {fill:url(#id2);fill-rule:nonzero}
    .fil31 {fill:url(#id3);fill-rule:nonzero}
    .fil25 {fill:url(#id4);fill-rule:nonzero}
    .fil22 {fill:url(#id5);fill-rule:nonzero}
    .fil24 {fill:url(#id6);fill-rule:nonzero}
    .fil23 {fill:url(#id7);fill-rule:nonzero}
    .fil26 {fill:url(#id8);fill-rule:nonzero}
    .fil28 {fill:url(#id9);fill-rule:nonzero;fill-opacity:0.831373}
    .fil10 {fill:url(#id10);fill-rule:nonzero}
   ]]>
  </style>
  <linearGradient id="id0" gradientUnits="userSpaceOnUse" x1="-0" y1="172.56" x2="106.76" y2="172.56">
   <stop offset="0" style="stop-opacity:1; stop-color:#FBC800"/>
   <stop offset="0.921569" style="stop-opacity:1; stop-color:#F49E0B"/>
   <stop offset="1" style="stop-opacity:1; stop-color:#F49E0B"/>
  </linearGradient>
  <linearGradient id="id1" gradientUnits="userSpaceOnUse" xlink:href="#id0" x1="-0" y1="194.89" x2="106.76" y2="194.89">
  </linearGradient>
  <linearGradient id="id2" gradientUnits="userSpaceOnUse" x1="-0" y1="182.05" x2="106.76" y2="182.05">
   <stop offset="0" style="stop-opacity:1; stop-color:#FDFDFE"/>
   <stop offset="0.529412" style="stop-opacity:1; stop-color:#EEF0F8"/>
   <stop offset="1" style="stop-opacity:1; stop-color:#DEE2F2"/>
  </linearGradient>
  <linearGradient id="id3" gradientUnits="userSpaceOnUse" x1="129.48" y1="47.5" x2="167.98" y2="47.5">
   <stop offset="0" style="stop-opacity:1; stop-color:#FBC800"/>
   <stop offset="0.0196078" style="stop-opacity:1; stop-color:#FBC800"/>
   <stop offset="0.941176" style="stop-opacity:1; stop-color:#F49E0B"/>
   <stop offset="1" style="stop-opacity:1; stop-color:#F49E0B"/>
  </linearGradient>
  <linearGradient id="id4" gradientUnits="userSpaceOnUse" x1="94.86" y1="92.34" x2="193.52" y2="92.34">
   <stop offset="0" style="stop-opacity:1; stop-color:#F1F0F3"/>
   <stop offset="0.988235" style="stop-opacity:1; stop-color:#A8B0D8"/>
   <stop offset="1" style="stop-opacity:1; stop-color:#A8B0D8"/>
  </linearGradient>
  <linearGradient id="id5" gradientUnits="userSpaceOnUse" xlink:href="#id4" x1="94.86" y1="106" x2="193.52" y2="106">
  </linearGradient>
  <linearGradient id="id6" gradientUnits="userSpaceOnUse" x1="89.4" y1="100.53" x2="188.06" y2="100.53">
   <stop offset="0" style="stop-opacity:1; stop-color:#F49E0B"/>
   <stop offset="0" style="stop-opacity:1; stop-color:#F49E0B"/>
   <stop offset="0.8" style="stop-opacity:1; stop-color:#FBC800"/>
   <stop offset="1" style="stop-opacity:1; stop-color:#FBC800"/>
  </linearGradient>
  <linearGradient id="id7" gradientUnits="userSpaceOnUse" xlink:href="#id4" x1="89.4" y1="103.27" x2="188.06" y2="103.27">
  </linearGradient>
  <radialGradient id="id8" gradientUnits="userSpaceOnUse" gradientTransform="matrix(0.994998 -0 -0 0.578706 1 37)" cx="148.33" cy="88.39" r="65.3" fx="148.33" fy="88.39">
   <stop offset="0" style="stop-opacity:1; stop-color:#4D4D70"/>
   <stop offset="0.101961" style="stop-opacity:1; stop-color:#4D4D70"/>
   <stop offset="0.458824" style="stop-opacity:1; stop-color:#A099AD"/>
   <stop offset="1" style="stop-opacity:0; stop-color:white"/>
  </radialGradient>
  <linearGradient id="id9" gradientUnits="userSpaceOnUse" xlink:href="#id3" x1="137" y1="63.4" x2="160.33" y2="63.4">
  </linearGradient>
  <radialGradient id="id10" gradientUnits="userSpaceOnUse" gradientTransform="matrix(1.01089 -0 -0 0.522839 -1 67)" cx="53.1" cy="141.12" r="28.81" fx="53.1" fy="141.12">
   <stop offset="0" style="stop-opacity:1; stop-color:#5E619F"/>
   <stop offset="0.321569" style="stop-opacity:1; stop-color:#AEABCE"/>
   <stop offset="0.811765" style="stop-opacity:1; stop-color:white"/>
   <stop offset="1" style="stop-opacity:1; stop-color:white"/>
  </radialGradient>
 </defs>
 <g id="Layer_x0020_1">
  <metadata id="CorelCorpID_0Corel-Layer"/>
  <g id="_2944427614144">
   <path class="fil0" d="M51.42 167.81c1.14,-0.66 3.01,-0.66 4.15,0l49.18 28.37c1.14,0.66 1.14,1.74 0,2.4l-49.18 28.39c-1.14,0.66 -3.01,0.66 -4.15,0l-49.15 -28.38c-1.14,-0.66 -1.14,-1.74 0,-2.4l49.15 -28.38z"/>
   <path class="fil1" d="M51.44 168.1c1.13,-0.65 2.98,-0.65 4.11,-0l48.71 28.09c1.13,0.65 1.13,1.72 0,2.37l-48.71 28.12c-1.13,0.65 -2.98,0.65 -4.11,0l-48.68 -28.11c-1.13,-0.65 -1.13,-1.72 0,-2.37l48.68 -28.11z"/>
   <path class="fil2" d="M51.46 168.38c1.12,-0.65 2.95,-0.65 4.07,-0l48.23 27.82c1.12,0.65 1.12,1.7 0,2.35l-48.23 27.85c-1.12,0.65 -2.95,0.65 -4.07,0l-48.21 -27.83c-1.12,-0.65 -1.12,-1.71 0,-2.35l48.21 -27.83z"/>
   <path class="fil3" d="M51.48 168.66c1.11,-0.64 2.92,-0.64 4.03,-0l47.76 27.55c1.11,0.64 1.11,1.69 0,2.33l-47.76 27.58c-1.11,0.64 -2.92,0.64 -4.03,0l-47.74 -27.56c-1.11,-0.64 -1.11,-1.69 0,-2.33l47.74 -27.56z"/>
   <path class="fil4" d="M51.5 168.95c1.1,-0.63 2.89,-0.63 3.99,-0l47.29 27.28c1.1,0.63 1.1,1.67 0,2.31l-47.29 27.3c-1.1,0.63 -2.9,0.63 -3.99,0l-47.26 -27.29c-1.1,-0.63 -1.1,-1.67 0,-2.31l47.26 -27.29z"/>
   <path class="fil5" d="M51.52 169.23c1.09,-0.63 2.87,-0.63 3.95,-0l46.81 27c1.09,0.63 1.09,1.65 0,2.28l-46.82 27.03c-1.09,0.63 -2.87,0.63 -3.95,0l-46.79 -27.02c-1.09,-0.63 -1.09,-1.65 0,-2.28l46.79 -27.02z"/>
   <path class="fil6" d="M-0 136.56l106.75 0 0 60.19 -0 0c-0.01,0.44 -0.3,0.88 -0.87,1.21l-50.39 29.09c-1.17,0.68 -3.08,0.68 -4.25,0l-50.36 -29.08c-0.59,-0.34 -0.88,-0.78 -0.88,-1.23l0 -60.19z"/>
   <path class="fil7" d="M0.88 154.22l50.36 29.07c1.17,0.68 3.09,0.68 4.25,0l50.39 -29.09c0.58,-0.33 0.87,-0.77 0.87,-1.21l0 0 0 8.34 -0 0c-0.01,0.44 -0.3,0.88 -0.87,1.21l-50.39 29.09c-1.17,0.68 -3.08,0.68 -4.25,0l-50.36 -29.07c-0.59,-0.34 -0.88,-0.78 -0.88,-1.23l0 -8.34c0,0.45 0.29,0.89 0.88,1.23z"/>
   <path class="fil8" d="M0.88 176.55l50.36 29.07c1.17,0.68 3.09,0.68 4.25,0l50.39 -29.09c0.58,-0.33 0.87,-0.77 0.87,-1.21l0 0 0 8.34 -0 0c-0.01,0.44 -0.3,0.88 -0.87,1.21l-50.39 29.09c-1.17,0.68 -3.08,0.68 -4.25,0l-50.36 -29.08c-0.59,-0.34 -0.88,-0.78 -0.88,-1.23l0 -8.34c0,0.45 0.29,0.89 0.88,1.23z"/>
   <path class="fil9" d="M51.24 106.25c1.17,-0.68 3.09,-0.68 4.26,0l50.38 29.06c1.17,0.68 1.17,1.78 0,2.46l-50.39 29.09c-1.17,0.68 -3.08,0.68 -4.25,0l-50.36 -29.08c-1.17,-0.68 -1.17,-1.78 0,-2.46l50.36 -29.07z"/>
   <path class="fil10" d="M32.7 129.34c11.22,-6.48 29.57,-6.48 40.79,0 11.22,6.48 11.22,17.07 0,23.55 -11.22,6.48 -29.57,6.48 -40.79,0 -11.22,-6.48 -11.22,-17.07 0,-23.55z"/>
   <path class="fil11" d="M80.96 131.32c-0,-0.59 -0.84,-1.07 -1.86,-1.07l-3.98 0c-0.66,0 -1.75,0.69 -1.91,0.48 -0.27,-0.34 -0.18,-0.75 0.29,-1.02l2.81 -1.62c0.73,-0.42 -3.9,-0.22 -4.62,-0.64l0.04 -3.51c-0.73,-0.42 -1.91,-0.42 -2.63,0l-2.83 1.63c-0.45,0.26 -1.12,0.33 -1.7,0.19 -0.4,-0.1 -0.84,-0.2 -1.22,-0.28 -0.59,-0.13 -0.97,-0.46 -0.97,-0.82l0 -2.31c0,-0.59 -0.83,-1.07 -1.86,-1.07l-6.48 0c-1.03,0 -1.86,0.48 -1.86,1.07l0 2.29c0,0.38 -0.43,0.7 -1.04,0.84 -0.39,0.09 -0.77,0.18 -1.15,0.28 -0.6,0.16 -1.3,0.1 -1.77,-0.16l-2.82 -1.62c-0.73,-0.42 -1.91,-0.41 -2.63,0l-0.34 3.82c-0.72,0.42 -4.96,-0.07 -4.23,0.34l2.84 1.63c0.45,0.26 0.58,0.64 0.33,0.98 -0.17,0.23 -1.29,-0.45 -1.92,-0.45l-4.02 0.01c-1.03,0 -1.86,0.48 -1.86,1.07l0.02 5.45c0,0.59 0.84,1.07 1.87,1.07l2.33 -0 -0.06 4.5c-0.02,0.08 -0.02,0.16 -0,0.23 0.04,0.24 0.21,0.47 0.53,0.65l4.59 2.63c0.45,0.26 1.06,0.34 1.63,0.28l0.03 0.02 0 -0.02c0.35,-0.04 0.7,-0.12 0.97,-0.28l2.83 -1.63c0.44,-0.26 1.11,-0.33 1.7,-0.19 0.4,0.1 0.84,0.2 1.22,0.28 0.59,0.13 0.97,0.46 0.98,0.82l0.01 2.31c0,0.59 0.84,1.07 1.87,1.07l6.48 -0.01c1.03,-0 1.86,-0.48 1.86,-1.07l-0.01 -2.29c-0,-0.38 0.42,-0.7 1.04,-0.84 0.37,-0.08 0.74,-0.17 1.1,-0.26 0.6,-0.16 1.3,-0.1 1.77,0.17l2.82 1.62c0.27,0.16 0.61,0.24 0.97,0.27l0 0.03 0.05 -0.03c0.57,0.05 1.18,-0.03 1.62,-0.28l4.58 -2.64c0.3,-0.17 0.47,-0.39 0.52,-0.62l0.02 -0.01 -0 -0.11c0,-0.02 0,-0.03 -0,-0.05l-0.06 -4.6 2.29 -0c1.03,-0 1.86,-0.48 1.86,-1.07l-0.01 -5.45zm-14.66 4.54l0 0c-1.08,3.3 -7.01,5.16 -12.35,3.98 -4.05,-0.9 -6.52,-3.42 -5.72,-5.88 1.08,-3.3 7.01,-5.16 12.35,-3.98 4.05,0.9 6.52,3.42 5.72,5.88z"/>
   <path class="fil11" d="M76.88 125.13l-0.02 -2.93 -4.2 0 -0.93 -0.54c-0.73,-0.42 -1.91,-0.42 -2.63,0l-0.93 0.54 -5.79 0 0 -2.14c0,-0.59 -0.83,-1.07 -1.86,-1.07l-6.48 0c-1.03,0 -1.86,0.48 -1.86,1.07l0 2.14 -5.89 0 -0.9 -0.51c-0.73,-0.42 -1.91,-0.42 -2.63,0l-0.88 0.51 -4.23 0 0 2.86c-0.01,0.29 0.16,0.57 0.54,0.79l2.84 1.63 32.47 -0.04 2.81 -1.62c0.33,-0.19 0.51,-0.44 0.53,-0.69l0.03 0z"/>
   <path class="fil12" d="M74.03 132.7l5.08 -0c1.03,-0 1.86,-0.48 1.86,-1.07l-0.01 -3.73c-0,-0.59 -0.84,-1.07 -1.86,-1.07l-3.98 0c-0.66,0 -1.22,-0.24 -1.46,-0.6 -0.14,-0.21 -0.29,-0.42 -0.46,-0.63 -0.27,-0.34 -0.18,-0.75 0.29,-1.02l2.81 -1.62c0.73,-0.42 0.73,-1.1 -0,-1.52l-4.58 -2.64c-0.73,-0.42 -1.91,-0.42 -2.63,0l-2.83 1.63c-0.45,0.26 -1.12,0.33 -1.7,0.19 -0.4,-0.1 -0.84,-0.2 -1.22,-0.28 -0.59,-0.13 -0.97,-0.46 -0.97,-0.82l0 -2.31c0,-0.59 -0.83,-1.07 -1.86,-1.07l-6.48 0c-1.03,0 -1.86,0.48 -1.86,1.07l0 2.29c0,0.38 -0.43,0.7 -1.04,0.84 -0.39,0.08 -0.77,0.18 -1.15,0.28 -0.6,0.16 -1.3,0.1 -1.77,-0.17l-2.82 -1.61c-0.73,-0.42 -1.91,-0.42 -2.63,0l-4.57 2.65c-0.72,0.42 -0.72,1.1 0.01,1.52l2.84 1.63c0.45,0.26 0.58,0.64 0.33,0.98 -0.17,0.23 -0.35,0.48 -0.49,0.7 -0.23,0.34 -0.8,0.56 -1.43,0.56l-4.02 0.01c-1.03,0 -1.86,0.48 -1.86,1.07l0.02 3.73c0,0.59 0.84,1.07 1.87,1.07l3.98 -0.01c0.66,-0 1.22,0.24 1.46,0.6 0.14,0.21 0.29,0.42 0.46,0.63 0.27,0.35 0.18,0.75 -0.29,1.02l-2.81 1.62c-0.73,0.42 -0.72,1.1 0.01,1.52l4.59 2.63c0.73,0.42 1.91,0.42 2.63,-0l2.83 -1.63c0.44,-0.26 1.11,-0.33 1.7,-0.19 0.4,0.1 0.84,0.2 1.22,0.28 0.59,0.13 0.97,0.46 0.98,0.82l0.01 2.31c0,0.59 0.84,1.07 1.87,1.07l6.48 -0.01c1.03,-0 1.86,-0.48 1.86,-1.07l-0.01 -2.29c-0,-0.38 0.42,-0.7 1.04,-0.84 0.37,-0.08 0.74,-0.17 1.1,-0.26 0.6,-0.16 1.3,-0.1 1.77,0.17l2.82 1.62c0.73,0.42 1.91,0.42 2.63,-0l4.58 -2.64c0.73,-0.42 0.73,-1.1 -0,-1.52l-2.84 -1.63c-0.45,-0.26 -0.57,-0.64 -0.33,-0.98 0.41,-0.56 0.84,-1.22 0.86,-1.26zm-25.79 -3.88l0 0c1.08,-3.3 7.01,-5.16 12.35,-3.98 4.05,0.9 6.52,3.42 5.72,5.88 -1.08,3.3 -7.01,5.16 -12.35,3.98 -4.05,-0.9 -6.52,-3.42 -5.72,-5.88z"/>
   <path class="fil13" d="M103.93 21.6c0,3.63 2.95,6.58 6.58,6.58 3.63,0 6.58,-2.95 6.58,-6.58 0,-3.63 -2.95,-6.58 -6.58,-6.58 -3.64,0 -6.58,2.95 -6.58,6.58z"/>
   <path class="fil13" d="M105.5 29.99c0,3.64 2.95,6.58 6.58,6.58 3.63,0 6.58,-2.95 6.58,-6.58 0,-3.63 -2.95,-6.58 -6.58,-6.58 -3.63,0 -6.58,2.95 -6.58,6.58z"/>
   <path class="fil13" d="M138.29 16.13l-0.59 16.73c0,5.27 -2.32,9.32 -7.05,11.96 -10.2,5.67 -22.94,-1.42 -22.94,-12.77l0 -15.91c0,-5.27 2.92,-10.13 7.65,-12.77 10.2,-5.67 22.94,1.42 22.94,12.77z"/>
   <path class="fil14" d="M173.24 119.89c1.84,0 3.64,-0.92 4.69,-2.6 1.62,-2.59 0.83,-6 -1.76,-7.62l-42.2 -26.37 0 -11.89c0,-3.05 -2.48,-5.53 -5.53,-5.53 -3.05,0 -5.53,2.48 -5.53,5.53l0 18.01 47.4 29.62c0.91,0.57 1.92,0.84 2.92,0.84z"/>
   <path class="fil15" d="M160.7 248.47l0.01 4.25c0,1.66 -1.21,3.08 -2.85,3.33l-0.71 0.11c-2.09,0.32 -4.22,-0.11 -6.02,-1.21l-21.89 -13.4 0.14 -6.3 25.33 16.76 5.99 -3.56z"/>
   <path class="fil16" d="M144.73 228.95l2.16 8.23 11.42 7.4c3.25,1.93 3.21,6.64 -0.07,8.52 -1.52,0.87 -3.39,0.87 -4.91,-0.01l-24.01 -15.08 0.06 -9.06 15.35 0z"/>
   <path class="fil15" d="M129.05 267.43l0.01 4.25c0,1.66 -1.21,3.08 -2.85,3.34l-0.71 0.11c-2.09,0.32 -4.22,-0.11 -6.02,-1.21l-21.89 -13.4 0.14 -6.3 25.33 16.76 5.99 -3.55z"/>
   <path class="fil16" d="M113.07 247.9l2.16 8.23 11.42 7.4c3.25,1.93 3.21,6.64 -0.07,8.52 -1.52,0.87 -3.39,0.87 -4.91,-0.01l-24.01 -15.08 0.06 -9.06 15.35 0z"/>
   <path class="fil15" d="M144.67 71.41l0 158.47c0,2.76 -1.47,5.31 -3.86,6.68 -5.14,2.97 -11.57,-0.74 -11.57,-6.68l-7.98 -147.78 23.41 -10.69z"/>
   <path class="fil17" d="M142.68 72.32l0 157.56c0,2.76 -1.47,5.31 -3.86,6.68 -0.92,0.53 -1.89,0.84 -2.85,0.97 1.59,0.21 3.28,-0.07 4.85,-0.97 2.39,-1.38 3.86,-3.93 3.86,-6.68l0 -158.47 -2 0.91z"/>
   <polygon class="fil13" points="123.57,124.95 126.64,181.8 144.67,142.33 144.67,71.41 123.57,81.05 "/>
   <path class="fil15" d="M123.59 91.15l-10.3 156.9c0,2.76 -1.47,5.3 -3.86,6.68 -5.14,2.97 -11.58,-0.74 -11.58,-6.68l0 -149.56 25.74 -7.34z"/>
   <path class="fil15" d="M144.67 71.61l0 66.03c0,3.74 -1.99,7.19 -5.23,9.06l-33.77 19.5c-3.48,2.01 -7.82,-0.5 -7.82,-4.52l0 -66.03c0,-3.74 1.99,-7.19 5.23,-9.06l33.77 -19.5c3.47,-2.01 7.82,0.5 7.82,4.52z"/>
   <path class="fil18" d="M146.83 58.8l0 53.11c0,7.21 0.51,18.59 -5.73,22.2 0,0 -21.41,19.76 -45.03,18.22 0,0 -6.27,-59.01 0,-80.84 0.37,-1.28 0.91,-3.02 1.6,-4.85 1.96,-5.21 5.99,-9.39 11.1,-11.6l18.01 -7.82c8.92,-5.15 20.06,1.29 20.06,11.58z"/>
   <path class="fil14" d="M149.55 134.11c1.98,0 3.91,-1.06 4.92,-2.99 1.35,-2.6 0.26,-5.83 -2.23,-7.38l-41.96 -26.22 0 -11.68c0,-2.67 -1.81,-5.12 -4.43,-5.63 -3.53,-0.68 -6.62,2.01 -6.62,5.42l0 11.33c0,4.16 2.14,8.03 5.67,10.23l41.73 26.08c0.91,0.57 1.92,0.84 2.92,0.84z"/>
   <path class="fil18" d="M104.21 100.46c3.36,0 6.08,-2.72 6.08,-6.08l0 -22.42c0,-3.36 -2.72,-6.08 -6.08,-6.08 -3.36,0 -6.08,2.72 -6.08,6.08l0 22.42c0,3.36 2.72,6.08 6.08,6.08z"/>
   <path class="fil14" d="M118.75 63.46c3.02,0 5.49,-2.44 5.53,-5.47l0.19 -17.68c0.03,-3.05 -2.42,-5.55 -5.47,-5.59 -3.07,-0 -5.56,2.42 -5.59,5.47l-0.19 17.68c-0.03,3.05 2.42,5.55 5.47,5.59 0.02,0 0.04,0 0.06,0z"/>
   <path class="fil19" d="M113.41 50.76l0 -9.81 0.01 -0.75c0.03,-3.05 2.52,-5.47 5.59,-5.47 3.05,0.03 5.5,2.53 5.47,5.59l-0.13 12c-1.77,0.53 -3.64,-0.76 -5.58,-0.76l-5.36 -0.79z"/>
   <path class="fil20" d="M113.41 50.76l12.37 0c6.91,0 12.51,-5.6 12.51,-12.51l0 -20.87 -13.72 0c-6.16,0 -11.16,5 -11.16,11.16l0 22.22z"/>
   <path class="fil21" d="M136.29 17.38l0 20.87c0,6.91 -5.6,12.51 -12.51,12.51l2 0c6.91,0 12.51,-5.6 12.51,-12.51l0 -20.87 -2 0z"/>
   <path class="fil14" d="M110.51 26.34c0,1.6 1.3,2.9 2.9,2.9 1.6,0 2.89,-1.3 2.89,-2.9 0,-1.6 -1.3,-2.9 -2.89,-2.9 -1.6,0 -2.9,1.3 -2.9,2.9z"/>
   <path class="fil13" d="M116.71 29.99l0.09 0c1.13,0 2.05,-0.92 2.05,-2.05l0 -12.67c0,-1.13 -0.92,-2.05 -2.05,-2.05l-0.09 0c-1.13,0 -2.05,0.92 -2.05,2.05l0 12.68c0,1.13 0.92,2.05 2.05,2.05z"/>
   <path class="fil13" d="M130.76 15.02c0,2.61 2.12,4.73 4.73,4.73 2.61,0 4.73,-2.12 4.73,-4.73 0,-2.61 -2.12,-4.73 -4.73,-4.73 -2.61,0 -4.73,2.12 -4.73,4.73z"/>
   <path class="fil13" d="M121.11 13.96c0,2.61 2.12,4.73 4.73,4.73 2.61,0 4.73,-2.12 4.73,-4.73 0,-2.61 -2.12,-4.73 -4.73,-4.73 -2.61,0 -4.73,2.12 -4.73,4.73z"/>
   <path class="fil13" d="M114.21 15.81c0,2.61 2.12,4.73 4.73,4.73 2.61,0 4.73,-2.12 4.73,-4.73 0,-2.61 -2.12,-4.73 -4.73,-4.73 -2.61,0 -4.73,2.12 -4.73,4.73z"/>
   <path class="fil13" d="M128.91 9.22c0,3.63 2.95,6.58 6.58,6.58 3.63,0 6.58,-2.95 6.58,-6.58 0,-3.63 -2.95,-6.58 -6.58,-6.58 -3.63,0 -6.58,2.95 -6.58,6.58z"/>
   <path class="fil13" d="M119.27 6.58c0,3.63 2.95,6.58 6.58,6.58 3.63,0 6.58,-2.95 6.58,-6.58 0,-3.64 -2.95,-6.58 -6.58,-6.58 -3.63,0 -6.58,2.95 -6.58,6.58z"/>
   <path class="fil13" d="M112.08 6.58c0,3.63 2.95,6.58 6.58,6.58 3.63,0 6.58,-2.95 6.58,-6.58 0,-3.64 -2.95,-6.58 -6.58,-6.58 -3.63,0 -6.58,2.95 -6.58,6.58z"/>
   <path class="fil13" d="M105.5 13.16c0,3.63 2.95,6.58 6.58,6.58 3.63,0 6.58,-2.95 6.58,-6.58 0,-3.64 -2.95,-6.58 -6.58,-6.58 -3.63,0 -6.58,2.95 -6.58,6.58z"/>
   <path class="fil22" d="M158.62 78.95c-3.74,-2.21 -9.89,-2.24 -13.65,-0.08l-47.26 27.13c-3.77,2.16 -3.79,5.75 -0.06,7.96l32.13 19.08c3.73,2.22 9.87,2.25 13.63,0.08l47.28 -27.29c3.76,-2.17 3.78,-5.75 0.04,-7.96l-32.11 -18.92z"/>
   <path class="fil16" d="M158.62 76.22c-3.74,-2.21 -9.89,-2.24 -13.65,-0.08l-47.26 27.13c-3.77,2.16 -3.79,5.75 -0.06,7.96l32.13 19.07c3.73,2.22 9.87,2.25 13.63,0.08l47.28 -27.3c3.76,-2.17 3.78,-5.75 0.04,-7.96l-32.11 -18.92z"/>
   <path class="fil23" d="M153.15 76.22c-3.74,-2.2 -9.89,-2.24 -13.65,-0.08l-47.26 27.13c-3.77,2.16 -3.79,5.75 -0.06,7.96l32.13 19.07c3.74,2.22 9.87,2.25 13.63,0.08l47.28 -27.3c3.76,-2.17 3.78,-5.75 0.04,-7.96l-32.11 -18.92z"/>
   <path class="fil24" d="M153.15 73.48c-3.74,-2.21 -9.89,-2.24 -13.65,-0.08l-47.26 27.13c-3.77,2.16 -3.79,5.75 -0.06,7.96l32.13 19.08c3.74,2.22 9.87,2.25 13.63,0.08l47.28 -27.29c3.76,-2.17 3.78,-5.75 0.04,-7.96l-32.11 -18.92z"/>
   <path class="fil25" d="M158.62 65.29c-3.74,-2.21 -9.89,-2.24 -13.65,-0.08l-47.26 27.13c-3.77,2.16 -3.79,5.75 -0.06,7.96l32.13 19.08c3.73,2.22 9.87,2.25 13.63,0.08l47.28 -27.3c3.76,-2.17 3.78,-5.75 0.04,-7.96l-32.11 -18.92z"/>
   <path class="fil16" d="M158.62 62.55c-3.74,-2.21 -9.89,-2.24 -13.65,-0.08l-47.26 27.13c-3.77,2.16 -3.79,5.75 -0.06,7.96l32.13 19.08c3.73,2.22 9.87,2.25 13.63,0.08l47.28 -27.29c3.76,-2.17 3.78,-5.75 0.04,-7.96l-32.11 -18.92z"/>
   <path class="fil26" d="M158.98 94.53c5.88,-3.38 5.88,-8.9 0,-12.28 -5.88,-3.38 -15.48,-3.38 -21.33,0 -5.85,3.38 -5.85,8.9 0,12.28 5.85,3.38 15.45,3.38 21.33,0z"/>
   <path class="fil15" d="M151.93 82.38l-0.64 0.54 -5.59 0 -0.61 -0.56c-1.79,-1.65 -2.81,-3.97 -2.81,-6.4l0 -2.43 12.76 0 0 2.18c0,2.57 -1.14,5.02 -3.12,6.67z"/>
   <path class="fil13" d="M149.48 84.62l-2.08 0c-1.02,0 -1.85,-0.83 -1.85,-1.85l5.79 0c0,1.02 -0.83,1.85 -1.85,1.85z"/>
   <path class="fil27" d="M153.15 70.93c-2.48,-1.43 -6.53,-1.43 -9.01,0 -2.48,1.43 -2.48,3.77 0,5.2 2.48,1.43 6.53,1.43 9.01,0 2.48,-1.43 2.48,-3.77 0,-5.2z"/>
   <path class="fil28" d="M148.67 49.59c-6.44,0 -11.66,5.22 -11.66,11.66 0,4.09 2.11,7.68 5.29,9.76l0 2.64c0.04,0.91 0.71,1.82 1.9,2.51 2.46,1.42 6.52,1.4 8.98,-0.02 1.19,-0.69 1.8,-1.59 1.84,-2.49l0.04 0 0 -2.64c3.18,-2.08 5.29,-5.67 5.29,-9.76 0,-6.44 -5.22,-11.66 -11.66,-11.66z"/>
   <path class="fil29" d="M142.15 62.53c0,-4.21 3.41,-7.63 7.63,-7.63 3.9,0 3.6,-3.25 -1.37,-3.25 -4.97,0 -9,4.03 -9,9 0,3.15 2.75,4.55 2.75,1.88z"/>
   <path class="fil30" d="M153.17 77.16c-2.46,1.42 -6.52,1.43 -8.98,0.02 -1.19,-0.69 -1.86,-1.6 -1.9,-2.51l0 0.87c0.04,0.91 0.71,1.82 1.9,2.51 2.46,1.42 6.52,1.4 8.98,-0.02 1.19,-0.69 1.8,-1.59 1.84,-2.49l0.04 0 0 -0.87 -0.04 0c-0.04,0.91 -0.64,1.81 -1.84,2.49z"/>
   <path class="fil30" d="M153.13 79.7c-2.46,1.42 -6.52,1.43 -8.98,0.02 -0.7,-0.4 -1.22,-0.89 -1.53,-1.4 0.16,0.57 0.38,1.11 0.65,1.63 0.25,0.23 0.55,0.45 0.89,0.64 2.46,1.42 6.52,1.4 8.98,-0.02 0.28,-0.16 0.52,-0.33 0.73,-0.51 0.33,-0.56 0.59,-1.16 0.78,-1.78 -0.3,0.52 -0.8,1.01 -1.51,1.43z"/>
   <path class="fil31" d="M148.63 48.62c-0,0 -0,0 -0,0 -0.52,-0 -0.95,-0.43 -0.95,-0.96l0.04 -7.29c0,-0.52 0.43,-0.94 0.95,-0.94 0,0 0,0 0,0 0.52,0 0.95,0.43 0.95,0.95l-0.04 7.29c-0,0.52 -0.43,0.95 -0.95,0.95zm7.79 1.38l0 0 3.68 -6.29c0.26,-0.45 0.11,-1.04 -0.34,-1.3 -0.45,-0.26 -1.03,-0.11 -1.3,0.34l-3.68 6.29c-0.26,0.45 -0.11,1.04 0.34,1.3 0.15,0.09 0.32,0.13 0.48,0.13 0.33,0 0.64,-0.17 0.82,-0.47zm4.75 5.44l0 0 6.33 -3.6c0.46,-0.26 0.62,-0.84 0.36,-1.3 -0.26,-0.46 -0.84,-0.62 -1.3,-0.36l-6.33 3.6c-0.46,0.26 -0.62,0.84 -0.36,1.3 0.17,0.31 0.5,0.48 0.83,0.48 0.16,0 0.32,-0.04 0.47,-0.12zm-23.66 -0.43l0 0c0.27,-0.45 0.12,-1.03 -0.33,-1.3l-6.25 -3.74c-0.45,-0.27 -1.03,-0.12 -1.3,0.33 -0.27,0.45 -0.12,1.03 0.33,1.3l6.25 3.74c0.15,0.09 0.32,0.13 0.49,0.13 0.32,0 0.64,-0.16 0.82,-0.46zm4.79 -4.71l0 0c0.46,-0.26 0.62,-0.83 0.37,-1.29l-3.54 -6.37c-0.25,-0.46 -0.83,-0.62 -1.29,-0.37 -0.46,0.25 -0.62,0.83 -0.37,1.29l3.54 6.37c0.17,0.31 0.5,0.49 0.83,0.49 0.16,0 0.31,-0.04 0.46,-0.12z"/>
  </g>
 </g>
</svg>
