<?xml version="1.0" encoding="UTF-8"?>
<!DOCTYPE svg PUBLIC "-//W3C//DTD SVG 1.1//EN" "http://www.w3.org/Graphics/SVG/1.1/DTD/svg11.dtd">
<!-- Creator: CorelDRAW 2018 (64-Bit) -->
<svg xmlns="http://www.w3.org/2000/svg" xml:space="preserve" width="64.7762mm" height="60.9819mm" version="1.1" style="shape-rendering:geometricPrecision; text-rendering:geometricPrecision; image-rendering:optimizeQuality; fill-rule:evenodd; clip-rule:evenodd"
viewBox="0 0 1128.9 1062.77"
 xmlns:xlink="http://www.w3.org/1999/xlink">
 <defs>
  <style type="text/css">
   <![CDATA[
    .fil142 {fill:#2842A1;fill-rule:nonzero}
    .fil46 {fill:#36364F;fill-rule:nonzero}
    .fil47 {fill:#484869;fill-rule:nonzero}
    .fil100 {fill:#5B629E;fill-rule:nonzero}
    .fil95 {fill:#ADB9E0;fill-rule:nonzero}
    .fil96 {fill:#C2CAE8;fill-rule:nonzero}
    .fil145 {fill:#D3DAED;fill-rule:nonzero}
    .fil97 {fill:#EFF1F9;fill-rule:nonzero}
    .fil45 {fill:#F2B1B5;fill-rule:nonzero}
    .fil51 {fill:#F7D0D3;fill-rule:nonzero}
    .fil143 {fill:#F7F8FC;fill-rule:nonzero}
    .fil44 {fill:#F9F6F9;fill-rule:nonzero}
    .fil192 {fill:#FFC107;fill-rule:nonzero}
    .fil144 {fill:white;fill-rule:nonzero}
    .fil101 {fill:white;fill-rule:nonzero;fill-opacity:0.000000}
    .fil152 {fill:#FBFBFC;fill-rule:nonzero;fill-opacity:0.023529}
    .fil102 {fill:#FBFBFD;fill-rule:nonzero;fill-opacity:0.023529}
    .fil103 {fill:#F6F7FB;fill-rule:nonzero;fill-opacity:0.047059}
    .fil153 {fill:#F8F8F9;fill-rule:nonzero;fill-opacity:0.047059}
    .fil104 {fill:#F0F2F8;fill-rule:nonzero;fill-opacity:0.074510}
    .fil154 {fill:#F2F2F4;fill-rule:nonzero;fill-opacity:0.074510}
    .fil105 {fill:#ECEEF7;fill-rule:nonzero;fill-opacity:0.098039}
    .fil155 {fill:#EFEFF1;fill-rule:nonzero;fill-opacity:0.098039}
    .fil106 {fill:#E5E8F4;fill-rule:nonzero;fill-opacity:0.121569}
    .fil156 {fill:#E9E9ED;fill-rule:nonzero;fill-opacity:0.121569}
    .fil107 {fill:#E1E5F2;fill-rule:nonzero;fill-opacity:0.145098}
    .fil157 {fill:#E5E5EA;fill-rule:nonzero;fill-opacity:0.145098}
    .fil108 {fill:#DADFEF;fill-rule:nonzero;fill-opacity:0.172549}
    .fil158 {fill:#E0E0E5;fill-rule:nonzero;fill-opacity:0.172549}
    .fil109 {fill:#D6DBED;fill-rule:nonzero;fill-opacity:0.196078}
    .fil159 {fill:#DCDCE2;fill-rule:nonzero;fill-opacity:0.196078}
    .fil49 {fill:#231F1F;fill-rule:nonzero;fill-opacity:0.200000}
    .fil110 {fill:#D2D7EB;fill-rule:nonzero;fill-opacity:0.219608}
    .fil160 {fill:#D9D9DF;fill-rule:nonzero;fill-opacity:0.219608}
    .fil111 {fill:#CBD2E8;fill-rule:nonzero;fill-opacity:0.243137}
    .fil161 {fill:#D3D3DB;fill-rule:nonzero;fill-opacity:0.243137}
    .fil112 {fill:#C7CEE7;fill-rule:nonzero;fill-opacity:0.266667}
    .fil162 {fill:#CFCFD8;fill-rule:nonzero;fill-opacity:0.266667}
    .fil113 {fill:#C1C8E4;fill-rule:nonzero;fill-opacity:0.294118}
    .fil163 {fill:#CACAD3;fill-rule:nonzero;fill-opacity:0.294118}
    .fil98 {fill:#231F1F;fill-rule:nonzero;fill-opacity:0.301961}
    .fil114 {fill:#BCC4E2;fill-rule:nonzero;fill-opacity:0.317647}
    .fil164 {fill:#C6C6D0;fill-rule:nonzero;fill-opacity:0.317647}
    .fil115 {fill:#B6BFDF;fill-rule:nonzero;fill-opacity:0.341176}
    .fil165 {fill:#C1C1CC;fill-rule:nonzero;fill-opacity:0.341176}
    .fil116 {fill:#B2BBDD;fill-rule:nonzero;fill-opacity:0.364706}
    .fil166 {fill:#BDBDC9;fill-rule:nonzero;fill-opacity:0.364706}
    .fil117 {fill:#ABB5DA;fill-rule:nonzero;fill-opacity:0.392157}
    .fil167 {fill:#B8B8C4;fill-rule:nonzero;fill-opacity:0.392157}
    .fil118 {fill:#A7B2D8;fill-rule:nonzero;fill-opacity:0.415686}
    .fil168 {fill:#B4B4C1;fill-rule:nonzero;fill-opacity:0.415686}
    .fil119 {fill:#A3AED7;fill-rule:nonzero;fill-opacity:0.439216}
    .fil169 {fill:#B0B0BE;fill-rule:nonzero;fill-opacity:0.439216}
    .fil120 {fill:#9CA8D4;fill-rule:nonzero;fill-opacity:0.462745}
    .fil170 {fill:#ABABBA;fill-rule:nonzero;fill-opacity:0.462745}
    .fil0 {fill:#B6B6B7;fill-rule:nonzero;fill-opacity:0.470588}
    .fil121 {fill:#98A4D2;fill-rule:nonzero;fill-opacity:0.486275}
    .fil171 {fill:#A7A7B7;fill-rule:nonzero;fill-opacity:0.486275}
    .fil122 {fill:#919FCF;fill-rule:nonzero;fill-opacity:0.513725}
    .fil172 {fill:#A2A2B2;fill-rule:nonzero;fill-opacity:0.513725}
    .fil123 {fill:#8D9BCD;fill-rule:nonzero;fill-opacity:0.537255}
    .fil173 {fill:#9E9EAF;fill-rule:nonzero;fill-opacity:0.537255}
    .fil124 {fill:#8795CA;fill-rule:nonzero;fill-opacity:0.560784}
    .fil174 {fill:#9999AB;fill-rule:nonzero;fill-opacity:0.560784}
    .fil125 {fill:#8291C8;fill-rule:nonzero;fill-opacity:0.584314}
    .fil175 {fill:#9595A8;fill-rule:nonzero;fill-opacity:0.584314}
    .fil126 {fill:#7E8EC7;fill-rule:nonzero;fill-opacity:0.607843}
    .fil176 {fill:#9191A5;fill-rule:nonzero;fill-opacity:0.607843}
    .fil127 {fill:#7888C4;fill-rule:nonzero;fill-opacity:0.635294}
    .fil177 {fill:#8C8CA0;fill-rule:nonzero;fill-opacity:0.635294}
    .fil128 {fill:#7384C2;fill-rule:nonzero;fill-opacity:0.658824}
    .fil178 {fill:#88889D;fill-rule:nonzero;fill-opacity:0.658824}
    .fil129 {fill:#6D7EBF;fill-rule:nonzero;fill-opacity:0.682353}
    .fil179 {fill:#838399;fill-rule:nonzero;fill-opacity:0.682353}
    .fil130 {fill:#687BBD;fill-rule:nonzero;fill-opacity:0.705882}
    .fil180 {fill:#7F7F96;fill-rule:nonzero;fill-opacity:0.705882}
    .fil42 {fill:#FF9700;fill-rule:nonzero;fill-opacity:0.709804}
    .fil41 {fill:#FF9A08;fill-rule:nonzero;fill-opacity:0.709804}
    .fil40 {fill:#FF9C0D;fill-rule:nonzero;fill-opacity:0.709804}
    .fil39 {fill:#FF9F14;fill-rule:nonzero;fill-opacity:0.709804}
    .fil38 {fill:#FFA119;fill-rule:nonzero;fill-opacity:0.709804}
    .fil37 {fill:#FFA521;fill-rule:nonzero;fill-opacity:0.709804}
    .fil36 {fill:#FFA726;fill-rule:nonzero;fill-opacity:0.709804}
    .fil35 {fill:#FFAA2E;fill-rule:nonzero;fill-opacity:0.709804}
    .fil34 {fill:#FFAC33;fill-rule:nonzero;fill-opacity:0.709804}
    .fil33 {fill:#FFAE38;fill-rule:nonzero;fill-opacity:0.709804}
    .fil32 {fill:#FFB140;fill-rule:nonzero;fill-opacity:0.709804}
    .fil31 {fill:#FFB345;fill-rule:nonzero;fill-opacity:0.709804}
    .fil30 {fill:#FFB64C;fill-rule:nonzero;fill-opacity:0.709804}
    .fil29 {fill:#FFB852;fill-rule:nonzero;fill-opacity:0.709804}
    .fil28 {fill:#FFBB59;fill-rule:nonzero;fill-opacity:0.709804}
    .fil27 {fill:#FFBD5E;fill-rule:nonzero;fill-opacity:0.709804}
    .fil26 {fill:#FFC166;fill-rule:nonzero;fill-opacity:0.709804}
    .fil25 {fill:#FFC36B;fill-rule:nonzero;fill-opacity:0.709804}
    .fil24 {fill:#FFC570;fill-rule:nonzero;fill-opacity:0.709804}
    .fil23 {fill:#FFC878;fill-rule:nonzero;fill-opacity:0.709804}
    .fil22 {fill:#FFCA7D;fill-rule:nonzero;fill-opacity:0.709804}
    .fil21 {fill:#FFCD85;fill-rule:nonzero;fill-opacity:0.709804}
    .fil20 {fill:#FFCF8A;fill-rule:nonzero;fill-opacity:0.709804}
    .fil19 {fill:#FFD291;fill-rule:nonzero;fill-opacity:0.709804}
    .fil18 {fill:#FFD496;fill-rule:nonzero;fill-opacity:0.709804}
    .fil17 {fill:#FFD69C;fill-rule:nonzero;fill-opacity:0.709804}
    .fil16 {fill:#FFDAA3;fill-rule:nonzero;fill-opacity:0.709804}
    .fil15 {fill:#FFDCA8;fill-rule:nonzero;fill-opacity:0.709804}
    .fil14 {fill:#FFDFB0;fill-rule:nonzero;fill-opacity:0.709804}
    .fil13 {fill:#FFE1B5;fill-rule:nonzero;fill-opacity:0.709804}
    .fil12 {fill:#FFE4BD;fill-rule:nonzero;fill-opacity:0.709804}
    .fil11 {fill:#FFE6C2;fill-rule:nonzero;fill-opacity:0.709804}
    .fil10 {fill:#FFE9C9;fill-rule:nonzero;fill-opacity:0.709804}
    .fil9 {fill:#FFEBCF;fill-rule:nonzero;fill-opacity:0.709804}
    .fil8 {fill:#FFEDD4;fill-rule:nonzero;fill-opacity:0.709804}
    .fil7 {fill:#FFF0DB;fill-rule:nonzero;fill-opacity:0.709804}
    .fil6 {fill:#FFF3E0;fill-rule:nonzero;fill-opacity:0.709804}
    .fil5 {fill:#FFF6E8;fill-rule:nonzero;fill-opacity:0.709804}
    .fil4 {fill:#FFF8ED;fill-rule:nonzero;fill-opacity:0.709804}
    .fil3 {fill:#FFFBF5;fill-rule:nonzero;fill-opacity:0.709804}
    .fil2 {fill:#FFFDFA;fill-rule:nonzero;fill-opacity:0.709804}
    .fil1 {fill:white;fill-rule:nonzero;fill-opacity:0.709804}
    .fil131 {fill:#6275BA;fill-rule:nonzero;fill-opacity:0.733333}
    .fil181 {fill:#797991;fill-rule:nonzero;fill-opacity:0.733333}
    .fil132 {fill:#5E71B8;fill-rule:nonzero;fill-opacity:0.756863}
    .fil182 {fill:#76768E;fill-rule:nonzero;fill-opacity:0.756863}
    .fil133 {fill:#576CB6;fill-rule:nonzero;fill-opacity:0.780392}
    .fil183 {fill:#70708A;fill-rule:nonzero;fill-opacity:0.780392}
    .fil94 {fill:#484869;fill-rule:nonzero;fill-opacity:0.788235}
    .fil93 {fill:#4D4D6D;fill-rule:nonzero;fill-opacity:0.788235}
    .fil92 {fill:#515170;fill-rule:nonzero;fill-opacity:0.788235}
    .fil91 {fill:#575775;fill-rule:nonzero;fill-opacity:0.788235}
    .fil90 {fill:#5A5A78;fill-rule:nonzero;fill-opacity:0.788235}
    .fil89 {fill:#60607C;fill-rule:nonzero;fill-opacity:0.788235}
    .fil88 {fill:#63637F;fill-rule:nonzero;fill-opacity:0.788235}
    .fil87 {fill:#696984;fill-rule:nonzero;fill-opacity:0.788235}
    .fil86 {fill:#6D6D87;fill-rule:nonzero;fill-opacity:0.788235}
    .fil85 {fill:#70708A;fill-rule:nonzero;fill-opacity:0.788235}
    .fil84 {fill:#76768E;fill-rule:nonzero;fill-opacity:0.788235}
    .fil83 {fill:#797991;fill-rule:nonzero;fill-opacity:0.788235}
    .fil82 {fill:#7F7F96;fill-rule:nonzero;fill-opacity:0.788235}
    .fil81 {fill:#838399;fill-rule:nonzero;fill-opacity:0.788235}
    .fil80 {fill:#88889D;fill-rule:nonzero;fill-opacity:0.788235}
    .fil79 {fill:#8C8CA0;fill-rule:nonzero;fill-opacity:0.788235}
    .fil78 {fill:#9191A5;fill-rule:nonzero;fill-opacity:0.788235}
    .fil77 {fill:#9595A8;fill-rule:nonzero;fill-opacity:0.788235}
    .fil76 {fill:#9999AB;fill-rule:nonzero;fill-opacity:0.788235}
    .fil75 {fill:#9E9EAF;fill-rule:nonzero;fill-opacity:0.788235}
    .fil74 {fill:#A2A2B2;fill-rule:nonzero;fill-opacity:0.788235}
    .fil73 {fill:#A7A7B7;fill-rule:nonzero;fill-opacity:0.788235}
    .fil72 {fill:#ABABBA;fill-rule:nonzero;fill-opacity:0.788235}
    .fil71 {fill:#B0B0BE;fill-rule:nonzero;fill-opacity:0.788235}
    .fil70 {fill:#B4B4C1;fill-rule:nonzero;fill-opacity:0.788235}
    .fil69 {fill:#B8B8C4;fill-rule:nonzero;fill-opacity:0.788235}
    .fil68 {fill:#BDBDC9;fill-rule:nonzero;fill-opacity:0.788235}
    .fil67 {fill:#C1C1CC;fill-rule:nonzero;fill-opacity:0.788235}
    .fil66 {fill:#C6C6D0;fill-rule:nonzero;fill-opacity:0.788235}
    .fil65 {fill:#CACAD3;fill-rule:nonzero;fill-opacity:0.788235}
    .fil64 {fill:#CFCFD8;fill-rule:nonzero;fill-opacity:0.788235}
    .fil63 {fill:#D3D3DB;fill-rule:nonzero;fill-opacity:0.788235}
    .fil62 {fill:#D9D9DF;fill-rule:nonzero;fill-opacity:0.788235}
    .fil61 {fill:#DCDCE2;fill-rule:nonzero;fill-opacity:0.788235}
    .fil60 {fill:#E0E0E5;fill-rule:nonzero;fill-opacity:0.788235}
    .fil59 {fill:#E5E5EA;fill-rule:nonzero;fill-opacity:0.788235}
    .fil58 {fill:#E9E9ED;fill-rule:nonzero;fill-opacity:0.788235}
    .fil57 {fill:#EFEFF1;fill-rule:nonzero;fill-opacity:0.788235}
    .fil56 {fill:#F2F2F4;fill-rule:nonzero;fill-opacity:0.788235}
    .fil55 {fill:#F8F8F9;fill-rule:nonzero;fill-opacity:0.788235}
    .fil54 {fill:#FBFBFC;fill-rule:nonzero;fill-opacity:0.788235}
    .fil53 {fill:white;fill-rule:nonzero;fill-opacity:0.788235}
    .fil134 {fill:#5368B4;fill-rule:nonzero;fill-opacity:0.803922}
    .fil184 {fill:#6D6D87;fill-rule:nonzero;fill-opacity:0.803922}
    .fil135 {fill:#4F64B2;fill-rule:nonzero;fill-opacity:0.827451}
    .fil185 {fill:#696984;fill-rule:nonzero;fill-opacity:0.827451}
    .fil136 {fill:#485EAF;fill-rule:nonzero;fill-opacity:0.854902}
    .fil186 {fill:#63637F;fill-rule:nonzero;fill-opacity:0.854902}
    .fil137 {fill:#445BAD;fill-rule:nonzero;fill-opacity:0.878431}
    .fil187 {fill:#60607C;fill-rule:nonzero;fill-opacity:0.878431}
    .fil138 {fill:#3D55AA;fill-rule:nonzero;fill-opacity:0.901961}
    .fil188 {fill:#5A5A78;fill-rule:nonzero;fill-opacity:0.901961}
    .fil139 {fill:#3951A9;fill-rule:nonzero;fill-opacity:0.925490}
    .fil189 {fill:#575775;fill-rule:nonzero;fill-opacity:0.925490}
    .fil140 {fill:#334BA6;fill-rule:nonzero;fill-opacity:0.952941}
    .fil190 {fill:#515170;fill-rule:nonzero;fill-opacity:0.952941}
    .fil141 {fill:#2E48A4;fill-rule:nonzero;fill-opacity:0.976471}
    .fil191 {fill:#4D4D6D;fill-rule:nonzero;fill-opacity:0.976471}
    .fil151 {fill:url(#id0);fill-rule:nonzero}
    .fil146 {fill:url(#id1);fill-rule:nonzero}
    .fil147 {fill:url(#id2);fill-rule:nonzero}
    .fil150 {fill:url(#id3);fill-rule:nonzero}
    .fil50 {fill:url(#id4);fill-rule:nonzero}
    .fil148 {fill:url(#id5);fill-rule:nonzero}
    .fil193 {fill:url(#id6);fill-rule:nonzero}
    .fil149 {fill:url(#id7);fill-rule:nonzero}
    .fil43 {fill:url(#id8);fill-rule:nonzero}
    .fil48 {fill:url(#id9);fill-rule:nonzero}
    .fil52 {fill:url(#id10);fill-rule:nonzero}
    .fil99 {fill:url(#id11);fill-rule:nonzero}
   ]]>
  </style>
  <linearGradient id="id0" gradientUnits="userSpaceOnUse" x1="893.25" y1="452.02" x2="1007.18" y2="452.02">
   <stop offset="0" style="stop-opacity:1; stop-color:#DEE2F2"/>
   <stop offset="1" style="stop-opacity:1; stop-color:#A8B0D8"/>
  </linearGradient>
  <linearGradient id="id1" gradientUnits="userSpaceOnUse" x1="820.8" y1="303.82" x2="921.72" y2="303.82">
   <stop offset="0" style="stop-opacity:1; stop-color:#F49E0B"/>
   <stop offset="0.141176" style="stop-opacity:1; stop-color:#F49E0B"/>
   <stop offset="1" style="stop-opacity:1; stop-color:#FBC800"/>
  </linearGradient>
  <linearGradient id="id2" gradientUnits="userSpaceOnUse" xlink:href="#id1" x1="814.41" y1="370.25" x2="928.34" y2="370.25">
  </linearGradient>
  <linearGradient id="id3" gradientUnits="userSpaceOnUse" xlink:href="#id0" x1="899.64" y1="385.59" x2="1000.56" y2="385.59">
  </linearGradient>
  <linearGradient id="id4" gradientUnits="userSpaceOnUse" xlink:href="#id1" x1="115.33" y1="393.63" x2="286.7" y2="393.63">
  </linearGradient>
  <linearGradient id="id5" gradientUnits="userSpaceOnUse" x1="760.27" y1="393.89" x2="861.18" y2="393.89">
   <stop offset="0" style="stop-opacity:1; stop-color:#5E619F"/>
   <stop offset="0.988235" style="stop-opacity:1; stop-color:#4D4D70"/>
   <stop offset="1" style="stop-opacity:1; stop-color:#4D4D70"/>
  </linearGradient>
  <linearGradient id="id6" gradientUnits="userSpaceOnUse" x1="423.37" y1="154.22" x2="242.16" y2="154.22">
   <stop offset="0" style="stop-opacity:1; stop-color:#F49E0B"/>
   <stop offset="1" style="stop-opacity:1; stop-color:#FBC800"/>
  </linearGradient>
  <linearGradient id="id7" gradientUnits="userSpaceOnUse" xlink:href="#id5" x1="753.88" y1="460.31" x2="867.81" y2="460.31">
  </linearGradient>
  <linearGradient id="id8" gradientUnits="userSpaceOnUse" x1="0.19" y1="359.45" x2="1128.6" y2="359.45">
   <stop offset="0" style="stop-opacity:1; stop-color:#F1F0F3"/>
   <stop offset="0.988235" style="stop-opacity:1; stop-color:#A8B0D8"/>
   <stop offset="1" style="stop-opacity:1; stop-color:#A8B0D8"/>
  </linearGradient>
  <linearGradient id="id9" gradientUnits="userSpaceOnUse" xlink:href="#id1" x1="128.03" y1="321.77" x2="319.29" y2="321.77">
  </linearGradient>
  <linearGradient id="id10" gradientUnits="userSpaceOnUse" xlink:href="#id6" x1="609.28" y1="220.55" x2="114.05" y2="443.4">
  </linearGradient>
  <radialGradient id="id11" gradientUnits="userSpaceOnUse" gradientTransform="matrix(1.01084 -0 -0 0.696276 -6 70)" cx="514.11" cy="231.91" r="84.79" fx="514.11" fy="231.91">
   <stop offset="0" style="stop-opacity:1; stop-color:#C7C6DD"/>
   <stop offset="0.160784" style="stop-opacity:1; stop-color:#C7C6DD"/>
   <stop offset="0.470588" style="stop-opacity:1; stop-color:#E3E3EF"/>
   <stop offset="1" style="stop-opacity:1; stop-color:white"/>
  </radialGradient>
 </defs>
 <g id="Layer_x0020_1">
  <metadata id="CorelCorpID_0Corel-Layer"/>
  <g id="_2944417761216">
   <path class="fil0" d="M320.49 395.99c49.56,-28.61 130.64,-28.61 180.2,0l590.74 341.07c49.55,28.61 50.01,76.21 1.03,105.77l-274.2 165.46c-48.99,29.57 -129.65,30.39 -179.23,1.83l-601.82 -346.6c-49.59,-28.56 -49.61,-75.33 -0.06,-103.94l283.34 -163.58z"/>
   <path class="fil1" d="M364.04 424.28c40.71,-23.5 107.32,-23.5 148.03,0l485.28 280.18c40.71,23.5 41.09,62.6 0.84,86.89l-225.25 135.92c-40.25,24.29 -106.5,24.96 -147.24,1.5l-494.38 -284.72c-40.73,-23.46 -40.75,-61.88 -0.04,-85.39l232.75 -134.38z"/>
   <path class="fil2" d="M625.71 922.83l-494.38 -284.73c-40.73,-23.46 -40.75,-61.88 -0.04,-85.38l232.75 -134.38c40.71,-23.5 107.32,-23.5 148.03,0l485.28 280.17c40.71,23.5 41.09,62.6 0.84,86.89l-225.25 135.92c-40.25,24.28 -106.5,24.96 -147.24,1.5z"/>
   <path class="fil3" d="M625.71 916.88l-494.38 -284.72c-40.73,-23.46 -40.75,-61.88 -0.04,-85.39l232.75 -134.38c40.71,-23.5 107.32,-23.5 148.03,0l485.28 280.18c40.71,23.5 41.09,62.6 0.84,86.88l-225.25 135.92c-40.25,24.29 -106.5,24.96 -147.24,1.5z"/>
   <path class="fil4" d="M625.71 910.93l-494.38 -284.72c-40.73,-23.46 -40.75,-61.88 -0.04,-85.39l232.75 -134.38c40.71,-23.5 107.32,-23.5 148.03,0l485.28 280.18c40.71,23.5 41.09,62.6 0.84,86.89l-225.25 135.92c-40.25,24.28 -106.5,24.96 -147.24,1.5z"/>
   <path class="fil5" d="M625.71 904.99l-494.38 -284.72c-40.73,-23.46 -40.75,-61.88 -0.04,-85.39l232.75 -134.38c40.71,-23.51 107.32,-23.51 148.03,0l485.28 280.18c40.71,23.5 41.09,62.6 0.84,86.88l-225.25 135.92c-40.25,24.29 -106.5,24.96 -147.24,1.5z"/>
   <path class="fil6" d="M625.71 899.05l-494.38 -284.73c-40.73,-23.46 -40.75,-61.88 -0.04,-85.39l232.75 -134.38c40.71,-23.5 107.32,-23.5 148.03,0l485.28 280.18c40.71,23.5 41.09,62.6 0.84,86.89l-225.25 135.92c-40.25,24.29 -106.5,24.97 -147.24,1.51z"/>
   <path class="fil7" d="M625.71 893.11l-494.38 -284.73c-40.73,-23.46 -40.75,-61.88 -0.04,-85.38l232.75 -134.38c40.71,-23.51 107.32,-23.51 148.03,0l485.28 280.17c40.71,23.51 41.09,62.6 0.84,86.89l-225.25 135.92c-40.25,24.28 -106.5,24.96 -147.24,1.5z"/>
   <path class="fil8" d="M625.71 887.16l-494.38 -284.72c-40.73,-23.46 -40.75,-61.88 -0.04,-85.39l232.75 -134.38c40.71,-23.51 107.32,-23.51 148.03,0l485.28 280.18c40.71,23.5 41.09,62.6 0.84,86.89l-225.25 135.92c-40.25,24.29 -106.5,24.96 -147.24,1.5z"/>
   <path class="fil9" d="M625.71 881.21l-494.38 -284.72c-40.73,-23.46 -40.75,-61.88 -0.04,-85.39l232.75 -134.38c40.71,-23.5 107.32,-23.5 148.03,0l485.28 280.18c40.71,23.51 41.09,62.6 0.84,86.89l-225.25 135.92c-40.25,24.28 -106.5,24.96 -147.24,1.5z"/>
   <path class="fil10" d="M625.71 875.27l-494.38 -284.72c-40.73,-23.46 -40.75,-61.88 -0.04,-85.39l232.75 -134.38c40.71,-23.51 107.32,-23.51 148.03,0l485.28 280.18c40.71,23.5 41.09,62.6 0.84,86.88l-225.25 135.92c-40.25,24.29 -106.5,24.96 -147.24,1.5z"/>
   <path class="fil11" d="M625.71 869.33l-494.38 -284.73c-40.73,-23.46 -40.75,-61.88 -0.04,-85.39l232.75 -134.38c40.71,-23.5 107.32,-23.5 148.03,0l485.28 280.18c40.71,23.51 41.09,62.6 0.84,86.89l-225.25 135.92c-40.25,24.29 -106.5,24.97 -147.24,1.51z"/>
   <path class="fil12" d="M625.71 863.39l-494.38 -284.72c-40.73,-23.46 -40.75,-61.88 -0.04,-85.39l232.75 -134.38c40.71,-23.5 107.32,-23.5 148.03,0l485.28 280.18c40.71,23.5 41.09,62.6 0.84,86.88l-225.25 135.92c-40.25,24.28 -106.5,24.96 -147.24,1.5z"/>
   <path class="fil13" d="M625.71 857.44l-494.38 -284.72c-40.73,-23.46 -40.75,-61.88 -0.04,-85.39l232.75 -134.38c40.71,-23.5 107.32,-23.5 148.03,0l485.28 280.18c40.71,23.5 41.09,62.6 0.84,86.89l-225.25 135.92c-40.25,24.29 -106.5,24.96 -147.24,1.5z"/>
   <path class="fil14" d="M625.71 851.49l-494.38 -284.72c-40.73,-23.46 -40.75,-61.89 -0.04,-85.39l232.75 -134.38c40.71,-23.5 107.32,-23.5 148.03,0l485.28 280.18c40.71,23.5 41.09,62.6 0.84,86.88l-225.25 135.92c-40.25,24.28 -106.5,24.96 -147.24,1.5z"/>
   <path class="fil15" d="M625.71 845.55l-494.38 -284.72c-40.73,-23.46 -40.75,-61.88 -0.04,-85.39l232.75 -134.38c40.71,-23.5 107.32,-23.5 148.03,0l485.28 280.18c40.71,23.5 41.09,62.6 0.84,86.89l-225.25 135.92c-40.25,24.29 -106.5,24.96 -147.24,1.5z"/>
   <path class="fil16" d="M625.71 839.61l-494.38 -284.73c-40.73,-23.46 -40.75,-61.88 -0.04,-85.38l232.75 -134.38c40.71,-23.51 107.32,-23.51 148.03,0l485.28 280.17c40.71,23.5 41.09,62.6 0.84,86.89l-225.25 135.92c-40.25,24.29 -106.5,24.97 -147.24,1.51z"/>
   <path class="fil17" d="M625.71 833.66l-494.38 -284.72c-40.73,-23.46 -40.75,-61.88 -0.04,-85.39l232.75 -134.38c40.71,-23.51 107.32,-23.51 148.03,0l485.28 280.18c40.71,23.5 41.09,62.6 0.84,86.88l-225.25 135.92c-40.25,24.29 -106.5,24.96 -147.24,1.5z"/>
   <path class="fil18" d="M625.71 827.72l-494.38 -284.72c-40.73,-23.46 -40.75,-61.88 -0.04,-85.39l232.75 -134.38c40.71,-23.5 107.32,-23.5 148.03,0l485.28 280.18c40.71,23.5 41.09,62.6 0.84,86.89l-225.25 135.92c-40.25,24.29 -106.5,24.97 -147.24,1.5z"/>
   <path class="fil19" d="M625.71 821.77l-494.38 -284.72c-40.73,-23.46 -40.75,-61.89 -0.04,-85.39l232.75 -134.38c40.71,-23.5 107.32,-23.5 148.03,0l485.28 280.18c40.71,23.5 41.09,62.6 0.84,86.88l-225.25 135.92c-40.25,24.28 -106.5,24.96 -147.24,1.5z"/>
   <path class="fil20" d="M625.71 815.83l-494.38 -284.72c-40.73,-23.46 -40.75,-61.88 -0.04,-85.39l232.75 -134.38c40.71,-23.51 107.32,-23.51 148.03,0l485.28 280.18c40.71,23.5 41.09,62.6 0.84,86.89l-225.25 135.92c-40.25,24.29 -106.5,24.96 -147.24,1.5z"/>
   <path class="fil21" d="M625.71 809.89l-494.38 -284.73c-40.73,-23.46 -40.75,-61.88 -0.04,-85.38l232.75 -134.38c40.71,-23.51 107.32,-23.51 148.03,0l485.28 280.17c40.71,23.51 41.09,62.6 0.84,86.89l-225.25 135.92c-40.25,24.28 -106.5,24.96 -147.24,1.5z"/>
   <path class="fil22" d="M625.71 803.94l-494.38 -284.72c-40.73,-23.46 -40.75,-61.88 -0.04,-85.39l232.75 -134.38c40.71,-23.51 107.32,-23.51 148.03,0l485.28 280.18c40.71,23.5 41.09,62.6 0.84,86.88l-225.25 135.92c-40.25,24.29 -106.5,24.96 -147.24,1.5z"/>
   <path class="fil23" d="M625.71 798l-494.38 -284.72c-40.73,-23.46 -40.75,-61.88 -0.04,-85.39l232.75 -134.38c40.71,-23.5 107.32,-23.5 148.03,0l485.28 280.18c40.71,23.51 41.09,62.6 0.84,86.89l-225.25 135.92c-40.25,24.29 -106.5,24.97 -147.24,1.5z"/>
   <path class="fil24" d="M625.71 792.06l-494.38 -284.72c-40.73,-23.46 -40.75,-61.89 -0.04,-85.39l232.75 -134.38c40.71,-23.5 107.32,-23.5 148.03,0l485.28 280.18c40.71,23.5 41.09,62.59 0.84,86.88l-225.25 135.92c-40.25,24.29 -106.5,24.96 -147.24,1.5z"/>
   <path class="fil25" d="M625.71 786.11l-494.38 -284.72c-40.73,-23.46 -40.75,-61.88 -0.04,-85.39l232.75 -134.38c40.71,-23.5 107.32,-23.5 148.03,0l485.28 280.18c40.71,23.5 41.09,62.6 0.84,86.89l-225.25 135.91c-40.25,24.29 -106.5,24.96 -147.24,1.5z"/>
   <path class="fil26" d="M625.71 780.17l-494.38 -284.73c-40.73,-23.46 -40.75,-61.88 -0.04,-85.38l232.75 -134.38c40.71,-23.5 107.32,-23.5 148.03,0l485.28 280.17c40.71,23.5 41.09,62.6 0.84,86.89l-225.25 135.92c-40.25,24.28 -106.5,24.96 -147.24,1.5z"/>
   <path class="fil27" d="M625.71 774.22l-494.38 -284.72c-40.73,-23.46 -40.75,-61.88 -0.04,-85.39l232.75 -134.38c40.71,-23.5 107.32,-23.5 148.03,0l485.28 280.18c40.71,23.5 41.09,62.6 0.84,86.88l-225.25 135.92c-40.25,24.29 -106.5,24.96 -147.24,1.5z"/>
   <path class="fil28" d="M625.71 768.28l-494.38 -284.72c-40.73,-23.46 -40.75,-61.88 -0.04,-85.38l232.75 -134.38c40.71,-23.5 107.32,-23.5 148.03,0l485.28 280.18c40.71,23.5 41.09,62.6 0.84,86.89l-225.25 135.92c-40.25,24.28 -106.5,24.96 -147.24,1.5z"/>
   <path class="fil29" d="M625.71 762.34l-494.38 -284.72c-40.73,-23.46 -40.75,-61.88 -0.04,-85.39l232.75 -134.38c40.71,-23.5 107.32,-23.5 148.03,0l485.28 280.18c40.71,23.5 41.09,62.6 0.84,86.88l-225.25 135.92c-40.25,24.29 -106.5,24.96 -147.24,1.5z"/>
   <path class="fil30" d="M625.71 756.39l-494.38 -284.72c-40.73,-23.46 -40.75,-61.88 -0.04,-85.38l232.75 -134.38c40.71,-23.5 107.32,-23.5 148.03,0l485.28 280.18c40.71,23.51 41.09,62.6 0.84,86.89l-225.25 135.92c-40.25,24.29 -106.5,24.96 -147.24,1.5z"/>
   <path class="fil31" d="M625.71 750.45l-494.38 -284.73c-40.73,-23.46 -40.75,-61.88 -0.04,-85.38l232.75 -134.38c40.71,-23.51 107.32,-23.51 148.03,0l485.28 280.17c40.71,23.5 41.09,62.6 0.84,86.89l-225.25 135.92c-40.25,24.28 -106.5,24.96 -147.24,1.5z"/>
   <path class="fil32" d="M625.71 744.5l-494.38 -284.72c-40.73,-23.46 -40.75,-61.88 -0.04,-85.39l232.75 -134.38c40.71,-23.51 107.32,-23.51 148.03,0l485.28 280.18c40.71,23.5 41.09,62.6 0.84,86.88l-225.25 135.92c-40.25,24.29 -106.5,24.96 -147.24,1.5z"/>
   <path class="fil33" d="M625.71 738.56l-494.38 -284.72c-40.73,-23.46 -40.75,-61.88 -0.04,-85.38l232.75 -134.38c40.71,-23.5 107.32,-23.5 148.03,0l485.28 280.18c40.71,23.51 41.09,62.6 0.84,86.89l-225.25 135.92c-40.25,24.28 -106.5,24.96 -147.24,1.5z"/>
   <path class="fil34" d="M625.71 732.62l-494.38 -284.72c-40.73,-23.46 -40.75,-61.88 -0.04,-85.39l232.75 -134.38c40.71,-23.51 107.32,-23.51 148.03,0l485.28 280.18c40.71,23.5 41.09,62.6 0.84,86.88l-225.25 135.92c-40.25,24.29 -106.5,24.96 -147.24,1.5z"/>
   <path class="fil35" d="M625.71 726.68l-494.38 -284.73c-40.73,-23.46 -40.75,-61.88 -0.04,-85.38l232.75 -134.38c40.71,-23.5 107.32,-23.5 148.03,0l485.28 280.18c40.71,23.51 41.09,62.6 0.84,86.89l-225.25 135.92c-40.25,24.29 -106.5,24.97 -147.24,1.51z"/>
   <path class="fil36" d="M625.71 720.73l-494.38 -284.72c-40.73,-23.46 -40.75,-61.88 -0.04,-85.39l232.75 -134.38c40.71,-23.51 107.32,-23.51 148.03,0l485.28 280.17c40.71,23.51 41.09,62.61 0.84,86.89l-225.25 135.92c-40.25,24.29 -106.5,24.96 -147.24,1.5z"/>
   <path class="fil37" d="M625.71 714.78l-494.38 -284.72c-40.73,-23.46 -40.75,-61.88 -0.04,-85.39l232.75 -134.38c40.71,-23.51 107.32,-23.51 148.03,0l485.28 280.18c40.71,23.5 41.09,62.6 0.84,86.89l-225.25 135.91c-40.25,24.29 -106.5,24.97 -147.24,1.5z"/>
   <path class="fil38" d="M625.71 708.84l-494.38 -284.73c-40.73,-23.46 -40.75,-61.88 -0.04,-85.38l232.75 -134.38c40.71,-23.5 107.32,-23.5 148.03,0l485.28 280.18c40.71,23.51 41.09,62.6 0.84,86.89l-225.25 135.92c-40.25,24.28 -106.5,24.96 -147.24,1.5z"/>
   <path class="fil39" d="M625.71 702.9l-494.38 -284.72c-40.73,-23.46 -40.75,-61.88 -0.04,-85.39l232.75 -134.38c40.71,-23.5 107.32,-23.5 148.03,0l485.28 280.18c40.71,23.5 41.09,62.6 0.84,86.89l-225.25 135.92c-40.25,24.29 -106.5,24.96 -147.24,1.5z"/>
   <path class="fil40" d="M625.71 696.95l-494.38 -284.73c-40.73,-23.46 -40.75,-61.88 -0.04,-85.38l232.75 -134.38c40.71,-23.5 107.32,-23.5 148.03,0l485.28 280.18c40.71,23.5 41.09,62.6 0.84,86.89l-225.25 135.92c-40.25,24.29 -106.5,24.97 -147.24,1.51z"/>
   <path class="fil41" d="M625.71 691.01l-494.38 -284.72c-40.73,-23.46 -40.75,-61.88 -0.04,-85.39l232.75 -134.38c40.71,-23.5 107.32,-23.5 148.03,0l485.28 280.18c40.71,23.5 41.09,62.6 0.84,86.88l-225.25 135.92c-40.25,24.29 -106.5,24.96 -147.24,1.5z"/>
   <path class="fil42" d="M364.04 180.58c40.71,-23.5 107.32,-23.5 148.03,0l485.28 280.18c40.71,23.5 41.09,62.6 0.84,86.89l-225.25 135.92c-40.25,24.29 -106.5,24.97 -147.24,1.5l-494.38 -284.72c-40.73,-23.46 -40.75,-61.88 -0.04,-85.39l232.75 -134.38z"/>
   <path class="fil43" d="M320.49 52.67c49.56,-28.61 130.64,-28.61 180.2,0l627.92 357.99 0 51.22c0,9.45 -4.94,18.21 -13.03,23.11l-297.32 179.98c-48.99,29.57 -129.65,30.38 -179.23,1.83l-615.31 -354.32c-14.55,-8.37 -23.52,-23.89 -23.52,-40.68l0 -37.92 320.29 -181.21z"/>
   <path class="fil44" d="M320.49 21.46c49.56,-28.61 130.64,-28.61 180.2,0l590.74 341.07c49.55,28.61 50.01,76.21 1.03,105.77l-274.2 165.46c-48.99,29.56 -129.65,30.38 -179.23,1.82l-601.82 -346.6c-49.59,-28.56 -49.61,-75.33 -0.06,-103.94l283.34 -163.59z"/>
   <path class="fil45" d="M439.83 398.58c2.66,2.77 7.06,2.86 9.83,0.19l13.91 -13.36c2.77,-2.66 2.86,-7.06 0.2,-9.84 -2.66,-2.77 -7.07,-2.86 -9.83,-0.2l-13.91 13.36c-2.77,2.66 -2.86,7.06 -0.19,9.84z"/>
   <path class="fil46" d="M245.86 1062.77l23.87 -13.98 0 -10.73 24.8 -3.58 56.04 -32.47c13.99,-8.11 12.16,-28.86 -3.03,-34.4 -10.72,-3.9 -22.57,-3.29 -32.84,1.7l-43.12 20.97 -59.72 21.95 1.23 21.8c0.92,16.13 14.26,28.74 30.42,28.74l2.35 0z"/>
   <path class="fil47" d="M236.54 1055.8l2.35 0 23.87 -13.98 0 -10.74 24.8 -3.58 56.04 -32.47c9.74,-5.64 11.65,-17.33 6.89,-25.83 12.27,7.05 13.06,25.29 0.08,32.8l-56.04 32.47 -24.8 3.58 0 10.73 -23.87 13.98 -2.35 0c-10.25,0 -19.33,-5.09 -24.86,-12.91 5.04,3.69 11.19,5.94 17.89,5.94z"/>
   <path class="fil46" d="M154.4 1000.24l23.87 -13.98 0 -10.74 24.8 -3.57 56.04 -32.47c13.99,-8.11 12.16,-28.86 -3.03,-34.39 -10.72,-3.91 -22.57,-3.29 -32.83,1.7l-43.12 20.98 -59.72 21.95 1.23 21.8c0.92,16.13 14.26,28.74 30.42,28.74l2.35 0z"/>
   <path class="fil47" d="M145.09 993.26l2.35 0 23.87 -13.99 0 -10.74 24.8 -3.58 56.04 -32.47c9.74,-5.64 11.65,-17.33 6.89,-25.83 12.27,7.05 13.06,25.28 0.08,32.8l-56.04 32.47 -24.8 3.57 0 10.74 -23.87 13.98 -2.35 0c-10.25,0 -19.33,-5.09 -24.86,-12.92 5.05,3.68 11.19,5.95 17.89,5.95z"/>
   <path class="fil47" d="M151.79 971.73c17.34,0 31.38,-7.08 31.38,-24.41l17.44 -464.98c0,-17.34 -31.48,-31.39 -48.82,-31.39 -17.34,0 -31.39,14.05 -31.39,31.39l0 464.98c0,17.33 14.05,24.41 31.39,24.41z"/>
   <path class="fil47" d="M241.1 1025.2c16.2,0 29.94,-1.99 31.25,-18.41l17.63 -272.01 -0.16 -2.33 -17.44 -254.83c-1.18,-17.29 -16.06,-30.42 -33.46,-29.17 -17.29,1.18 -73.91,16.6 -72.73,33.89l52.68 252.45 -9.08 266.99c-1.39,17.27 11.5,21.94 28.78,23.33 0.85,0.07 1.7,0.1 2.54,0.1z"/>
   <path class="fil45" d="M311.01 307.26c-0.33,3.83 2.51,7.2 6.34,7.53l28.95 2.49c3.83,0.33 7.19,-2.51 7.52,-6.34 0.33,-3.83 -2.51,-7.19 -6.34,-7.52l-28.95 -2.49c-3.83,-0.33 -7.19,2.51 -7.53,6.33z"/>
   <path class="fil45" d="M293.12 329.94c4.02,-1.85 7.99,-3.87 11.91,-6.04l42.85 -23.77c10.1,-5.61 13.75,-18.34 8.15,-28.45 -5.61,-10.1 -18.19,-13.79 -28.45,-8.15l-42.86 23.77c-52.09,28.94 -74.12,49.84 -118.16,9.56 -8.53,-7.8 -21.74,-7.22 -29.56,1.32 -7.79,8.53 -7.2,21.76 1.33,29.56 54.02,49.4 89.16,32.55 154.79,2.19z"/>
   <path class="fil48" d="M294.59 333.11c4.09,-1.89 8.14,-3.95 12.13,-6.17 11.79,-6.54 16.04,-21.4 9.5,-33.19 -6.54,-11.78 -21.31,-16.14 -33.19,-9.5 -50.8,28.15 -71.18,49.29 -114.11,10.04 -9.94,-9.1 -25.38,-8.43 -34.48,1.54 -9.1,9.95 -8.41,25.39 1.54,34.48 55.07,50.36 91.71,33.74 158.62,2.8z"/>
   <path class="fil49" d="M168.92 294.29c39.63,36.24 60.09,20.99 102.95,-3.7 6.15,15.23 10.09,31.03 12.39,47.28 -60.46,27.73 -96.13,40.14 -148.28,-7.55 -9.95,-9.09 -10.64,-24.53 -1.54,-34.48 9.1,-9.97 24.54,-10.64 34.48,-1.54z"/>
   <path class="fil50" d="M117.55 231.04c4.3,-29.75 32.12,-49.2 58.56,-34.91 2.85,1.65 5.66,3.35 8.42,5.11 75.84,48.4 93.13,111.38 93.13,179.41l-1.41 57.55 10.47 147.38c-11.86,7.88 -26.98,10.92 -43.35,10.25 -1.54,-0.06 -10.05,-48.98 -11.61,-49.11 -3.78,-0.3 -7.61,48.02 -11.48,47.35 -44.37,-7.69 -85.92,-26.18 -102.72,-59.42l5.22 -173.53c0,0 -12.35,-80.82 -5.22,-130.08z"/>
   <path class="fil45" d="M181.54 237.65c8.48,0 15.35,-6.87 15.35,-15.35l0 -71 -30.71 0 0 71c0,8.48 6.88,15.35 15.35,15.35z"/>
   <path class="fil45" d="M145.28 198.14l39.56 0c29.38,0 53.2,-23.82 53.2,-53.2l0 -79.29 -92.76 0 0 132.5z"/>
   <path class="fil51" d="M229.33 143.48l0 -77.84 8.7 0 0 77.84c0,30.19 -24.47,54.66 -54.66,54.66l-8.7 0c30.19,0 54.66,-24.47 54.66,-54.66z"/>
   <path class="fil47" d="M114.97 133.82c0.13,-3.46 0.22,-6.91 0.16,-10.36 -0.2,-13.42 -1.32,-26.89 0.67,-40.25 2.49,-16.71 10.94,-33.86 26.33,-40.81 9.23,-4.17 19.73,-4.18 29.86,-4.11 20.59,0.13 41.17,0.26 61.76,0.4 9.03,0.06 18.96,0.33 26.71,5.57 14.57,9.85 7.4,28.66 -1.34,39.88 -4.69,6.03 -10.65,11.65 -17.6,14.97 -6.7,3.2 -18.06,0.53 -22.4,7.31 -5.98,9.35 5.35,39.2 -7.7,42.83 -10.1,2.81 -8.75,-7.65 -10.35,-13.47 -1,-3.66 -3.76,-7.33 -7.55,-7.5 -4.76,-0.21 -7.91,4.99 -8.8,9.68 -1.75,9.25 0.96,18.68 2.12,28.03 1.16,9.34 0.24,20.03 -6.84,26.24 -2.54,2.23 -5.68,3.67 -8.85,4.83 -9.34,3.41 -26.41,7.52 -35.02,0.75 -12.21,-9.59 -19.99,-19.41 -21.42,-35.34 -0.85,-9.54 -0.12,-19.1 0.25,-28.66z"/>
   <path class="fil45" d="M386.8 434.83c4.43,0 8.88,-0.16 13.34,-0.49l75.62 -3.77c11.54,-0.57 20.43,-10.39 19.86,-21.94 -0.57,-11.55 -10.56,-20.54 -21.94,-19.86l-76.11 3.8c-60.1,4.34 -115.5,-29.64 -138.57,-84.68l-14.32 -34.17c-4.46,-10.66 -16.71,-15.69 -27.38,-11.21 -10.66,4.46 -15.68,16.72 -11.21,27.38l14.32 34.17c28.29,67.52 94.07,110.76 166.39,110.76z"/>
   <path class="fil49" d="M208.63 298.96c-4.03,-12.87 3.11,-26.56 15.98,-30.6 12.9,-4.04 21.97,4.34 26.01,17.19l15.68 34.14c2.38,7.6 5.45,14.83 9.02,21.71 1.63,12.84 2.32,25.94 2.32,39.24l-0.96 39.15c-26.09,-22.01 -46.21,-51.27 -56.96,-85.48l-11.1 -35.35z"/>
   <path class="fil52" d="M386.79 438.32c4.52,0 9.05,-0.17 13.61,-0.51l28.76 -2.11c13.45,-0.98 23.55,-12.68 22.56,-26.13 -0.98,-13.45 -12.69,-23.6 -26.13,-22.55l-28.77 2.11c-58.03,4.22 -112.12,-28.93 -134.61,-82.58l-14.31 -34.17c-5.22,-12.42 -19.48,-18.29 -31.95,-13.09 -12.44,5.21 -18.29,19.52 -13.08,31.95l14.32 34.17c28.85,68.82 95.89,112.9 169.61,112.9z"/>
   <path class="fil53" d="M384.35 335.47c-5.94,-3.43 -5.94,-9.04 0,-12.47l118.21 -68.25c5.94,-3.43 15.66,-3.43 21.6,0l118.21 68.25c5.94,3.43 5.94,9.04 0,12.47l-118.21 68.25c-5.94,3.43 -15.66,3.43 -21.61,0l-118.21 -68.25z"/>
   <path class="fil54" d="M385.44 335.42c-5.89,-3.4 -5.89,-8.96 0,-12.37l117.21 -67.67c5.89,-3.4 15.53,-3.4 21.42,0l117.21 67.67c5.89,3.4 5.89,8.96 0,12.37l-117.21 67.67c-5.89,3.4 -15.53,3.4 -21.42,0l-117.21 -67.67z"/>
   <path class="fil55" d="M386.53 335.36c-5.84,-3.37 -5.84,-8.89 0,-12.26l116.22 -67.1c5.84,-3.37 15.4,-3.37 21.24,0l116.22 67.1c5.84,3.37 5.84,8.89 0,12.26l-116.22 67.1c-5.84,3.37 -15.4,3.37 -21.24,0l-116.22 -67.1z"/>
   <path class="fil56" d="M387.61 335.31c-5.79,-3.34 -5.79,-8.81 0,-12.16l115.22 -66.52c5.79,-3.34 15.27,-3.34 21.06,0l115.22 66.52c5.79,3.34 5.79,8.81 0,12.16l-115.22 66.52c-5.79,3.34 -15.27,3.34 -21.06,0l-115.22 -66.52z"/>
   <path class="fil57" d="M388.7 335.26c-5.74,-3.31 -5.74,-8.74 0,-12.05l114.22 -65.94c5.74,-3.31 15.13,-3.31 20.88,0l114.22 65.94c5.74,3.32 5.74,8.74 0,12.05l-114.22 65.95c-5.74,3.31 -15.14,3.31 -20.88,0l-114.22 -65.95z"/>
   <path class="fil58" d="M389.79 335.21c-5.69,-3.28 -5.69,-8.66 0,-11.94l113.22 -65.37c5.69,-3.29 15,-3.29 20.7,0l113.22 65.37c5.69,3.28 5.69,8.66 0,11.94l-113.22 65.37c-5.69,3.29 -15,3.29 -20.7,0l-113.22 -65.37z"/>
   <path class="fil59" d="M390.88 335.15c-5.64,-3.26 -5.64,-8.58 0,-11.84l112.23 -64.79c5.64,-3.26 14.87,-3.26 20.51,0l112.23 64.79c5.64,3.26 5.64,8.58 0,11.84l-112.22 64.79c-5.64,3.26 -14.87,3.26 -20.51,0l-112.23 -64.79z"/>
   <path class="fil60" d="M391.97 335.1c-5.59,-3.23 -5.59,-8.51 0,-11.74l111.23 -64.22c5.59,-3.23 14.74,-3.23 20.33,0l111.23 64.22c5.59,3.23 5.59,8.51 0,11.74l-111.23 64.22c-5.59,3.23 -14.74,3.23 -20.33,0l-111.23 -64.22z"/>
   <path class="fil61" d="M393.06 335.05c-5.54,-3.2 -5.54,-8.43 0,-11.63l110.23 -63.64c5.54,-3.2 14.6,-3.2 20.15,0l110.23 63.64c5.54,3.2 5.54,8.43 0,11.63l-110.23 63.64c-5.54,3.2 -14.61,3.2 -20.15,0l-110.23 -63.64z"/>
   <path class="fil62" d="M394.15 335c-5.49,-3.17 -5.49,-8.36 0,-11.53l109.23 -63.07c5.49,-3.17 14.47,-3.17 19.96,0l109.24 63.07c5.49,3.17 5.49,8.36 0,11.53l-109.23 63.06c-5.49,3.17 -14.48,3.17 -19.97,0l-109.23 -63.06z"/>
   <path class="fil63" d="M395.23 334.94c-5.44,-3.14 -5.44,-8.28 0,-11.42l108.24 -62.49c5.44,-3.14 14.34,-3.14 19.78,0l108.24 62.49c5.44,3.14 5.44,8.28 0,11.42l-108.24 62.49c-5.44,3.14 -14.34,3.14 -19.78,0l-108.24 -62.49z"/>
   <path class="fil64" d="M396.32 334.89c-5.39,-3.12 -5.39,-8.21 0,-11.32l107.24 -61.92c5.39,-3.11 14.21,-3.11 19.6,0l107.24 61.92c5.39,3.11 5.39,8.2 0,11.32l-107.24 61.91c-5.39,3.11 -14.21,3.11 -19.6,0l-107.24 -61.91z"/>
   <path class="fil65" d="M397.41 334.84c-5.34,-3.08 -5.34,-8.13 0,-11.21l106.24 -61.34c5.34,-3.08 14.08,-3.08 19.42,0l106.24 61.34c5.34,3.08 5.34,8.13 0,11.21l-106.24 61.34c-5.34,3.08 -14.08,3.08 -19.42,0l-106.24 -61.34z"/>
   <path class="fil66" d="M398.5 334.78c-5.29,-3.05 -5.29,-8.05 0,-11.1l105.24 -60.76c5.29,-3.05 13.95,-3.05 19.23,0l105.25 60.76c5.29,3.06 5.29,8.05 0,11.1l-105.25 60.77c-5.29,3.05 -13.95,3.05 -19.23,0l-105.24 -60.77z"/>
   <path class="fil67" d="M399.59 334.73c-5.24,-3.03 -5.24,-7.97 0,-11l104.25 -60.19c5.24,-3.02 13.81,-3.02 19.05,0l104.25 60.19c5.24,3.03 5.24,7.97 0,11l-104.25 60.18c-5.24,3.03 -13.81,3.03 -19.05,0l-104.25 -60.18z"/>
   <path class="fil68" d="M400.68 334.68c-5.19,-2.99 -5.19,-7.9 0,-10.89l103.25 -59.61c5.19,-3 13.68,-3 18.87,0l103.25 59.61c5.19,3 5.19,7.9 0,10.89l-103.25 59.61c-5.19,3 -13.68,3 -18.87,0l-103.25 -59.61z"/>
   <path class="fil69" d="M401.77 334.63c-5.14,-2.97 -5.14,-7.83 0,-10.79l102.25 -59.03c5.14,-2.97 13.55,-2.97 18.69,0l102.26 59.03c5.14,2.97 5.14,7.82 0,10.79l-102.26 59.03c-5.14,2.97 -13.55,2.97 -18.69,0l-102.25 -59.03z"/>
   <path class="fil70" d="M402.85 334.57c-5.09,-2.94 -5.09,-7.74 0,-10.68l101.26 -58.46c5.09,-2.94 13.42,-2.94 18.5,0l101.26 58.46c5.09,2.94 5.09,7.74 0,10.68l-101.26 58.46c-5.09,2.94 -13.41,2.94 -18.5,0l-101.26 -58.46z"/>
   <path class="fil71" d="M403.94 334.52c-5.04,-2.91 -5.04,-7.67 0,-10.58l100.26 -57.88c5.04,-2.91 13.28,-2.91 18.32,0l100.26 57.88c5.04,2.91 5.04,7.67 0,10.58l-100.26 57.88c-5.04,2.91 -13.29,2.91 -18.32,0l-100.26 -57.88z"/>
   <path class="fil72" d="M405.03 334.47c-4.99,-2.88 -4.99,-7.59 0,-10.47l99.26 -57.31c4.99,-2.88 13.15,-2.88 18.14,0l99.26 57.31c4.99,2.88 4.99,7.59 0,10.47l-99.26 57.31c-4.99,2.88 -13.15,2.88 -18.14,0l-99.26 -57.31z"/>
   <path class="fil73" d="M406.12 334.42c-4.94,-2.85 -4.94,-7.52 0,-10.37l98.26 -56.73c4.94,-2.85 13.02,-2.85 17.96,0l98.26 56.73c4.94,2.85 4.94,7.52 0,10.37l-98.26 56.73c-4.94,2.85 -13.02,2.85 -17.96,0l-98.26 -56.73z"/>
   <path class="fil74" d="M407.21 334.36c-4.89,-2.82 -4.89,-7.44 0,-10.26l97.26 -56.16c4.89,-2.82 12.89,-2.82 17.78,0l97.27 56.16c4.89,2.82 4.89,7.44 0,10.26l-97.27 56.16c-4.89,2.83 -12.89,2.83 -17.78,0l-97.26 -56.16z"/>
   <path class="fil75" d="M408.3 334.31c-4.84,-2.79 -4.84,-7.36 0,-10.16l96.27 -55.58c4.84,-2.79 12.76,-2.79 17.6,0l96.27 55.58c4.84,2.79 4.84,7.36 0,10.16l-96.27 55.58c-4.84,2.79 -12.76,2.79 -17.6,0l-96.27 -55.58z"/>
   <path class="fil76" d="M409.39 334.26c-4.79,-2.77 -4.79,-7.29 0,-10.05l95.27 -55.01c4.79,-2.76 12.62,-2.76 17.41,0l95.27 55.01c4.79,2.76 4.79,7.29 0,10.05l-95.27 55c-4.79,2.76 -12.62,2.76 -17.41,0l-95.27 -55z"/>
   <path class="fil77" d="M410.48 334.21c-4.74,-2.74 -4.74,-7.21 0,-9.95l94.27 -54.43c4.74,-2.74 12.49,-2.74 17.23,-0l94.27 54.43c4.74,2.74 4.74,7.21 0,9.95l-94.27 54.43c-4.74,2.73 -12.49,2.73 -17.23,0l-94.27 -54.43z"/>
   <path class="fil78" d="M411.56 334.15c-4.69,-2.71 -4.69,-7.14 0,-9.84l93.28 -53.85c4.69,-2.71 12.36,-2.71 17.05,0l93.28 53.85c4.69,2.71 4.69,7.14 0,9.84l-93.28 53.85c-4.69,2.7 -12.36,2.7 -17.05,0l-93.28 -53.85z"/>
   <path class="fil79" d="M412.65 334.1c-4.64,-2.68 -4.64,-7.06 0,-9.74l92.28 -53.28c4.64,-2.68 12.23,-2.68 16.86,0l92.28 53.28c4.64,2.68 4.64,7.06 0,9.74l-92.28 53.28c-4.64,2.68 -12.23,2.68 -16.86,0l-92.28 -53.28z"/>
   <path class="fil80" d="M413.74 334.05c-4.59,-2.65 -4.59,-6.98 0,-9.63l91.28 -52.7c4.59,-2.65 12.09,-2.65 16.68,0l91.28 52.7c4.59,2.65 4.59,6.98 0,9.63l-91.28 52.7c-4.59,2.65 -12.09,2.65 -16.68,0l-91.28 -52.7z"/>
   <path class="fil81" d="M414.83 334c-4.54,-2.62 -4.54,-6.91 0,-9.53l90.28 -52.13c4.54,-2.62 11.96,-2.62 16.5,0l90.28 52.13c4.54,2.62 4.54,6.91 0,9.53l-90.28 52.13c-4.54,2.62 -11.96,2.62 -16.5,0l-90.29 -52.13z"/>
   <path class="fil82" d="M415.91 333.95c-4.48,-2.59 -4.48,-6.83 0,-9.42l89.29 -51.55c4.49,-2.59 11.83,-2.59 16.32,0l89.29 51.55c4.49,2.59 4.49,6.83 0,9.42l-89.29 51.55c-4.49,2.59 -11.83,2.59 -16.32,0l-89.29 -51.55z"/>
   <path class="fil83" d="M417.01 333.89c-4.44,-2.56 -4.44,-6.75 0,-9.32l88.29 -50.98c4.43,-2.56 11.7,-2.56 16.13,0l88.29 50.98c4.44,2.56 4.44,6.75 0,9.32l-88.29 50.97c-4.44,2.56 -11.7,2.56 -16.13,0l-88.29 -50.97z"/>
   <path class="fil84" d="M418.09 333.84c-4.39,-2.53 -4.39,-6.68 0,-9.21l87.29 -50.4c4.39,-2.53 11.56,-2.53 15.95,0l87.29 50.4c4.39,2.53 4.39,6.68 0,9.21l-87.29 50.4c-4.39,2.53 -11.57,2.53 -15.95,0l-87.29 -50.4z"/>
   <path class="fil85" d="M419.18 333.79c-4.34,-2.5 -4.34,-6.6 0,-9.11l86.29 -49.82c4.34,-2.5 11.43,-2.5 15.77,0l86.29 49.82c4.33,2.51 4.33,6.6 0,9.11l-86.29 49.82c-4.34,2.5 -11.44,2.5 -15.77,0l-86.29 -49.82z"/>
   <path class="fil86" d="M420.27 333.73c-4.29,-2.47 -4.29,-6.52 0,-9l85.3 -49.25c4.29,-2.47 11.3,-2.47 15.59,0l85.29 49.25c4.29,2.47 4.29,6.52 0,9l-85.29 49.25c-4.29,2.47 -11.3,2.47 -15.59,0l-85.3 -49.25z"/>
   <path class="fil87" d="M421.36 333.68c-4.24,-2.45 -4.24,-6.45 0,-8.9l84.3 -48.67c4.24,-2.44 11.17,-2.44 15.41,0l84.3 48.67c4.24,2.45 4.24,6.45 0,8.9l-84.3 48.67c-4.23,2.45 -11.17,2.45 -15.41,0l-84.3 -48.67z"/>
   <path class="fil88" d="M422.45 333.63c-4.18,-2.42 -4.18,-6.37 0,-8.79l83.3 -48.1c4.19,-2.42 11.04,-2.42 15.22,0l83.3 48.1c4.19,2.42 4.19,6.37 0,8.79l-83.3 48.09c-4.19,2.42 -11.04,2.42 -15.22,0l-83.3 -48.09z"/>
   <path class="fil89" d="M423.54 333.57c-4.14,-2.39 -4.14,-6.29 0,-8.68l82.31 -47.52c4.14,-2.39 10.91,-2.39 15.04,0l82.3 47.52c4.14,2.39 4.14,6.3 0,8.68l-82.3 47.52c-4.14,2.39 -10.91,2.39 -15.04,0l-82.31 -47.52z"/>
   <path class="fil90" d="M424.62 333.52c-4.08,-2.36 -4.08,-6.22 0,-8.58l81.31 -46.94c4.09,-2.36 10.77,-2.36 14.86,0l81.31 46.94c4.09,2.36 4.09,6.22 0,8.58l-81.31 46.94c-4.09,2.36 -10.77,2.36 -14.86,0l-81.31 -46.94z"/>
   <path class="fil91" d="M425.71 333.47c-4.03,-2.33 -4.03,-6.14 0,-8.47l80.31 -46.37c4.04,-2.33 10.64,-2.33 14.68,0l80.31 46.37c4.04,2.33 4.04,6.14 0,8.47l-80.31 46.37c-4.04,2.33 -10.64,2.33 -14.68,0l-80.31 -46.37z"/>
   <path class="fil92" d="M426.8 333.42c-3.99,-2.3 -3.99,-6.06 0,-8.37l79.31 -45.79c3.99,-2.3 10.51,-2.3 14.5,0l79.31 45.79c3.99,2.3 3.99,6.06 0,8.37l-79.31 45.79c-3.99,2.3 -10.51,2.3 -14.5,0l-79.31 -45.79z"/>
   <path class="fil93" d="M427.89 333.36c-3.94,-2.27 -3.94,-5.99 0,-8.26l78.32 -45.21c3.94,-2.27 10.38,-2.27 14.31,0l78.32 45.21c3.93,2.27 3.93,5.99 0,8.26l-78.32 45.22c-3.94,2.27 -10.38,2.27 -14.31,0l-78.32 -45.22z"/>
   <path class="fil94" d="M428.98 333.31c-3.89,-2.24 -3.89,-5.91 0,-8.16l77.32 -44.64c3.89,-2.24 10.25,-2.24 14.13,0l77.32 44.64c3.89,2.24 3.89,5.91 0,8.16l-77.32 44.64c-3.88,2.24 -10.24,2.24 -14.13,0l-77.32 -44.64z"/>
   <polygon class="fil95" points="514.86,155.21 414.8,212.98 514.86,270.75 "/>
   <polygon class="fil96" points="514.86,155.21 514.86,270.75 614.92,212.98 "/>
   <polygon class="fil96" points="414.8,212.98 414.8,328.51 514.86,386.29 514.86,270.75 "/>
   <polygon class="fil95" points="514.86,386.29 614.92,328.51 614.92,212.98 514.86,270.75 "/>
   <polygon class="fil97" points="414.8,212.98 378.04,167.76 478.1,109.99 514.86,155.21 "/>
   <polygon class="fil97" points="614.92,212.98 651.68,167.76 551.62,109.99 514.86,155.21 "/>
   <polygon class="fil98" points="614.92,264.95 614.92,218.38 514.86,270.83 541.43,307.73 "/>
   <polygon class="fil97" points="514.93,270.87 545.41,299.69 645.4,241.8 614.92,212.98 "/>
   <polygon class="fil98" points="414.8,219.12 414.8,265.48 488.32,307.73 514.86,270.96 514.86,270.83 414.88,219.05 "/>
   <polygon class="fil97" points="514.86,270.87 484.38,299.69 384.4,241.8 414.88,212.98 "/>
   <path class="fil99" d="M454.07 185.75c33.02,-25.39 87.04,-25.39 120.06,0 33.02,25.38 33.02,66.92 0,92.31 -33.02,25.39 -87.04,25.39 -120.06,0 -33.02,-25.39 -33.02,-66.93 0,-92.31z"/>
   <path class="fil47" d="M592.43 153.28c-0,-1.93 -2.72,-3.49 -6.06,-3.49l-12.94 0.01c-2.14,0 -5.69,2.25 -6.22,1.58 -0.89,-1.12 -0.57,-2.43 0.94,-3.31l9.15 -5.27c2.37,-1.36 -12.68,-0.73 -15.04,-2.09l0.12 -11.42c-2.37,-1.36 -6.2,-1.36 -8.57,0l-9.22 5.31c-1.45,0.83 -3.63,1.07 -5.52,0.61 -1.31,-0.32 -2.74,-0.65 -3.96,-0.93 -1.92,-0.43 -3.17,-1.49 -3.17,-2.68l0 -7.52c0,-1.93 -2.71,-3.49 -6.06,-3.49l-21.08 0c-3.35,0 -6.06,1.56 -6.06,3.49l0 7.45c0,1.23 -1.38,2.29 -3.39,2.72 -1.27,0.28 -2.52,0.58 -3.75,0.9 -1.94,0.52 -4.23,0.33 -5.75,-0.54l-9.18 -5.25c-2.37,-1.36 -6.21,-1.35 -8.57,0.02l-1.09 12.41c-2.36,1.37 -16.13,-0.24 -13.75,1.12l9.25 5.29c1.46,0.83 1.87,2.09 1.07,3.17 -0.56,0.76 -4.18,-1.48 -6.24,-1.47l-13.07 0.02c-3.35,0 -6.05,1.57 -6.04,3.49l0.05 17.72c0.01,1.93 2.73,3.48 6.08,3.48l7.59 -0.01 -0.18 14.63c-0.05,0.25 -0.05,0.51 -0.01,0.76l0 0c0.14,0.78 0.69,1.53 1.72,2.12l14.94 8.56c1.45,0.83 3.44,1.09 5.32,0.9l0.1 0.05 0 -0.07c1.15,-0.13 2.26,-0.39 3.15,-0.9l9.2 -5.32c1.45,-0.84 3.63,-1.07 5.52,-0.61 1.31,0.32 2.73,0.65 3.96,0.92 1.92,0.43 3.17,1.49 3.18,2.68l0.02 7.52c0.01,1.93 2.72,3.48 6.07,3.48l21.08 -0.02c3.35,-0.01 6.05,-1.57 6.05,-3.49l-0.02 -7.45c-0.01,-1.23 1.38,-2.29 3.38,-2.73 1.21,-0.26 2.4,-0.55 3.57,-0.86 1.95,-0.51 4.23,-0.33 5.75,0.54l9.17 5.26c0.89,0.51 2,0.76 3.14,0.89l0 0.1 0.16 -0.08c1.86,0.18 3.83,-0.09 5.27,-0.91l14.89 -8.59c0.98,-0.57 1.53,-1.28 1.7,-2.01l0.07 -0.03 -0.01 -0.35c0,-0.05 0,-0.1 -0,-0.15l-0.19 -14.97 7.45 -0c3.35,-0 6.06,-1.57 6.05,-3.49l-0.02 -17.72zm-47.7 14.78l0 0c-3.5,10.72 -22.81,16.78 -40.17,12.93 -13.19,-2.92 -21.22,-11.13 -18.6,-19.12 3.51,-10.72 22.81,-16.78 40.17,-12.93 13.19,2.92 21.22,11.13 18.6,19.13z"/>
   <path class="fil47" d="M579.14 133.11l-0.07 -9.51 -13.65 0 -3.04 -1.75c-2.37,-1.36 -6.2,-1.36 -8.57,0.01l-3.03 1.74 -18.84 0 0 -6.95c0,-1.93 -2.71,-3.49 -6.06,-3.49l-21.08 0c-3.35,0 -6.06,1.56 -6.06,3.49l0 6.95 -19.15 0 -2.92 -1.67c-2.37,-1.36 -6.21,-1.35 -8.57,0.01l-2.86 1.66 -13.75 0 0 9.3c-0.05,0.93 0.54,1.86 1.77,2.57l9.25 5.29 105.63 -0.14 9.15 -5.27c1.08,-0.63 1.65,-1.43 1.74,-2.25l0.1 0z"/>
   <path class="fil100" d="M569.86 157.74l16.53 -0.01c3.35,0 6.06,-1.56 6.05,-3.49l-0.02 -12.13c-0,-1.93 -2.72,-3.49 -6.06,-3.48l-12.94 0.01c-2.14,0 -3.98,-0.79 -4.74,-1.95 -0.45,-0.7 -0.95,-1.38 -1.48,-2.06 -0.89,-1.12 -0.57,-2.44 0.94,-3.31l9.15 -5.27c2.37,-1.36 2.36,-3.57 -0,-4.93l-14.91 -8.57c-2.37,-1.36 -6.2,-1.36 -8.57,0l-9.22 5.31c-1.45,0.84 -3.63,1.07 -5.52,0.61 -1.31,-0.32 -2.74,-0.65 -3.96,-0.93 -1.92,-0.43 -3.17,-1.49 -3.17,-2.68l0 -7.52c0,-1.93 -2.71,-3.49 -6.06,-3.49l-21.08 0c-3.35,0 -6.06,1.56 -6.06,3.49l0 7.45c0,1.23 -1.38,2.29 -3.39,2.72 -1.27,0.28 -2.52,0.58 -3.75,0.9 -1.94,0.51 -4.23,0.33 -5.75,-0.54l-9.18 -5.25c-2.37,-1.36 -6.21,-1.35 -8.57,0.01l-14.87 8.61c-2.36,1.36 -2.35,3.57 0.02,4.93l9.25 5.29c1.46,0.83 1.87,2.09 1.07,3.18 -0.56,0.75 -1.12,1.57 -1.6,2.28 -0.74,1.1 -2.59,1.83 -4.65,1.83l-13.07 0.02c-3.35,0 -6.05,1.57 -6.04,3.49l0.05 12.13c0.01,1.93 2.73,3.48 6.08,3.48l12.94 -0.02c2.14,-0 3.98,0.79 4.74,1.94 0.46,0.69 0.96,1.38 1.49,2.05 0.89,1.12 0.58,2.43 -0.94,3.31l-9.13 5.28c-2.36,1.36 -2.35,3.57 0.02,4.93l14.94 8.56c2.37,1.36 6.21,1.35 8.57,-0.01l9.2 -5.32c1.45,-0.84 3.63,-1.08 5.52,-0.62 1.31,0.32 2.73,0.65 3.96,0.92 1.92,0.43 3.17,1.49 3.18,2.68l0.02 7.52c0.01,1.93 2.72,3.48 6.07,3.48l21.08 -0.02c3.35,-0 6.05,-1.57 6.05,-3.49l-0.02 -7.45c-0.01,-1.23 1.38,-2.29 3.38,-2.73 1.21,-0.26 2.4,-0.55 3.57,-0.86 1.95,-0.51 4.23,-0.33 5.75,0.54l9.17 5.26c2.37,1.36 6.21,1.36 8.57,-0.01l14.89 -8.59c2.36,-1.36 2.36,-3.57 -0.01,-4.93l-9.23 -5.3c-1.45,-0.84 -1.87,-2.09 -1.06,-3.18 1.35,-1.81 2.73,-3.98 2.8,-4.1zm-83.91 -12.62l0 0c3.51,-10.72 22.81,-16.78 40.17,-12.93 13.19,2.92 21.22,11.13 18.6,19.13 -3.5,10.72 -22.81,16.78 -40.17,12.93 -13.19,-2.92 -21.22,-11.13 -18.6,-19.12z"/>
   <path class="fil101" d="M801.45 434.37c35.59,20.54 93.82,20.54 129.41,0 35.59,-20.55 35.59,-54.17 0,-74.71 -35.59,-20.55 -93.82,-20.55 -129.41,0 -35.59,20.55 -35.59,54.17 0,74.71z"/>
   <path class="fil102" d="M802.69 433.65c34.9,20.15 92.01,20.15 126.91,0 34.9,-20.15 34.9,-53.12 0,-73.27 -34.9,-20.15 -92.01,-20.15 -126.91,0 -34.9,20.15 -34.9,53.12 0,73.27z"/>
   <path class="fil103" d="M803.94 432.93c34.21,19.75 90.2,19.75 124.41,0 34.21,-19.75 34.21,-52.08 0,-71.83 -34.22,-19.76 -90.2,-19.76 -124.41,0 -34.22,19.75 -34.22,52.08 0,71.83z"/>
   <path class="fil104" d="M805.19 432.21c33.53,19.36 88.39,19.36 121.92,0 33.53,-19.36 33.53,-51.03 0,-70.39 -33.53,-19.36 -88.39,-19.36 -121.92,0 -33.53,19.36 -33.53,51.04 0,70.39z"/>
   <path class="fil105" d="M806.44 431.49c32.84,18.96 86.58,18.96 119.42,0 32.84,-18.96 32.84,-49.99 0,-68.95 -32.84,-18.96 -86.58,-18.96 -119.42,0 -32.84,18.96 -32.84,49.99 0,68.95z"/>
   <path class="fil106" d="M807.68 430.77c32.16,18.56 84.78,18.56 116.93,0 32.16,-18.56 32.16,-48.95 0,-67.51 -32.15,-18.56 -84.77,-18.56 -116.93,0 -32.16,18.56 -32.16,48.95 0,67.51z"/>
   <path class="fil107" d="M808.93 430.05c31.47,18.17 82.97,18.17 114.44,0 31.47,-18.17 31.47,-47.9 0,-66.07 -31.47,-18.17 -82.96,-18.17 -114.44,0 -31.47,18.17 -31.47,47.9 0,66.07z"/>
   <path class="fil108" d="M810.18 429.33c30.78,17.77 81.16,17.77 111.94,0 30.78,-17.77 30.78,-46.85 0,-64.63 -30.78,-17.77 -81.16,-17.77 -111.94,0 -30.78,17.77 -30.78,46.85 0,64.63z"/>
   <path class="fil109" d="M811.43 428.61c30.1,17.38 79.35,17.38 109.45,0 30.1,-17.38 30.1,-45.81 0,-63.19 -30.1,-17.38 -79.35,-17.38 -109.45,0 -30.1,17.37 -30.1,45.81 0,63.19z"/>
   <path class="fil110" d="M812.67 427.89c29.41,16.98 77.54,16.98 106.95,0 29.41,-16.98 29.41,-44.77 0,-61.75 -29.41,-16.98 -77.54,-16.98 -106.95,0 -29.41,16.98 -29.41,44.77 0,61.75z"/>
   <path class="fil111" d="M813.92 427.17c28.73,16.58 75.73,16.58 104.46,0 28.72,-16.59 28.72,-43.72 0,-60.31 -28.73,-16.58 -75.73,-16.58 -104.46,0 -28.72,16.58 -28.72,43.72 0,60.31z"/>
   <path class="fil112" d="M815.17 426.45c28.04,16.19 73.92,16.19 101.96,0 28.04,-16.19 28.04,-42.68 0,-58.87 -28.04,-16.19 -73.92,-16.19 -101.96,0 -28.04,16.19 -28.04,42.68 0,58.87z"/>
   <path class="fil113" d="M816.42 425.73c27.35,15.79 72.11,15.79 99.47,0 27.35,-15.79 27.35,-41.63 0,-57.43 -27.35,-15.79 -72.11,-15.79 -99.47,0 -27.35,15.79 -27.35,41.63 0,57.43z"/>
   <path class="fil114" d="M817.67 425.01c26.67,15.4 70.3,15.4 96.97,0 26.66,-15.4 26.66,-40.59 0,-55.98 -26.67,-15.4 -70.3,-15.4 -96.97,0 -26.67,15.39 -26.67,40.59 0,55.98z"/>
   <path class="fil115" d="M818.91 424.29c25.98,15 68.49,15 94.48,0 25.98,-15 25.98,-39.55 0,-54.55 -25.98,-15 -68.5,-15 -94.48,0 -25.98,15 -25.98,39.55 0,54.55z"/>
   <path class="fil116" d="M820.16 423.57c25.29,14.6 66.69,14.6 91.98,0 25.29,-14.61 25.29,-38.5 0,-53.1 -25.3,-14.61 -66.69,-14.61 -91.98,0 -25.29,14.6 -25.29,38.5 0,53.1z"/>
   <path class="fil117" d="M821.41 422.85c24.61,14.21 64.88,14.21 89.48,0 24.61,-14.21 24.61,-37.46 0,-51.66 -24.61,-14.21 -64.88,-14.21 -89.48,0 -24.61,14.21 -24.61,37.46 0,51.66z"/>
   <path class="fil118" d="M822.66 422.13c23.92,13.81 63.07,13.81 86.99,0 23.92,-13.81 23.92,-36.41 0,-50.22 -23.92,-13.81 -63.07,-13.81 -86.99,0 -23.92,13.81 -23.92,36.41 0,50.22z"/>
   <path class="fil119" d="M823.9 421.4c23.24,13.42 61.26,13.42 84.49,0 23.24,-13.42 23.24,-35.37 0,-48.78 -23.24,-13.42 -61.26,-13.42 -84.49,0 -23.24,13.42 -23.24,35.37 0,48.78z"/>
   <path class="fil120" d="M825.15 420.68c22.55,13.02 59.45,13.02 82,0 22.55,-13.02 22.55,-34.32 0,-47.34 -22.55,-13.02 -59.45,-13.02 -82,0 -22.55,13.02 -22.55,34.32 0,47.34z"/>
   <path class="fil121" d="M826.4 419.97c21.86,12.62 57.64,12.62 79.5,0 21.86,-12.62 21.86,-33.28 0,-45.9 -21.86,-12.62 -57.64,-12.62 -79.5,0 -21.86,12.62 -21.86,33.28 0,45.9z"/>
   <path class="fil122" d="M827.64 419.24c21.18,12.23 55.83,12.23 77.01,0 21.18,-12.23 21.18,-32.24 0,-44.46 -21.18,-12.23 -55.83,-12.23 -77.01,0 -21.18,12.23 -21.18,32.23 0,44.46z"/>
   <path class="fil123" d="M828.89 418.53c20.49,11.83 54.02,11.83 74.52,0 20.49,-11.83 20.49,-31.19 0,-43.02 -20.49,-11.83 -54.02,-11.83 -74.52,0 -20.49,11.83 -20.49,31.19 0,43.02z"/>
   <path class="fil124" d="M830.14 417.8c19.8,11.44 52.22,11.44 72.02,0 19.81,-11.43 19.81,-30.14 0,-41.58 -19.8,-11.43 -52.22,-11.43 -72.02,0 -19.81,11.44 -19.81,30.15 0,41.58z"/>
   <path class="fil125" d="M831.39 417.08c19.12,11.04 50.41,11.04 69.53,0 19.12,-11.04 19.12,-29.1 0,-40.14 -19.12,-11.04 -50.4,-11.04 -69.53,0 -19.12,11.04 -19.12,29.1 0,40.14z"/>
   <path class="fil126" d="M832.63 416.37c18.43,10.64 48.6,10.64 67.03,0 18.43,-10.64 18.43,-28.06 0,-38.7 -18.43,-10.64 -48.6,-10.64 -67.03,0 -18.43,10.64 -18.43,28.06 0,38.7z"/>
   <path class="fil127" d="M833.88 415.64c17.75,10.25 46.79,10.25 64.54,0 17.75,-10.25 17.75,-27.01 0,-37.26 -17.75,-10.25 -46.79,-10.25 -64.54,0 -17.75,10.25 -17.75,27.01 0,37.26z"/>
   <path class="fil128" d="M835.13 414.92c17.06,9.85 44.98,9.85 62.04,0 17.06,-9.85 17.06,-25.97 0,-35.82 -17.06,-9.85 -44.98,-9.85 -62.04,0 -17.06,9.85 -17.06,25.97 0,35.82z"/>
   <path class="fil129" d="M836.38 414.2c16.38,9.45 43.17,9.45 59.55,0 16.38,-9.45 16.38,-24.93 0,-34.38 -16.38,-9.45 -43.17,-9.45 -59.55,0 -16.37,9.45 -16.37,24.93 0,34.38z"/>
   <path class="fil130" d="M837.62 413.48c15.69,9.06 41.36,9.06 57.05,0 15.69,-9.06 15.69,-23.88 0,-32.94 -15.69,-9.06 -41.36,-9.06 -57.05,0 -15.69,9.06 -15.69,23.88 0,32.94z"/>
   <path class="fil131" d="M838.87 412.76c15,8.66 39.55,8.66 54.56,0 15,-8.66 15,-22.84 0,-31.5 -15,-8.66 -39.55,-8.66 -54.56,0 -15,8.66 -15,22.84 0,31.5z"/>
   <path class="fil132" d="M840.12 412.04c14.32,8.27 37.75,8.27 52.06,0 14.32,-8.26 14.32,-21.79 0,-30.06 -14.32,-8.27 -37.74,-8.27 -52.06,0 -14.32,8.27 -14.32,21.79 0,30.06z"/>
   <path class="fil133" d="M841.37 411.32c13.63,7.87 35.94,7.87 49.57,0 13.63,-7.87 13.63,-20.75 0,-28.62 -13.63,-7.87 -35.94,-7.87 -49.57,0 -13.63,7.87 -13.63,20.75 0,28.62z"/>
   <path class="fil134" d="M842.62 410.6c12.94,7.47 34.13,7.47 47.07,0 12.95,-7.47 12.95,-19.7 0,-27.18 -12.94,-7.47 -34.13,-7.47 -47.07,0 -12.94,7.47 -12.94,19.7 0,27.18z"/>
   <path class="fil135" d="M843.86 409.88c12.26,7.08 32.32,7.08 44.57,0 12.26,-7.08 12.26,-18.66 0,-25.74 -12.26,-7.08 -32.32,-7.08 -44.57,0 -12.26,7.08 -12.26,18.66 0,25.74z"/>
   <path class="fil136" d="M845.11 409.16c11.57,6.68 30.51,6.68 42.08,0 11.57,-6.68 11.57,-17.61 0,-24.29 -11.57,-6.68 -30.51,-6.68 -42.08,0 -11.57,6.68 -11.57,17.61 0,24.29z"/>
   <path class="fil137" d="M846.36 408.44c10.89,6.28 28.7,6.28 39.59,0 10.89,-6.28 10.89,-16.57 0,-22.85 -10.89,-6.28 -28.7,-6.28 -39.59,0 -10.89,6.29 -10.89,16.57 0,22.85z"/>
   <path class="fil138" d="M847.6 407.72c10.2,5.89 26.89,5.89 37.09,0 10.2,-5.89 10.2,-15.53 0,-21.42 -10.2,-5.89 -26.89,-5.89 -37.09,0 -10.2,5.89 -10.2,15.53 0,21.42z"/>
   <path class="fil139" d="M848.85 407c9.52,5.49 25.08,5.49 34.6,0 9.51,-5.49 9.51,-14.48 0,-19.98 -9.52,-5.49 -25.08,-5.49 -34.6,0 -9.52,5.49 -9.52,14.48 0,19.98z"/>
   <path class="fil140" d="M850.1 406.28c8.83,5.1 23.27,5.1 32.1,0 8.83,-5.1 8.83,-13.44 0,-18.53 -8.83,-5.1 -23.27,-5.1 -32.1,0 -8.83,5.1 -8.83,13.44 0,18.53z"/>
   <path class="fil141" d="M851.35 405.56c8.14,4.7 21.47,4.7 29.61,0 8.14,-4.7 8.14,-12.39 0,-17.09 -8.14,-4.7 -21.46,-4.7 -29.61,0 -8.14,4.7 -8.14,12.39 0,17.09z"/>
   <path class="fil142" d="M852.59 404.84c7.46,4.3 19.65,4.3 27.11,0 7.46,-4.3 7.46,-11.35 0,-15.65 -7.46,-4.3 -19.66,-4.3 -27.11,0 -7.45,4.31 -7.45,11.35 0,15.65z"/>
   <path class="fil143" d="M928.34 388.19c0,-0.01 0,-0.02 0,-0.03l-0.03 -90.48 -114.13 -0.89 0.47 95.37c1.48,7.08 6.85,13.94 16.21,19.34 22.23,12.83 58.6,12.83 80.83,0 9.36,-5.4 14.73,-12.26 16.2,-19.34l0.46 -3.98z"/>
   <path class="fil144" d="M830.85 320.12c22.23,12.83 58.6,12.83 80.83,0 22.23,-12.83 22.23,-33.83 0,-46.66 -22.23,-12.83 -58.6,-12.83 -80.83,0 -22.23,12.83 -22.23,33.83 0,46.66z"/>
   <path class="fil145" d="M835.12 317.66c19.88,11.48 52.41,11.48 72.28,0 19.88,-11.48 19.88,-30.26 0,-41.74 -19.88,-11.47 -52.41,-11.47 -72.28,0 -19.88,11.48 -19.88,30.26 0,41.74z"/>
   <path class="fil146" d="M921.72 301.07c-2.63,-3.84 -6.59,-7.43 -11.95,-10.52 -21.18,-12.23 -55.84,-12.23 -77.02,0 -5.36,3.09 -9.32,6.69 -11.95,10.52 1.52,6.08 6.26,11.93 14.32,16.59 19.88,11.48 52.41,11.48 72.28,0 8.06,-4.65 12.79,-10.51 14.32,-16.59z"/>
   <path class="fil147" d="M814.6 378.55c2.77,5.12 7.61,9.95 14.61,13.99 23.15,13.37 61.04,13.37 84.19,0 7.27,-4.2 12.24,-9.25 14.94,-14.6l-0.02 -40c-2.71,5.34 -7.66,10.38 -14.93,14.57 -23.16,13.37 -61.04,13.37 -84.2,0 -7.13,-4.12 -12.06,-9.05 -14.79,-14.29l0.19 40.33z"/>
   <path class="fil101" d="M740.91 524.43c35.59,20.55 93.82,20.55 129.41,0 35.59,-20.54 35.59,-54.17 0,-74.71 -35.59,-20.54 -93.82,-20.54 -129.41,0 -35.59,20.55 -35.59,54.17 0,74.71z"/>
   <path class="fil102" d="M742.16 523.72c34.9,20.15 92.01,20.15 126.91,0 34.9,-20.15 34.9,-53.12 0,-73.27 -34.9,-20.15 -92.01,-20.15 -126.91,0 -34.9,20.15 -34.9,53.12 0,73.27z"/>
   <path class="fil103" d="M743.41 523c34.21,19.75 90.2,19.75 124.42,0 34.21,-19.75 34.21,-52.08 0,-71.83 -34.21,-19.75 -90.2,-19.75 -124.42,0 -34.22,19.75 -34.22,52.08 0,71.83z"/>
   <path class="fil104" d="M744.66 522.28c33.53,19.36 88.39,19.36 121.92,0 33.53,-19.36 33.53,-51.03 0,-70.39 -33.53,-19.36 -88.39,-19.36 -121.92,0 -33.53,19.36 -33.53,51.03 0,70.39z"/>
   <path class="fil105" d="M745.9 521.55c32.84,18.96 86.58,18.96 119.42,0 32.84,-18.96 32.84,-49.99 0,-68.95 -32.84,-18.96 -86.58,-18.96 -119.42,0 -32.84,18.96 -32.84,49.99 0,68.95z"/>
   <path class="fil106" d="M747.15 520.83c32.16,18.57 84.77,18.57 116.93,0 32.16,-18.56 32.16,-48.94 0,-67.51 -32.16,-18.56 -84.77,-18.56 -116.93,0 -32.16,18.57 -32.16,48.95 0,67.51z"/>
   <path class="fil107" d="M748.4 520.11c31.47,18.17 82.97,18.17 114.44,0 31.47,-18.17 31.47,-47.9 0,-66.07 -31.47,-18.17 -82.97,-18.17 -114.44,0 -31.47,18.17 -31.47,47.9 0,66.07z"/>
   <path class="fil108" d="M749.65 519.39c30.78,17.77 81.16,17.77 111.94,0 30.79,-17.77 30.79,-46.85 0,-64.63 -30.78,-17.77 -81.16,-17.77 -111.94,0 -30.78,17.77 -30.78,46.85 0,64.63z"/>
   <path class="fil109" d="M750.89 518.67c30.1,17.37 79.35,17.37 109.45,0 30.1,-17.38 30.1,-45.81 0,-63.19 -30.1,-17.38 -79.35,-17.38 -109.45,0 -30.1,17.38 -30.1,45.81 0,63.19z"/>
   <path class="fil110" d="M752.14 517.95c29.41,16.98 77.54,16.98 106.95,0 29.41,-16.98 29.41,-44.77 0,-61.75 -29.41,-16.98 -77.54,-16.98 -106.95,0 -29.41,16.98 -29.41,44.76 0,61.75z"/>
   <path class="fil111" d="M753.39 517.23c28.73,16.58 75.73,16.58 104.46,0 28.73,-16.58 28.73,-43.72 0,-60.31 -28.72,-16.58 -75.73,-16.58 -104.46,0 -28.72,16.59 -28.72,43.72 0,60.31z"/>
   <path class="fil112" d="M754.64 516.51c28.04,16.19 73.92,16.19 101.96,0 28.04,-16.19 28.04,-42.68 0,-58.87 -28.04,-16.19 -73.92,-16.19 -101.96,0 -28.04,16.19 -28.04,42.68 0,58.87z"/>
   <path class="fil113" d="M755.88 515.79c27.35,15.79 72.11,15.79 99.46,0 27.35,-15.79 27.35,-41.63 0,-57.43 -27.35,-15.79 -72.11,-15.79 -99.46,0 -27.36,15.79 -27.36,41.63 0,57.43z"/>
   <path class="fil114" d="M757.13 515.07c26.67,15.39 70.3,15.39 96.97,0 26.67,-15.4 26.67,-40.59 0,-55.99 -26.67,-15.4 -70.3,-15.4 -96.97,0 -26.67,15.4 -26.67,40.59 0,55.99z"/>
   <path class="fil115" d="M758.38 514.35c25.98,15 68.49,15 94.48,0 25.98,-15 25.98,-39.55 0,-54.55 -25.98,-15 -68.5,-15 -94.48,0 -25.98,15 -25.98,39.55 0,54.55z"/>
   <path class="fil116" d="M759.63 513.63c25.29,14.6 66.69,14.6 91.98,0 25.29,-14.6 25.29,-38.5 0,-53.1 -25.29,-14.6 -66.69,-14.6 -91.98,0 -25.3,14.6 -25.3,38.5 0,53.1z"/>
   <path class="fil117" d="M760.87 512.91c24.61,14.21 64.88,14.21 89.49,0 24.61,-14.21 24.61,-37.46 0,-51.66 -24.61,-14.21 -64.88,-14.21 -89.49,0 -24.61,14.21 -24.61,37.46 0,51.66z"/>
   <path class="fil118" d="M762.12 512.19c23.92,13.81 63.07,13.81 86.99,0 23.92,-13.81 23.92,-36.41 0,-50.22 -23.92,-13.81 -63.07,-13.81 -86.99,0 -23.92,13.81 -23.92,36.41 0,50.22z"/>
   <path class="fil119" d="M763.37 511.47c23.24,13.41 61.26,13.41 84.49,0 23.24,-13.42 23.24,-35.37 0,-48.78 -23.23,-13.42 -61.26,-13.42 -84.49,0 -23.24,13.42 -23.24,35.37 0,48.78z"/>
   <path class="fil120" d="M764.62 510.75c22.55,13.02 59.45,13.02 82,0 22.55,-13.02 22.55,-34.32 0,-47.34 -22.55,-13.02 -59.45,-13.02 -82,0 -22.55,13.02 -22.55,34.32 0,47.34z"/>
   <path class="fil121" d="M765.86 510.03c21.87,12.62 57.64,12.62 79.51,0 21.86,-12.62 21.86,-33.28 0,-45.9 -21.87,-12.62 -57.64,-12.62 -79.51,0 -21.86,12.62 -21.86,33.28 0,45.9z"/>
   <path class="fil122" d="M767.11 509.31c21.18,12.23 55.83,12.23 77.01,0 21.18,-12.23 21.18,-32.23 0,-44.46 -21.18,-12.23 -55.83,-12.23 -77.01,0 -21.18,12.23 -21.18,32.23 0,44.46z"/>
   <path class="fil123" d="M768.36 508.59c20.49,11.83 54.02,11.83 74.52,0 20.49,-11.83 20.49,-31.19 0,-43.02 -20.49,-11.83 -54.02,-11.83 -74.52,0 -20.49,11.83 -20.49,31.19 0,43.02z"/>
   <path class="fil124" d="M769.61 507.87c19.8,11.43 52.21,11.43 72.02,0 19.81,-11.44 19.81,-30.15 0,-41.58 -19.81,-11.44 -52.22,-11.44 -72.02,0 -19.81,11.43 -19.81,30.14 0,41.58z"/>
   <path class="fil125" d="M770.85 507.15c19.12,11.04 50.41,11.04 69.53,0 19.12,-11.04 19.12,-29.1 0,-40.14 -19.12,-11.04 -50.4,-11.04 -69.53,0 -19.12,11.04 -19.12,29.1 0,40.14z"/>
   <path class="fil126" d="M772.1 506.43c18.43,10.64 48.6,10.64 67.03,0 18.43,-10.64 18.43,-28.06 0,-38.7 -18.43,-10.64 -48.6,-10.64 -67.03,0 -18.43,10.64 -18.43,28.06 0,38.7z"/>
   <path class="fil127" d="M773.35 505.71c17.75,10.25 46.79,10.25 64.54,0 17.75,-10.25 17.75,-27.01 0,-37.26 -17.75,-10.25 -46.79,-10.25 -64.54,0 -17.75,10.25 -17.75,27.01 0,37.26z"/>
   <path class="fil128" d="M774.59 504.99c17.06,9.85 44.98,9.85 62.04,0 17.06,-9.85 17.06,-25.97 0,-35.82 -17.06,-9.85 -44.98,-9.85 -62.04,0 -17.06,9.85 -17.06,25.97 0,35.82z"/>
   <path class="fil129" d="M775.84 504.27c16.38,9.46 43.17,9.46 59.55,0 16.38,-9.45 16.38,-24.92 0,-34.38 -16.37,-9.45 -43.17,-9.45 -59.55,0 -16.37,9.45 -16.37,24.92 0,34.38z"/>
   <path class="fil130" d="M777.09 503.55c15.69,9.06 41.36,9.06 57.05,0 15.69,-9.06 15.69,-23.88 0,-32.94 -15.69,-9.06 -41.36,-9.06 -57.05,0 -15.69,9.06 -15.69,23.88 0,32.94z"/>
   <path class="fil131" d="M778.34 502.83c15.01,8.66 39.55,8.66 54.56,0 15,-8.66 15,-22.83 0,-31.5 -15,-8.66 -39.55,-8.66 -54.56,0 -15,8.66 -15,22.84 0,31.5z"/>
   <path class="fil132" d="M779.59 502.11c14.32,8.27 37.74,8.27 52.06,0 14.32,-8.26 14.32,-21.79 0,-30.06 -14.32,-8.27 -37.74,-8.27 -52.06,0 -14.32,8.26 -14.32,21.79 0,30.06z"/>
   <path class="fil133" d="M780.83 501.39c13.63,7.87 35.94,7.87 49.56,0 13.63,-7.87 13.63,-20.75 0,-28.62 -13.63,-7.87 -35.94,-7.87 -49.56,0 -13.63,7.87 -13.63,20.75 0,28.62z"/>
   <path class="fil134" d="M782.08 500.67c12.95,7.47 34.13,7.47 47.07,0 12.94,-7.47 12.94,-19.7 0,-27.18 -12.95,-7.47 -34.13,-7.47 -47.07,0 -12.94,7.47 -12.94,19.7 0,27.18z"/>
   <path class="fil135" d="M783.33 499.95c12.26,7.08 32.32,7.08 44.58,0 12.26,-7.08 12.26,-18.66 0,-25.74 -12.26,-7.08 -32.32,-7.08 -44.58,0 -12.26,7.08 -12.26,18.66 0,25.74z"/>
   <path class="fil136" d="M784.58 499.23c11.57,6.68 30.51,6.68 42.08,0 11.57,-6.68 11.57,-17.61 0,-24.29 -11.57,-6.68 -30.51,-6.68 -42.08,0 -11.57,6.68 -11.57,17.61 0,24.29z"/>
   <path class="fil137" d="M785.82 498.51c10.89,6.28 28.7,6.28 39.59,0 10.89,-6.29 10.89,-16.57 0,-22.85 -10.88,-6.28 -28.7,-6.28 -39.59,0 -10.89,6.28 -10.89,16.57 0,22.85z"/>
   <path class="fil138" d="M787.07 497.79c10.2,5.89 26.89,5.89 37.09,0 10.2,-5.89 10.2,-15.53 0,-21.42 -10.2,-5.89 -26.89,-5.89 -37.09,0 -10.2,5.89 -10.2,15.53 0,21.42z"/>
   <path class="fil139" d="M788.32 497.07c9.52,5.49 25.08,5.49 34.6,0 9.51,-5.49 9.51,-14.48 0,-19.98 -9.51,-5.49 -25.08,-5.49 -34.6,0 -9.51,5.49 -9.51,14.48 0,19.98z"/>
   <path class="fil140" d="M789.57 496.35c8.83,5.09 23.27,5.09 32.1,0 8.83,-5.1 8.83,-13.44 0,-18.53 -8.83,-5.1 -23.27,-5.1 -32.1,0 -8.83,5.1 -8.83,13.44 0,18.53z"/>
   <path class="fil141" d="M790.81 495.63c8.14,4.7 21.47,4.7 29.61,0 8.14,-4.7 8.14,-12.39 0,-17.09 -8.14,-4.7 -21.46,-4.7 -29.61,0 -8.14,4.7 -8.14,12.39 0,17.09z"/>
   <path class="fil142" d="M792.06 494.91c7.46,4.3 19.65,4.3 27.11,0 7.46,-4.31 7.46,-11.35 0,-15.65 -7.46,-4.3 -19.66,-4.3 -27.11,0 -7.45,4.3 -7.45,11.35 0,15.65z"/>
   <path class="fil143" d="M867.81 478.25c0,-0.01 0,-0.02 0,-0.03l-0.03 -90.48 -114.13 -0.89 0.46 95.37c1.48,7.08 6.85,13.93 16.21,19.34 22.23,12.83 58.6,12.83 80.83,0 9.36,-5.41 14.73,-12.26 16.2,-19.34l0.46 -3.98z"/>
   <path class="fil144" d="M770.31 410.19c22.23,12.83 58.6,12.83 80.83,0 22.23,-12.83 22.23,-33.83 0,-46.67 -22.23,-12.83 -58.6,-12.83 -80.83,0 -22.23,12.83 -22.23,33.83 0,46.67z"/>
   <path class="fil145" d="M774.58 407.73c19.88,11.47 52.41,11.47 72.28,0 19.88,-11.48 19.88,-30.26 0,-41.74 -19.88,-11.48 -52.41,-11.48 -72.28,0 -19.88,11.48 -19.88,30.26 0,41.74z"/>
   <path class="fil148" d="M861.19 391.14c-2.63,-3.84 -6.59,-7.43 -11.95,-10.52 -21.18,-12.23 -55.84,-12.23 -77.02,0 -5.36,3.09 -9.32,6.69 -11.95,10.52 1.52,6.08 6.26,11.93 14.32,16.59 19.88,11.47 52.41,11.47 72.28,0 8.06,-4.65 12.79,-10.51 14.32,-16.59z"/>
   <path class="fil149" d="M754.06 468.61c2.77,5.13 7.62,9.95 14.61,13.99 23.15,13.37 61.04,13.37 84.19,0 7.28,-4.2 12.24,-9.25 14.94,-14.6l-0.02 -40c-2.7,5.34 -7.66,10.37 -14.93,14.57 -23.16,13.37 -61.04,13.37 -84.19,0 -7.14,-4.12 -12.05,-9.05 -14.79,-14.29l0.19 40.33z"/>
   <path class="fil101" d="M880.28 516.14c35.59,20.55 93.82,20.55 129.41,0 35.59,-20.54 35.59,-54.17 0,-74.71 -35.59,-20.55 -93.82,-20.55 -129.41,0 -35.59,20.55 -35.59,54.17 0,74.71z"/>
   <path class="fil102" d="M881.53 515.42c34.9,20.15 92.01,20.15 126.91,0 34.9,-20.15 34.9,-53.12 0,-73.27 -34.9,-20.15 -92.01,-20.15 -126.91,0 -34.9,20.15 -34.9,53.12 0,73.27z"/>
   <path class="fil103" d="M882.78 514.7c34.21,19.75 90.2,19.75 124.42,0 34.21,-19.75 34.21,-52.08 0,-71.83 -34.22,-19.75 -90.2,-19.75 -124.42,0 -34.22,19.75 -34.22,52.08 0,71.83z"/>
   <path class="fil104" d="M884.03 513.98c33.53,19.36 88.39,19.36 121.92,0 33.53,-19.36 33.53,-51.03 0,-70.39 -33.53,-19.36 -88.39,-19.36 -121.92,0 -33.53,19.36 -33.53,51.03 0,70.39z"/>
   <path class="fil105" d="M885.27 513.26c32.84,18.96 86.58,18.96 119.42,0 32.84,-18.96 32.84,-49.99 0,-68.95 -32.84,-18.96 -86.58,-18.96 -119.42,0 -32.84,18.96 -32.84,49.99 0,68.95z"/>
   <path class="fil106" d="M886.52 512.54c32.16,18.56 84.78,18.56 116.93,0 32.16,-18.57 32.16,-48.95 0,-67.51 -32.15,-18.57 -84.77,-18.57 -116.93,0 -32.16,18.56 -32.16,48.94 0,67.51z"/>
   <path class="fil107" d="M887.77 511.82c31.47,18.17 82.97,18.17 114.44,0 31.47,-18.17 31.47,-47.9 0,-66.07 -31.47,-18.17 -82.96,-18.17 -114.44,0 -31.47,18.17 -31.47,47.9 0,66.07z"/>
   <path class="fil108" d="M889.02 511.1c30.79,17.77 81.16,17.77 111.94,0 30.78,-17.77 30.78,-46.86 0,-64.63 -30.78,-17.77 -81.16,-17.77 -111.94,0 -30.78,17.77 -30.78,46.86 0,64.63z"/>
   <path class="fil109" d="M890.27 510.38c30.1,17.38 79.35,17.38 109.44,0 30.1,-17.38 30.1,-45.81 0,-63.19 -30.1,-17.38 -79.35,-17.38 -109.44,0 -30.1,17.38 -30.1,45.81 0,63.19z"/>
   <path class="fil110" d="M891.51 509.66c29.41,16.98 77.54,16.98 106.95,0 29.41,-16.98 29.41,-44.77 0,-61.75 -29.41,-16.98 -77.54,-16.98 -106.95,0 -29.41,16.98 -29.41,44.77 0,61.75z"/>
   <path class="fil111" d="M892.76 508.93c28.73,16.59 75.73,16.59 104.46,0 28.73,-16.58 28.73,-43.72 0,-60.3 -28.72,-16.58 -75.73,-16.58 -104.46,0 -28.72,16.59 -28.72,43.72 0,60.3z"/>
   <path class="fil112" d="M894.01 508.22c28.04,16.19 73.92,16.19 101.96,0 28.04,-16.19 28.04,-42.68 0,-58.87 -28.04,-16.19 -73.92,-16.19 -101.96,0 -28.04,16.19 -28.04,42.68 0,58.87z"/>
   <path class="fil113" d="M895.25 507.5c27.35,15.79 72.11,15.79 99.47,0 27.35,-15.79 27.35,-41.63 0,-57.43 -27.35,-15.79 -72.11,-15.79 -99.47,0 -27.35,15.79 -27.35,41.63 0,57.43z"/>
   <path class="fil114" d="M896.5 506.78c26.66,15.4 70.3,15.4 96.97,0 26.67,-15.4 26.67,-40.59 0,-55.98 -26.67,-15.4 -70.3,-15.4 -96.97,0 -26.67,15.4 -26.67,40.59 0,55.98z"/>
   <path class="fil115" d="M897.75 506.06c25.98,15 68.49,15 94.48,0 25.98,-15 25.98,-39.55 0,-54.55 -25.98,-15 -68.5,-15 -94.48,0 -25.98,15 -25.98,39.55 0,54.55z"/>
   <path class="fil116" d="M899 505.33c25.29,14.61 66.69,14.61 91.98,0 25.29,-14.6 25.29,-38.5 0,-53.1 -25.29,-14.6 -66.69,-14.6 -91.98,0 -25.29,14.61 -25.29,38.5 0,53.1z"/>
   <path class="fil117" d="M900.24 504.62c24.61,14.21 64.88,14.21 89.49,0 24.61,-14.21 24.61,-37.46 0,-51.66 -24.61,-14.21 -64.88,-14.21 -89.49,0 -24.61,14.21 -24.61,37.46 0,51.66z"/>
   <path class="fil118" d="M901.49 503.89c23.92,13.81 63.07,13.81 86.99,0 23.92,-13.81 23.92,-36.41 0,-50.22 -23.92,-13.81 -63.07,-13.81 -86.99,0 -23.92,13.81 -23.92,36.41 0,50.22z"/>
   <path class="fil119" d="M902.74 503.17c23.23,13.42 61.26,13.42 84.5,0 23.23,-13.42 23.23,-35.37 0,-48.78 -23.24,-13.42 -61.26,-13.42 -84.5,0 -23.24,13.41 -23.24,35.37 0,48.78z"/>
   <path class="fil120" d="M903.99 502.45c22.55,13.02 59.45,13.02 82,0 22.55,-13.02 22.55,-34.32 0,-47.34 -22.55,-13.02 -59.45,-13.02 -82,0 -22.55,13.02 -22.55,34.33 0,47.34z"/>
   <path class="fil121" d="M905.23 501.73c21.86,12.62 57.64,12.62 79.51,0 21.86,-12.62 21.86,-33.28 0,-45.9 -21.86,-12.62 -57.64,-12.62 -79.51,0 -21.86,12.62 -21.86,33.28 0,45.9z"/>
   <path class="fil122" d="M906.48 501.01c21.18,12.23 55.83,12.23 77.01,0 21.18,-12.23 21.18,-32.23 0,-44.46 -21.18,-12.23 -55.83,-12.23 -77.01,0 -21.18,12.23 -21.18,32.23 0,44.46z"/>
   <path class="fil123" d="M907.73 500.29c20.49,11.83 54.02,11.83 74.52,0 20.49,-11.83 20.49,-31.19 0,-43.02 -20.49,-11.83 -54.02,-11.83 -74.52,0 -20.49,11.83 -20.49,31.19 0,43.02z"/>
   <path class="fil124" d="M908.98 499.57c19.81,11.43 52.22,11.43 72.02,0 19.8,-11.44 19.8,-30.15 0,-41.58 -19.8,-11.44 -52.22,-11.44 -72.02,0 -19.81,11.43 -19.81,30.14 0,41.58z"/>
   <path class="fil125" d="M910.22 498.85c19.12,11.04 50.41,11.04 69.53,0 19.12,-11.04 19.12,-29.1 0,-40.14 -19.12,-11.04 -50.41,-11.04 -69.53,0 -19.12,11.04 -19.12,29.1 0,40.14z"/>
   <path class="fil126" d="M911.47 498.13c18.43,10.64 48.6,10.64 67.03,0 18.43,-10.64 18.43,-28.06 0,-38.7 -18.43,-10.64 -48.6,-10.64 -67.03,0 -18.43,10.64 -18.43,28.06 0,38.7z"/>
   <path class="fil127" d="M912.72 497.41c17.75,10.25 46.79,10.25 64.54,0 17.75,-10.25 17.75,-27.01 0,-37.26 -17.75,-10.25 -46.79,-10.25 -64.54,0 -17.74,10.25 -17.74,27.01 0,37.26z"/>
   <path class="fil128" d="M913.97 496.69c17.06,9.85 44.98,9.85 62.04,0 17.06,-9.85 17.06,-25.97 0,-35.82 -17.06,-9.85 -44.98,-9.85 -62.04,0 -17.06,9.85 -17.06,25.97 0,35.82z"/>
   <path class="fil129" d="M915.22 495.97c16.38,9.45 43.17,9.45 59.55,0 16.37,-9.45 16.37,-24.93 0,-34.38 -16.38,-9.45 -43.17,-9.45 -59.55,0 -16.38,9.45 -16.38,24.93 0,34.38z"/>
   <path class="fil130" d="M916.46 495.25c15.69,9.06 41.36,9.06 57.05,0 15.69,-9.06 15.69,-23.88 0,-32.94 -15.69,-9.06 -41.36,-9.06 -57.05,0 -15.69,9.06 -15.69,23.88 0,32.94z"/>
   <path class="fil131" d="M917.71 494.53c15,8.66 39.55,8.66 54.55,0 15,-8.66 15,-22.83 0,-31.5 -15,-8.66 -39.55,-8.66 -54.55,0 -15,8.66 -15,22.84 0,31.5z"/>
   <path class="fil132" d="M918.96 493.81c14.32,8.27 37.74,8.27 52.06,0 14.32,-8.27 14.32,-21.79 0,-30.06 -14.32,-8.26 -37.74,-8.26 -52.06,0 -14.32,8.27 -14.32,21.79 0,30.06z"/>
   <path class="fil133" d="M920.2 493.09c13.63,7.87 35.93,7.87 49.57,0 13.63,-7.87 13.63,-20.75 0,-28.62 -13.63,-7.87 -35.94,-7.87 -49.57,0 -13.63,7.87 -13.63,20.75 0,28.62z"/>
   <path class="fil134" d="M921.45 492.37c12.94,7.47 34.13,7.47 47.07,0 12.95,-7.47 12.95,-19.71 0,-27.18 -12.94,-7.47 -34.13,-7.47 -47.07,0 -12.95,7.47 -12.95,19.7 0,27.18z"/>
   <path class="fil135" d="M922.7 491.65c12.26,7.08 32.32,7.08 44.58,0 12.26,-7.08 12.26,-18.66 0,-25.74 -12.26,-7.08 -32.32,-7.08 -44.58,0 -12.26,7.08 -12.26,18.66 0,25.74z"/>
   <path class="fil136" d="M923.95 490.93c11.57,6.68 30.51,6.68 42.08,0 11.57,-6.68 11.57,-17.61 0,-24.3 -11.57,-6.68 -30.51,-6.68 -42.08,0 -11.57,6.68 -11.57,17.61 0,24.3z"/>
   <path class="fil137" d="M925.19 490.21c10.89,6.28 28.7,6.28 39.59,0 10.89,-6.28 10.89,-16.57 0,-22.85 -10.89,-6.29 -28.7,-6.29 -39.59,0 -10.89,6.28 -10.89,16.57 0,22.85z"/>
   <path class="fil138" d="M926.44 489.49c10.2,5.89 26.89,5.89 37.09,0 10.2,-5.89 10.2,-15.52 0,-21.41 -10.2,-5.89 -26.89,-5.89 -37.09,0 -10.2,5.89 -10.2,15.52 0,21.41z"/>
   <path class="fil139" d="M927.69 488.77c9.52,5.49 25.08,5.49 34.6,0 9.52,-5.49 9.52,-14.48 0,-19.97 -9.51,-5.49 -25.08,-5.49 -34.6,0 -9.51,5.49 -9.51,14.48 0,19.97z"/>
   <path class="fil140" d="M928.94 488.05c8.83,5.09 23.27,5.09 32.1,0 8.83,-5.1 8.83,-13.44 0,-18.53 -8.83,-5.1 -23.27,-5.1 -32.1,0 -8.83,5.1 -8.83,13.44 0,18.53z"/>
   <path class="fil141" d="M930.18 487.33c8.14,4.7 21.46,4.7 29.61,0 8.14,-4.7 8.14,-12.39 0,-17.09 -8.14,-4.7 -21.46,-4.7 -29.61,0 -8.14,4.7 -8.14,12.39 0,17.09z"/>
   <path class="fil142" d="M931.43 486.61c7.46,4.3 19.66,4.3 27.11,0 7.46,-4.3 7.46,-11.35 0,-15.65 -7.45,-4.3 -19.65,-4.3 -27.11,0 -7.45,4.3 -7.45,11.35 0,15.65z"/>
   <path class="fil143" d="M1007.18 469.96c0,-0.01 0,-0.02 0,-0.03l-0.03 -90.48 -114.13 -0.88 0.46 95.37c1.48,7.08 6.85,13.94 16.2,19.34 22.23,12.83 58.6,12.83 80.83,0 9.36,-5.4 14.73,-12.26 16.21,-19.34l0.46 -3.98z"/>
   <path class="fil144" d="M909.68 401.89c22.23,12.83 58.6,12.83 80.83,0 22.23,-12.83 22.23,-33.83 0,-46.66 -22.23,-12.83 -58.6,-12.83 -80.83,0 -22.22,12.83 -22.22,33.83 0,46.66z"/>
   <path class="fil145" d="M913.96 399.43c19.88,11.48 52.41,11.48 72.29,0 19.88,-11.47 19.88,-30.26 0,-41.73 -19.88,-11.48 -52.41,-11.48 -72.29,0 -19.88,11.48 -19.88,30.26 0,41.73z"/>
   <path class="fil150" d="M1000.56 382.84c-2.63,-3.83 -6.59,-7.43 -11.95,-10.52 -21.18,-12.23 -55.84,-12.23 -77.02,0 -5.36,3.09 -9.32,6.69 -11.95,10.52 1.52,6.08 6.26,11.93 14.32,16.59 19.88,11.48 52.41,11.48 72.29,0 8.06,-4.65 12.79,-10.51 14.32,-16.59z"/>
   <path class="fil151" d="M893.44 460.32c2.77,5.12 7.61,9.94 14.61,13.98 23.15,13.37 61.04,13.37 84.19,0 7.27,-4.2 12.24,-9.24 14.94,-14.6l-0.01 -40c-2.71,5.34 -7.67,10.38 -14.93,14.57 -23.15,13.37 -61.04,13.37 -84.19,0 -7.14,-4.12 -12.06,-9.05 -14.79,-14.29l0.19 40.33z"/>
   <path class="fil101" d="M241.87 201.75c-3.04,-1.73 -3.05,-4.58 -0.02,-6.33l157.13 -90.72c3.03,-1.75 7.97,-1.71 10.98,0.08l14.8 8.83c3.01,1.79 2.99,4.7 -0.05,6.44l-156.52 90.37c-3.03,1.75 -8,1.77 -11.05,0.03l-15.28 -8.7z"/>
   <path class="fil152" d="M242.04 201.67c-3.03,-1.73 -3.04,-4.57 -0.02,-6.31l156.89 -90.6c3.02,-1.74 7.95,-1.71 10.94,0.08l14.74 8.8c3,1.79 2.97,4.68 -0.05,6.42l-156.28 90.25c-3.02,1.74 -7.97,1.76 -11.01,0.03l-15.22 -8.67z"/>
   <path class="fil153" d="M242.21 201.59c-3.02,-1.72 -3.03,-4.55 -0.02,-6.29l156.64 -90.49c3.01,-1.74 7.91,-1.7 10.9,0.08l14.69 8.76c2.98,1.78 2.96,4.66 -0.05,6.4l-156.04 90.14c-3.01,1.74 -7.94,1.75 -10.96,0.03l-15.17 -8.64z"/>
   <path class="fil154" d="M242.38 201.51c-3.01,-1.71 -3.02,-4.53 -0.02,-6.26l156.4 -90.37c3,-1.73 7.88,-1.7 10.86,0.08l14.64 8.73c2.97,1.77 2.95,4.64 -0.05,6.37l-155.79 90.02c-3,1.73 -7.91,1.75 -10.92,0.03l-15.11 -8.6z"/>
   <path class="fil155" d="M242.55 201.43c-3,-1.71 -3.01,-4.52 -0.02,-6.24l156.15 -90.26c2.99,-1.73 7.86,-1.69 10.82,0.08l14.58 8.7c2.96,1.77 2.94,4.63 -0.05,6.35l-155.55 89.91c-2.99,1.72 -7.88,1.74 -10.88,0.03l-15.05 -8.57z"/>
   <path class="fil156" d="M242.72 201.35c-2.99,-1.7 -2.99,-4.5 -0.02,-6.22l155.91 -90.14c2.98,-1.72 7.83,-1.68 10.78,0.08l14.53 8.67c2.95,1.76 2.93,4.61 -0.05,6.33l-155.31 89.8c-2.98,1.72 -7.85,1.73 -10.84,0.03l-15 -8.54z"/>
   <path class="fil157" d="M242.89 201.27c-2.97,-1.69 -2.98,-4.48 -0.02,-6.19l155.66 -90.03c2.96,-1.71 7.8,-1.68 10.74,0.08l14.47 8.63c2.94,1.75 2.92,4.59 -0.05,6.3l-155.07 89.68c-2.96,1.71 -7.83,1.73 -10.8,0.03l-14.94 -8.51z"/>
   <path class="fil158" d="M243.06 201.19c-2.96,-1.69 -2.97,-4.46 -0.02,-6.17l155.42 -89.91c2.95,-1.71 7.77,-1.67 10.7,0.08l14.41 8.6c2.93,1.75 2.91,4.57 -0.04,6.28l-154.82 89.57c-2.95,1.7 -7.8,1.72 -10.76,0.03l-14.88 -8.48z"/>
   <path class="fil159" d="M243.23 201.11c-2.95,-1.68 -2.96,-4.45 -0.02,-6.14l155.17 -89.8c2.94,-1.7 7.74,-1.67 10.66,0.07l14.36 8.57c2.92,1.74 2.9,4.55 -0.04,6.25l-154.58 89.46c-2.94,1.7 -7.77,1.71 -10.72,0.03l-14.83 -8.44z"/>
   <path class="fil160" d="M243.4 201.03c-2.94,-1.67 -2.95,-4.43 -0.02,-6.12l154.93 -89.68c2.93,-1.69 7.71,-1.66 10.62,0.08l14.3 8.53c2.91,1.73 2.89,4.54 -0.05,6.23l-154.34 89.34c-2.93,1.69 -7.74,1.71 -10.68,0.03l-14.77 -8.41z"/>
   <path class="fil161" d="M243.57 200.95c-2.93,-1.67 -2.94,-4.41 -0.02,-6.1l154.68 -89.57c2.92,-1.69 7.68,-1.65 10.58,0.07l14.25 8.5c2.9,1.73 2.88,4.52 -0.04,6.21l-154.1 89.23c-2.92,1.69 -7.71,1.7 -10.64,0.03l-14.71 -8.38z"/>
   <path class="fil162" d="M243.74 200.87c-2.92,-1.66 -2.93,-4.4 -0.02,-6.08l154.44 -89.45c2.91,-1.68 7.65,-1.65 10.53,0.07l14.2 8.47c2.88,1.72 2.86,4.5 -0.05,6.18l-153.85 89.11c-2.91,1.68 -7.68,1.69 -10.6,0.03l-14.65 -8.34z"/>
   <path class="fil163" d="M243.91 200.79c-2.91,-1.66 -2.92,-4.38 -0.02,-6.05l154.19 -89.34c2.9,-1.67 7.62,-1.64 10.49,0.07l14.14 8.44c2.87,1.71 2.85,4.49 -0.04,6.16l-153.61 89c-2.9,1.67 -7.65,1.69 -10.55,0.03l-14.6 -8.31z"/>
   <path class="fil164" d="M244.08 200.71c-2.9,-1.65 -2.9,-4.36 -0.02,-6.03l153.95 -89.22c2.89,-1.67 7.59,-1.63 10.45,0.07l14.09 8.4c2.86,1.71 2.84,4.47 -0.04,6.13l-153.37 88.88c-2.88,1.67 -7.62,1.68 -10.51,0.03l-14.54 -8.28z"/>
   <path class="fil165" d="M244.25 200.63c-2.89,-1.64 -2.89,-4.34 -0.02,-6l153.7 -89.1c2.88,-1.66 7.56,-1.63 10.41,0.07l14.03 8.37c2.85,1.7 2.83,4.45 -0.04,6.11l-153.13 88.77c-2.87,1.66 -7.59,1.67 -10.47,0.03l-14.48 -8.25z"/>
   <path class="fil166" d="M244.42 200.55c-2.87,-1.64 -2.88,-4.33 -0.02,-5.98l153.46 -88.99c2.87,-1.65 7.53,-1.62 10.37,0.07l13.98 8.34c2.84,1.69 2.82,4.43 -0.04,6.09l-152.88 88.66c-2.87,1.65 -7.56,1.67 -10.43,0.03l-14.43 -8.22z"/>
   <path class="fil167" d="M244.59 200.47c-2.86,-1.63 -2.87,-4.31 -0.02,-5.96l153.22 -88.87c2.85,-1.65 7.5,-1.61 10.33,0.07l13.92 8.31c2.83,1.69 2.81,4.41 -0.04,6.06l-152.64 88.54c-2.85,1.65 -7.53,1.66 -10.39,0.03l-14.37 -8.18z"/>
   <path class="fil168" d="M244.76 200.39c-2.85,-1.62 -2.86,-4.29 -0.02,-5.93l152.97 -88.76c2.84,-1.64 7.47,-1.61 10.29,0.07l13.87 8.27c2.82,1.68 2.8,4.4 -0.04,6.04l-152.4 88.43c-2.84,1.64 -7.5,1.65 -10.35,0.03l-14.32 -8.15z"/>
   <path class="fil169" d="M244.93 200.31c-2.84,-1.62 -2.85,-4.28 -0.02,-5.91l152.73 -88.64c2.83,-1.63 7.44,-1.6 10.25,0.07l13.81 8.24c2.81,1.67 2.79,4.38 -0.04,6.01l-152.16 88.32c-2.83,1.63 -7.47,1.65 -10.31,0.03l-14.26 -8.12z"/>
   <path class="fil170" d="M245.1 200.23c-2.83,-1.61 -2.84,-4.26 -0.02,-5.89l152.48 -88.53c2.82,-1.63 7.41,-1.59 10.21,0.07l13.76 8.21c2.8,1.67 2.78,4.36 -0.04,5.99l-151.91 88.2c-2.82,1.63 -7.44,1.64 -10.27,0.03l-14.2 -8.09z"/>
   <path class="fil171" d="M245.27 200.15c-2.82,-1.61 -2.83,-4.24 -0.02,-5.86l152.24 -88.41c2.81,-1.62 7.38,-1.59 10.17,0.07l13.7 8.17c2.78,1.66 2.76,4.35 -0.04,5.97l-151.67 88.09c-2.81,1.62 -7.41,1.63 -10.22,0.03l-14.15 -8.05z"/>
   <path class="fil172" d="M245.44 200.07c-2.8,-1.6 -2.81,-4.23 -0.02,-5.84l151.99 -88.3c2.8,-1.61 7.35,-1.58 10.13,0.07l13.65 8.14c2.77,1.65 2.75,4.33 -0.04,5.94l-151.43 87.97c-2.8,1.61 -7.38,1.63 -10.18,0.03l-14.09 -8.02z"/>
   <path class="fil173" d="M245.61 199.99c-2.79,-1.59 -2.8,-4.21 -0.02,-5.82l151.75 -88.18c2.78,-1.61 7.32,-1.58 10.09,0.07l13.59 8.11c2.76,1.65 2.74,4.31 -0.04,5.92l-151.19 87.86c-2.78,1.61 -7.35,1.62 -10.14,0.03l-14.03 -7.99z"/>
   <path class="fil174" d="M245.78 199.91c-2.78,-1.58 -2.79,-4.19 -0.02,-5.79l151.5 -88.07c2.77,-1.6 7.29,-1.57 10.04,0.07l13.53 8.08c2.75,1.64 2.73,4.29 -0.04,5.89l-150.94 87.75c-2.77,1.6 -7.32,1.61 -10.1,0.03l-13.98 -7.96z"/>
   <path class="fil175" d="M245.95 199.83c-2.77,-1.58 -2.78,-4.17 -0.02,-5.77l151.26 -87.95c2.76,-1.59 7.26,-1.56 10,0.07l13.48 8.04c2.74,1.63 2.72,4.28 -0.04,5.87l-150.7 87.63c-2.76,1.59 -7.29,1.61 -10.06,0.03l-13.92 -7.92z"/>
   <path class="fil176" d="M246.12 199.75c-2.76,-1.57 -2.77,-4.16 -0.02,-5.75l151.01 -87.84c2.75,-1.59 7.23,-1.56 9.96,0.07l13.43 8.01c2.73,1.63 2.71,4.26 -0.04,5.85l-150.46 87.52c-2.75,1.59 -7.26,1.6 -10.02,0.03l-13.86 -7.89z"/>
   <path class="fil177" d="M246.29 199.67c-2.75,-1.57 -2.76,-4.14 -0.02,-5.72l150.77 -87.72c2.74,-1.58 7.2,-1.55 9.92,0.07l13.37 7.98c2.72,1.62 2.7,4.24 -0.04,5.82l-150.22 87.4c-2.74,1.58 -7.23,1.59 -9.98,0.03l-13.81 -7.86z"/>
   <path class="fil178" d="M246.46 199.59c-2.74,-1.56 -2.75,-4.12 -0.02,-5.7l150.52 -87.61c2.73,-1.58 7.17,-1.54 9.88,0.07l13.32 7.95c2.7,1.61 2.69,4.22 -0.04,5.8l-149.98 87.29c-2.73,1.57 -7.2,1.59 -9.94,0.03l-13.75 -7.83z"/>
   <path class="fil179" d="M246.63 199.51c-2.73,-1.55 -2.73,-4.11 -0.02,-5.68l150.28 -87.49c2.72,-1.57 7.14,-1.54 9.84,0.07l13.26 7.91c2.69,1.61 2.68,4.21 -0.04,5.77l-149.73 87.18c-2.72,1.57 -7.17,1.58 -9.9,0.03l-13.69 -7.8z"/>
   <path class="fil180" d="M246.8 199.43c-2.72,-1.55 -2.72,-4.09 -0.02,-5.65l150.03 -87.38c2.71,-1.56 7.12,-1.53 9.8,0.07l13.2 7.88c2.68,1.6 2.67,4.19 -0.04,5.75l-149.49 87.06c-2.7,1.56 -7.14,1.58 -9.86,0.03l-13.64 -7.76z"/>
   <path class="fil181" d="M246.97 199.35c-2.7,-1.54 -2.71,-4.07 -0.02,-5.63l149.79 -87.26c2.69,-1.55 7.09,-1.52 9.76,0.07l13.15 7.85c2.67,1.59 2.65,4.17 -0.04,5.73l-149.25 86.95c-2.69,1.55 -7.11,1.57 -9.82,0.03l-13.58 -7.73z"/>
   <path class="fil182" d="M247.14 199.27c-2.69,-1.53 -2.7,-4.05 -0.02,-5.6l149.54 -87.15c2.68,-1.55 7.06,-1.52 9.72,0.07l13.1 7.81c2.66,1.59 2.64,4.15 -0.04,5.7l-149.01 86.83c-2.68,1.55 -7.08,1.56 -9.78,0.03l-13.52 -7.7z"/>
   <path class="fil183" d="M247.31 199.19c-2.68,-1.53 -2.69,-4.04 -0.02,-5.58l149.3 -87.03c2.67,-1.54 7.03,-1.51 9.68,0.07l13.04 7.78c2.65,1.58 2.63,4.14 -0.04,5.68l-148.76 86.72c-2.67,1.54 -7.05,1.56 -9.73,0.03l-13.46 -7.67z"/>
   <path class="fil184" d="M247.48 199.11c-2.67,-1.52 -2.68,-4.02 -0.02,-5.56l149.06 -86.92c2.66,-1.54 7,-1.51 9.64,0.07l12.99 7.75c2.64,1.57 2.62,4.12 -0.04,5.66l-148.52 86.61c-2.66,1.54 -7.02,1.55 -9.69,0.03l-13.41 -7.64z"/>
   <path class="fil185" d="M247.65 199.03c-2.66,-1.51 -2.67,-4 -0.02,-5.54l148.81 -86.8c2.65,-1.53 6.97,-1.5 9.59,0.07l12.93 7.72c2.63,1.57 2.61,4.1 -0.04,5.63l-148.28 86.49c-2.65,1.53 -6.99,1.54 -9.65,0.03l-13.35 -7.6z"/>
   <path class="fil186" d="M247.82 198.95c-2.65,-1.51 -2.65,-3.99 -0.02,-5.51l148.57 -86.68c2.64,-1.52 6.94,-1.49 9.56,0.07l12.88 7.68c2.62,1.56 2.6,4.08 -0.04,5.61l-148.04 86.38c-2.64,1.52 -6.96,1.54 -9.61,0.03l-13.3 -7.57z"/>
   <path class="fil187" d="M247.99 198.87c-2.64,-1.5 -2.64,-3.97 -0.02,-5.49l148.32 -86.57c2.63,-1.52 6.91,-1.48 9.51,0.07l12.82 7.65c2.61,1.55 2.59,4.07 -0.04,5.58l-147.8 86.27c-2.63,1.52 -6.93,1.53 -9.57,0.03l-13.24 -7.54z"/>
   <path class="fil188" d="M248.16 198.79c-2.62,-1.5 -2.63,-3.95 -0.02,-5.47l148.08 -86.45c2.62,-1.51 6.88,-1.48 9.47,0.07l12.77 7.62c2.59,1.55 2.58,4.05 -0.04,5.56l-147.55 86.15c-2.62,1.51 -6.9,1.52 -9.53,0.03l-13.18 -7.5z"/>
   <path class="fil189" d="M248.33 198.71c-2.61,-1.49 -2.62,-3.94 -0.02,-5.44l147.83 -86.34c2.61,-1.5 6.85,-1.47 9.43,0.07l12.71 7.58c2.58,1.54 2.57,4.03 -0.04,5.54l-147.31 86.04c-2.6,1.5 -6.87,1.52 -9.49,0.03l-13.12 -7.47z"/>
   <path class="fil190" d="M248.5 198.63c-2.6,-1.48 -2.61,-3.92 -0.02,-5.42l147.59 -86.22c2.59,-1.5 6.82,-1.47 9.39,0.07l12.66 7.55c2.57,1.54 2.55,4.02 -0.04,5.51l-147.07 85.92c-2.59,1.5 -6.84,1.51 -9.45,0.03l-13.07 -7.44z"/>
   <path class="fil191" d="M248.67 198.55c-2.59,-1.47 -2.6,-3.9 -0.02,-5.39l147.34 -86.11c2.58,-1.49 6.79,-1.46 9.35,0.07l12.6 7.52c2.56,1.53 2.54,4 -0.04,5.49l-146.83 85.81c-2.58,1.49 -6.81,1.5 -9.41,0.03l-13.01 -7.41z"/>
   <path class="fil47" d="M248.84 198.47c-2.58,-1.47 -2.59,-3.88 -0.02,-5.37l147.1 -85.99c2.57,-1.48 6.76,-1.46 9.31,0.06l12.55 7.49c2.55,1.52 2.53,3.98 -0.04,5.46l-146.58 85.7c-2.57,1.48 -6.78,1.5 -9.37,0.03l-12.95 -7.38z"/>
   <path class="fil192" d="M244.38 198.47c-2.94,-1.67 -2.95,-4.43 -0.02,-6.12l151.92 -87.71c2.93,-1.69 7.71,-1.66 10.62,0.07l14.31 8.54c2.91,1.73 2.89,4.54 -0.05,6.23l-151.33 87.37c-2.93,1.69 -7.74,1.71 -10.68,0.03l-14.77 -8.41z"/>
   <path class="fil193" d="M244.38 196.93c-2.94,-1.68 -2.95,-4.43 -0.02,-6.12l151.92 -87.71c2.93,-1.69 7.71,-1.66 10.62,0.08l14.31 8.54c2.91,1.73 2.89,4.54 -0.05,6.23l-151.33 87.37c-2.93,1.69 -7.74,1.71 -10.68,0.03l-14.77 -8.41z"/>
   <polygon class="fil47" points="249.71,187.9 259.43,193.53 261.59,192.28 251.97,186.61 "/>
   <polygon class="fil47" points="261.54,181.05 268.13,184.85 270.3,183.6 263.79,179.76 "/>
   <polygon class="fil47" points="273.37,174.2 279.96,178.01 282.13,176.75 275.62,172.92 "/>
   <polygon class="fil47" points="285.19,167.35 291.78,171.16 293.95,169.91 287.45,166.07 "/>
   <polygon class="fil47" points="297.02,160.51 306.73,166.15 308.9,164.9 299.27,159.22 "/>
   <polygon class="fil47" points="308.85,153.66 315.44,157.46 317.61,156.21 311.1,152.38 "/>
   <polygon class="fil47" points="320.67,146.81 327.26,150.62 329.43,149.37 322.93,145.53 "/>
   <polygon class="fil47" points="332.5,139.97 339.09,143.77 341.26,142.52 334.75,138.68 "/>
   <polygon class="fil47" points="344.33,133.12 354.04,138.76 356.21,137.51 346.58,131.83 "/>
   <polygon class="fil47" points="356.16,126.27 362.74,130.08 364.91,128.83 358.41,124.99 "/>
   <polygon class="fil47" points="367.98,119.42 374.57,123.23 376.74,121.98 370.23,118.14 "/>
   <polygon class="fil47" points="379.81,112.58 386.4,116.38 388.57,115.13 382.06,111.29 "/>
   <polygon class="fil47" points="391.63,105.73 401.35,111.37 403.51,110.12 393.89,104.45 "/>
  </g>
 </g>
</svg>
