<?xml version="1.0" encoding="UTF-8"?>
<!DOCTYPE svg PUBLIC "-//W3C//DTD SVG 1.1//EN" "http://www.w3.org/Graphics/SVG/1.1/DTD/svg11.dtd">
<!-- Creator: CorelDRAW 2018 (64-Bit) -->
<svg xmlns="http://www.w3.org/2000/svg" xml:space="preserve" width="109.551mm" height="132.678mm" version="1.1" style="shape-rendering:geometricPrecision; text-rendering:geometricPrecision; image-rendering:optimizeQuality; fill-rule:evenodd; clip-rule:evenodd"
viewBox="0 0 723.39 876.11"
 xmlns:xlink="http://www.w3.org/1999/xlink">
 <defs>
  <style type="text/css">
   <![CDATA[
    .fil9 {fill:#F8B901;fill-rule:nonzero}
    .fil21 {fill:#36364F;fill-rule:nonzero}
    .fil0 {fill:#484869;fill-rule:nonzero}
    .fil22 {fill:#5B629E;fill-rule:nonzero}
    .fil7 {fill:#99A7D8;fill-rule:nonzero}
    .fil3 {fill:#9A8CB9;fill-rule:nonzero}
    .fil8 {fill:#C2CAE8;fill-rule:nonzero}
    .fil19 {fill:#E5E9F4;fill-rule:nonzero}
    .fil1 {fill:#EDF0F8;fill-rule:nonzero}
    .fil24 {fill:#F2B1B5;fill-rule:nonzero}
    .fil25 {fill:#F5C5C8;fill-rule:nonzero}
    .fil20 {fill:#F7F8FC;fill-rule:nonzero}
    .fil16 {fill:#FFC107;fill-rule:nonzero}
    .fil17 {fill:white;fill-rule:nonzero}
    .fil26 {fill:#EF9EA3;fill-rule:nonzero;fill-opacity:0.200000}
    .fil23 {fill:#231F1F;fill-rule:nonzero;fill-opacity:0.301961}
    .fil2 {fill:url(#id0);fill-rule:nonzero}
    .fil4 {fill:url(#id1);fill-rule:nonzero}
    .fil18 {fill:url(#id2);fill-rule:nonzero}
    .fil6 {fill:url(#id3);fill-rule:nonzero}
    .fil5 {fill:url(#id4);fill-rule:nonzero}
    .fil10 {fill:url(#id5);fill-rule:nonzero}
    .fil14 {fill:url(#id6);fill-rule:nonzero}
    .fil12 {fill:url(#id7);fill-rule:nonzero}
    .fil15 {fill:url(#id8);fill-rule:nonzero}
    .fil13 {fill:url(#id9);fill-rule:nonzero}
    .fil11 {fill:url(#id10);fill-rule:nonzero}
   ]]>
  </style>
  <linearGradient id="id0" gradientUnits="userSpaceOnUse" x1="202" y1="561.59" x2="202" y2="-2.75">
   <stop offset="0" style="stop-opacity:1; stop-color:#FBFCFD"/>
   <stop offset="1" style="stop-opacity:1; stop-color:#FEFEFE"/>
  </linearGradient>
  <linearGradient id="id1" gradientUnits="userSpaceOnUse" x1="34.6" y1="487.09" x2="168.78" y2="487.09">
   <stop offset="0" style="stop-opacity:1; stop-color:#5E619F"/>
   <stop offset="1" style="stop-opacity:1; stop-color:#4D4D70"/>
  </linearGradient>
  <linearGradient id="id2" gradientUnits="userSpaceOnUse" x1="226.6" y1="376.69" x2="723.04" y2="376.69">
   <stop offset="0" style="stop-opacity:1; stop-color:#5E619F"/>
   <stop offset="0.988235" style="stop-opacity:1; stop-color:#4D4D70"/>
   <stop offset="1" style="stop-opacity:1; stop-color:#4D4D70"/>
  </linearGradient>
  <linearGradient id="id3" gradientUnits="userSpaceOnUse" x1="198.25" y1="126.71" x2="204.54" y2="4.04">
   <stop offset="0" style="stop-opacity:1; stop-color:#4D4D70"/>
   <stop offset="1" style="stop-opacity:1; stop-color:#5E619F"/>
  </linearGradient>
  <linearGradient id="id4" gradientUnits="userSpaceOnUse" xlink:href="#id3" x1="233.78" y1="487.09" x2="367.96" y2="487.09">
  </linearGradient>
  <linearGradient id="id5" gradientUnits="userSpaceOnUse" x1="-2.72" y1="233.75" x2="15.38" y2="251.86">
   <stop offset="0" style="stop-opacity:1; stop-color:#FBC800"/>
   <stop offset="0.85098" style="stop-opacity:1; stop-color:#F49E0B"/>
   <stop offset="1" style="stop-opacity:1; stop-color:#F49E0B"/>
  </linearGradient>
  <linearGradient id="id6" gradientUnits="userSpaceOnUse" xlink:href="#id5" x1="245.63" y1="225.56" x2="256.66" y2="236.59">
  </linearGradient>
  <linearGradient id="id7" gradientUnits="userSpaceOnUse" xlink:href="#id5" x1="242.25" y1="312.67" x2="251.07" y2="321.49">
  </linearGradient>
  <linearGradient id="id8" gradientUnits="userSpaceOnUse" xlink:href="#id5" x1="337.4" y1="193.33" x2="344.55" y2="200.47">
  </linearGradient>
  <linearGradient id="id9" gradientUnits="userSpaceOnUse" xlink:href="#id5" x1="93.2" y1="210.94" x2="107.87" y2="225.61">
  </linearGradient>
  <linearGradient id="id10" gradientUnits="userSpaceOnUse" xlink:href="#id5" x1="74.48" y1="293.99" x2="88.09" y2="307.6">
  </linearGradient>
 </defs>
 <g id="Layer_x0020_1">
  <metadata id="CorelCorpID_0Corel-Layer"/>
  <g id="_2862574193168">
   <path class="fil0" d="M151.82 623.16c-3.6,0 -7.2,-0.95 -10.49,-2.84 -6.56,-3.79 -10.48,-10.58 -10.48,-18.16l0 -264.29c0,-15.35 8.22,-29.7 21.46,-37.46l99.38 -58.27c2.7,-1.58 4.3,-4.39 4.3,-7.52 0,-3.13 -1.61,-5.94 -4.31,-7.51l-40.88 -23.88c-0.67,-0.39 -0.9,-1.26 -0.51,-1.93 0.39,-0.68 1.26,-0.9 1.93,-0.51l40.88 23.88c3.57,2.09 5.71,5.81 5.71,9.95 0,4.14 -2.13,7.86 -5.7,9.96l-99.38 58.27c-12.37,7.26 -20.06,20.68 -20.06,35.03l0 264.29c0,6.56 3.39,12.43 9.07,15.71 5.68,3.28 12.46,3.28 18.14,0l29.88 -17.25c7.73,-4.46 12.53,-12.77 12.53,-21.69l0 -107.99c0,-7.84 4.23,-15.13 11.03,-19.03l28.85 -16.52c0.67,-0.39 1.54,-0.16 1.93,0.52 0.39,0.68 0.15,1.54 -0.52,1.93l-28.85 16.52c-5.93,3.4 -9.61,9.75 -9.61,16.58l0 107.99c0,9.93 -5.34,19.17 -13.94,24.14l-29.88 17.25c-3.28,1.89 -6.88,2.84 -10.48,2.84z"/>
   <g>
    <path class="fil1" d="M234.27 515.04l-64.66 0 0.14 31.46c0,4.77 3.13,9.53 9.39,13.15 12.53,7.23 33.08,7.23 45.68,0 6.3,-3.62 9.45,-8.38 9.45,-13.15l0.12 0 -0.12 -31.46z"/>
    <path class="fil2" d="M235.23 542.54l19.66 -79.14c13.05,-52.53 21.38,-106.17 23.96,-160.24 0.17,-3.58 0.32,-7.11 0.45,-10.59 3.19,-87.34 -16.35,-174.01 -55.48,-252.17l-20.23 -40.41 -3.18 0 -20.23 40.41c-39.12,78.15 -58.67,164.83 -55.48,252.17 0.13,3.48 0.28,7.01 0.45,10.59 2.58,54.07 10.91,107.71 23.96,160.24l19.66 79.14 66.45 0z"/>
    <polygon class="fil3" points="133.91,353.55 67.14,411.26 34.6,616.1 164.25,508.59 138.43,358.07 "/>
    <polygon class="fil4" points="138.43,358.07 71.66,415.79 34.6,616.1 168.78,513.12 "/>
    <polygon class="fil3" points="268.66,353.55 335.43,411.26 367.96,616.1 238.31,508.59 264.13,358.07 "/>
    <polygon class="fil5" points="264.13,358.07 330.9,415.79 367.96,616.1 233.78,513.12 "/>
    <path class="fil6" d="M249.57 100.86c-7.31,-20.6 -15.9,-40.8 -25.74,-60.45l-20.23 -40.41 -3.18 0 -20.23 40.41c-9.85,19.67 -18.45,39.89 -25.77,60.52 29.79,8.6 65.31,8.58 95.15,-0.07z"/>
    <path class="fil0" d="M129.52 327.93c-1.02,-0.59 -1.95,-1.22 -2.89,-1.84 0.29,3.67 0.62,7.34 0.96,11.01 20.81,11.27 47.48,16.98 74.24,16.98 26.84,0 53.65,-5.74 74.59,-17.08 0.34,-3.67 0.68,-7.34 0.96,-11.02 -1,0.65 -1.98,1.31 -3.07,1.94 -40.03,22.99 -104.99,22.99 -144.81,0z"/>
    <path class="fil0" d="M243.05 225.36c-2.9,20.26 -21.12,34.7 -41.05,34.7 -19.93,0 -38.14,-14.44 -41.04,-34.7 -3.38,-23.6 14.76,-45.78 41.04,-45.78 26.28,0 44.42,22.18 41.05,45.78z"/>
    <path class="fil7" d="M236.21 224.43c-2.42,16.89 -17.6,28.92 -34.21,28.92 -16.61,0 -31.79,-12.03 -34.21,-28.92 -2.81,-19.67 12.3,-38.15 34.21,-38.15 21.91,0 37.02,18.49 34.21,38.15z"/>
    <path class="fil8" d="M202.17 186.29l-34.67 34.67c0.04,1.15 0.14,2.31 0.3,3.47 1.04,7.27 4.45,13.63 9.32,18.52l48.1 -48.1c-5.95,-5.24 -13.89,-8.53 -23.05,-8.57z"/>
    <path class="fil8" d="M233.44 205.86c-1.16,-2.5 -2.63,-4.85 -4.37,-6.99l-47.71 47.71c2.25,1.64 4.7,3 7.29,4.07l44.79 -44.79z"/>
    <path class="fil0" d="M241.32 518.04c-2.15,2.76 -5.18,5.32 -9.07,7.55 -17.92,10.29 -47,10.3 -64.83,0 -1.23,-0.71 -2.34,-1.46 -3.4,-2.23l1.58 6.38c9.48,5.34 21.82,8.02 34.19,8.02 12.56,0 25.12,-2.75 34.71,-8.25 1.75,-1 3.3,-2.09 4.76,-3.22l2.05 -8.26z"/>
    <path class="fil9" d="M341.18 173.36c-21.08,-9.28 -46.87,-16.37 -74.94,-20.61l0.76 3.72c26.94,4.19 51.65,11.04 71.89,19.96 35.94,15.83 55.74,36.85 55.74,59.2 0,22.35 -19.8,43.37 -55.74,59.2 -75.41,33.21 -197.78,33.21 -272.77,0 -35.74,-15.83 -55.42,-36.85 -55.42,-59.2 0,-22.35 19.68,-43.38 55.42,-59.2 19.67,-8.71 43.69,-15.46 69.87,-19.68l1.46 -3.83c-27.59,4.26 -52.94,11.29 -73.63,20.45 -37.22,16.48 -57.72,38.59 -57.72,62.26 0,23.67 20.5,45.77 57.72,62.26 38.13,16.89 88.29,25.33 138.52,25.33 50.22,-0 100.5,-8.44 138.84,-25.33 37.43,-16.48 58.05,-38.59 58.05,-62.26 0,-23.67 -20.61,-45.78 -58.05,-62.26z"/>
    <path class="fil10" d="M20.31 246.63c0,5.61 -4.55,10.16 -10.16,10.16 -5.61,0 -10.16,-4.55 -10.16,-10.16 0,-5.61 4.55,-10.15 10.16,-10.15 5.61,0 10.16,4.55 10.16,10.15z"/>
    <path class="fil11" d="M91.8 303.67c0,4.22 -3.42,7.63 -7.63,7.63 -4.22,0 -7.63,-3.42 -7.63,-7.63 0,-4.22 3.42,-7.63 7.63,-7.63 4.22,0 7.63,3.42 7.63,7.63z"/>
    <path class="fil12" d="M253.47 318.94c0,2.73 -2.22,4.95 -4.95,4.95 -2.73,0 -4.95,-2.21 -4.95,-4.95 0,-2.73 2.22,-4.95 4.95,-4.95 2.73,0 4.95,2.22 4.95,4.95z"/>
    <path class="fil9" d="M314.31 116.79c-17.08,-7.52 -37.97,-13.26 -60.71,-16.7l0.62 3.01c21.82,3.4 41.85,8.95 58.24,16.17 29.12,12.82 45.16,29.86 45.16,47.96 0,18.11 -16.04,35.14 -45.16,47.96 -61.1,26.9 -160.24,26.9 -220.99,0 -28.96,-12.82 -44.9,-29.86 -44.9,-47.96 0,-18.11 15.95,-35.14 44.9,-47.96 15.94,-7.06 35.39,-12.53 56.61,-15.94l1.18 -3.1c-22.35,3.45 -42.89,9.14 -59.65,16.57 -30.16,13.36 -46.77,31.27 -46.77,50.44 0,19.17 16.61,37.09 46.77,50.44 30.89,13.68 71.53,20.52 112.23,20.52 40.69,-0 81.42,-6.84 112.48,-20.52 30.33,-13.35 47.03,-31.27 47.03,-50.44 0,-19.17 -16.7,-37.09 -47.03,-50.44z"/>
    <path class="fil13" d="M111.86 221.37c0,4.54 -3.68,8.23 -8.23,8.23 -4.54,0 -8.23,-3.68 -8.23,-8.23 0,-4.54 3.68,-8.23 8.23,-8.23 4.54,0 8.23,3.69 8.23,8.23z"/>
    <path class="fil14" d="M259.66 233.4c0,3.42 -2.77,6.19 -6.19,6.19 -3.42,0 -6.18,-2.77 -6.18,-6.19 0,-3.42 2.77,-6.18 6.18,-6.18 3.42,0 6.19,2.77 6.19,6.18z"/>
    <path class="fil15" d="M346.5 198.41c0,2.21 -1.8,4.01 -4.01,4.01 -2.21,0 -4.01,-1.8 -4.01,-4.01 0,-2.21 1.79,-4.01 4.01,-4.01 2.21,0 4.01,1.79 4.01,4.01z"/>
    <path class="fil16" d="M358.57 425.22c0,1.07 -0.87,1.95 -1.95,1.95 -1.07,0 -1.94,-0.87 -1.94,-1.95 0,-1.07 0.87,-1.94 1.94,-1.94 1.07,0 1.95,0.87 1.95,1.94z"/>
    <path class="fil16" d="M84.16 618.05c0,1.07 -0.87,1.94 -1.94,1.94 -1.07,0 -1.94,-0.87 -1.94,-1.94 0,-1.07 0.87,-1.95 1.94,-1.95 1.07,0 1.94,0.87 1.94,1.95z"/>
    <path class="fil16" d="M308.49 353.55c0,1.07 -0.87,1.94 -1.95,1.94 -1.07,0 -1.94,-0.87 -1.94,-1.94 0,-1.07 0.87,-1.95 1.94,-1.95 1.07,0 1.95,0.87 1.95,1.95z"/>
    <path class="fil16" d="M350.36 308.03c0,1.07 -0.87,1.94 -1.94,1.94 -1.07,0 -1.94,-0.87 -1.94,-1.94 0,-1.07 0.87,-1.95 1.94,-1.95 1.07,0 1.94,0.87 1.94,1.95z"/>
    <path class="fil16" d="M286.52 592.49c0,1.07 -0.87,1.94 -1.94,1.94 -1.07,0 -1.95,-0.87 -1.95,-1.94 0,-1.07 0.87,-1.95 1.95,-1.95 1.07,0 1.94,0.87 1.94,1.95z"/>
    <path class="fil16" d="M306.55 253.36c0,1.07 -0.87,1.94 -1.94,1.94 -1.07,0 -1.95,-0.87 -1.95,-1.94 0,-1.07 0.87,-1.95 1.95,-1.95 1.07,0 1.94,0.87 1.94,1.95z"/>
    <path class="fil16" d="M121.64 400.93c0,1.07 -0.87,1.94 -1.95,1.94 -1.07,0 -1.94,-0.87 -1.94,-1.94 0,-1.07 0.87,-1.95 1.94,-1.95 1.07,0 1.95,0.87 1.95,1.95z"/>
    <path class="fil16" d="M73.61 542.54c0,1.07 -0.87,1.94 -1.94,1.94 -1.07,0 -1.94,-0.87 -1.94,-1.94 0,-1.07 0.87,-1.94 1.94,-1.94 1.07,0 1.94,0.87 1.94,1.94z"/>
    <path class="fil16" d="M298.87 551.38c0,1.07 -0.87,1.94 -1.94,1.94 -1.07,0 -1.94,-0.87 -1.94,-1.94 0,-1.07 0.87,-1.95 1.94,-1.95 1.07,0 1.94,0.87 1.94,1.95z"/>
    <path class="fil16" d="M34.23 397.04c0,1.07 -0.87,1.94 -1.94,1.94 -1.07,0 -1.95,-0.87 -1.95,-1.94 0,-1.07 0.87,-1.95 1.95,-1.95 1.07,0 1.94,0.87 1.94,1.95z"/>
    <path class="fil16" d="M103.64 325.99c0,1.07 -0.87,1.95 -1.95,1.95 -1.07,0 -1.94,-0.87 -1.94,-1.95 0,-1.07 0.87,-1.94 1.94,-1.94 1.07,0 1.95,0.87 1.95,1.94z"/>
    <path class="fil16" d="M300.05 492.13c0,0.57 -0.47,1.04 -1.04,1.04 -0.57,0 -1.04,-0.47 -1.04,-1.04 0,-0.58 0.47,-1.04 1.04,-1.04 0.58,0 1.04,0.46 1.04,1.04z"/>
    <path class="fil16" d="M250.61 584.72c0,0.58 -0.47,1.04 -1.04,1.04 -0.57,0 -1.04,-0.47 -1.04,-1.04 0,-0.57 0.47,-1.04 1.04,-1.04 0.58,0 1.04,0.47 1.04,1.04z"/>
    <path class="fil16" d="M141.1 508.65c0,0.58 -0.47,1.04 -1.04,1.04 -0.57,0 -1.04,-0.47 -1.04,-1.04 0,-0.57 0.47,-1.04 1.04,-1.04 0.58,0 1.04,0.47 1.04,1.04z"/>
    <path class="fil16" d="M264.75 438.46c0,0.57 -0.47,1.04 -1.04,1.04 -0.58,0 -1.04,-0.47 -1.04,-1.04 0,-0.58 0.47,-1.04 1.04,-1.04 0.57,0 1.04,0.47 1.04,1.04z"/>
    <path class="fil16" d="M93.09 459.96c0,0.57 -0.47,1.04 -1.04,1.04 -0.57,0 -1.04,-0.47 -1.04,-1.04 0,-0.57 0.47,-1.04 1.04,-1.04 0.58,0 1.04,0.47 1.04,1.04z"/>
    <path class="fil16" d="M299.01 280.14c0,0.57 -0.47,1.04 -1.04,1.04 -0.57,0 -1.04,-0.47 -1.04,-1.04 0,-0.58 0.47,-1.04 1.04,-1.04 0.57,0 1.04,0.47 1.04,1.04z"/>
    <path class="fil16" d="M303.7 440.54c0,0.57 -0.47,1.04 -1.04,1.04 -0.57,0 -1.04,-0.47 -1.04,-1.04 0,-0.58 0.47,-1.04 1.04,-1.04 0.58,0 1.04,0.47 1.04,1.04z"/>
    <path class="fil16" d="M65.24 500.12c0,0.58 -0.47,1.04 -1.04,1.04 -0.58,0 -1.04,-0.47 -1.04,-1.04 0,-0.57 0.47,-1.04 1.04,-1.04 0.57,0 1.04,0.47 1.04,1.04z"/>
    <path class="fil16" d="M102.73 255.3c0,0.57 -0.46,1.04 -1.04,1.04 -0.57,0 -1.04,-0.47 -1.04,-1.04 0,-0.57 0.47,-1.04 1.04,-1.04 0.58,0 1.04,0.47 1.04,1.04z"/>
    <path class="fil16" d="M49.36 319.98c0,0.57 -0.46,1.04 -1.04,1.04 -0.57,0 -1.04,-0.47 -1.04,-1.04 0,-0.58 0.47,-1.04 1.04,-1.04 0.58,0 1.04,0.47 1.04,1.04z"/>
    <path class="fil16" d="M314.07 321.02c0,0.57 -0.47,1.04 -1.04,1.04 -0.58,0 -1.04,-0.47 -1.04,-1.04 0,-0.58 0.47,-1.04 1.04,-1.04 0.57,0 1.04,0.46 1.04,1.04z"/>
    <path class="fil16" d="M70.76 367.63c0,0.58 -0.47,1.04 -1.04,1.04 -0.58,0 -1.04,-0.47 -1.04,-1.04 0,-0.58 0.46,-1.04 1.04,-1.04 0.57,0 1.04,0.47 1.04,1.04z"/>
    <path class="fil16" d="M128.71 583.68c0,0.58 -0.47,1.04 -1.04,1.04 -0.58,0 -1.04,-0.46 -1.04,-1.04 0,-0.57 0.46,-1.04 1.04,-1.04 0.57,0 1.04,0.47 1.04,1.04z"/>
    <path class="fil16" d="M359.61 487.09c0,0.57 -0.47,1.04 -1.04,1.04 -0.58,0 -1.04,-0.47 -1.04,-1.04 0,-0.57 0.47,-1.04 1.04,-1.04 0.57,0 1.04,0.47 1.04,1.04z"/>
    <path class="fil16" d="M160.56 575.53c0,0.57 -0.47,1.04 -1.04,1.04 -0.57,0 -1.04,-0.47 -1.04,-1.04 0,-0.58 0.47,-1.04 1.04,-1.04 0.57,0 1.04,0.46 1.04,1.04z"/>
   </g>
   <path class="fil0" d="M723.39 52.36c0,-13.17 -9.33,-18.56 -20.73,-11.97l-455.32 262.88c-11.41,6.59 -20.74,22.75 -20.74,35.92l0 361.86c0,13.17 9.33,18.56 20.74,11.97l455.32 -262.88c11.4,-6.58 20.73,-22.75 20.73,-35.92l0 -361.86z"/>
   <path class="fil17" d="M694.51 112.74c0,-11.24 -7.97,-15.84 -17.7,-10.22l-386.69 225.07c-9.74,5.62 -17.7,19.42 -17.7,30.66l0 289.7c0,11.24 7.97,15.84 17.7,10.22l386.69 -225.07c9.74,-5.62 17.7,-19.42 17.7,-30.66l0 -289.7z"/>
   <path class="fil18" d="M243.36 710.62l0 -361.86c0,-13.17 9.33,-29.33 20.74,-35.92l455.32 -262.88c1.23,-0.71 2.44,-1.26 3.62,-1.7 -1.77,-10.11 -10.25,-13.73 -20.38,-7.88l-455.32 262.88c-11.41,6.59 -20.74,22.75 -20.74,35.92l0 361.86c0,11.74 7.42,17.27 17.11,13.67 -0.22,-1.27 -0.35,-2.62 -0.35,-4.09z"/>
   <polygon class="fil19" points="290.14,362.1 475.02,255.36 475.02,393.2 290.14,499.93 "/>
   <polygon class="fil20" points="290.14,527.86 682.79,300.6 682.79,320.84 290.14,548.1 "/>
   <polygon class="fil20" points="290.14,568.29 682.79,341.03 682.79,361.27 290.14,588.53 "/>
   <polygon class="fil20" points="290.14,608.71 515.18,478.31 515.18,498.55 290.14,628.95 "/>
   <polygon class="fil20" points="490.54,275.07 682.79,163.67 682.79,229.3 490.54,340.69 "/>
   <path class="fil0" d="M672.35 800.34l0 19.07c0,4.72 -2.51,9.08 -6.58,11.45l-2.58 1.86c-11.19,6.51 -24.97,6.72 -36.35,0.55l-33.67 -18.25c-3.96,-2.14 -4.03,-7.8 -0.12,-10.05 6.4,-3.67 14,-9.22 20.9,-8.32 3.23,0.42 6.44,1.01 9.7,1l15.59 2.12 33.11 0.56z"/>
   <path class="fil21" d="M593.16 810.65l33.67 18.25c11.38,6.17 25.16,5.96 36.35,-0.55l2.58 -1.86c4.08,-2.37 6.59,-6.73 6.59,-11.45l0 4.37c0,4.72 -2.51,9.08 -6.59,11.45l-2.58 1.86c-11.19,6.51 -24.97,6.72 -36.35,0.55l-33.67 -18.25c-2.76,-1.5 -3.58,-4.68 -2.54,-7.25 0.47,1.16 1.29,2.2 2.54,2.88z"/>
   <path class="fil17" d="M618.02 808.75l-3.92 -1.94 4.69 -9.49c1.56,0.19 3.13,0.33 4.71,0.33l-5.48 11.1z"/>
   <polygon class="fil17" points="625.99,810.69 622.07,808.75 627.3,798.16 631.87,798.78 "/>
   <path class="fil0" d="M617.73 838.68l0 19.07c0,4.72 -2.51,9.08 -6.59,11.45l-2.58 1.86c-11.19,6.51 -24.96,6.72 -36.35,0.55l-33.67 -18.25c-3.96,-2.15 -4.03,-7.8 -0.12,-10.05 6.4,-3.68 14,-9.22 20.9,-8.33 3.23,0.42 6.44,1.02 9.7,1.01l15.6 2.12 33.11 0.56z"/>
   <path class="fil21" d="M538.55 848.99l33.67 18.25c11.38,6.17 25.16,5.96 36.35,-0.55l2.58 -1.86c4.08,-2.37 6.59,-6.74 6.59,-11.45l0 4.37c0,4.72 -2.51,9.08 -6.59,11.45l-2.58 1.86c-11.19,6.51 -24.96,6.72 -36.35,0.55l-33.67 -18.25c-2.76,-1.5 -3.58,-4.68 -2.53,-7.25 0.47,1.15 1.29,2.2 2.53,2.87z"/>
   <path class="fil22" d="M660.85 562.03c2.59,0 5.18,-0.97 7.2,-2.91l19.39 -18.73c14.32,-13.83 22.03,-33.17 21.15,-53.06 -0.89,-19.89 -10.28,-38.47 -25.78,-50.98l-21.52 -17.36c-4.45,-3.6 -10.97,-2.89 -14.57,1.56 -3.59,4.45 -2.89,10.98 1.56,14.57l21.51 17.36c10.87,8.77 17.47,21.81 18.09,35.77 0.62,13.96 -4.79,27.53 -14.84,37.24l-19.4 18.73c-4.12,3.97 -4.23,10.53 -0.25,14.65 2.03,2.1 4.74,3.16 7.45,3.16z"/>
   <path class="fil9" d="M655.98 820.68c10.02,0 16.23,-8.12 16.23,-18.13l-5.69 -114.74 7.59 -124.81c0,-10.02 -8.12,-18.13 -18.13,-18.13 -10.01,0 -29.51,8.12 -29.51,18.13l11.38 239.55c0,10.02 8.12,18.13 18.13,18.13z"/>
   <path class="fil9" d="M599.5 859.53c10.01,0 18.13,-8.12 18.13,-18.13l-2.32 -122.65 13.7 -116.9c0,-10.01 -19.5,-18.13 -29.51,-18.13 -10.01,0 -18.13,8.12 -18.13,18.13l0 239.55c0,10.01 8.12,18.13 18.13,18.13z"/>
   <path class="fil9" d="M668.42 542.45l7.77 57.67c0,7.29 -3.89,14.02 -10.2,17.67l-47.29 26.56c-12.65,7.31 -28.47,-1.83 -28.47,-16.44l0 -117.05c0,-7.29 -15.18,-2.27 -8.86,-5.91l66.36 -38.31c12.66,-7.31 20.7,61.21 20.7,75.82z"/>
   <path class="fil23" d="M653.65 544.22c-4.12,3.97 -4.23,10.53 -0.25,14.65 2.03,2.1 4.74,3.16 7.45,3.16 2.59,0 5.18,-0.97 7.2,-2.91l11.44 -11.05c-0.27,-3.1 -0.49,-5.5 -0.61,-6.71 -0.71,-7.07 -0.88,-14.15 -1.13,-21.23 -1.44,1.87 -2.97,3.68 -4.69,5.34l-19.4 18.73z"/>
   <path class="fil22" d="M674.74 449.84l-3.59 55.85c1.2,11.89 0.79,23.78 1.99,35.67 0.69,6.87 4.49,50.75 3.1,57.43 -0.89,4.28 -12.64,13.62 -28.33,21.78 -1.44,0.75 -2.91,-35.68 -4.4,-34.96 -1.38,0.67 -2.79,38.49 -4.22,39.13 -19.95,8.93 -43.71,14.67 -59.79,6.9 -0.01,-0.01 1.88,-68.26 1.88,-68.26l-3.31 -42.57c-2.05,-29.17 -7.67,-68.12 21.02,-85.98 1.21,-0.76 2.45,-1.48 3.72,-2.17l30.53 -16.67c7.21,-4.16 16.09,-4.16 23.29,0 11.98,6.92 19.01,20.04 18.12,33.85z"/>
   <path class="fil24" d="M628.09 434.95c5.72,0 10.36,-4.64 10.36,-10.36l0 -40.73c0,-5.72 -4.64,-10.36 -10.36,-10.36 -5.72,0 -10.36,4.64 -10.36,10.36l0 40.73c0,5.72 4.64,10.36 10.36,10.36z"/>
   <path class="fil24" d="M619.47 422.54l17.95 0 0 -69.01 -51.08 0 0 35.88c0,18.3 14.83,33.13 33.13,33.13z"/>
   <path class="fil25" d="M590.13 353.53l0 35.85c0,18.31 14.85,33.16 33.16,33.16l-3.79 0c-18.31,0 -33.16,-14.85 -33.16,-33.16l0 -35.85 3.79 0z"/>
   <path class="fil21" d="M574.72 339.86c2.57,-5.25 8.48,-8.79 14.33,-5.81 2.75,1.4 4.66,2.15 7.35,0.51 3.57,-2.17 4.47,-3.57 9.3,-2.9 1.96,0.27 4.53,1.99 6.35,1.94 3.92,-0.09 6.47,-3.19 11.01,-1.82 3.51,1.06 4.02,1.25 7.62,0.8 2.52,-0.32 4.91,-0.34 7.31,0.64 4.65,1.88 4.34,5.36 7.01,8.52 2.25,2.67 5.45,0.9 8.13,3.37 2.29,2.12 3.01,5.75 1.7,8.59 -0.61,1.33 -1.64,2.75 -1.1,4.1 0.38,0.96 1.42,1.45 2.15,2.18 2.67,2.68 0.53,7.15 -1.5,10.34 -0.4,0.62 -0.8,1.3 -0.77,2.03 0.03,0.97 0.78,1.73 1.37,2.5 2.78,3.64 2.2,9.39 -1.23,12.41 -1.59,1.4 -3.84,2.5 -4.16,4.59 -0.18,1.16 0.32,2.3 0.6,3.43 1.11,4.36 -1.15,9.35 -5.16,11.4 -4.69,2.39 -0.4,10.87 -7.61,11.54 -5.66,0.53 -10.84,-6.51 -12.04,-11.27 0.18,0.72 -3.66,-1.26 -3.96,-1.62 -1.08,-1.22 -1.23,-3.16 -1.72,-4.65 -1.05,-3.14 -1.63,-5.89 -1.85,-9.26 -0.08,-1.18 0.16,-14.43 -1.08,-14.46 -2.49,-0.07 -5.04,-0.16 -7.37,-1.06 -5.56,-2.16 -3.24,-5.77 -5.34,-9.68 -1.03,-1.9 -3.45,-2.3 -4.58,-4.22 -1.24,-2.1 -0.92,-4.89 -0.62,-7.19 -4.96,1.07 -11.12,2.13 -15.93,0.07 -3.92,-1.68 -9.4,-4.49 -9.5,-9.21 -0.04,-2.01 0.44,-4.02 1.33,-5.82z"/>
   <path class="fil26" d="M574.72 339.86c2.25,-4.6 7.07,-7.89 12.16,-6.63 -3.33,0.8 -6.2,3.38 -7.78,6.63 -0.88,1.81 -1.37,3.81 -1.32,5.82 0.1,4.71 5.59,7.53 9.5,9.21 1.4,0.6 2.92,0.91 4.49,1.06 -3.08,0.25 -6.17,0.09 -8.86,-1.06 -3.92,-1.68 -9.4,-4.49 -9.5,-9.21 -0.04,-2.01 0.44,-4.02 1.33,-5.82z"/>
   <path class="fil24" d="M605.19 383.03c0,4.14 3.36,7.5 7.5,7.5 4.14,0 7.5,-3.36 7.5,-7.5 0,-4.14 -3.36,-7.5 -7.5,-7.5 -4.14,0 -7.5,3.36 -7.5,7.5z"/>
   <path class="fil17" d="M563.41 847.09l-3.92 -1.94 4.69 -9.49c1.56,0.19 3.13,0.33 4.71,0.33l-5.48 11.1z"/>
   <polygon class="fil17" points="571.37,849.03 567.45,847.09 572.69,836.5 577.26,837.12 "/>
   <path class="fil24" d="M603.04 480.93c-0.11,0 -0.23,0 -0.34,-0l-52.05 -1.69c-17.61,-0.57 -33.85,-10.51 -42.37,-25.94l-38.44 -69.56c-2.75,-4.98 -0.95,-11.26 4.04,-14.01 4.99,-2.75 11.26,-0.95 14.02,4.04l38.44 69.55c5.02,9.1 14.6,14.96 24.98,15.3l52.05 1.69c5.69,0.19 10.16,4.95 9.97,10.65 -0.18,5.58 -4.76,9.98 -10.3,9.98z"/>
   <path class="fil22" d="M603.04 482.08c-0.13,0 -0.25,0 -0.38,-0.01l-52.05 -1.69c-18.02,-0.59 -34.62,-10.76 -43.33,-26.53l-30.57 -55.65c-3.06,-5.54 -1.05,-12.51 4.49,-15.57 5.54,-3.07 12.51,-1.06 15.57,4.48l30.56 55.66c4.83,8.75 14.04,14.38 24.02,14.7l52.05 1.69c6.33,0.21 11.29,5.5 11.08,11.82 -0.2,6.2 -5.29,11.09 -11.45,11.09z"/>
   <path class="fil24" d="M489.16 379.87c-0.98,0.56 -2.23,0.22 -2.8,-0.76l-12.66 -22.08c-0.57,-0.98 -0.23,-2.23 0.76,-2.8 0.98,-0.57 2.23,-0.23 2.8,0.76l12.66 22.08c0.56,0.98 0.22,2.23 -0.76,2.8z"/>
  </g>
 </g>
</svg>
