<?xml version="1.0" encoding="UTF-8"?>
<!DOCTYPE svg PUBLIC "-//W3C//DTD SVG 1.1//EN" "http://www.w3.org/Graphics/SVG/1.1/DTD/svg11.dtd">
<!-- Creator: CorelDRAW 2018 (64-Bit) -->
<svg xmlns="http://www.w3.org/2000/svg" xml:space="preserve" width="66.9544mm" height="76.3701mm" version="1.1" style="shape-rendering:geometricPrecision; text-rendering:geometricPrecision; image-rendering:optimizeQuality; fill-rule:evenodd; clip-rule:evenodd"
viewBox="0 0 539.24 615.08"
 xmlns:xlink="http://www.w3.org/1999/xlink">
 <defs>
  <style type="text/css">
   <![CDATA[
    .fil18 {fill:#36364F;fill-rule:nonzero}
    .fil16 {fill:#484869;fill-rule:nonzero}
    .fil14 {fill:#585876;fill-rule:nonzero}
    .fil26 {fill:#5B629E;fill-rule:nonzero}
    .fil15 {fill:#6D6D87;fill-rule:nonzero}
    .fil37 {fill:#ADB9E0;fill-rule:nonzero}
    .fil13 {fill:#DCE1F1;fill-rule:nonzero}
    .fil29 {fill:#E1E0E2;fill-rule:nonzero}
    .fil12 {fill:#E5E9F4;fill-rule:nonzero}
    .fil31 {fill:#E8E7E8;fill-rule:nonzero}
    .fil11 {fill:#EDF0F8;fill-rule:nonzero}
    .fil24 {fill:#EFEDEF;fill-rule:nonzero}
    .fil28 {fill:#F2B1B5;fill-rule:nonzero}
    .fil30 {fill:#F3F1F3;fill-rule:nonzero}
    .fil33 {fill:#F5C5C8;fill-rule:nonzero}
    .fil36 {fill:#F9F6F9;fill-rule:nonzero}
    .fil25 {fill:#FBFAFB;fill-rule:nonzero}
    .fil19 {fill:#FFC107;fill-rule:nonzero}
    .fil17 {fill:#FFEB74;fill-rule:nonzero}
    .fil20 {fill:white;fill-rule:nonzero}
    .fil34 {fill:#FFC107;fill-rule:nonzero;fill-opacity:0.149020}
    .fil27 {fill:white;fill-rule:nonzero;fill-opacity:0.149020}
    .fil32 {fill:#231F1F;fill-rule:nonzero;fill-opacity:0.329412}
    .fil22 {fill:#FFC107;fill-rule:nonzero;fill-opacity:0.450980}
    .fil10 {fill:#484869;fill-rule:nonzero;fill-opacity:0.788235}
    .fil9 {fill:#4D4D6D;fill-rule:nonzero;fill-opacity:0.788235}
    .fil8 {fill:#515170;fill-rule:nonzero;fill-opacity:0.788235}
    .fil7 {fill:#575775;fill-rule:nonzero;fill-opacity:0.788235}
    .fil6 {fill:#5A5A78;fill-rule:nonzero;fill-opacity:0.788235}
    .fil5 {fill:#60607C;fill-rule:nonzero;fill-opacity:0.788235}
    .fil4 {fill:#63637F;fill-rule:nonzero;fill-opacity:0.788235}
    .fil3 {fill:#696984;fill-rule:nonzero;fill-opacity:0.788235}
    .fil2 {fill:#6D6D87;fill-rule:nonzero;fill-opacity:0.788235}
    .fil1 {fill:#70708A;fill-rule:nonzero;fill-opacity:0.788235}
    .fil0 {fill:#76768E;fill-rule:nonzero;fill-opacity:0.788235}
    .fil41 {fill:url(#id0);fill-rule:nonzero}
    .fil38 {fill:url(#id1);fill-rule:nonzero}
    .fil47 {fill:url(#id2);fill-rule:nonzero}
    .fil42 {fill:url(#id3);fill-rule:nonzero}
    .fil46 {fill:url(#id4);fill-rule:nonzero}
    .fil45 {fill:url(#id5);fill-rule:nonzero}
    .fil21 {fill:url(#id6);fill-rule:nonzero}
    .fil23 {fill:url(#id7);fill-rule:nonzero}
    .fil43 {fill:url(#id8);fill-rule:nonzero}
    .fil44 {fill:url(#id9);fill-rule:nonzero}
    .fil40 {fill:url(#id10);fill-rule:nonzero}
    .fil39 {fill:url(#id11);fill-rule:nonzero}
    .fil35 {fill:url(#id12);fill-rule:nonzero}
    .fil48 {fill:url(#id13);fill-rule:nonzero}
   ]]>
  </style>
  <linearGradient id="id0" gradientUnits="userSpaceOnUse" x1="246.52" y1="104.08" x2="255.39" y2="104.08">
   <stop offset="0" style="stop-opacity:1; stop-color:#F49E0B"/>
   <stop offset="0.141176" style="stop-opacity:1; stop-color:#F49E0B"/>
   <stop offset="1" style="stop-opacity:1; stop-color:#FBC800"/>
  </linearGradient>
  <linearGradient id="id1" gradientUnits="userSpaceOnUse" x1="313.14" y1="98.83" x2="186.21" y2="98.83">
   <stop offset="0" style="stop-opacity:1; stop-color:#F1F0F3"/>
   <stop offset="0.988235" style="stop-opacity:1; stop-color:#A8B0D8"/>
   <stop offset="1" style="stop-opacity:1; stop-color:#A8B0D8"/>
  </linearGradient>
  <linearGradient id="id2" gradientUnits="userSpaceOnUse" x1="370.66" y1="181.38" x2="539.2" y2="181.38">
   <stop offset="0" style="stop-opacity:1; stop-color:#A8B0D8"/>
   <stop offset="0" style="stop-opacity:1; stop-color:#A8B0D8"/>
   <stop offset="1" style="stop-opacity:1; stop-color:#F1F0F3"/>
  </linearGradient>
  <linearGradient id="id3" gradientUnits="userSpaceOnUse" xlink:href="#id0" x1="293.09" y1="97.46" x2="308.96" y2="97.46">
  </linearGradient>
  <linearGradient id="id4" gradientUnits="userSpaceOnUse" xlink:href="#id0" x1="154.57" y1="300.35" x2="169.61" y2="300.35">
  </linearGradient>
  <linearGradient id="id5" gradientUnits="userSpaceOnUse" xlink:href="#id1" x1="192.53" y1="320.36" x2="95.9" y2="320.36">
  </linearGradient>
  <linearGradient id="id6" gradientUnits="userSpaceOnUse" x1="287.3" y1="458.18" x2="404.36" y2="458.18">
   <stop offset="0" style="stop-opacity:1; stop-color:#FBC800"/>
   <stop offset="0.0196078" style="stop-opacity:1; stop-color:#FBC800"/>
   <stop offset="0.721569" style="stop-opacity:1; stop-color:#F49E0B"/>
   <stop offset="1" style="stop-opacity:1; stop-color:#F49E0B"/>
  </linearGradient>
  <linearGradient id="id7" gradientUnits="userSpaceOnUse" xlink:href="#id6" x1="253.61" y1="477.22" x2="370.67" y2="477.22">
  </linearGradient>
  <linearGradient id="id8" gradientUnits="userSpaceOnUse" xlink:href="#id0" x1="207.55" y1="158.83" x2="216.68" y2="158.83">
  </linearGradient>
  <linearGradient id="id9" gradientUnits="userSpaceOnUse" xlink:href="#id0" x1="298.7" y1="117.39" x2="308.96" y2="117.39">
  </linearGradient>
  <linearGradient id="id10" gradientUnits="userSpaceOnUse" xlink:href="#id0" x1="249.68" y1="90.97" x2="262.5" y2="90.97">
  </linearGradient>
  <linearGradient id="id11" gradientUnits="userSpaceOnUse" xlink:href="#id0" x1="249.99" y1="78.85" x2="266.23" y2="78.85">
  </linearGradient>
  <linearGradient id="id12" gradientUnits="userSpaceOnUse" xlink:href="#id1" x1="-0" y1="180.29" x2="152.01" y2="180.29">
  </linearGradient>
  <linearGradient id="id13" gradientUnits="userSpaceOnUse" x1="371.38" y1="241.71" x2="524.01" y2="153.76">
   <stop offset="0" style="stop-opacity:1; stop-color:#F49E0B"/>
   <stop offset="0.341176" style="stop-opacity:1; stop-color:#F7B306"/>
   <stop offset="1" style="stop-opacity:1; stop-color:#FBC800"/>
  </linearGradient>
 </defs>
 <g id="Layer_x0020_1">
  <metadata id="CorelCorpID_0Corel-Layer"/>
  <g id="_2946306832384">
   <path class="fil0" d="M214.19 552.87c-4.42,-2.55 -4.42,-6.73 0,-9.29l88 -50.81c4.42,-2.55 11.66,-2.55 16.08,0l88 50.81c4.42,2.55 4.42,6.73 0,9.28l-88 50.81c-4.42,2.55 -11.66,2.55 -16.08,0l-88 -50.81z"/>
   <path class="fil1" d="M215.28 552.82c-4.37,-2.52 -4.37,-6.66 0,-9.18l87 -50.23c4.37,-2.52 11.53,-2.52 15.9,0l87 50.23c4.37,2.52 4.37,6.66 0,9.18l-87 50.23c-4.37,2.53 -11.53,2.53 -15.9,0l-87 -50.23z"/>
   <path class="fil2" d="M216.38 552.76c-4.32,-2.5 -4.32,-6.58 0,-9.07l85.99 -49.65c4.32,-2.49 11.4,-2.49 15.72,0l85.99 49.65c4.32,2.5 4.32,6.58 0,9.07l-85.99 49.65c-4.32,2.5 -11.39,2.5 -15.71,0l-85.99 -49.65z"/>
   <path class="fil3" d="M217.48 552.71c-4.27,-2.47 -4.27,-6.5 0,-8.97l84.99 -49.07c4.27,-2.47 11.26,-2.47 15.53,0l84.99 49.07c4.27,2.47 4.27,6.5 0,8.97l-84.99 49.07c-4.27,2.47 -11.26,2.47 -15.53,0l-84.99 -49.07z"/>
   <path class="fil4" d="M218.57 552.66c-4.22,-2.44 -4.22,-6.43 0,-8.86l83.98 -48.49c4.22,-2.44 11.13,-2.44 15.35,0l83.98 48.49c4.22,2.44 4.22,6.42 0,8.86l-83.98 48.49c-4.22,2.44 -11.13,2.44 -15.35,0l-83.98 -48.49z"/>
   <path class="fil5" d="M219.67 552.6c-4.17,-2.41 -4.17,-6.35 0,-8.76l82.98 -47.91c4.17,-2.41 10.99,-2.41 15.16,0l82.98 47.91c4.17,2.41 4.17,6.35 0,8.76l-82.98 47.91c-4.17,2.41 -10.99,2.41 -15.16,0l-82.98 -47.91z"/>
   <path class="fil6" d="M220.77 552.55c-4.12,-2.38 -4.12,-6.27 0,-8.65l81.97 -47.33c4.12,-2.38 10.86,-2.38 14.98,0l81.97 47.33c4.12,2.38 4.12,6.27 0,8.65l-81.97 47.33c-4.12,2.38 -10.86,2.38 -14.98,0l-81.97 -47.33z"/>
   <path class="fil7" d="M221.87 552.5c-4.07,-2.35 -4.07,-6.19 0,-8.54l80.96 -46.75c4.07,-2.35 10.73,-2.35 14.8,0l80.96 46.75c4.07,2.35 4.07,6.19 0,8.54l-80.96 46.75c-4.07,2.35 -10.73,2.35 -14.8,0l-80.96 -46.75z"/>
   <path class="fil8" d="M222.97 552.44c-4.02,-2.32 -4.02,-6.12 0,-8.44l79.96 -46.16c4.02,-2.32 10.6,-2.32 14.62,0l79.96 46.16c4.02,2.32 4.02,6.12 0,8.44l-79.96 46.16c-4.02,2.32 -10.59,2.32 -14.62,0l-79.96 -46.16z"/>
   <path class="fil9" d="M224.06 552.39c-3.97,-2.29 -3.97,-6.04 0,-8.33l78.95 -45.58c3.97,-2.29 10.46,-2.29 14.43,0l78.95 45.58c3.97,2.29 3.97,6.04 0,8.33l-78.95 45.58c-3.97,2.29 -10.46,2.29 -14.43,0l-78.95 -45.58z"/>
   <path class="fil10" d="M225.16 552.34c-3.92,-2.26 -3.92,-5.96 0,-8.23l77.95 -45c3.92,-2.26 10.33,-2.26 14.25,0l77.95 45c3.92,2.26 3.92,5.96 0,8.23l-77.95 45c-3.92,2.26 -10.33,2.26 -14.25,0l-77.95 -45z"/>
   <polygon class="fil11" points="200.66,422.24 308.61,359.92 416.57,422.24 308.61,484.57 "/>
   <polygon class="fil12" points="200.66,422.24 200.66,546.9 308.61,609.22 308.61,484.57 "/>
   <polygon class="fil13" points="308.61,609.22 416.57,546.9 416.57,422.24 308.61,484.57 "/>
   <polygon class="fil14" points="243.84,571.82 243.84,447.17 265.43,459.64 265.43,584.29 "/>
   <polygon class="fil15" points="243.84,447.17 351.84,385.11 374.18,397.25 265.43,459.64 "/>
   <polygon class="fil15" points="244.83,396.74 351.79,459.64 373.21,446.78 266.71,383.92 "/>
   <polygon class="fil16" points="351.79,459.64 351.79,584.29 373.21,571.93 373.21,446.78 "/>
   <path class="fil16" d="M365.83 420.29c-8.61,-5.22 -18.71,-7.45 -28.72,-6.35l-19.78 2.19 -16.33 8.31 44.41 24.07 20.02 -9.53c7.28,-4 7.51,-14.39 0.4,-18.69z"/>
   <path class="fil16" d="M309.72 397.74c-3.85,-9.31 -10.66,-17.08 -19.39,-22.12 -3.2,-1.85 -6.74,-1.84 -9.7,-0.55l-0 -0 -0.35 0.18c-0.27,0.13 -0.55,0.26 -0.81,0.41l-16.59 8.49 38.11 40.29 16.33 -8.31 -7.6 -18.39z"/>
   <path class="fil17" d="M300.99 424.44l-37.78 -21.81c-3.34,-1.93 -5.4,-5.49 -5.4,-9.35 0,-8.31 9,-13.5 16.19,-9.35 8.72,5.04 15.54,12.81 19.39,22.12l7.6 18.39z"/>
   <path class="fil15" d="M300.99 424.44l-37.78 -21.81c-3.34,-1.93 -5.4,-5.49 -5.4,-9.35 0,-8.31 9,-13.5 16.19,-9.35 8.72,5.04 15.54,12.81 19.39,22.12l7.6 18.39z"/>
   <path class="fil18" d="M263.94 401.37c-2.88,-1.66 -4.67,-4.76 -4.67,-8.09 0,-5.78 4.86,-9.35 9.36,-9.35 1.63,0 3.2,0.43 4.65,1.27 8.4,4.85 15.06,12.45 18.77,21.41l5.97 14.43 -34.07 -19.67z"/>
   <path class="fil15" d="M300.99 424.44l37.31 22.62c3.3,2 7.41,2.09 10.79,0.23 7.28,-4 7.51,-14.39 0.4,-18.69 -8.61,-5.22 -18.71,-7.45 -28.72,-6.35l-19.78 2.19z"/>
   <path class="fil18" d="M343.9 447.17c-1.71,0 -3.38,-0.47 -4.84,-1.35l-33.64 -20.4 15.52 -1.72c1.61,-0.18 3.25,-0.27 4.86,-0.27 8.09,0 16.02,2.22 22.94,6.41 2.89,1.75 4.57,4.81 4.49,8.19 -0.07,3.38 -1.88,6.36 -4.84,7.98 -1.37,0.76 -2.93,1.15 -4.49,1.15z"/>
   <path class="fil19" d="M319.4 403.18c0,11.87 -9.62,21.49 -21.49,21.49 -11.87,0 -21.49,-9.62 -21.49,-21.49 0,-11.87 9.62,-21.49 21.49,-21.49 11.87,0 21.49,9.62 21.49,21.49z"/>
   <path class="fil16" d="M371.86 554.72l0 10.87c0,2.99 1.55,5.76 4.09,7.33l33.07 20.43c3.43,2.11 7.75,2.13 11.19,0.04l10.12 -5.73c2.01,-1.14 3.25,-3.27 3.24,-5.58l-0.02 -6.25c0,0 -1.36,0.48 -3.43,-0.77l-22.01 -13.33 0 -7.02 -36.25 0z"/>
   <path class="fil20" d="M371.86 548.66l0 10.87c0,2.99 1.55,5.76 4.09,7.33l33.07 20.43c3.43,2.12 7.75,2.13 11.19,0.04l9.92 -6.02c4.62,-2.8 4.61,-9.5 -0.01,-12.3l-22.01 -13.33 0 -7.02 -36.25 0z"/>
   <polygon class="fil16" points="394.15,569.53 394.15,567.34 406.87,559.99 406.9,561.99 "/>
   <polygon class="fil16" points="398.94,573.79 398.94,571.7 411.67,564.35 411.74,566.21 "/>
   <polygon class="fil16" points="405.31,578.26 405.31,576.16 418.03,568.82 417.96,570.91 "/>
   <path class="fil16" d="M377.15 556.07c-7.06,-4.08 -7.06,-10.74 0,-14.82 7.06,-4.08 18.61,-4.08 25.66,0 7.06,4.07 7.06,10.74 0,14.82 -7.06,4.07 -18.61,4.07 -25.66,0z"/>
   <path class="fil18" d="M381.52 553.54c-4.66,-2.69 -4.66,-7.09 0,-9.78 4.66,-2.69 12.28,-2.69 16.93,0 4.66,2.69 4.66,7.09 0,9.78 -4.66,2.69 -12.27,2.69 -16.93,0z"/>
   <path class="fil16" d="M338.07 574.84l0 10.87c0,2.99 1.55,5.76 4.09,7.33l33.07 20.43c3.43,2.12 7.75,2.13 11.19,0.04l10.12 -5.73c2.01,-1.14 3.25,-3.27 3.24,-5.58l-0.02 -6.25c0,0 -1.36,0.49 -3.43,-0.77l-22.01 -13.33 0 -7.02 -36.25 0z"/>
   <path class="fil20" d="M338.07 568.77l0 10.88c0,2.99 1.55,5.76 4.09,7.33l33.07 20.43c3.43,2.11 7.75,2.13 11.19,0.04l9.92 -6.02c4.62,-2.8 4.61,-9.5 -0.01,-12.3l-22.01 -13.33 0 -7.02 -36.25 0z"/>
   <polygon class="fil16" points="360.36,589.65 360.36,587.46 373.08,580.11 373.11,582.11 "/>
   <polygon class="fil16" points="365.15,593.91 365.15,591.82 377.87,584.47 377.95,586.33 "/>
   <polygon class="fil16" points="371.51,598.38 371.51,596.28 384.24,588.94 384.17,591.02 "/>
   <path class="fil16" d="M343.36 576.18c-7.06,-4.08 -7.06,-10.74 0,-14.82 7.06,-4.07 18.61,-4.07 25.67,0 7.06,4.07 7.06,10.74 0,14.82 -7.06,4.08 -18.61,4.08 -25.67,0z"/>
   <path class="fil18" d="M347.73 573.66c-4.66,-2.69 -4.66,-7.09 0,-9.78 4.66,-2.69 12.28,-2.69 16.93,0 4.66,2.69 4.66,7.09 0,9.78 -4.66,2.69 -12.28,2.69 -16.93,0z"/>
   <path class="fil21" d="M389.72 556.15c-8.09,0 -14.65,-6.56 -14.65,-14.65l0 -70.25c0,-13.3 -7.16,-25.68 -18.68,-32.32l-55.17 -29.23c-11.29,-6.5 -13.91,-18.63 -13.91,-31.66l0 -3.18c0,-8.09 6.56,-14.65 14.65,-14.65 8.09,0 14.65,6.56 14.65,14.65l0 3.18c0,2.58 1.39,4.98 3.62,6.27l50.78 29.23c20.58,11.85 33.37,33.96 33.37,57.71l0 70.25c0,8.09 -6.56,14.65 -14.65,14.65z"/>
   <path class="fil22" d="M371 413.54l-50.78 -29.23c-2.23,-1.29 -3.62,-3.69 -3.62,-6.27l0 -3.18c0,-8.09 -6.56,-14.65 -14.65,-14.65 -0.72,0 -1.4,0.11 -2.1,0.21 7.09,1.02 12.55,7.07 12.55,14.44l0 3.18c0,2.58 1.39,4.98 3.62,6.27l50.78 29.23c20.58,11.85 33.37,33.96 33.37,57.71l0 70.25c0,7.37 -5.46,13.41 -12.55,14.44 0.69,0.1 1.38,0.21 2.1,0.21 8.09,0 14.65,-6.56 14.65,-14.65l0 -70.25c0,-23.75 -12.78,-45.86 -33.37,-57.71z"/>
   <path class="fil23" d="M356.02 575.2c-8.09,0 -14.65,-6.56 -14.65,-14.65l0 -70.25c0,-13.3 -7.16,-25.69 -18.68,-32.32l-56.64 -26.31c-11.29,-6.5 -12.44,-21.56 -12.44,-34.59l0 -3.19c0,-8.09 6.56,-14.65 14.65,-14.65 8.09,0 14.65,6.56 14.65,14.65l0 3.19c0,2.58 1.39,4.98 3.62,6.27l50.78 29.23c20.58,11.85 33.37,33.96 33.37,57.71l0 70.25c0,8.09 -6.56,14.65 -14.65,14.65z"/>
   <path class="fil24" d="M311.27 451.32l-39.38 -18.01c-3.77,-2.06 -3.83,-7.45 -0.11,-9.6l59.98 -34.67 44.29 26.32 -64.78 35.96z"/>
   <path class="fil25" d="M316.64 447.84l-34.34 -15.31c-3.25,-1.78 -3.3,-6.43 -0.09,-8.29l54.87 -31.72 38.21 22.71 -58.65 32.61z"/>
   <path class="fil26" d="M335 413.59c-4.86,0 -8.79,-3.93 -8.79,-8.79l0 -34.22c0,-20.32 -2.8,-30.05 -8.32,-49.61l-10.25 -36.28c-1.32,-4.67 1.39,-9.53 6.07,-10.85 4.66,-1.31 9.53,1.4 10.85,6.07l10.25 36.27c5.96,21.11 8.99,32.45 8.99,54.39l0 34.22c0,4.86 -3.93,8.79 -8.79,8.79z"/>
   <path class="fil27" d="M334.8 316.19l-10.25 -36.27c-1.3,-4.59 -6.02,-7.26 -10.6,-6.11 2.98,0.73 5.51,2.95 6.41,6.11l10.25 36.27c5.96,21.11 8.99,32.45 8.99,54.39l0 34.22c0,4.13 -2.86,7.57 -6.69,8.51 0.68,0.17 1.37,0.28 2.1,0.28 4.86,0 8.79,-3.93 8.79,-8.79l0 -34.22c0,-21.93 -3.02,-33.27 -8.99,-54.39z"/>
   <path class="fil26" d="M288.09 254.58l-7.23 4.18c-23.99,13.85 -40.17,38.1 -43.65,65.58 -4,31.55 8.33,89.79 8.33,89.79 36.22,-2.04 73.17,-38.51 73.17,-38.51 -6.39,-40.73 6.62,-61.36 6.89,-88.69 0.14,-14.46 -20.16,-42.35 -37.49,-32.34z"/>
   <path class="fil27" d="M325.58 286.92c0.14,-14.46 -20.16,-42.35 -37.49,-32.34l-7.23 4.18c-7.53,4.35 -14.28,9.72 -20.12,15.89 5.35,-5.29 11.37,-9.95 18.03,-13.79l7.23 -4.18c17.33,-10.01 37.63,17.89 37.49,32.34 -0.27,27.31 -13.24,47.91 -6.9,88.58 1.33,-1.22 2.11,-1.98 2.11,-1.98 -6.39,-40.73 6.62,-61.36 6.89,-88.69z"/>
   <path class="fil28" d="M284.95 278.63l-0.35 0c-4.52,0 -8.18,-3.66 -8.18,-8.18l0 -19.14 16.7 0 0 19.14c0,4.51 -3.66,8.17 -8.17,8.17z"/>
   <polygon class="fil20" points="276.43,259.35 271.83,261.79 278.84,301.08 288.21,277.87 "/>
   <polygon class="fil20" points="288.21,277.87 293.13,252.98 295.26,252.98 304.72,285.96 "/>
   <path class="fil28" d="M303.01 439.69c-2.62,0 -5.21,-1.17 -6.94,-3.4l-26.28 -33.8c-14.31,-18.41 -21.57,-41.37 -20.45,-64.65l2.09 -33.01c0.23,-4.85 4.37,-8.62 9.2,-8.36 4.85,0.23 8.59,4.35 8.36,9.2l-2.09 33.01c-0.92,19.1 5.04,37.93 16.77,53.02l26.28 33.8c2.98,3.83 2.29,9.35 -1.54,12.33 -1.61,1.24 -3.51,1.85 -5.39,1.85z"/>
   <path class="fil28" d="M308.75 421.64l-25.28 -9.47c-1.74,-0.65 -2.63,-2.6 -1.98,-4.34l0.05 -0.14c0.65,-1.74 2.6,-2.63 4.34,-1.98l25.28 9.47c1.74,0.65 2.63,2.6 1.98,4.34l-0.05 0.14c-0.65,1.74 -2.6,2.63 -4.34,1.98z"/>
   <path class="fil29" d="M384.44 364.63l-0.89 -0.26c-0.83,-0.24 -1.72,-0.13 -2.46,0.29l-65.03 37.23c-1.53,0.88 -2.78,3.04 -2.79,4.8l-5.87 44.57c0,0.42 0.21,0.81 0.55,1.05l0.98 0.68 66.86 -38.8c1.53,-0.87 2.78,-3.03 2.78,-4.79l5.87 -44.78z"/>
   <path class="fil30" d="M385.24 366.41c0,-1.76 -1.25,-2.48 -2.77,-1.6l-65.61 37.88c-1.52,0.88 -2.78,3.04 -2.79,4.8l-6.15 43.61c-0.01,1.76 1.23,2.49 2.76,1.61l65.92 -37.71c1.53,-0.87 2.78,-3.03 2.78,-4.79l5.87 -43.8z"/>
   <path class="fil31" d="M352.32 405.15c-2.7,0.94 -5.65,4.31 -6.57,7.49 -0.92,3.18 0.53,5.02 3.22,4.08 2.69,-0.94 5.65,-4.32 6.57,-7.49 0.92,-3.18 -0.53,-5.01 -3.22,-4.08z"/>
   <path class="fil32" d="M278.8 369.48c-5.7,-10.3 -10.85,-22.13 -10.44,-30.73 0,0 -0.96,-33.23 -6.61,-33.5 -5.57,-0.25 -8.57,-6.15 -8.85,-0.49l-2.09 33.01c-1.13,23.48 6.14,46.63 20.47,65.25l2.89 3.36c7.73,-3.52 14.98,-7.83 21.29,-12.11 -6.19,-7.82 -11.83,-16.06 -16.66,-24.78z"/>
   <path class="fil26" d="M293.92 403.37l-8.57 -11.82c0,0 -17.89,-34.04 -16.99,-52.79l2.09 -33.01c0.27,-5.66 -4.09,-10.46 -9.75,-10.74 -5.57,-0.25 -10.46,4.09 -10.74,9.75l-2.09 33.01c-1.13,23.48 6.14,46.63 20.47,65.25l11.68 13.56 13.9 -13.21z"/>
   <path class="fil28" d="M279.14 254.93l-0.97 -0.19c-7.69,-1.54 -12.68,-9.02 -11.15,-16.71l7.33 -36.72 45.96 9.17 -3.91 19.58c-3.42,17.15 -20.11,28.28 -37.26,24.86z"/>
   <path class="fil33" d="M274.35 201.31l-0.13 0.67 42.6 8.5 -4.26 21.32c-2.72,13.62 -14.31,23.19 -27.56,23.97 14.66,0.87 28.1,-9.15 31.05,-23.97l4.26 -21.32 -45.96 -9.17z"/>
   <path class="fil16" d="M327.8 208.11c-0.78,-3.74 -3.99,-6.57 -7.81,-6.66 -3.3,-0.08 -7.26,-1.01 -10.2,-4.28 -4.2,-4.68 -10.85,-6.68 -17.02,-7.86 -6.17,-1.18 -13.27,0.3 -17.13,5.27 -2.51,-3.27 -7.87,-2.96 -11.1,-0.39 -3.23,2.56 -4.8,6.65 -6.02,10.58 -2.43,7.84 -4.03,16.23 -2.22,24.23 0.46,2.02 1.12,3.98 1.79,5.93 1.68,4.95 2.29,10.12 4.25,15.02 0.26,0.64 0.55,1.31 1.11,1.7 0.81,0.57 1.97,0.4 2.78,-0.18 0.81,-0.58 1.32,-1.47 1.74,-2.37 2.03,-4.32 -0.22,-6.7 -0.05,-11.12 0.09,-2.37 1.19,-4.85 3.3,-5.92 2.84,-1.44 6.19,0.04 9.33,0.59 7.36,1.29 23.21,-6.46 18.68,-15.93 10.22,2.78 24.73,4.18 28.55,-8.62z"/>
   <path class="fil34" d="M319.99 201.45c-3.3,-0.08 -7.26,-1.01 -10.2,-4.28 -4.2,-4.68 -10.85,-6.68 -17.02,-7.86 -6.17,-1.18 -13.27,0.3 -17.13,5.27 -2.51,-3.27 -7.87,-2.96 -11.1,-0.39 -0.74,0.59 -1.38,1.27 -1.96,2 3.24,-2.47 8.48,-2.74 10.96,0.49 3.85,-4.97 10.95,-6.45 17.13,-5.27 6.18,1.18 12.82,3.19 17.02,7.86 2.94,3.27 6.91,4.19 10.21,4.28 3.82,0.1 7.03,2.92 7.81,6.66 -0.62,2.07 -1.54,3.73 -2.65,5.12 2.11,-1.63 3.78,-3.96 4.75,-7.21 -0.78,-3.74 -3.99,-6.57 -7.81,-6.66z"/>
   <path class="fil35" d="M0.55 251.25c1.9,1.87 4.82,2.23 7.13,0.9l133.09 -76.95c2.08,-1.2 3.77,-4.14 3.77,-6.54l0 -12.54 7.18 -15.87c0.92,-2.04 -0.57,-4.36 -2.81,-4.36l-4.37 -0.01 0 -23.21c0,-2.24 -1.43,-4.23 -3.55,-4.95 -0.77,-0.26 -1.21,-0.03 -1.91,0.37l-134.99 78.02c-2.08,1.2 -4.09,3.98 -4.09,6.38l0 57.45c0,0.49 0.2,0.96 0.55,1.3z"/>
   <path class="fil36" d="M-0 248.87c0,2.4 1.7,3.38 3.77,2.18l134.39 -77.59c2.07,-1.2 3.77,-4.14 3.77,-6.54l0 -12.54 7.18 -15.87c0.92,-2.04 -0.57,-4.36 -2.81,-4.36l-4.37 -0.01 0 -23.47c0,-2.4 -1.7,-3.38 -3.77,-2.18l-134.39 77.59c-2.08,1.2 -3.77,4.14 -3.77,6.54l0 56.25z"/>
   <polygon class="fil37" points="133.24,140.06 55.5,184.8 55.49,189.84 133.24,145.18 "/>
   <polygon class="fil37" points="133.24,130.1 55.49,174.7 55.49,179.73 133.24,135.08 "/>
   <polygon class="fil37" points="98.74,139.94 55.49,164.68 55.49,169.71 98.74,144.92 "/>
   <polygon class="fil37" points="95.07,176.26 55.49,199.68 55.49,213.07 95.07,189.47 "/>
   <path class="fil16" d="M50.35 224.16l-46.57 26.89c-2.08,1.2 -3.77,0.22 -3.77,-2.18l0 -56.25c0,-2.4 1.7,-5.34 3.77,-6.54l46.57 -26.89 0 64.96z"/>
   <path class="fil20" d="M35.23 192.06c0.75,-0.43 1.4,-0.12 1.97,0.94 0.57,1.05 0.85,2.61 0.85,4.69 0,4.51 -1.12,8.88 -3.36,13.11 -2.24,4.23 -5.24,7.42 -9,9.56 -3.76,2.14 -6.92,2.4 -9.49,0.77 -2.57,-1.63 -3.86,-4.62 -3.86,-8.95 0,-4.33 1.21,-8.62 3.63,-12.88 2.42,-4.26 5.41,-7.4 8.98,-9.44 2.79,-1.59 5.25,-1.81 7.38,-0.66l1.7 -4.37c-1.11,-0.49 -2.52,-0.59 -4.23,-0.3 -1.71,0.29 -3.33,0.87 -4.85,1.73 -4.61,2.63 -8.48,6.62 -11.59,11.96 -3.11,5.33 -4.66,10.68 -4.66,16.03 0,5.35 1.64,8.99 4.91,10.91 3.28,1.92 7.22,1.56 11.84,-1.07 4.62,-2.63 8.47,-6.66 11.57,-12.06 3.1,-5.41 4.64,-10.83 4.64,-16.27 0,-3.52 -0.63,-5.98 -1.89,-7.39 -1.26,-1.41 -2.91,-1.53 -4.96,-0.36 -1.05,0.6 -2.01,1.51 -2.88,2.75 -0.87,1.23 -1.47,2.5 -1.8,3.81 -1.52,-1.4 -3.45,-1.44 -5.78,-0.11 -2.34,1.33 -4.37,3.51 -6.1,6.55 -1.73,3.03 -2.59,6.12 -2.59,9.27 0,3.15 0.78,5.36 2.34,6.62 1.56,1.27 3.61,1.17 6.16,-0.28 0.86,-0.49 1.67,-1.17 2.45,-2.04 0.77,-0.87 1.33,-1.61 1.66,-2.22l0.54 -0.93 0 1.97 5.18 -2.96 0 -15.29c0,-1.6 0.41,-2.63 1.24,-3.11zm-6.38 10.88l0 0c0,1.6 -0.37,3.14 -1.1,4.61 -0.73,1.47 -1.69,2.55 -2.88,3.23 -1.19,0.68 -2.14,0.69 -2.84,0.04 -0.7,-0.65 -1.06,-1.75 -1.06,-3.3 0,-1.55 0.36,-3.1 1.06,-4.65 0.71,-1.55 1.67,-2.68 2.88,-3.37 1.22,-0.7 2.18,-0.69 2.88,0.01 0.71,0.7 1.06,1.85 1.06,3.44z"/>
   <path class="fil38" d="M313.14 6.93l0 -2.52c0,-0.77 -0.39,-1.49 -1.04,-1.91l-2.74 -1.76c-1.45,-0.94 -3.31,-0.98 -4.8,-0.12l-112.3 64.94c-3.33,1.92 -6.05,6.64 -6.05,10.48l0 117.78c0,1.11 0.63,2.13 1.62,2.63l2.41 1.2 121.66 -70.24 1.24 -120.48z"/>
   <path class="fil16" d="M314.7 7.07c0,-3.84 -2.72,-5.42 -6.05,-3.49l-112.19 64.77c-3.33,1.92 -6.05,6.64 -6.05,10.48l0 118.73 124.3 -71.76 0 -118.73z"/>
   <path class="fil26" d="M196.45 68.35l112.19 -64.77c3.33,-1.92 6.05,-0.35 6.05,3.49l0 16.93 -124.3 71.76 0 -16.93c0,-3.84 2.72,-8.56 6.05,-10.48z"/>
   <path class="fil20" d="M224.56 61.54c1.25,-0.72 2.28,-0.13 2.28,1.32 0,1.45 -1.03,3.22 -2.28,3.95 -1.25,0.72 -2.28,0.13 -2.28,-1.32 0,-1.45 1.03,-3.22 2.28,-3.95z"/>
   <path class="fil20" d="M213.39 68.1c1.25,-0.72 2.28,-0.13 2.28,1.31 0,1.45 -1.03,3.22 -2.28,3.95 -1.25,0.72 -2.28,0.13 -2.28,-1.32 0,-1.45 1.02,-3.22 2.28,-3.95z"/>
   <path class="fil20" d="M202.22 74.66c1.25,-0.72 2.28,-0.13 2.28,1.32 0,1.45 -1.02,3.22 -2.28,3.95 -1.25,0.72 -2.28,0.13 -2.28,-1.32 0,-1.45 1.02,-3.22 2.28,-3.95z"/>
   <polygon class="fil20" points="253.04,69.18 196.14,102.03 196.14,105.76 253.04,72.91 "/>
   <polygon class="fil20" points="276,55.97 256.46,67.32 256.46,71.05 276,59.7 "/>
   <polygon class="fil39" points="266.23,72.29 249.99,81.69 249.99,85.42 266.23,76.02 "/>
   <polygon class="fil20" points="247.21,83.17 225.11,96.03 225.11,99.76 247.21,86.89 "/>
   <polygon class="fil20" points="244.5,95.77 196.14,123.69 196.14,127.42 244.5,99.5 "/>
   <polygon class="fil40" points="262.5,85.4 249.68,92.8 249.68,96.53 262.5,89.13 "/>
   <polygon class="fil20" points="308.96,58.66 268.33,82.11 268.33,85.84 308.96,62.39 "/>
   <polygon class="fil20" points="244.08,106.26 211.11,125.56 211.11,129.28 244.08,109.99 "/>
   <polygon class="fil41" points="255.39,99.63 246.52,104.8 246.52,108.53 255.39,103.36 "/>
   <polygon class="fil20" points="274.29,100.16 204.74,140.21 204.74,143.94 274.29,103.89 "/>
   <polygon class="fil20" points="303.4,83.54 277.69,98.3 277.69,102.02 303.4,87.27 "/>
   <polygon class="fil20" points="260.46,119.11 196.14,156.06 196.14,159.78 260.46,122.84 "/>
   <polygon class="fil20" points="290.54,101.81 263.85,117.25 263.85,120.97 290.54,105.54 "/>
   <polygon class="fil42" points="308.96,91.02 293.09,100.16 293.09,103.89 308.96,94.75 "/>
   <polygon class="fil43" points="216.69,154.35 207.55,159.58 207.55,163.31 216.69,158.08 "/>
   <polygon class="fil20" points="228.3,147.49 219.47,152.49 219.47,156.21 228.3,151.21 "/>
   <polygon class="fil20" points="257.55,142.08 196.14,177.63 196.14,181.36 257.55,145.8 "/>
   <polygon class="fil20" points="285.13,126.25 265.55,137.58 265.55,141.31 285.13,129.98 "/>
   <polygon class="fil44" points="308.96,112.6 298.7,118.46 298.7,122.18 308.96,116.33 "/>
   <path class="fil45" d="M191.16 258.65l0.35 0.48c0.66,0.9 1.01,1.98 1.01,3.1l0 65.67c0,2.78 -1.97,6.18 -4.37,7.57l-83.73 48.19c-1.12,0.65 -2.43,0.89 -3.71,0.68l-0.18 -0.03c-2.68,-0.44 -4.64,-2.76 -4.64,-5.47l0 -66.62c0,-2.78 1.97,-6.18 4.38,-7.55l83.44 -47.6c2.52,-1.44 5.72,-0.76 7.44,1.58z"/>
   <path class="fil20" d="M188.15 259.25c2.41,-1.38 4.38,-0.23 4.38,2.54l0 65.77c0,2.78 -1.97,6.18 -4.37,7.57l-83.85 48.41c-2.4,1.39 -4.37,0.25 -4.37,-2.52l0 -66.27c0,-2.78 1.97,-6.18 4.38,-7.56l83.83 -47.94z"/>
   <path class="fil46" d="M162.09 291.57c4.14,-2.39 7.52,-0.49 7.52,4.21 0,4.71 -3.39,10.66 -7.52,13.23 -4.14,2.57 -7.52,0.67 -7.52,-4.21 0,-4.89 3.39,-10.84 7.52,-13.23z"/>
   <path class="fil16" d="M118.02 321.4l20.66 15.24 8.55 -16.27 20.53 8.64 24.76 -13.44 0 11.99c0,2.78 -1.97,6.18 -4.37,7.57l-83.85 48.41c-2.4,1.39 -4.37,0.25 -4.37,-2.52l0 -10.66 0 -17.03 18.08 -31.92z"/>
   <polygon class="fil15" points="117.93,321.54 117.93,341.98 123.07,334.93 130.13,339.85 130.13,337.95 138.68,336.64 118.02,321.4 "/>
   <polygon class="fil15" points="147.24,320.36 147.24,325.3 151.51,325.3 152.37,329 154.57,326.37 167.77,329 "/>
   <path class="fil20" d="M375.07 165.14l159.67 -92c2,-1.16 4.5,0.28 4.5,2.59l0 113.52c0,3.16 -1.68,6.08 -4.41,7.66l-159.67 92.73c-2,1.16 -4.5,-0.28 -4.5,-2.59l0 -114.25c0,-3.16 1.68,-6.08 4.41,-7.66z"/>
   <path class="fil47" d="M374.51 289.62l0 -114.25c0,-3.16 1.68,-6.08 4.41,-7.66l159.67 -92c0.2,-0.12 0.41,-0.19 0.62,-0.25 -0.2,-2.14 -2.55,-3.42 -4.47,-2.31l-159.67 92c-2.73,1.59 -4.41,4.51 -4.41,7.66l0 114.25c0,2.08 2.03,3.44 3.89,2.85 -0.01,-0.1 -0.04,-0.18 -0.04,-0.28z"/>
   <path class="fil48" d="M378.58 205.77l150.67 -85.87 -0.05 3.37 -150.62 85.86 0 -3.35zm0 -12.63l0 0 28.95 -16.48 -0.05 -5.05 -28.9 16.47 0 5.06zm0.31 30.62l0 0 150.62 -85.86 0.05 -3.37 -150.66 85.87 0 3.35zm0.31 14.64l0 0 150.62 -85.86 0.05 -3.37 -150.67 85.87 0 3.35zm0.31 14.64l0 0 150.62 -85.86 0.05 -3.37 -150.67 85.87 0 3.35zm0 14.83l0 0 85.51 -48.77 0.05 -3.37 -85.56 48.76 0 3.37z"/>
  </g>
 </g>
</svg>
